<?xml version="1.0" encoding="utf-8" standalone="no"?>
<!DOCTYPE svg PUBLIC "-//W3C//DTD SVG 1.1//EN"
  "http://www.w3.org/Graphics/SVG/1.1/DTD/svg11.dtd">
<svg xmlns:xlink="http://www.w3.org/1999/xlink" width="570.4pt" height="426.4pt" viewBox="0 0 570.4 426.4" xmlns="http://www.w3.org/2000/svg" version="1.1">
 <metadata>
  <rdf:RDF xmlns:dc="http://purl.org/dc/elements/1.1/" xmlns:cc="http://creativecommons.org/ns#" xmlns:rdf="http://www.w3.org/1999/02/22-rdf-syntax-ns#">
   <cc:Work>
    <dc:type rdf:resource="http://purl.org/dc/dcmitype/StillImage"/>
    <dc:date>2024-11-27T16:12:23.594410</dc:date>
    <dc:format>image/svg+xml</dc:format>
    <dc:creator>
     <cc:Agent>
      <dc:title>Matplotlib v3.9.0, https://matplotlib.org/</dc:title>
     </cc:Agent>
    </dc:creator>
   </cc:Work>
  </rdf:RDF>
 </metadata>
 <defs>
  <style type="text/css">*{stroke-linejoin: round; stroke-linecap: butt}</style>
 </defs>
 <g id="figure_1">
  <g id="patch_1">
   <path d="M 0 426.4 
L 570.4 426.4 
L 570.4 0 
L 0 0 
z
" style="fill: #ffffff"/>
  </g>
  <g id="axes_1">
   <g id="patch_2">
    <path d="M 90.2025 323.000312 
L 553.02 323.000312 
L 553.02 19.3575 
L 90.2025 19.3575 
z
" style="fill: #ffffff"/>
   </g>
   <g id="matplotlib.axis_1">
    <g id="xtick_1">
     <g id="line2d_1">
      <defs>
       <path id="mf8811c5f38" d="M 0 0 
L 0 6 
" style="stroke: #000000"/>
      </defs>
      <g>
       <use xlink:href="#mf8811c5f38" x="90.2025" y="323.000312" style="stroke: #000000"/>
      </g>
     </g>
     <g id="text_1">
      <!-- -5 -->
      <g transform="translate(74.25 355.315313) scale(0.32 -0.32)">
       <defs>
        <path id="DejaVuSans-2d" d="M 313 2009 
L 1997 2009 
L 1997 1497 
L 313 1497 
L 313 2009 
z
" transform="scale(0.015625)"/>
        <path id="DejaVuSans-35" d="M 691 4666 
L 3169 4666 
L 3169 4134 
L 1269 4134 
L 1269 2991 
Q 1406 3038 1543 3061 
Q 1681 3084 1819 3084 
Q 2600 3084 3056 2656 
Q 3513 2228 3513 1497 
Q 3513 744 3044 326 
Q 2575 -91 1722 -91 
Q 1428 -91 1123 -41 
Q 819 9 494 109 
L 494 744 
Q 775 591 1075 516 
Q 1375 441 1709 441 
Q 2250 441 2565 725 
Q 2881 1009 2881 1497 
Q 2881 1984 2565 2268 
Q 2250 2553 1709 2553 
Q 1456 2553 1204 2497 
Q 953 2441 691 2322 
L 691 4666 
z
" transform="scale(0.015625)"/>
       </defs>
       <use xlink:href="#DejaVuSans-2d"/>
       <use xlink:href="#DejaVuSans-35" x="36.083984"/>
      </g>
     </g>
    </g>
    <g id="xtick_2">
     <g id="line2d_2">
      <g>
       <use xlink:href="#mf8811c5f38" x="136.48425" y="323.000312" style="stroke: #000000"/>
      </g>
     </g>
     <g id="text_2">
      <!-- -4 -->
      <g transform="translate(120.53175 355.315313) scale(0.32 -0.32)">
       <defs>
        <path id="DejaVuSans-34" d="M 2419 4116 
L 825 1625 
L 2419 1625 
L 2419 4116 
z
M 2253 4666 
L 3047 4666 
L 3047 1625 
L 3713 1625 
L 3713 1100 
L 3047 1100 
L 3047 0 
L 2419 0 
L 2419 1100 
L 313 1100 
L 313 1709 
L 2253 4666 
z
" transform="scale(0.015625)"/>
       </defs>
       <use xlink:href="#DejaVuSans-2d"/>
       <use xlink:href="#DejaVuSans-34" x="36.083984"/>
      </g>
     </g>
    </g>
    <g id="xtick_3">
     <g id="line2d_3">
      <g>
       <use xlink:href="#mf8811c5f38" x="182.766" y="323.000312" style="stroke: #000000"/>
      </g>
     </g>
     <g id="text_3">
      <!-- -3 -->
      <g transform="translate(166.8135 355.315313) scale(0.32 -0.32)">
       <defs>
        <path id="DejaVuSans-33" d="M 2597 2516 
Q 3050 2419 3304 2112 
Q 3559 1806 3559 1356 
Q 3559 666 3084 287 
Q 2609 -91 1734 -91 
Q 1441 -91 1130 -33 
Q 819 25 488 141 
L 488 750 
Q 750 597 1062 519 
Q 1375 441 1716 441 
Q 2309 441 2620 675 
Q 2931 909 2931 1356 
Q 2931 1769 2642 2001 
Q 2353 2234 1838 2234 
L 1294 2234 
L 1294 2753 
L 1863 2753 
Q 2328 2753 2575 2939 
Q 2822 3125 2822 3475 
Q 2822 3834 2567 4026 
Q 2313 4219 1838 4219 
Q 1578 4219 1281 4162 
Q 984 4106 628 3988 
L 628 4550 
Q 988 4650 1302 4700 
Q 1616 4750 1894 4750 
Q 2613 4750 3031 4423 
Q 3450 4097 3450 3541 
Q 3450 3153 3228 2886 
Q 3006 2619 2597 2516 
z
" transform="scale(0.015625)"/>
       </defs>
       <use xlink:href="#DejaVuSans-2d"/>
       <use xlink:href="#DejaVuSans-33" x="36.083984"/>
      </g>
     </g>
    </g>
    <g id="xtick_4">
     <g id="line2d_4">
      <g>
       <use xlink:href="#mf8811c5f38" x="229.04775" y="323.000312" style="stroke: #000000"/>
      </g>
     </g>
     <g id="text_4">
      <!-- -2 -->
      <g transform="translate(213.09525 355.315313) scale(0.32 -0.32)">
       <defs>
        <path id="DejaVuSans-32" d="M 1228 531 
L 3431 531 
L 3431 0 
L 469 0 
L 469 531 
Q 828 903 1448 1529 
Q 2069 2156 2228 2338 
Q 2531 2678 2651 2914 
Q 2772 3150 2772 3378 
Q 2772 3750 2511 3984 
Q 2250 4219 1831 4219 
Q 1534 4219 1204 4116 
Q 875 4013 500 3803 
L 500 4441 
Q 881 4594 1212 4672 
Q 1544 4750 1819 4750 
Q 2544 4750 2975 4387 
Q 3406 4025 3406 3419 
Q 3406 3131 3298 2873 
Q 3191 2616 2906 2266 
Q 2828 2175 2409 1742 
Q 1991 1309 1228 531 
z
" transform="scale(0.015625)"/>
       </defs>
       <use xlink:href="#DejaVuSans-2d"/>
       <use xlink:href="#DejaVuSans-32" x="36.083984"/>
      </g>
     </g>
    </g>
    <g id="xtick_5">
     <g id="line2d_5">
      <g>
       <use xlink:href="#mf8811c5f38" x="275.3295" y="323.000312" style="stroke: #000000"/>
      </g>
     </g>
     <g id="text_5">
      <!-- -1 -->
      <g transform="translate(259.377 355.315313) scale(0.32 -0.32)">
       <defs>
        <path id="DejaVuSans-31" d="M 794 531 
L 1825 531 
L 1825 4091 
L 703 3866 
L 703 4441 
L 1819 4666 
L 2450 4666 
L 2450 531 
L 3481 531 
L 3481 0 
L 794 0 
L 794 531 
z
" transform="scale(0.015625)"/>
       </defs>
       <use xlink:href="#DejaVuSans-2d"/>
       <use xlink:href="#DejaVuSans-31" x="36.083984"/>
      </g>
     </g>
    </g>
    <g id="xtick_6">
     <g id="line2d_6">
      <g>
       <use xlink:href="#mf8811c5f38" x="321.61125" y="323.000312" style="stroke: #000000"/>
      </g>
     </g>
     <g id="text_6">
      <!-- 0 -->
      <g transform="translate(311.43125 355.315313) scale(0.32 -0.32)">
       <defs>
        <path id="DejaVuSans-30" d="M 2034 4250 
Q 1547 4250 1301 3770 
Q 1056 3291 1056 2328 
Q 1056 1369 1301 889 
Q 1547 409 2034 409 
Q 2525 409 2770 889 
Q 3016 1369 3016 2328 
Q 3016 3291 2770 3770 
Q 2525 4250 2034 4250 
z
M 2034 4750 
Q 2819 4750 3233 4129 
Q 3647 3509 3647 2328 
Q 3647 1150 3233 529 
Q 2819 -91 2034 -91 
Q 1250 -91 836 529 
Q 422 1150 422 2328 
Q 422 3509 836 4129 
Q 1250 4750 2034 4750 
z
" transform="scale(0.015625)"/>
       </defs>
       <use xlink:href="#DejaVuSans-30"/>
      </g>
     </g>
    </g>
    <g id="xtick_7">
     <g id="line2d_7">
      <g>
       <use xlink:href="#mf8811c5f38" x="367.893" y="323.000312" style="stroke: #000000"/>
      </g>
     </g>
     <g id="text_7">
      <!-- 1 -->
      <g transform="translate(357.713 355.315313) scale(0.32 -0.32)">
       <use xlink:href="#DejaVuSans-31"/>
      </g>
     </g>
    </g>
    <g id="xtick_8">
     <g id="line2d_8">
      <g>
       <use xlink:href="#mf8811c5f38" x="414.17475" y="323.000312" style="stroke: #000000"/>
      </g>
     </g>
     <g id="text_8">
      <!-- 2 -->
      <g transform="translate(403.99475 355.315313) scale(0.32 -0.32)">
       <use xlink:href="#DejaVuSans-32"/>
      </g>
     </g>
    </g>
    <g id="xtick_9">
     <g id="line2d_9">
      <g>
       <use xlink:href="#mf8811c5f38" x="460.4565" y="323.000312" style="stroke: #000000"/>
      </g>
     </g>
     <g id="text_9">
      <!-- 3 -->
      <g transform="translate(450.2765 355.315313) scale(0.32 -0.32)">
       <use xlink:href="#DejaVuSans-33"/>
      </g>
     </g>
    </g>
    <g id="xtick_10">
     <g id="line2d_10">
      <g>
       <use xlink:href="#mf8811c5f38" x="506.73825" y="323.000312" style="stroke: #000000"/>
      </g>
     </g>
     <g id="text_10">
      <!-- 4 -->
      <g transform="translate(496.55825 355.315313) scale(0.32 -0.32)">
       <use xlink:href="#DejaVuSans-34"/>
      </g>
     </g>
    </g>
    <g id="xtick_11">
     <g id="line2d_11">
      <g>
       <use xlink:href="#mf8811c5f38" x="553.02" y="323.000312" style="stroke: #000000"/>
      </g>
     </g>
     <g id="text_11">
      <!-- 5 -->
      <g transform="translate(542.84 355.315313) scale(0.32 -0.32)">
       <use xlink:href="#DejaVuSans-35"/>
      </g>
     </g>
    </g>
    <g id="text_12">
     <!-- $\Delta K$ -->
     <g transform="translate(284.76125 407.761719) scale(0.55 -0.55)">
      <defs>
       <path id="DejaVuSans-394" d="M 2188 4044 
L 906 525 
L 3472 525 
L 2188 4044 
z
M 50 0 
L 1831 4666 
L 2547 4666 
L 4325 0 
L 50 0 
z
" transform="scale(0.015625)"/>
       <path id="DejaVuSans-Oblique-4b" d="M 1081 4666 
L 1716 4666 
L 1331 2700 
L 3781 4666 
L 4622 4666 
L 1850 2438 
L 3878 0 
L 3109 0 
L 1247 2272 
L 806 0 
L 172 0 
L 1081 4666 
z
" transform="scale(0.015625)"/>
      </defs>
      <use xlink:href="#DejaVuSans-394" transform="translate(0 0.09375)"/>
      <use xlink:href="#DejaVuSans-Oblique-4b" transform="translate(68.408203 0.09375)"/>
     </g>
    </g>
   </g>
   <g id="matplotlib.axis_2">
    <g id="ytick_1">
     <g id="line2d_12">
      <defs>
       <path id="m5659f8a11c" d="M 0 0 
L -6 0 
" style="stroke: #000000"/>
      </defs>
      <g>
       <use xlink:href="#m5659f8a11c" x="90.2025" y="323.000312" style="stroke: #000000"/>
      </g>
     </g>
     <g id="text_13">
      <!-- 0 -->
      <g transform="translate(61.8425 335.157812) scale(0.32 -0.32)">
       <use xlink:href="#DejaVuSans-30"/>
      </g>
     </g>
    </g>
    <g id="ytick_2">
     <g id="line2d_13">
      <g>
       <use xlink:href="#m5659f8a11c" x="90.2025" y="171.178906" style="stroke: #000000"/>
      </g>
     </g>
     <g id="text_14">
      <!-- 0.5 -->
      <g transform="translate(31.3125 183.336406) scale(0.32 -0.32)">
       <defs>
        <path id="DejaVuSans-2e" d="M 684 794 
L 1344 794 
L 1344 0 
L 684 0 
L 684 794 
z
" transform="scale(0.015625)"/>
       </defs>
       <use xlink:href="#DejaVuSans-30"/>
       <use xlink:href="#DejaVuSans-2e" x="63.623047"/>
       <use xlink:href="#DejaVuSans-35" x="95.410156"/>
      </g>
     </g>
    </g>
    <g id="ytick_3">
     <g id="line2d_14">
      <g>
       <use xlink:href="#m5659f8a11c" x="90.2025" y="19.3575" style="stroke: #000000"/>
      </g>
     </g>
     <g id="text_15">
      <!-- 1 -->
      <g transform="translate(61.8425 31.515) scale(0.32 -0.32)">
       <use xlink:href="#DejaVuSans-31"/>
      </g>
     </g>
    </g>
    <g id="text_16">
     <!-- J -->
     <g transform="translate(7.2 186.355469) scale(0.55 -0.55)">
      <defs>
       <path id="DejaVuSans-4a" d="M 628 4666 
L 1259 4666 
L 1259 325 
Q 1259 -519 939 -900 
Q 619 -1281 -91 -1281 
L -331 -1281 
L -331 -750 
L -134 -750 
Q 284 -750 456 -515 
Q 628 -281 628 325 
L 628 4666 
z
" transform="scale(0.015625)"/>
      </defs>
      <use xlink:href="#DejaVuSans-4a"/>
     </g>
    </g>
   </g>
   <g id="line2d_15">
    <path d="M -1 19.3575 
L 2.267175 19.3575 
L 25.40805 38.250831 
L 48.548925 22.731309 
L 71.6898 23.406071 
L 94.830675 19.3575 
L 117.97155 19.3575 
L 141.112425 36.226545 
L 164.2533 40.178721 
L 187.394175 26.94857 
L 210.53505 23.695254 
L 233.675925 19.3575 
L 256.8168 19.3575 
L 279.957675 34.539641 
L 303.09855 117.679935 
L 326.239425 295.672459 
L 349.3803 61.108387 
L 372.521175 19.3575 
L 395.66205 34.20226 
L 418.802925 19.3575 
L 441.9438 19.3575 
L 465.084675 19.3575 
L 488.22555 19.3575 
L 511.366425 26.105118 
L 534.5073 39.600354 
L 557.648175 19.3575 
L 571.4 19.3575 
" clip-path="url(#p8240cdbd4d)" style="fill: none; stroke: #1b9e77; stroke-width: 3; stroke-linecap: square"/>
    <defs>
     <path id="ma49b7b5371" d="M 0 4 
C 1.060812 4 2.078319 3.578535 2.828427 2.828427 
C 3.578535 2.078319 4 1.060812 4 0 
C 4 -1.060812 3.578535 -2.078319 2.828427 -2.828427 
C 2.078319 -3.578535 1.060812 -4 0 -4 
C -1.060812 -4 -2.078319 -3.578535 -2.828427 -2.828427 
C -3.578535 -2.078319 -4 -1.060812 -4 0 
C -4 1.060812 -3.578535 2.078319 -2.828427 2.828427 
C -2.078319 3.578535 -1.060812 4 0 4 
z
" style="stroke: #1b9e77"/>
    </defs>
    <g clip-path="url(#p8240cdbd4d)">
     <use xlink:href="#ma49b7b5371" x="-1" y="19.3575" style="fill: #1b9e77; stroke: #1b9e77"/>
     <use xlink:href="#ma49b7b5371" x="2.267175" y="19.3575" style="fill: #1b9e77; stroke: #1b9e77"/>
     <use xlink:href="#ma49b7b5371" x="25.40805" y="38.250831" style="fill: #1b9e77; stroke: #1b9e77"/>
     <use xlink:href="#ma49b7b5371" x="48.548925" y="22.731309" style="fill: #1b9e77; stroke: #1b9e77"/>
     <use xlink:href="#ma49b7b5371" x="71.6898" y="23.406071" style="fill: #1b9e77; stroke: #1b9e77"/>
     <use xlink:href="#ma49b7b5371" x="94.830675" y="19.3575" style="fill: #1b9e77; stroke: #1b9e77"/>
     <use xlink:href="#ma49b7b5371" x="117.97155" y="19.3575" style="fill: #1b9e77; stroke: #1b9e77"/>
     <use xlink:href="#ma49b7b5371" x="141.112425" y="36.226545" style="fill: #1b9e77; stroke: #1b9e77"/>
     <use xlink:href="#ma49b7b5371" x="164.2533" y="40.178721" style="fill: #1b9e77; stroke: #1b9e77"/>
     <use xlink:href="#ma49b7b5371" x="187.394175" y="26.94857" style="fill: #1b9e77; stroke: #1b9e77"/>
     <use xlink:href="#ma49b7b5371" x="210.53505" y="23.695254" style="fill: #1b9e77; stroke: #1b9e77"/>
     <use xlink:href="#ma49b7b5371" x="233.675925" y="19.3575" style="fill: #1b9e77; stroke: #1b9e77"/>
     <use xlink:href="#ma49b7b5371" x="256.8168" y="19.3575" style="fill: #1b9e77; stroke: #1b9e77"/>
     <use xlink:href="#ma49b7b5371" x="279.957675" y="34.539641" style="fill: #1b9e77; stroke: #1b9e77"/>
     <use xlink:href="#ma49b7b5371" x="303.09855" y="117.679935" style="fill: #1b9e77; stroke: #1b9e77"/>
     <use xlink:href="#ma49b7b5371" x="326.239425" y="295.672459" style="fill: #1b9e77; stroke: #1b9e77"/>
     <use xlink:href="#ma49b7b5371" x="349.3803" y="61.108387" style="fill: #1b9e77; stroke: #1b9e77"/>
     <use xlink:href="#ma49b7b5371" x="372.521175" y="19.3575" style="fill: #1b9e77; stroke: #1b9e77"/>
     <use xlink:href="#ma49b7b5371" x="395.66205" y="34.20226" style="fill: #1b9e77; stroke: #1b9e77"/>
     <use xlink:href="#ma49b7b5371" x="418.802925" y="19.3575" style="fill: #1b9e77; stroke: #1b9e77"/>
     <use xlink:href="#ma49b7b5371" x="441.9438" y="19.3575" style="fill: #1b9e77; stroke: #1b9e77"/>
     <use xlink:href="#ma49b7b5371" x="465.084675" y="19.3575" style="fill: #1b9e77; stroke: #1b9e77"/>
     <use xlink:href="#ma49b7b5371" x="488.22555" y="19.3575" style="fill: #1b9e77; stroke: #1b9e77"/>
     <use xlink:href="#ma49b7b5371" x="511.366425" y="26.105118" style="fill: #1b9e77; stroke: #1b9e77"/>
     <use xlink:href="#ma49b7b5371" x="534.5073" y="39.600354" style="fill: #1b9e77; stroke: #1b9e77"/>
     <use xlink:href="#ma49b7b5371" x="557.648175" y="19.3575" style="fill: #1b9e77; stroke: #1b9e77"/>
     <use xlink:href="#ma49b7b5371" x="580.78905" y="19.3575" style="fill: #1b9e77; stroke: #1b9e77"/>
     <use xlink:href="#ma49b7b5371" x="603.929925" y="43.938109" style="fill: #1b9e77; stroke: #1b9e77"/>
     <use xlink:href="#ma49b7b5371" x="627.0708" y="19.3575" style="fill: #1b9e77; stroke: #1b9e77"/>
     <use xlink:href="#ma49b7b5371" x="650.211675" y="19.3575" style="fill: #1b9e77; stroke: #1b9e77"/>
     <use xlink:href="#ma49b7b5371" x="673.35255" y="23.855912" style="fill: #1b9e77; stroke: #1b9e77"/>
     <use xlink:href="#ma49b7b5371" x="696.493425" y="19.3575" style="fill: #1b9e77; stroke: #1b9e77"/>
     <use xlink:href="#ma49b7b5371" x="719.6343" y="19.3575" style="fill: #1b9e77; stroke: #1b9e77"/>
     <use xlink:href="#ma49b7b5371" x="742.775175" y="19.3575" style="fill: #1b9e77; stroke: #1b9e77"/>
     <use xlink:href="#ma49b7b5371" x="765.91605" y="19.3575" style="fill: #1b9e77; stroke: #1b9e77"/>
     <use xlink:href="#ma49b7b5371" x="789.056925" y="19.3575" style="fill: #1b9e77; stroke: #1b9e77"/>
     <use xlink:href="#ma49b7b5371" x="812.1978" y="19.3575" style="fill: #1b9e77; stroke: #1b9e77"/>
     <use xlink:href="#ma49b7b5371" x="835.338675" y="19.3575" style="fill: #1b9e77; stroke: #1b9e77"/>
     <use xlink:href="#ma49b7b5371" x="858.47955" y="31.888791" style="fill: #1b9e77; stroke: #1b9e77"/>
     <use xlink:href="#ma49b7b5371" x="881.620425" y="24.418214" style="fill: #1b9e77; stroke: #1b9e77"/>
     <use xlink:href="#ma49b7b5371" x="904.7613" y="19.3575" style="fill: #1b9e77; stroke: #1b9e77"/>
     <use xlink:href="#ma49b7b5371" x="927.902175" y="19.3575" style="fill: #1b9e77; stroke: #1b9e77"/>
     <use xlink:href="#ma49b7b5371" x="951.04305" y="19.3575" style="fill: #1b9e77; stroke: #1b9e77"/>
     <use xlink:href="#ma49b7b5371" x="974.183925" y="19.3575" style="fill: #1b9e77; stroke: #1b9e77"/>
     <use xlink:href="#ma49b7b5371" x="997.3248" y="24.418214" style="fill: #1b9e77; stroke: #1b9e77"/>
     <use xlink:href="#ma49b7b5371" x="1020.465675" y="19.3575" style="fill: #1b9e77; stroke: #1b9e77"/>
     <use xlink:href="#ma49b7b5371" x="1043.60655" y="19.3575" style="fill: #1b9e77; stroke: #1b9e77"/>
     <use xlink:href="#ma49b7b5371" x="1066.747425" y="19.3575" style="fill: #1b9e77; stroke: #1b9e77"/>
     <use xlink:href="#ma49b7b5371" x="1089.8883" y="19.3575" style="fill: #1b9e77; stroke: #1b9e77"/>
     <use xlink:href="#ma49b7b5371" x="1113.029175" y="25.141173" style="fill: #1b9e77; stroke: #1b9e77"/>
     <use xlink:href="#ma49b7b5371" x="1136.17005" y="25.141173" style="fill: #1b9e77; stroke: #1b9e77"/>
     <use xlink:href="#ma49b7b5371" x="1159.310925" y="19.3575" style="fill: #1b9e77; stroke: #1b9e77"/>
     <use xlink:href="#ma49b7b5371" x="1182.4518" y="19.3575" style="fill: #1b9e77; stroke: #1b9e77"/>
     <use xlink:href="#ma49b7b5371" x="1205.592675" y="19.3575" style="fill: #1b9e77; stroke: #1b9e77"/>
     <use xlink:href="#ma49b7b5371" x="1228.73355" y="19.3575" style="fill: #1b9e77; stroke: #1b9e77"/>
    </g>
   </g>
   <g id="patch_3">
    <path d="M 90.2025 323.000312 
L 90.2025 19.3575 
" style="fill: none; stroke: #000000; stroke-linejoin: miter; stroke-linecap: square"/>
   </g>
   <g id="patch_4">
    <path d="M 553.02 323.000312 
L 553.02 19.3575 
" style="fill: none; stroke: #000000; stroke-linejoin: miter; stroke-linecap: square"/>
   </g>
   <g id="patch_5">
    <path d="M 90.2025 323.000312 
L 553.02 323.000312 
" style="fill: none; stroke: #000000; stroke-linejoin: miter; stroke-linecap: square"/>
   </g>
   <g id="patch_6">
    <path d="M 90.2025 19.3575 
L 553.02 19.3575 
" style="fill: none; stroke: #000000; stroke-linejoin: miter; stroke-linecap: square"/>
   </g>
  </g>
 </g>
 <defs>
  <clipPath id="p8240cdbd4d">
   <rect x="90.2025" y="19.3575" width="462.8175" height="303.642812"/>
  </clipPath>
 </defs>
</svg>
