<?xml version="1.0" encoding="utf-8" standalone="no"?>
<!DOCTYPE svg PUBLIC "-//W3C//DTD SVG 1.1//EN"
  "http://www.w3.org/Graphics/SVG/1.1/DTD/svg11.dtd">
<svg xmlns:xlink="http://www.w3.org/1999/xlink" width="570.4pt" height="426.4pt" viewBox="0 0 570.4 426.4" xmlns="http://www.w3.org/2000/svg" version="1.1">
 <metadata>
  <rdf:RDF xmlns:dc="http://purl.org/dc/elements/1.1/" xmlns:cc="http://creativecommons.org/ns#" xmlns:rdf="http://www.w3.org/1999/02/22-rdf-syntax-ns#">
   <cc:Work>
    <dc:type rdf:resource="http://purl.org/dc/dcmitype/StillImage"/>
    <dc:date>2024-11-27T16:11:58.186692</dc:date>
    <dc:format>image/svg+xml</dc:format>
    <dc:creator>
     <cc:Agent>
      <dc:title>Matplotlib v3.9.0, https://matplotlib.org/</dc:title>
     </cc:Agent>
    </dc:creator>
   </cc:Work>
  </rdf:RDF>
 </metadata>
 <defs>
  <style type="text/css">*{stroke-linejoin: round; stroke-linecap: butt}</style>
 </defs>
 <g id="figure_1">
  <g id="patch_1">
   <path d="M 0 426.4 
L 570.4 426.4 
L 570.4 0 
L 0 0 
z
" style="fill: #ffffff"/>
  </g>
  <g id="axes_1">
   <g id="patch_2">
    <path d="M 90.2025 323.000312 
L 553.02 323.000312 
L 553.02 19.3575 
L 90.2025 19.3575 
z
" style="fill: #ffffff"/>
   </g>
   <g id="matplotlib.axis_1">
    <g id="xtick_1">
     <g id="line2d_1">
      <defs>
       <path id="m84cad5ee2c" d="M 0 0 
L 0 6 
" style="stroke: #000000"/>
      </defs>
      <g>
       <use xlink:href="#m84cad5ee2c" x="90.2025" y="323.000312" style="stroke: #000000"/>
      </g>
     </g>
     <g id="text_1">
      <!-- -2 -->
      <g transform="translate(74.25 355.315313) scale(0.32 -0.32)">
       <defs>
        <path id="DejaVuSans-2d" d="M 313 2009 
L 1997 2009 
L 1997 1497 
L 313 1497 
L 313 2009 
z
" transform="scale(0.015625)"/>
        <path id="DejaVuSans-32" d="M 1228 531 
L 3431 531 
L 3431 0 
L 469 0 
L 469 531 
Q 828 903 1448 1529 
Q 2069 2156 2228 2338 
Q 2531 2678 2651 2914 
Q 2772 3150 2772 3378 
Q 2772 3750 2511 3984 
Q 2250 4219 1831 4219 
Q 1534 4219 1204 4116 
Q 875 4013 500 3803 
L 500 4441 
Q 881 4594 1212 4672 
Q 1544 4750 1819 4750 
Q 2544 4750 2975 4387 
Q 3406 4025 3406 3419 
Q 3406 3131 3298 2873 
Q 3191 2616 2906 2266 
Q 2828 2175 2409 1742 
Q 1991 1309 1228 531 
z
" transform="scale(0.015625)"/>
       </defs>
       <use xlink:href="#DejaVuSans-2d"/>
       <use xlink:href="#DejaVuSans-32" x="36.083984"/>
      </g>
     </g>
    </g>
    <g id="xtick_2">
     <g id="line2d_2">
      <g>
       <use xlink:href="#m84cad5ee2c" x="205.906875" y="323.000312" style="stroke: #000000"/>
      </g>
     </g>
     <g id="text_2">
      <!-- -1 -->
      <g transform="translate(189.954375 355.315313) scale(0.32 -0.32)">
       <defs>
        <path id="DejaVuSans-31" d="M 794 531 
L 1825 531 
L 1825 4091 
L 703 3866 
L 703 4441 
L 1819 4666 
L 2450 4666 
L 2450 531 
L 3481 531 
L 3481 0 
L 794 0 
L 794 531 
z
" transform="scale(0.015625)"/>
       </defs>
       <use xlink:href="#DejaVuSans-2d"/>
       <use xlink:href="#DejaVuSans-31" x="36.083984"/>
      </g>
     </g>
    </g>
    <g id="xtick_3">
     <g id="line2d_3">
      <g>
       <use xlink:href="#m84cad5ee2c" x="321.61125" y="323.000312" style="stroke: #000000"/>
      </g>
     </g>
     <g id="text_3">
      <!-- 0 -->
      <g transform="translate(311.43125 355.315313) scale(0.32 -0.32)">
       <defs>
        <path id="DejaVuSans-30" d="M 2034 4250 
Q 1547 4250 1301 3770 
Q 1056 3291 1056 2328 
Q 1056 1369 1301 889 
Q 1547 409 2034 409 
Q 2525 409 2770 889 
Q 3016 1369 3016 2328 
Q 3016 3291 2770 3770 
Q 2525 4250 2034 4250 
z
M 2034 4750 
Q 2819 4750 3233 4129 
Q 3647 3509 3647 2328 
Q 3647 1150 3233 529 
Q 2819 -91 2034 -91 
Q 1250 -91 836 529 
Q 422 1150 422 2328 
Q 422 3509 836 4129 
Q 1250 4750 2034 4750 
z
" transform="scale(0.015625)"/>
       </defs>
       <use xlink:href="#DejaVuSans-30"/>
      </g>
     </g>
    </g>
    <g id="xtick_4">
     <g id="line2d_4">
      <g>
       <use xlink:href="#m84cad5ee2c" x="437.315625" y="323.000312" style="stroke: #000000"/>
      </g>
     </g>
     <g id="text_4">
      <!-- 1 -->
      <g transform="translate(427.135625 355.315313) scale(0.32 -0.32)">
       <use xlink:href="#DejaVuSans-31"/>
      </g>
     </g>
    </g>
    <g id="xtick_5">
     <g id="line2d_5">
      <g>
       <use xlink:href="#m84cad5ee2c" x="553.02" y="323.000312" style="stroke: #000000"/>
      </g>
     </g>
     <g id="text_5">
      <!-- 2 -->
      <g transform="translate(542.84 355.315313) scale(0.32 -0.32)">
       <use xlink:href="#DejaVuSans-32"/>
      </g>
     </g>
    </g>
    <g id="text_6">
     <!-- $\Delta\alpha$ -->
     <g transform="translate(284.48625 407.761719) scale(0.55 -0.55)">
      <defs>
       <path id="DejaVuSans-394" d="M 2188 4044 
L 906 525 
L 3472 525 
L 2188 4044 
z
M 50 0 
L 1831 4666 
L 2547 4666 
L 4325 0 
L 50 0 
z
" transform="scale(0.015625)"/>
       <path id="DejaVuSans-Oblique-3b1" d="M 2619 1628 
L 2622 2350 
Q 2625 3088 2069 3091 
Q 1653 3094 1394 2747 
Q 1069 2319 959 1747 
Q 825 1059 994 731 
Q 1169 397 1547 397 
Q 1966 397 2319 1063 
L 2619 1628 
z
M 2166 3578 
Q 3141 3594 3128 2584 
Q 3128 2584 3616 3500 
L 4128 3500 
L 3119 1603 
L 3109 919 
Q 3109 766 3194 638 
Q 3291 488 3391 488 
L 3669 488 
L 3575 0 
L 3228 0 
Q 2934 0 2722 263 
Q 2622 394 2619 669 
Q 2416 334 2066 50 
Q 1900 -81 1453 -78 
Q 722 -72 456 397 
Q 184 884 353 1747 
Q 534 2675 1009 3097 
Q 1544 3569 2166 3578 
z
" transform="scale(0.015625)"/>
      </defs>
      <use xlink:href="#DejaVuSans-394" transform="translate(0 0.09375)"/>
      <use xlink:href="#DejaVuSans-Oblique-3b1" transform="translate(68.408203 0.09375)"/>
     </g>
    </g>
   </g>
   <g id="matplotlib.axis_2">
    <g id="ytick_1">
     <g id="line2d_6">
      <defs>
       <path id="m168c337db5" d="M 0 0 
L -6 0 
" style="stroke: #000000"/>
      </defs>
      <g>
       <use xlink:href="#m168c337db5" x="90.2025" y="323.000312" style="stroke: #000000"/>
      </g>
     </g>
     <g id="text_7">
      <!-- 0 -->
      <g transform="translate(61.8425 335.157812) scale(0.32 -0.32)">
       <use xlink:href="#DejaVuSans-30"/>
      </g>
     </g>
    </g>
    <g id="ytick_2">
     <g id="line2d_7">
      <g>
       <use xlink:href="#m168c337db5" x="90.2025" y="171.178906" style="stroke: #000000"/>
      </g>
     </g>
     <g id="text_8">
      <!-- 0.5 -->
      <g transform="translate(31.3125 183.336406) scale(0.32 -0.32)">
       <defs>
        <path id="DejaVuSans-2e" d="M 684 794 
L 1344 794 
L 1344 0 
L 684 0 
L 684 794 
z
" transform="scale(0.015625)"/>
        <path id="DejaVuSans-35" d="M 691 4666 
L 3169 4666 
L 3169 4134 
L 1269 4134 
L 1269 2991 
Q 1406 3038 1543 3061 
Q 1681 3084 1819 3084 
Q 2600 3084 3056 2656 
Q 3513 2228 3513 1497 
Q 3513 744 3044 326 
Q 2575 -91 1722 -91 
Q 1428 -91 1123 -41 
Q 819 9 494 109 
L 494 744 
Q 775 591 1075 516 
Q 1375 441 1709 441 
Q 2250 441 2565 725 
Q 2881 1009 2881 1497 
Q 2881 1984 2565 2268 
Q 2250 2553 1709 2553 
Q 1456 2553 1204 2497 
Q 953 2441 691 2322 
L 691 4666 
z
" transform="scale(0.015625)"/>
       </defs>
       <use xlink:href="#DejaVuSans-30"/>
       <use xlink:href="#DejaVuSans-2e" x="63.623047"/>
       <use xlink:href="#DejaVuSans-35" x="95.410156"/>
      </g>
     </g>
    </g>
    <g id="ytick_3">
     <g id="line2d_8">
      <g>
       <use xlink:href="#m168c337db5" x="90.2025" y="19.3575" style="stroke: #000000"/>
      </g>
     </g>
     <g id="text_9">
      <!-- 1 -->
      <g transform="translate(61.8425 31.515) scale(0.32 -0.32)">
       <use xlink:href="#DejaVuSans-31"/>
      </g>
     </g>
    </g>
    <g id="text_10">
     <!-- J -->
     <g transform="translate(7.2 186.355469) scale(0.55 -0.55)">
      <defs>
       <path id="DejaVuSans-4a" d="M 628 4666 
L 1259 4666 
L 1259 325 
Q 1259 -519 939 -900 
Q 619 -1281 -91 -1281 
L -331 -1281 
L -331 -750 
L -134 -750 
Q 284 -750 456 -515 
Q 628 -281 628 325 
L 628 4666 
z
" transform="scale(0.015625)"/>
      </defs>
      <use xlink:href="#DejaVuSans-4a"/>
     </g>
    </g>
   </g>
   <g id="line2d_9">
    <path d="M 92.516587 70.868334 
L 104.087025 65.193106 
L 115.657463 86.042944 
L 127.2279 79.295326 
L 138.798338 103.305807 
L 150.368775 92.49686 
L 161.939213 81.677281 
L 173.50965 94.752273 
L 185.080088 126.775881 
L 196.650525 182.249217 
L 208.220963 142.375012 
L 219.7914 200.681399 
L 231.361838 198.94589 
L 242.932275 221.038436 
L 254.502713 273.34761 
L 266.07315 256.110881 
L 277.643588 305.867689 
L 289.214025 304.022637 
L 300.784463 321.053884 
L 312.3549 323.000312 
L 323.925338 323.000312 
L 335.495775 323.000312 
L 347.066213 313.958504 
L 358.63665 305.182384 
L 370.207088 274.923534 
L 381.777525 279.799937 
L 393.347963 253.48209 
L 404.9184 186.368135 
L 416.488838 225.178187 
L 428.059275 182.890843 
L 439.629713 117.89257 
L 451.20015 128.069124 
L 462.770588 154.550847 
L 474.341025 92.782239 
L 485.911463 104.946818 
L 497.4819 102.187954 
L 509.052338 58.091423 
L 520.622775 45.60375 
L 532.193213 68.732319 
L 543.76365 63.736065 
" clip-path="url(#pac79cfe091)" style="fill: none; stroke: #e69f00; stroke-width: 3; stroke-linecap: square"/>
    <defs>
     <path id="meed8923dfd" d="M 0 4 
C 1.060812 4 2.078319 3.578535 2.828427 2.828427 
C 3.578535 2.078319 4 1.060812 4 0 
C 4 -1.060812 3.578535 -2.078319 2.828427 -2.828427 
C 2.078319 -3.578535 1.060812 -4 0 -4 
C -1.060812 -4 -2.078319 -3.578535 -2.828427 -2.828427 
C -3.578535 -2.078319 -4 -1.060812 -4 0 
C -4 1.060812 -3.578535 2.078319 -2.828427 2.828427 
C -2.078319 3.578535 -1.060812 4 0 4 
z
" style="stroke: #e69f00"/>
    </defs>
    <g clip-path="url(#pac79cfe091)">
     <use xlink:href="#meed8923dfd" x="92.516587" y="70.868334" style="fill: #e69f00; stroke: #e69f00"/>
     <use xlink:href="#meed8923dfd" x="104.087025" y="65.193106" style="fill: #e69f00; stroke: #e69f00"/>
     <use xlink:href="#meed8923dfd" x="115.657463" y="86.042944" style="fill: #e69f00; stroke: #e69f00"/>
     <use xlink:href="#meed8923dfd" x="127.2279" y="79.295326" style="fill: #e69f00; stroke: #e69f00"/>
     <use xlink:href="#meed8923dfd" x="138.798338" y="103.305807" style="fill: #e69f00; stroke: #e69f00"/>
     <use xlink:href="#meed8923dfd" x="150.368775" y="92.49686" style="fill: #e69f00; stroke: #e69f00"/>
     <use xlink:href="#meed8923dfd" x="161.939213" y="81.677281" style="fill: #e69f00; stroke: #e69f00"/>
     <use xlink:href="#meed8923dfd" x="173.50965" y="94.752273" style="fill: #e69f00; stroke: #e69f00"/>
     <use xlink:href="#meed8923dfd" x="185.080088" y="126.775881" style="fill: #e69f00; stroke: #e69f00"/>
     <use xlink:href="#meed8923dfd" x="196.650525" y="182.249217" style="fill: #e69f00; stroke: #e69f00"/>
     <use xlink:href="#meed8923dfd" x="208.220963" y="142.375012" style="fill: #e69f00; stroke: #e69f00"/>
     <use xlink:href="#meed8923dfd" x="219.7914" y="200.681399" style="fill: #e69f00; stroke: #e69f00"/>
     <use xlink:href="#meed8923dfd" x="231.361838" y="198.94589" style="fill: #e69f00; stroke: #e69f00"/>
     <use xlink:href="#meed8923dfd" x="242.932275" y="221.038436" style="fill: #e69f00; stroke: #e69f00"/>
     <use xlink:href="#meed8923dfd" x="254.502713" y="273.34761" style="fill: #e69f00; stroke: #e69f00"/>
     <use xlink:href="#meed8923dfd" x="266.07315" y="256.110881" style="fill: #e69f00; stroke: #e69f00"/>
     <use xlink:href="#meed8923dfd" x="277.643588" y="305.867689" style="fill: #e69f00; stroke: #e69f00"/>
     <use xlink:href="#meed8923dfd" x="289.214025" y="304.022637" style="fill: #e69f00; stroke: #e69f00"/>
     <use xlink:href="#meed8923dfd" x="300.784463" y="321.053884" style="fill: #e69f00; stroke: #e69f00"/>
     <use xlink:href="#meed8923dfd" x="312.3549" y="323.000312" style="fill: #e69f00; stroke: #e69f00"/>
     <use xlink:href="#meed8923dfd" x="323.925338" y="323.000312" style="fill: #e69f00; stroke: #e69f00"/>
     <use xlink:href="#meed8923dfd" x="335.495775" y="323.000312" style="fill: #e69f00; stroke: #e69f00"/>
     <use xlink:href="#meed8923dfd" x="347.066213" y="313.958504" style="fill: #e69f00; stroke: #e69f00"/>
     <use xlink:href="#meed8923dfd" x="358.63665" y="305.182384" style="fill: #e69f00; stroke: #e69f00"/>
     <use xlink:href="#meed8923dfd" x="370.207088" y="274.923534" style="fill: #e69f00; stroke: #e69f00"/>
     <use xlink:href="#meed8923dfd" x="381.777525" y="279.799937" style="fill: #e69f00; stroke: #e69f00"/>
     <use xlink:href="#meed8923dfd" x="393.347963" y="253.48209" style="fill: #e69f00; stroke: #e69f00"/>
     <use xlink:href="#meed8923dfd" x="404.9184" y="186.368135" style="fill: #e69f00; stroke: #e69f00"/>
     <use xlink:href="#meed8923dfd" x="416.488838" y="225.178187" style="fill: #e69f00; stroke: #e69f00"/>
     <use xlink:href="#meed8923dfd" x="428.059275" y="182.890843" style="fill: #e69f00; stroke: #e69f00"/>
     <use xlink:href="#meed8923dfd" x="439.629713" y="117.89257" style="fill: #e69f00; stroke: #e69f00"/>
     <use xlink:href="#meed8923dfd" x="451.20015" y="128.069124" style="fill: #e69f00; stroke: #e69f00"/>
     <use xlink:href="#meed8923dfd" x="462.770588" y="154.550847" style="fill: #e69f00; stroke: #e69f00"/>
     <use xlink:href="#meed8923dfd" x="474.341025" y="92.782239" style="fill: #e69f00; stroke: #e69f00"/>
     <use xlink:href="#meed8923dfd" x="485.911463" y="104.946818" style="fill: #e69f00; stroke: #e69f00"/>
     <use xlink:href="#meed8923dfd" x="497.4819" y="102.187954" style="fill: #e69f00; stroke: #e69f00"/>
     <use xlink:href="#meed8923dfd" x="509.052338" y="58.091423" style="fill: #e69f00; stroke: #e69f00"/>
     <use xlink:href="#meed8923dfd" x="520.622775" y="45.60375" style="fill: #e69f00; stroke: #e69f00"/>
     <use xlink:href="#meed8923dfd" x="532.193213" y="68.732319" style="fill: #e69f00; stroke: #e69f00"/>
     <use xlink:href="#meed8923dfd" x="543.76365" y="63.736065" style="fill: #e69f00; stroke: #e69f00"/>
    </g>
   </g>
   <g id="patch_3">
    <path d="M 90.2025 323.000312 
L 90.2025 19.3575 
" style="fill: none; stroke: #000000; stroke-linejoin: miter; stroke-linecap: square"/>
   </g>
   <g id="patch_4">
    <path d="M 553.02 323.000312 
L 553.02 19.3575 
" style="fill: none; stroke: #000000; stroke-linejoin: miter; stroke-linecap: square"/>
   </g>
   <g id="patch_5">
    <path d="M 90.2025 323.000312 
L 553.02 323.000312 
" style="fill: none; stroke: #000000; stroke-linejoin: miter; stroke-linecap: square"/>
   </g>
   <g id="patch_6">
    <path d="M 90.2025 19.3575 
L 553.02 19.3575 
" style="fill: none; stroke: #000000; stroke-linejoin: miter; stroke-linecap: square"/>
   </g>
  </g>
 </g>
 <defs>
  <clipPath id="pac79cfe091">
   <rect x="90.2025" y="19.3575" width="462.8175" height="303.642812"/>
  </clipPath>
 </defs>
</svg>
