<?xml version="1.0" encoding="utf-8" standalone="no"?>
<!DOCTYPE svg PUBLIC "-//W3C//DTD SVG 1.1//EN"
  "http://www.w3.org/Graphics/SVG/1.1/DTD/svg11.dtd">
<svg xmlns:xlink="http://www.w3.org/1999/xlink" width="482.4pt" height="424.8pt" viewBox="0 0 482.4 424.8" xmlns="http://www.w3.org/2000/svg" version="1.1">
 <metadata>
  <rdf:RDF xmlns:dc="http://purl.org/dc/elements/1.1/" xmlns:cc="http://creativecommons.org/ns#" xmlns:rdf="http://www.w3.org/1999/02/22-rdf-syntax-ns#">
   <cc:Work>
    <dc:type rdf:resource="http://purl.org/dc/dcmitype/StillImage"/>
    <dc:date>2024-11-28T14:45:42.719171</dc:date>
    <dc:format>image/svg+xml</dc:format>
    <dc:creator>
     <cc:Agent>
      <dc:title>Matplotlib v3.9.0, https://matplotlib.org/</dc:title>
     </cc:Agent>
    </dc:creator>
   </cc:Work>
  </rdf:RDF>
 </metadata>
 <defs>
  <style type="text/css">*{stroke-linejoin: round; stroke-linecap: butt}</style>
 </defs>
 <g id="figure_1">
  <g id="patch_1">
   <path d="M 0 424.8 
L 482.4 424.8 
L 482.4 0 
L 0 0 
L 0 424.8 
z
" style="fill: none"/>
  </g>
  <g id="axes_1">
   <g id="patch_2">
    <path d="M 90.89 343.66 
L 475.2 343.66 
L 475.2 7.2 
L 90.89 7.2 
L 90.89 343.66 
z
" style="fill: none"/>
   </g>
   <g id="matplotlib.axis_1">
    <g id="xtick_1">
     <g id="line2d_1">
      <defs>
       <path id="m73db84f119" d="M 0 0 
L 0 6 
" style="stroke: #000000"/>
      </defs>
      <g>
       <use xlink:href="#m73db84f119" x="108.358636" y="343.66" style="stroke: #000000"/>
      </g>
     </g>
     <g id="text_1">
      <!-- 0 -->
      <g transform="translate(98.178636 375.975) scale(0.32 -0.32)">
       <defs>
        <path id="DejaVuSans-30" d="M 2034 4250 
Q 1547 4250 1301 3770 
Q 1056 3291 1056 2328 
Q 1056 1369 1301 889 
Q 1547 409 2034 409 
Q 2525 409 2770 889 
Q 3016 1369 3016 2328 
Q 3016 3291 2770 3770 
Q 2525 4250 2034 4250 
z
M 2034 4750 
Q 2819 4750 3233 4129 
Q 3647 3509 3647 2328 
Q 3647 1150 3233 529 
Q 2819 -91 2034 -91 
Q 1250 -91 836 529 
Q 422 1150 422 2328 
Q 422 3509 836 4129 
Q 1250 4750 2034 4750 
z
" transform="scale(0.015625)"/>
       </defs>
       <use xlink:href="#DejaVuSans-30"/>
      </g>
     </g>
    </g>
    <g id="xtick_2">
     <g id="line2d_2">
      <g>
       <use xlink:href="#m73db84f119" x="178.233182" y="343.66" style="stroke: #000000"/>
      </g>
     </g>
     <g id="text_2">
      <!-- 1 -->
      <g transform="translate(168.053182 375.975) scale(0.32 -0.32)">
       <defs>
        <path id="DejaVuSans-31" d="M 794 531 
L 1825 531 
L 1825 4091 
L 703 3866 
L 703 4441 
L 1819 4666 
L 2450 4666 
L 2450 531 
L 3481 531 
L 3481 0 
L 794 0 
L 794 531 
z
" transform="scale(0.015625)"/>
       </defs>
       <use xlink:href="#DejaVuSans-31"/>
      </g>
     </g>
    </g>
    <g id="xtick_3">
     <g id="line2d_3">
      <g>
       <use xlink:href="#m73db84f119" x="248.107727" y="343.66" style="stroke: #000000"/>
      </g>
     </g>
     <g id="text_3">
      <!-- 2 -->
      <g transform="translate(237.927727 375.975) scale(0.32 -0.32)">
       <defs>
        <path id="DejaVuSans-32" d="M 1228 531 
L 3431 531 
L 3431 0 
L 469 0 
L 469 531 
Q 828 903 1448 1529 
Q 2069 2156 2228 2338 
Q 2531 2678 2651 2914 
Q 2772 3150 2772 3378 
Q 2772 3750 2511 3984 
Q 2250 4219 1831 4219 
Q 1534 4219 1204 4116 
Q 875 4013 500 3803 
L 500 4441 
Q 881 4594 1212 4672 
Q 1544 4750 1819 4750 
Q 2544 4750 2975 4387 
Q 3406 4025 3406 3419 
Q 3406 3131 3298 2873 
Q 3191 2616 2906 2266 
Q 2828 2175 2409 1742 
Q 1991 1309 1228 531 
z
" transform="scale(0.015625)"/>
       </defs>
       <use xlink:href="#DejaVuSans-32"/>
      </g>
     </g>
    </g>
    <g id="xtick_4">
     <g id="line2d_4">
      <g>
       <use xlink:href="#m73db84f119" x="317.982273" y="343.66" style="stroke: #000000"/>
      </g>
     </g>
     <g id="text_4">
      <!-- 3 -->
      <g transform="translate(307.802273 375.975) scale(0.32 -0.32)">
       <defs>
        <path id="DejaVuSans-33" d="M 2597 2516 
Q 3050 2419 3304 2112 
Q 3559 1806 3559 1356 
Q 3559 666 3084 287 
Q 2609 -91 1734 -91 
Q 1441 -91 1130 -33 
Q 819 25 488 141 
L 488 750 
Q 750 597 1062 519 
Q 1375 441 1716 441 
Q 2309 441 2620 675 
Q 2931 909 2931 1356 
Q 2931 1769 2642 2001 
Q 2353 2234 1838 2234 
L 1294 2234 
L 1294 2753 
L 1863 2753 
Q 2328 2753 2575 2939 
Q 2822 3125 2822 3475 
Q 2822 3834 2567 4026 
Q 2313 4219 1838 4219 
Q 1578 4219 1281 4162 
Q 984 4106 628 3988 
L 628 4550 
Q 988 4650 1302 4700 
Q 1616 4750 1894 4750 
Q 2613 4750 3031 4423 
Q 3450 4097 3450 3541 
Q 3450 3153 3228 2886 
Q 3006 2619 2597 2516 
z
" transform="scale(0.015625)"/>
       </defs>
       <use xlink:href="#DejaVuSans-33"/>
      </g>
     </g>
    </g>
    <g id="xtick_5">
     <g id="line2d_5">
      <g>
       <use xlink:href="#m73db84f119" x="387.856818" y="343.66" style="stroke: #000000"/>
      </g>
     </g>
     <g id="text_5">
      <!-- 4 -->
      <g transform="translate(377.676818 375.975) scale(0.32 -0.32)">
       <defs>
        <path id="DejaVuSans-34" d="M 2419 4116 
L 825 1625 
L 2419 1625 
L 2419 4116 
z
M 2253 4666 
L 3047 4666 
L 3047 1625 
L 3713 1625 
L 3713 1100 
L 3047 1100 
L 3047 0 
L 2419 0 
L 2419 1100 
L 313 1100 
L 313 1709 
L 2253 4666 
z
" transform="scale(0.015625)"/>
       </defs>
       <use xlink:href="#DejaVuSans-34"/>
      </g>
     </g>
    </g>
    <g id="xtick_6">
     <g id="line2d_6">
      <g>
       <use xlink:href="#m73db84f119" x="457.731364" y="343.66" style="stroke: #000000"/>
      </g>
     </g>
     <g id="text_6">
      <!-- 5 -->
      <g transform="translate(447.551364 375.975) scale(0.32 -0.32)">
       <defs>
        <path id="DejaVuSans-35" d="M 691 4666 
L 3169 4666 
L 3169 4134 
L 1269 4134 
L 1269 2991 
Q 1406 3038 1543 3061 
Q 1681 3084 1819 3084 
Q 2600 3084 3056 2656 
Q 3513 2228 3513 1497 
Q 3513 744 3044 326 
Q 2575 -91 1722 -91 
Q 1428 -91 1123 -41 
Q 819 9 494 109 
L 494 744 
Q 775 591 1075 516 
Q 1375 441 1709 441 
Q 2250 441 2565 725 
Q 2881 1009 2881 1497 
Q 2881 1984 2565 2268 
Q 2250 2553 1709 2553 
Q 1456 2553 1204 2497 
Q 953 2441 691 2322 
L 691 4666 
z
" transform="scale(0.015625)"/>
       </defs>
       <use xlink:href="#DejaVuSans-35"/>
      </g>
     </g>
    </g>
    <g id="text_7">
     <!-- $N_{\mathrm{CP}}$ -->
     <g transform="translate(256.005 410.945) scale(0.32 -0.32)">
      <defs>
       <path id="DejaVuSans-Oblique-4e" d="M 1081 4666 
L 1931 4666 
L 3219 666 
L 4000 4666 
L 4616 4666 
L 3706 0 
L 2853 0 
L 1569 4025 
L 788 0 
L 172 0 
L 1081 4666 
z
" transform="scale(0.015625)"/>
       <path id="DejaVuSans-43" d="M 4122 4306 
L 4122 3641 
Q 3803 3938 3442 4084 
Q 3081 4231 2675 4231 
Q 1875 4231 1450 3742 
Q 1025 3253 1025 2328 
Q 1025 1406 1450 917 
Q 1875 428 2675 428 
Q 3081 428 3442 575 
Q 3803 722 4122 1019 
L 4122 359 
Q 3791 134 3420 21 
Q 3050 -91 2638 -91 
Q 1578 -91 968 557 
Q 359 1206 359 2328 
Q 359 3453 968 4101 
Q 1578 4750 2638 4750 
Q 3056 4750 3426 4639 
Q 3797 4528 4122 4306 
z
" transform="scale(0.015625)"/>
       <path id="DejaVuSans-50" d="M 1259 4147 
L 1259 2394 
L 2053 2394 
Q 2494 2394 2734 2622 
Q 2975 2850 2975 3272 
Q 2975 3691 2734 3919 
Q 2494 4147 2053 4147 
L 1259 4147 
z
M 628 4666 
L 2053 4666 
Q 2838 4666 3239 4311 
Q 3641 3956 3641 3272 
Q 3641 2581 3239 2228 
Q 2838 1875 2053 1875 
L 1259 1875 
L 1259 0 
L 628 0 
L 628 4666 
z
" transform="scale(0.015625)"/>
      </defs>
      <use xlink:href="#DejaVuSans-Oblique-4e" transform="translate(0 0.09375)"/>
      <use xlink:href="#DejaVuSans-43" transform="translate(74.804688 -16.3125) scale(0.7)"/>
      <use xlink:href="#DejaVuSans-50" transform="translate(123.681641 -16.3125) scale(0.7)"/>
     </g>
    </g>
   </g>
   <g id="matplotlib.axis_2">
    <g id="ytick_1">
     <g id="line2d_7">
      <defs>
       <path id="ma5e8ddd1c1" d="M 0 0 
L -6 0 
" style="stroke: #000000"/>
      </defs>
      <g>
       <use xlink:href="#ma5e8ddd1c1" x="90.89" y="331.310987" style="stroke: #000000"/>
      </g>
     </g>
     <g id="text_8">
      <!-- 0.6 -->
      <g transform="translate(32 343.468487) scale(0.32 -0.32)">
       <defs>
        <path id="DejaVuSans-2e" d="M 684 794 
L 1344 794 
L 1344 0 
L 684 0 
L 684 794 
z
" transform="scale(0.015625)"/>
        <path id="DejaVuSans-36" d="M 2113 2584 
Q 1688 2584 1439 2293 
Q 1191 2003 1191 1497 
Q 1191 994 1439 701 
Q 1688 409 2113 409 
Q 2538 409 2786 701 
Q 3034 994 3034 1497 
Q 3034 2003 2786 2293 
Q 2538 2584 2113 2584 
z
M 3366 4563 
L 3366 3988 
Q 3128 4100 2886 4159 
Q 2644 4219 2406 4219 
Q 1781 4219 1451 3797 
Q 1122 3375 1075 2522 
Q 1259 2794 1537 2939 
Q 1816 3084 2150 3084 
Q 2853 3084 3261 2657 
Q 3669 2231 3669 1497 
Q 3669 778 3244 343 
Q 2819 -91 2113 -91 
Q 1303 -91 875 529 
Q 447 1150 447 2328 
Q 447 3434 972 4092 
Q 1497 4750 2381 4750 
Q 2619 4750 2861 4703 
Q 3103 4656 3366 4563 
z
" transform="scale(0.015625)"/>
       </defs>
       <use xlink:href="#DejaVuSans-30"/>
       <use xlink:href="#DejaVuSans-2e" x="63.623047"/>
       <use xlink:href="#DejaVuSans-36" x="95.410156"/>
      </g>
     </g>
    </g>
    <g id="ytick_2">
     <g id="line2d_8">
      <g>
       <use xlink:href="#ma5e8ddd1c1" x="90.89" y="255.394922" style="stroke: #000000"/>
      </g>
     </g>
     <g id="text_9">
      <!-- 0.7 -->
      <g transform="translate(32 267.552422) scale(0.32 -0.32)">
       <defs>
        <path id="DejaVuSans-37" d="M 525 4666 
L 3525 4666 
L 3525 4397 
L 1831 0 
L 1172 0 
L 2766 4134 
L 525 4134 
L 525 4666 
z
" transform="scale(0.015625)"/>
       </defs>
       <use xlink:href="#DejaVuSans-30"/>
       <use xlink:href="#DejaVuSans-2e" x="63.623047"/>
       <use xlink:href="#DejaVuSans-37" x="95.410156"/>
      </g>
     </g>
    </g>
    <g id="ytick_3">
     <g id="line2d_9">
      <g>
       <use xlink:href="#ma5e8ddd1c1" x="90.89" y="179.478857" style="stroke: #000000"/>
      </g>
     </g>
     <g id="text_10">
      <!-- 0.8 -->
      <g transform="translate(32 191.636357) scale(0.32 -0.32)">
       <defs>
        <path id="DejaVuSans-38" d="M 2034 2216 
Q 1584 2216 1326 1975 
Q 1069 1734 1069 1313 
Q 1069 891 1326 650 
Q 1584 409 2034 409 
Q 2484 409 2743 651 
Q 3003 894 3003 1313 
Q 3003 1734 2745 1975 
Q 2488 2216 2034 2216 
z
M 1403 2484 
Q 997 2584 770 2862 
Q 544 3141 544 3541 
Q 544 4100 942 4425 
Q 1341 4750 2034 4750 
Q 2731 4750 3128 4425 
Q 3525 4100 3525 3541 
Q 3525 3141 3298 2862 
Q 3072 2584 2669 2484 
Q 3125 2378 3379 2068 
Q 3634 1759 3634 1313 
Q 3634 634 3220 271 
Q 2806 -91 2034 -91 
Q 1263 -91 848 271 
Q 434 634 434 1313 
Q 434 1759 690 2068 
Q 947 2378 1403 2484 
z
M 1172 3481 
Q 1172 3119 1398 2916 
Q 1625 2713 2034 2713 
Q 2441 2713 2670 2916 
Q 2900 3119 2900 3481 
Q 2900 3844 2670 4047 
Q 2441 4250 2034 4250 
Q 1625 4250 1398 4047 
Q 1172 3844 1172 3481 
z
" transform="scale(0.015625)"/>
       </defs>
       <use xlink:href="#DejaVuSans-30"/>
       <use xlink:href="#DejaVuSans-2e" x="63.623047"/>
       <use xlink:href="#DejaVuSans-38" x="95.410156"/>
      </g>
     </g>
    </g>
    <g id="ytick_4">
     <g id="line2d_10">
      <g>
       <use xlink:href="#ma5e8ddd1c1" x="90.89" y="103.562792" style="stroke: #000000"/>
      </g>
     </g>
     <g id="text_11">
      <!-- 0.9 -->
      <g transform="translate(32 115.720292) scale(0.32 -0.32)">
       <defs>
        <path id="DejaVuSans-39" d="M 703 97 
L 703 672 
Q 941 559 1184 500 
Q 1428 441 1663 441 
Q 2288 441 2617 861 
Q 2947 1281 2994 2138 
Q 2813 1869 2534 1725 
Q 2256 1581 1919 1581 
Q 1219 1581 811 2004 
Q 403 2428 403 3163 
Q 403 3881 828 4315 
Q 1253 4750 1959 4750 
Q 2769 4750 3195 4129 
Q 3622 3509 3622 2328 
Q 3622 1225 3098 567 
Q 2575 -91 1691 -91 
Q 1453 -91 1209 -44 
Q 966 3 703 97 
z
M 1959 2075 
Q 2384 2075 2632 2365 
Q 2881 2656 2881 3163 
Q 2881 3666 2632 3958 
Q 2384 4250 1959 4250 
Q 1534 4250 1286 3958 
Q 1038 3666 1038 3163 
Q 1038 2656 1286 2365 
Q 1534 2075 1959 2075 
z
" transform="scale(0.015625)"/>
       </defs>
       <use xlink:href="#DejaVuSans-30"/>
       <use xlink:href="#DejaVuSans-2e" x="63.623047"/>
       <use xlink:href="#DejaVuSans-39" x="95.410156"/>
      </g>
     </g>
    </g>
    <g id="ytick_5">
     <g id="line2d_11">
      <g>
       <use xlink:href="#ma5e8ddd1c1" x="90.89" y="27.646727" style="stroke: #000000"/>
      </g>
     </g>
     <g id="text_12">
      <!-- 1.0 -->
      <g transform="translate(32 39.804227) scale(0.32 -0.32)">
       <use xlink:href="#DejaVuSans-31"/>
       <use xlink:href="#DejaVuSans-2e" x="63.623047"/>
       <use xlink:href="#DejaVuSans-30" x="95.410156"/>
      </g>
     </g>
    </g>
    <g id="text_13">
     <!-- $\overline{J}$ -->
     <g transform="translate(7.2 187.75) scale(0.32 -0.32)">
      <defs>
       <path id="DejaVuSans-Oblique-4a" d="M 1069 4666 
L 1703 4666 
L 856 325 
Q 691 -522 298 -901 
Q -94 -1281 -800 -1281 
L -1050 -1281 
L -947 -750 
L -750 -750 
Q -328 -750 -109 -509 
Q 109 -269 225 325 
L 1069 4666 
z
" transform="scale(0.015625)"/>
      </defs>
      <use xlink:href="#DejaVuSans-Oblique-4a" transform="translate(0 0.84375)"/>
      <path d="M 0 85.5 
L 0 91.75 
L 29.492188 91.75 
L 29.492188 85.5 
L 0 85.5 
z
"/>
     </g>
    </g>
   </g>
   <g id="line2d_12">
    <path d="M 108.358636 35.238333 
L 178.233182 170.621983 
L 248.107727 217.436889 
L 317.982273 239.741752 
L 387.856818 222.534111 
L 457.731364 222.955867 
" clip-path="url(#pdfc932ce38)" style="fill: none; stroke: #1b9e77; stroke-width: 2; stroke-linecap: square"/>
    <defs>
     <path id="m29dd271213" d="M 0 4 
C 1.060812 4 2.078319 3.578535 2.828427 2.828427 
C 3.578535 2.078319 4 1.060812 4 0 
C 4 -1.060812 3.578535 -2.078319 2.828427 -2.828427 
C 2.078319 -3.578535 1.060812 -4 0 -4 
C -1.060812 -4 -2.078319 -3.578535 -2.828427 -2.828427 
C -3.578535 -2.078319 -4 -1.060812 -4 0 
C -4 1.060812 -3.578535 2.078319 -2.828427 2.828427 
C -2.078319 3.578535 -1.060812 4 0 4 
z
" style="stroke: #1b9e77; stroke-width: 2"/>
    </defs>
    <g clip-path="url(#pdfc932ce38)">
     <use xlink:href="#m29dd271213" x="108.358636" y="35.238333" style="fill: #ffffff; stroke: #1b9e77; stroke-width: 2"/>
     <use xlink:href="#m29dd271213" x="178.233182" y="170.621983" style="fill: #ffffff; stroke: #1b9e77; stroke-width: 2"/>
     <use xlink:href="#m29dd271213" x="248.107727" y="217.436889" style="fill: #ffffff; stroke: #1b9e77; stroke-width: 2"/>
     <use xlink:href="#m29dd271213" x="317.982273" y="239.741752" style="fill: #ffffff; stroke: #1b9e77; stroke-width: 2"/>
     <use xlink:href="#m29dd271213" x="387.856818" y="222.534111" style="fill: #ffffff; stroke: #1b9e77; stroke-width: 2"/>
     <use xlink:href="#m29dd271213" x="457.731364" y="222.955867" style="fill: #ffffff; stroke: #1b9e77; stroke-width: 2"/>
    </g>
   </g>
   <g id="line2d_13">
    <path d="M 108.358636 35.238333 
L 178.233182 172.646411 
L 248.107727 315.621667 
L 317.982273 312.585024 
L 387.856818 289.846355 
L 457.731364 239.350122 
" clip-path="url(#pdfc932ce38)" style="fill: none; stroke: #e69f00; stroke-width: 2; stroke-linecap: square"/>
    <defs>
     <path id="m7c389e81b6" d="M 0 4 
C 1.060812 4 2.078319 3.578535 2.828427 2.828427 
C 3.578535 2.078319 4 1.060812 4 0 
C 4 -1.060812 3.578535 -2.078319 2.828427 -2.828427 
C 2.078319 -3.578535 1.060812 -4 0 -4 
C -1.060812 -4 -2.078319 -3.578535 -2.828427 -2.828427 
C -3.578535 -2.078319 -4 -1.060812 -4 0 
C -4 1.060812 -3.578535 2.078319 -2.828427 2.828427 
C -2.078319 3.578535 -1.060812 4 0 4 
z
" style="stroke: #e69f00; stroke-width: 2"/>
    </defs>
    <g clip-path="url(#pdfc932ce38)">
     <use xlink:href="#m7c389e81b6" x="108.358636" y="35.238333" style="fill: #ffffff; stroke: #e69f00; stroke-width: 2"/>
     <use xlink:href="#m7c389e81b6" x="178.233182" y="172.646411" style="fill: #ffffff; stroke: #e69f00; stroke-width: 2"/>
     <use xlink:href="#m7c389e81b6" x="248.107727" y="315.621667" style="fill: #ffffff; stroke: #e69f00; stroke-width: 2"/>
     <use xlink:href="#m7c389e81b6" x="317.982273" y="312.585024" style="fill: #ffffff; stroke: #e69f00; stroke-width: 2"/>
     <use xlink:href="#m7c389e81b6" x="387.856818" y="289.846355" style="fill: #ffffff; stroke: #e69f00; stroke-width: 2"/>
     <use xlink:href="#m7c389e81b6" x="457.731364" y="239.350122" style="fill: #ffffff; stroke: #e69f00; stroke-width: 2"/>
    </g>
   </g>
   <g id="line2d_14">
    <path d="M 108.358636 65.604759 
L 178.233182 195.475456 
L 248.107727 291.897896 
L 317.982273 232.81893 
L 387.856818 245.706586 
L 457.731364 243.320652 
" clip-path="url(#pdfc932ce38)" style="fill: none; stroke: #9970ab; stroke-width: 2; stroke-linecap: square"/>
    <defs>
     <path id="m3159ded7e9" d="M 0 4 
C 1.060812 4 2.078319 3.578535 2.828427 2.828427 
C 3.578535 2.078319 4 1.060812 4 0 
C 4 -1.060812 3.578535 -2.078319 2.828427 -2.828427 
C 2.078319 -3.578535 1.060812 -4 0 -4 
C -1.060812 -4 -2.078319 -3.578535 -2.828427 -2.828427 
C -3.578535 -2.078319 -4 -1.060812 -4 0 
C -4 1.060812 -3.578535 2.078319 -2.828427 2.828427 
C -2.078319 3.578535 -1.060812 4 0 4 
z
" style="stroke: #9970ab; stroke-width: 2"/>
    </defs>
    <g clip-path="url(#pdfc932ce38)">
     <use xlink:href="#m3159ded7e9" x="108.358636" y="65.604759" style="fill: #ffffff; stroke: #9970ab; stroke-width: 2"/>
     <use xlink:href="#m3159ded7e9" x="178.233182" y="195.475456" style="fill: #ffffff; stroke: #9970ab; stroke-width: 2"/>
     <use xlink:href="#m3159ded7e9" x="248.107727" y="291.897896" style="fill: #ffffff; stroke: #9970ab; stroke-width: 2"/>
     <use xlink:href="#m3159ded7e9" x="317.982273" y="232.81893" style="fill: #ffffff; stroke: #9970ab; stroke-width: 2"/>
     <use xlink:href="#m3159ded7e9" x="387.856818" y="245.706586" style="fill: #ffffff; stroke: #9970ab; stroke-width: 2"/>
     <use xlink:href="#m3159ded7e9" x="457.731364" y="243.320652" style="fill: #ffffff; stroke: #9970ab; stroke-width: 2"/>
    </g>
   </g>
   <g id="line2d_15">
    <path d="M 108.358636 42.82994 
L 178.233182 170.368929 
L 248.107727 230.722201 
L 317.982273 252.981875 
L 387.856818 224.154311 
L 457.731364 211.125613 
" clip-path="url(#pdfc932ce38)" style="fill: none; stroke: #000000; stroke-width: 2; stroke-linecap: square"/>
    <defs>
     <path id="me5add6e455" d="M 0 4 
C 1.060812 4 2.078319 3.578535 2.828427 2.828427 
C 3.578535 2.078319 4 1.060812 4 0 
C 4 -1.060812 3.578535 -2.078319 2.828427 -2.828427 
C 2.078319 -3.578535 1.060812 -4 0 -4 
C -1.060812 -4 -2.078319 -3.578535 -2.828427 -2.828427 
C -3.578535 -2.078319 -4 -1.060812 -4 0 
C -4 1.060812 -3.578535 2.078319 -2.828427 2.828427 
C -2.078319 3.578535 -1.060812 4 0 4 
z
" style="stroke: #000000; stroke-width: 2"/>
    </defs>
    <g clip-path="url(#pdfc932ce38)">
     <use xlink:href="#me5add6e455" x="108.358636" y="42.82994" style="fill: #ffffff; stroke: #000000; stroke-width: 2"/>
     <use xlink:href="#me5add6e455" x="178.233182" y="170.368929" style="fill: #ffffff; stroke: #000000; stroke-width: 2"/>
     <use xlink:href="#me5add6e455" x="248.107727" y="230.722201" style="fill: #ffffff; stroke: #000000; stroke-width: 2"/>
     <use xlink:href="#me5add6e455" x="317.982273" y="252.981875" style="fill: #ffffff; stroke: #000000; stroke-width: 2"/>
     <use xlink:href="#me5add6e455" x="387.856818" y="224.154311" style="fill: #ffffff; stroke: #000000; stroke-width: 2"/>
     <use xlink:href="#me5add6e455" x="457.731364" y="211.125613" style="fill: #ffffff; stroke: #000000; stroke-width: 2"/>
    </g>
   </g>
   <g id="line2d_16">
    <path d="M 108.358636 58.013153 
L 178.233182 206.420022 
L 248.107727 292.178063 
L 317.982273 283.911647 
L 387.856818 261.359755 
L 457.731364 228.791182 
" clip-path="url(#pdfc932ce38)" style="fill: none; stroke: #56b4e9; stroke-width: 2; stroke-linecap: square"/>
    <defs>
     <path id="md9f542d579" d="M 0 4 
C 1.060812 4 2.078319 3.578535 2.828427 2.828427 
C 3.578535 2.078319 4 1.060812 4 0 
C 4 -1.060812 3.578535 -2.078319 2.828427 -2.828427 
C 2.078319 -3.578535 1.060812 -4 0 -4 
C -1.060812 -4 -2.078319 -3.578535 -2.828427 -2.828427 
C -3.578535 -2.078319 -4 -1.060812 -4 0 
C -4 1.060812 -3.578535 2.078319 -2.828427 2.828427 
C -2.078319 3.578535 -1.060812 4 0 4 
z
" style="stroke: #56b4e9; stroke-width: 2"/>
    </defs>
    <g clip-path="url(#pdfc932ce38)">
     <use xlink:href="#md9f542d579" x="108.358636" y="58.013153" style="fill: #ffffff; stroke: #56b4e9; stroke-width: 2"/>
     <use xlink:href="#md9f542d579" x="178.233182" y="206.420022" style="fill: #ffffff; stroke: #56b4e9; stroke-width: 2"/>
     <use xlink:href="#md9f542d579" x="248.107727" y="292.178063" style="fill: #ffffff; stroke: #56b4e9; stroke-width: 2"/>
     <use xlink:href="#md9f542d579" x="317.982273" y="283.911647" style="fill: #ffffff; stroke: #56b4e9; stroke-width: 2"/>
     <use xlink:href="#md9f542d579" x="387.856818" y="261.359755" style="fill: #ffffff; stroke: #56b4e9; stroke-width: 2"/>
     <use xlink:href="#md9f542d579" x="457.731364" y="228.791182" style="fill: #ffffff; stroke: #56b4e9; stroke-width: 2"/>
    </g>
   </g>
   <g id="patch_3">
    <path d="M 90.89 343.66 
L 90.89 7.2 
" style="fill: none; stroke: #000000; stroke-linejoin: miter; stroke-linecap: square"/>
   </g>
   <g id="patch_4">
    <path d="M 475.2 343.66 
L 475.2 7.2 
" style="fill: none; stroke: #000000; stroke-linejoin: miter; stroke-linecap: square"/>
   </g>
   <g id="patch_5">
    <path d="M 90.89 343.66 
L 475.2 343.66 
" style="fill: none; stroke: #000000; stroke-linejoin: miter; stroke-linecap: square"/>
   </g>
   <g id="patch_6">
    <path d="M 90.89 7.2 
L 475.2 7.2 
" style="fill: none; stroke: #000000; stroke-linejoin: miter; stroke-linecap: square"/>
   </g>
   <g id="legend_1">
    <g id="patch_7">
     <path d="M 238.60255 209.2667 
L 450.7138 209.2667 
Q 455.5138 209.2667 455.5138 204.4667 
L 455.5138 30.7292 
Q 455.5138 25.9292 450.7138 25.9292 
L 238.60255 25.9292 
Q 233.80255 25.9292 233.80255 30.7292 
L 233.80255 204.4667 
Q 233.80255 209.2667 238.60255 209.2667 
z
" style="fill: #ffffff; opacity: 0.8"/>
    </g>
    <g id="line2d_17">
     <path d="M 243.40255 45.36545 
L 267.40255 45.36545 
L 291.40255 45.36545 
" style="fill: none; stroke: #1b9e77; stroke-width: 2; stroke-linecap: square"/>
     <g>
      <use xlink:href="#m29dd271213" x="267.40255" y="45.36545" style="fill: #ffffff; stroke: #1b9e77; stroke-width: 2"/>
     </g>
    </g>
    <g id="text_14">
     <!-- K -->
     <g transform="translate(310.60255 53.76545) scale(0.24 -0.24)">
      <defs>
       <path id="DejaVuSans-4b" d="M 628 4666 
L 1259 4666 
L 1259 2694 
L 3353 4666 
L 4166 4666 
L 1850 2491 
L 4331 0 
L 3500 0 
L 1259 2247 
L 1259 0 
L 628 0 
L 628 4666 
z
" transform="scale(0.015625)"/>
      </defs>
      <use xlink:href="#DejaVuSans-4b"/>
     </g>
    </g>
    <g id="line2d_18">
     <path d="M 243.40255 80.59295 
L 267.40255 80.59295 
L 291.40255 80.59295 
" style="fill: none; stroke: #e69f00; stroke-width: 2; stroke-linecap: square"/>
     <g>
      <use xlink:href="#m7c389e81b6" x="267.40255" y="80.59295" style="fill: #ffffff; stroke: #e69f00; stroke-width: 2"/>
     </g>
    </g>
    <g id="text_15">
     <!-- α -->
     <g transform="translate(310.60255 88.99295) scale(0.24 -0.24)">
      <defs>
       <path id="DejaVuSans-3b1" d="M 2644 1628 
L 2506 2350 
Q 2366 3091 1809 3091 
Q 1391 3091 1200 2747 
Q 959 2316 959 1747 
Q 959 1059 1194 731 
Q 1431 397 1809 397 
Q 2228 397 2453 1063 
L 2644 1628 
z
M 2966 2584 
L 3275 3500 
L 3788 3500 
L 3147 1603 
L 3272 919 
Q 3300 766 3409 638 
Q 3538 488 3638 488 
L 3913 488 
L 3913 0 
L 3569 0 
Q 3275 0 3013 263 
Q 2884 394 2831 669 
Q 2688 322 2394 50 
Q 2256 -78 1809 -78 
Q 1075 -78 719 397 
Q 353 888 353 1747 
Q 353 2666 750 3097 
Q 1191 3578 1809 3578 
Q 2781 3578 2966 2584 
z
" transform="scale(0.015625)"/>
      </defs>
      <use xlink:href="#DejaVuSans-3b1"/>
     </g>
    </g>
    <g id="line2d_19">
     <path d="M 243.40255 115.82045 
L 267.40255 115.82045 
L 291.40255 115.82045 
" style="fill: none; stroke: #9970ab; stroke-width: 2; stroke-linecap: square"/>
     <g>
      <use xlink:href="#m3159ded7e9" x="267.40255" y="115.82045" style="fill: #ffffff; stroke: #9970ab; stroke-width: 2"/>
     </g>
    </g>
    <g id="text_16">
     <!-- State -->
     <g transform="translate(310.60255 124.22045) scale(0.24 -0.24)">
      <defs>
       <path id="DejaVuSans-53" d="M 3425 4513 
L 3425 3897 
Q 3066 4069 2747 4153 
Q 2428 4238 2131 4238 
Q 1616 4238 1336 4038 
Q 1056 3838 1056 3469 
Q 1056 3159 1242 3001 
Q 1428 2844 1947 2747 
L 2328 2669 
Q 3034 2534 3370 2195 
Q 3706 1856 3706 1288 
Q 3706 609 3251 259 
Q 2797 -91 1919 -91 
Q 1588 -91 1214 -16 
Q 841 59 441 206 
L 441 856 
Q 825 641 1194 531 
Q 1563 422 1919 422 
Q 2459 422 2753 634 
Q 3047 847 3047 1241 
Q 3047 1584 2836 1778 
Q 2625 1972 2144 2069 
L 1759 2144 
Q 1053 2284 737 2584 
Q 422 2884 422 3419 
Q 422 4038 858 4394 
Q 1294 4750 2059 4750 
Q 2388 4750 2728 4690 
Q 3069 4631 3425 4513 
z
" transform="scale(0.015625)"/>
       <path id="DejaVuSans-74" d="M 1172 4494 
L 1172 3500 
L 2356 3500 
L 2356 3053 
L 1172 3053 
L 1172 1153 
Q 1172 725 1289 603 
Q 1406 481 1766 481 
L 2356 481 
L 2356 0 
L 1766 0 
Q 1100 0 847 248 
Q 594 497 594 1153 
L 594 3053 
L 172 3053 
L 172 3500 
L 594 3500 
L 594 4494 
L 1172 4494 
z
" transform="scale(0.015625)"/>
       <path id="DejaVuSans-61" d="M 2194 1759 
Q 1497 1759 1228 1600 
Q 959 1441 959 1056 
Q 959 750 1161 570 
Q 1363 391 1709 391 
Q 2188 391 2477 730 
Q 2766 1069 2766 1631 
L 2766 1759 
L 2194 1759 
z
M 3341 1997 
L 3341 0 
L 2766 0 
L 2766 531 
Q 2569 213 2275 61 
Q 1981 -91 1556 -91 
Q 1019 -91 701 211 
Q 384 513 384 1019 
Q 384 1609 779 1909 
Q 1175 2209 1959 2209 
L 2766 2209 
L 2766 2266 
Q 2766 2663 2505 2880 
Q 2244 3097 1772 3097 
Q 1472 3097 1187 3025 
Q 903 2953 641 2809 
L 641 3341 
Q 956 3463 1253 3523 
Q 1550 3584 1831 3584 
Q 2591 3584 2966 3190 
Q 3341 2797 3341 1997 
z
" transform="scale(0.015625)"/>
       <path id="DejaVuSans-65" d="M 3597 1894 
L 3597 1613 
L 953 1613 
Q 991 1019 1311 708 
Q 1631 397 2203 397 
Q 2534 397 2845 478 
Q 3156 559 3463 722 
L 3463 178 
Q 3153 47 2828 -22 
Q 2503 -91 2169 -91 
Q 1331 -91 842 396 
Q 353 884 353 1716 
Q 353 2575 817 3079 
Q 1281 3584 2069 3584 
Q 2775 3584 3186 3129 
Q 3597 2675 3597 1894 
z
M 3022 2063 
Q 3016 2534 2758 2815 
Q 2500 3097 2075 3097 
Q 1594 3097 1305 2825 
Q 1016 2553 972 2059 
L 3022 2063 
z
" transform="scale(0.015625)"/>
      </defs>
      <use xlink:href="#DejaVuSans-53"/>
      <use xlink:href="#DejaVuSans-74" x="63.476562"/>
      <use xlink:href="#DejaVuSans-61" x="102.685547"/>
      <use xlink:href="#DejaVuSans-74" x="163.964844"/>
      <use xlink:href="#DejaVuSans-65" x="203.173828"/>
     </g>
    </g>
    <g id="line2d_20">
     <path d="M 243.40255 151.04795 
L 267.40255 151.04795 
L 291.40255 151.04795 
" style="fill: none; stroke: #000000; stroke-width: 2; stroke-linecap: square"/>
     <g>
      <use xlink:href="#me5add6e455" x="267.40255" y="151.04795" style="fill: #ffffff; stroke: #000000; stroke-width: 2"/>
     </g>
    </g>
    <g id="text_17">
     <!-- α+K -->
     <g transform="translate(310.60255 159.44795) scale(0.24 -0.24)">
      <defs>
       <path id="DejaVuSans-2b" d="M 2944 4013 
L 2944 2272 
L 4684 2272 
L 4684 1741 
L 2944 1741 
L 2944 0 
L 2419 0 
L 2419 1741 
L 678 1741 
L 678 2272 
L 2419 2272 
L 2419 4013 
L 2944 4013 
z
" transform="scale(0.015625)"/>
      </defs>
      <use xlink:href="#DejaVuSans-3b1"/>
      <use xlink:href="#DejaVuSans-2b" x="65.917969"/>
      <use xlink:href="#DejaVuSans-4b" x="149.707031"/>
     </g>
    </g>
    <g id="line2d_21">
     <path d="M 243.40255 186.27545 
L 267.40255 186.27545 
L 291.40255 186.27545 
" style="fill: none; stroke: #56b4e9; stroke-width: 2; stroke-linecap: square"/>
     <g>
      <use xlink:href="#md9f542d579" x="267.40255" y="186.27545" style="fill: #ffffff; stroke: #56b4e9; stroke-width: 2"/>
     </g>
    </g>
    <g id="text_18">
     <!-- α+K+State -->
     <g transform="translate(310.60255 194.67545) scale(0.24 -0.24)">
      <use xlink:href="#DejaVuSans-3b1"/>
      <use xlink:href="#DejaVuSans-2b" x="65.917969"/>
      <use xlink:href="#DejaVuSans-4b" x="149.707031"/>
      <use xlink:href="#DejaVuSans-2b" x="215.283203"/>
      <use xlink:href="#DejaVuSans-53" x="299.072266"/>
      <use xlink:href="#DejaVuSans-74" x="362.548828"/>
      <use xlink:href="#DejaVuSans-61" x="401.757812"/>
      <use xlink:href="#DejaVuSans-74" x="463.037109"/>
      <use xlink:href="#DejaVuSans-65" x="502.246094"/>
     </g>
    </g>
   </g>
  </g>
 </g>
 <defs>
  <clipPath id="pdfc932ce38">
   <rect x="90.89" y="7.2" width="384.31" height="336.46"/>
  </clipPath>
 </defs>
</svg>
