<?xml version="1.0" encoding="utf-8" standalone="no"?>
<!DOCTYPE svg PUBLIC "-//W3C//DTD SVG 1.1//EN"
  "http://www.w3.org/Graphics/SVG/1.1/DTD/svg11.dtd">
<svg xmlns:xlink="http://www.w3.org/1999/xlink" width="460.8pt" height="345.6pt" viewBox="0 0 460.8 345.6" xmlns="http://www.w3.org/2000/svg" version="1.1">
 <metadata>
  <rdf:RDF xmlns:dc="http://purl.org/dc/elements/1.1/" xmlns:cc="http://creativecommons.org/ns#" xmlns:rdf="http://www.w3.org/1999/02/22-rdf-syntax-ns#">
   <cc:Work>
    <dc:type rdf:resource="http://purl.org/dc/dcmitype/StillImage"/>
    <dc:date>2024-10-15T17:21:12.070613</dc:date>
    <dc:format>image/svg+xml</dc:format>
    <dc:creator>
     <cc:Agent>
      <dc:title>Matplotlib v3.9.0, https://matplotlib.org/</dc:title>
     </cc:Agent>
    </dc:creator>
   </cc:Work>
  </rdf:RDF>
 </metadata>
 <defs>
  <style type="text/css">*{stroke-linejoin: round; stroke-linecap: butt}</style>
 </defs>
 <g id="figure_1">
  <g id="patch_1">
   <path d="M 0 345.6 
L 460.8 345.6 
L 460.8 0 
L 0 0 
z
" style="fill: #ffffff"/>
  </g>
  <g id="axes_1">
   <g id="patch_2">
    <path d="M 57.6 307.584 
L 414.72 307.584 
L 414.72 41.472 
L 57.6 41.472 
z
" style="fill: #ffffff"/>
   </g>
   <g id="matplotlib.axis_1">
    <g id="xtick_1">
     <g id="line2d_1">
      <defs>
       <path id="m4ab3c01722" d="M 0 0 
L 0 3.5 
" style="stroke: #000000; stroke-width: 0.8"/>
      </defs>
      <g>
       <use xlink:href="#m4ab3c01722" x="66.198461" y="307.584" style="stroke: #000000; stroke-width: 0.8"/>
      </g>
     </g>
     <g id="text_1">
      <!-- 160 -->
      <g transform="translate(56.654711 322.182437) scale(0.1 -0.1)">
       <defs>
        <path id="DejaVuSans-31" d="M 794 531 
L 1825 531 
L 1825 4091 
L 703 3866 
L 703 4441 
L 1819 4666 
L 2450 4666 
L 2450 531 
L 3481 531 
L 3481 0 
L 794 0 
L 794 531 
z
" transform="scale(0.015625)"/>
        <path id="DejaVuSans-36" d="M 2113 2584 
Q 1688 2584 1439 2293 
Q 1191 2003 1191 1497 
Q 1191 994 1439 701 
Q 1688 409 2113 409 
Q 2538 409 2786 701 
Q 3034 994 3034 1497 
Q 3034 2003 2786 2293 
Q 2538 2584 2113 2584 
z
M 3366 4563 
L 3366 3988 
Q 3128 4100 2886 4159 
Q 2644 4219 2406 4219 
Q 1781 4219 1451 3797 
Q 1122 3375 1075 2522 
Q 1259 2794 1537 2939 
Q 1816 3084 2150 3084 
Q 2853 3084 3261 2657 
Q 3669 2231 3669 1497 
Q 3669 778 3244 343 
Q 2819 -91 2113 -91 
Q 1303 -91 875 529 
Q 447 1150 447 2328 
Q 447 3434 972 4092 
Q 1497 4750 2381 4750 
Q 2619 4750 2861 4703 
Q 3103 4656 3366 4563 
z
" transform="scale(0.015625)"/>
        <path id="DejaVuSans-30" d="M 2034 4250 
Q 1547 4250 1301 3770 
Q 1056 3291 1056 2328 
Q 1056 1369 1301 889 
Q 1547 409 2034 409 
Q 2525 409 2770 889 
Q 3016 1369 3016 2328 
Q 3016 3291 2770 3770 
Q 2525 4250 2034 4250 
z
M 2034 4750 
Q 2819 4750 3233 4129 
Q 3647 3509 3647 2328 
Q 3647 1150 3233 529 
Q 2819 -91 2034 -91 
Q 1250 -91 836 529 
Q 422 1150 422 2328 
Q 422 3509 836 4129 
Q 1250 4750 2034 4750 
z
" transform="scale(0.015625)"/>
       </defs>
       <use xlink:href="#DejaVuSans-31"/>
       <use xlink:href="#DejaVuSans-36" x="63.623047"/>
       <use xlink:href="#DejaVuSans-30" x="127.246094"/>
      </g>
     </g>
    </g>
    <g id="xtick_2">
     <g id="line2d_2">
      <g>
       <use xlink:href="#m4ab3c01722" x="107.72944" y="307.584" style="stroke: #000000; stroke-width: 0.8"/>
      </g>
     </g>
     <g id="text_2">
      <!-- 162 -->
      <g transform="translate(98.18569 322.182437) scale(0.1 -0.1)">
       <defs>
        <path id="DejaVuSans-32" d="M 1228 531 
L 3431 531 
L 3431 0 
L 469 0 
L 469 531 
Q 828 903 1448 1529 
Q 2069 2156 2228 2338 
Q 2531 2678 2651 2914 
Q 2772 3150 2772 3378 
Q 2772 3750 2511 3984 
Q 2250 4219 1831 4219 
Q 1534 4219 1204 4116 
Q 875 4013 500 3803 
L 500 4441 
Q 881 4594 1212 4672 
Q 1544 4750 1819 4750 
Q 2544 4750 2975 4387 
Q 3406 4025 3406 3419 
Q 3406 3131 3298 2873 
Q 3191 2616 2906 2266 
Q 2828 2175 2409 1742 
Q 1991 1309 1228 531 
z
" transform="scale(0.015625)"/>
       </defs>
       <use xlink:href="#DejaVuSans-31"/>
       <use xlink:href="#DejaVuSans-36" x="63.623047"/>
       <use xlink:href="#DejaVuSans-32" x="127.246094"/>
      </g>
     </g>
    </g>
    <g id="xtick_3">
     <g id="line2d_3">
      <g>
       <use xlink:href="#m4ab3c01722" x="149.260418" y="307.584" style="stroke: #000000; stroke-width: 0.8"/>
      </g>
     </g>
     <g id="text_3">
      <!-- 164 -->
      <g transform="translate(139.716668 322.182437) scale(0.1 -0.1)">
       <defs>
        <path id="DejaVuSans-34" d="M 2419 4116 
L 825 1625 
L 2419 1625 
L 2419 4116 
z
M 2253 4666 
L 3047 4666 
L 3047 1625 
L 3713 1625 
L 3713 1100 
L 3047 1100 
L 3047 0 
L 2419 0 
L 2419 1100 
L 313 1100 
L 313 1709 
L 2253 4666 
z
" transform="scale(0.015625)"/>
       </defs>
       <use xlink:href="#DejaVuSans-31"/>
       <use xlink:href="#DejaVuSans-36" x="63.623047"/>
       <use xlink:href="#DejaVuSans-34" x="127.246094"/>
      </g>
     </g>
    </g>
    <g id="xtick_4">
     <g id="line2d_4">
      <g>
       <use xlink:href="#m4ab3c01722" x="190.791397" y="307.584" style="stroke: #000000; stroke-width: 0.8"/>
      </g>
     </g>
     <g id="text_4">
      <!-- 166 -->
      <g transform="translate(181.247647 322.182437) scale(0.1 -0.1)">
       <use xlink:href="#DejaVuSans-31"/>
       <use xlink:href="#DejaVuSans-36" x="63.623047"/>
       <use xlink:href="#DejaVuSans-36" x="127.246094"/>
      </g>
     </g>
    </g>
    <g id="xtick_5">
     <g id="line2d_5">
      <g>
       <use xlink:href="#m4ab3c01722" x="232.322375" y="307.584" style="stroke: #000000; stroke-width: 0.8"/>
      </g>
     </g>
     <g id="text_5">
      <!-- 168 -->
      <g transform="translate(222.778625 322.182437) scale(0.1 -0.1)">
       <defs>
        <path id="DejaVuSans-38" d="M 2034 2216 
Q 1584 2216 1326 1975 
Q 1069 1734 1069 1313 
Q 1069 891 1326 650 
Q 1584 409 2034 409 
Q 2484 409 2743 651 
Q 3003 894 3003 1313 
Q 3003 1734 2745 1975 
Q 2488 2216 2034 2216 
z
M 1403 2484 
Q 997 2584 770 2862 
Q 544 3141 544 3541 
Q 544 4100 942 4425 
Q 1341 4750 2034 4750 
Q 2731 4750 3128 4425 
Q 3525 4100 3525 3541 
Q 3525 3141 3298 2862 
Q 3072 2584 2669 2484 
Q 3125 2378 3379 2068 
Q 3634 1759 3634 1313 
Q 3634 634 3220 271 
Q 2806 -91 2034 -91 
Q 1263 -91 848 271 
Q 434 634 434 1313 
Q 434 1759 690 2068 
Q 947 2378 1403 2484 
z
M 1172 3481 
Q 1172 3119 1398 2916 
Q 1625 2713 2034 2713 
Q 2441 2713 2670 2916 
Q 2900 3119 2900 3481 
Q 2900 3844 2670 4047 
Q 2441 4250 2034 4250 
Q 1625 4250 1398 4047 
Q 1172 3844 1172 3481 
z
" transform="scale(0.015625)"/>
       </defs>
       <use xlink:href="#DejaVuSans-31"/>
       <use xlink:href="#DejaVuSans-36" x="63.623047"/>
       <use xlink:href="#DejaVuSans-38" x="127.246094"/>
      </g>
     </g>
    </g>
    <g id="xtick_6">
     <g id="line2d_6">
      <g>
       <use xlink:href="#m4ab3c01722" x="273.853354" y="307.584" style="stroke: #000000; stroke-width: 0.8"/>
      </g>
     </g>
     <g id="text_6">
      <!-- 170 -->
      <g transform="translate(264.309604 322.182437) scale(0.1 -0.1)">
       <defs>
        <path id="DejaVuSans-37" d="M 525 4666 
L 3525 4666 
L 3525 4397 
L 1831 0 
L 1172 0 
L 2766 4134 
L 525 4134 
L 525 4666 
z
" transform="scale(0.015625)"/>
       </defs>
       <use xlink:href="#DejaVuSans-31"/>
       <use xlink:href="#DejaVuSans-37" x="63.623047"/>
       <use xlink:href="#DejaVuSans-30" x="127.246094"/>
      </g>
     </g>
    </g>
    <g id="xtick_7">
     <g id="line2d_7">
      <g>
       <use xlink:href="#m4ab3c01722" x="315.384332" y="307.584" style="stroke: #000000; stroke-width: 0.8"/>
      </g>
     </g>
     <g id="text_7">
      <!-- 172 -->
      <g transform="translate(305.840582 322.182437) scale(0.1 -0.1)">
       <use xlink:href="#DejaVuSans-31"/>
       <use xlink:href="#DejaVuSans-37" x="63.623047"/>
       <use xlink:href="#DejaVuSans-32" x="127.246094"/>
      </g>
     </g>
    </g>
    <g id="xtick_8">
     <g id="line2d_8">
      <g>
       <use xlink:href="#m4ab3c01722" x="356.915311" y="307.584" style="stroke: #000000; stroke-width: 0.8"/>
      </g>
     </g>
     <g id="text_8">
      <!-- 174 -->
      <g transform="translate(347.371561 322.182437) scale(0.1 -0.1)">
       <use xlink:href="#DejaVuSans-31"/>
       <use xlink:href="#DejaVuSans-37" x="63.623047"/>
       <use xlink:href="#DejaVuSans-34" x="127.246094"/>
      </g>
     </g>
    </g>
    <g id="xtick_9">
     <g id="line2d_9">
      <g>
       <use xlink:href="#m4ab3c01722" x="398.446289" y="307.584" style="stroke: #000000; stroke-width: 0.8"/>
      </g>
     </g>
     <g id="text_9">
      <!-- 176 -->
      <g transform="translate(388.902539 322.182437) scale(0.1 -0.1)">
       <use xlink:href="#DejaVuSans-31"/>
       <use xlink:href="#DejaVuSans-37" x="63.623047"/>
       <use xlink:href="#DejaVuSans-36" x="127.246094"/>
      </g>
     </g>
    </g>
   </g>
   <g id="matplotlib.axis_2">
    <g id="ytick_1">
     <g id="line2d_10">
      <defs>
       <path id="ma3d7a13789" d="M 0 0 
L -3.5 0 
" style="stroke: #000000; stroke-width: 0.8"/>
      </defs>
      <g>
       <use xlink:href="#ma3d7a13789" x="57.6" y="275.677127" style="stroke: #000000; stroke-width: 0.8"/>
      </g>
     </g>
     <g id="text_10">
      <!-- 48 -->
      <g transform="translate(37.875 279.476346) scale(0.1 -0.1)">
       <use xlink:href="#DejaVuSans-34"/>
       <use xlink:href="#DejaVuSans-38" x="63.623047"/>
      </g>
     </g>
    </g>
    <g id="ytick_2">
     <g id="line2d_11">
      <g>
       <use xlink:href="#ma3d7a13789" x="57.6" y="232.026794" style="stroke: #000000; stroke-width: 0.8"/>
      </g>
     </g>
     <g id="text_11">
      <!-- 50 -->
      <g transform="translate(37.875 235.826012) scale(0.1 -0.1)">
       <defs>
        <path id="DejaVuSans-35" d="M 691 4666 
L 3169 4666 
L 3169 4134 
L 1269 4134 
L 1269 2991 
Q 1406 3038 1543 3061 
Q 1681 3084 1819 3084 
Q 2600 3084 3056 2656 
Q 3513 2228 3513 1497 
Q 3513 744 3044 326 
Q 2575 -91 1722 -91 
Q 1428 -91 1123 -41 
Q 819 9 494 109 
L 494 744 
Q 775 591 1075 516 
Q 1375 441 1709 441 
Q 2250 441 2565 725 
Q 2881 1009 2881 1497 
Q 2881 1984 2565 2268 
Q 2250 2553 1709 2553 
Q 1456 2553 1204 2497 
Q 953 2441 691 2322 
L 691 4666 
z
" transform="scale(0.015625)"/>
       </defs>
       <use xlink:href="#DejaVuSans-35"/>
       <use xlink:href="#DejaVuSans-30" x="63.623047"/>
      </g>
     </g>
    </g>
    <g id="ytick_3">
     <g id="line2d_12">
      <g>
       <use xlink:href="#ma3d7a13789" x="57.6" y="188.37646" style="stroke: #000000; stroke-width: 0.8"/>
      </g>
     </g>
     <g id="text_12">
      <!-- 52 -->
      <g transform="translate(37.875 192.175679) scale(0.1 -0.1)">
       <use xlink:href="#DejaVuSans-35"/>
       <use xlink:href="#DejaVuSans-32" x="63.623047"/>
      </g>
     </g>
    </g>
    <g id="ytick_4">
     <g id="line2d_13">
      <g>
       <use xlink:href="#ma3d7a13789" x="57.6" y="144.726126" style="stroke: #000000; stroke-width: 0.8"/>
      </g>
     </g>
     <g id="text_13">
      <!-- 54 -->
      <g transform="translate(37.875 148.525345) scale(0.1 -0.1)">
       <use xlink:href="#DejaVuSans-35"/>
       <use xlink:href="#DejaVuSans-34" x="63.623047"/>
      </g>
     </g>
    </g>
    <g id="ytick_5">
     <g id="line2d_14">
      <g>
       <use xlink:href="#ma3d7a13789" x="57.6" y="101.075792" style="stroke: #000000; stroke-width: 0.8"/>
      </g>
     </g>
     <g id="text_14">
      <!-- 56 -->
      <g transform="translate(37.875 104.875011) scale(0.1 -0.1)">
       <use xlink:href="#DejaVuSans-35"/>
       <use xlink:href="#DejaVuSans-36" x="63.623047"/>
      </g>
     </g>
    </g>
    <g id="ytick_6">
     <g id="line2d_15">
      <g>
       <use xlink:href="#ma3d7a13789" x="57.6" y="57.425458" style="stroke: #000000; stroke-width: 0.8"/>
      </g>
     </g>
     <g id="text_15">
      <!-- 58 -->
      <g transform="translate(37.875 61.224677) scale(0.1 -0.1)">
       <use xlink:href="#DejaVuSans-35"/>
       <use xlink:href="#DejaVuSans-38" x="63.623047"/>
      </g>
     </g>
    </g>
   </g>
   <g id="line2d_16">
    <path d="M 87.176495 280.553009 
L 73.832727 278.24985 
L 111.471254 283.15194 
L 145.014664 295.488 
L 186.488691 196.614775 
L 151.615132 191.338241 
L 203.107392 183.123878 
L 215.394324 212.854311 
L 205.529515 206.817949 
L 239.845186 177.56503 
L 223.194537 170.82711 
L 200.359158 215.660137 
L 212.617212 170.972935 
L 253.445105 143.51132 
L 257.727378 148.721929 
L 261.309311 109.685429 
L 232.143703 164.012903 
L 251.215017 125.771081 
L 254.2861 176.254456 
L 255.8297 174.643715 
L 255.486794 154.701442 
L 266.524002 123.373955 
L 318.030579 101.750209 
L 322.729192 122.095651 
L 295.905148 85.884052 
L 350.865113 53.568 
L 353.437614 80.268985 
L 374.247895 92.421166 
L 395.93964 59.036572 
L 391.652757 115.171008 
L 391.000627 118.51216 
L 395.735332 115.728909 
L 394.079607 114.455609 
L 388.502169 116.955384 
L 391.944627 119.151805 
L 392.901296 115.3113 
L 392.641671 117.344515 
L 388.885556 117.426541 
L 387.23641 118.720359 
L 395.566872 116.81327 
L 391.662597 118.488826 
L 391.577223 118.885893 
L 394.284981 119.418774 
L 390.055318 115.961185 
L 391.508118 119.200256 
L 387.659583 117.562734 
L 394.103595 116.720382 
L 388.810195 114.980895 
L 390.413691 116.303365 
L 389.847705 118.077375 
L 392.379904 112.053999 
L 393.424485 112.352647 
L 394.145203 118.896778 
L 389.249112 112.859742 
L 387.77069 115.859565 
L 394.833592 118.860742 
L 392.893412 111.995051 
L 393.630095 115.965895 
L 391.431611 123.782155 
L 396.075327 113.022143 
L 390.347384 118.278118 
L 388.371282 114.39676 
L 398.487273 116.974196 
L 395.393915 118.275692 
L 392.729649 115.589865 
L 387.746624 115.480057 
L 391.842509 120.545691 
L 394.448836 114.29079 
L 393.892117 114.319157 
L 392.011674 118.770627 
L 391.828182 114.035183 
L 388.790015 120.035772 
L 390.204815 118.86699 
L 395.662248 118.915896 
L 391.097879 119.684224 
L 390.81935 120.03808 
L 392.614489 116.331699 
L 389.469294 116.965028 
L 390.353931 117.239331 
L 393.266692 120.016482 
L 395.772016 114.65971 
L 392.037741 120.970691 
L 394.28764 116.18251 
L 387.549521 120.119793 
L 390.913334 114.172545 
L 395.820485 116.81293 
L 391.805915 112.94611 
L 394.130204 115.99934 
L 392.093533 115.385692 
L 391.306243 119.942307 
L 392.2967 121.241771 
L 391.190477 114.796483 
L 392.663618 120.230218 
L 391.381553 116.183041 
L 387.877928 117.208228 
L 394.283016 114.546275 
L 393.368173 117.614582 
L 394.133835 113.836843 
L 390.854406 112.849879 
L 388.993691 121.18863 
L 389.807992 118.372075 
L 392.214848 114.651766 
L 391.116575 117.149829 
L 389.037908 115.761897 
L 388.213875 111.721156 
L 395.053087 113.083183 
L 394.860704 117.732589 
L 395.628961 116.741533 
L 389.055134 120.532086 
L 393.836915 119.038702 
L 391.914461 116.485044 
L 390.295894 116.080788 
L 389.917448 117.123869 
L 394.30948 119.824204 
L 388.253645 114.218417 
L 393.263603 118.597629 
L 389.101998 118.198717 
L 387.086694 114.961128 
L 391.489662 116.921142 
L 393.474822 115.327391 
L 396.399329 120.658065 
L 386.372791 117.42849 
L 391.484943 113.45734 
L 393.452206 117.744788 
L 390.240338 121.674179 
L 386.474329 116.067198 
L 391.500465 119.046673 
L 389.268438 112.602089 
L 390.13012 116.791232 
L 387.159155 114.584611 
L 388.811426 123.728354 
L 387.736519 115.658806 
L 391.075023 111.653529 
L 393.876711 116.540586 
L 394.599599 119.225184 
L 390.388073 122.22443 
L 391.827391 115.191418 
L 390.795107 118.590858 
L 393.561008 116.474731 
L 386.675035 121.503558 
L 388.049032 116.149524 
L 393.540681 115.566964 
L 396.163143 114.022547 
L 388.777549 114.443902 
L 390.855402 120.409457 
L 394.342286 115.252874 
L 393.525441 119.272393 
L 394.805242 115.87344 
L 392.520785 120.257316 
L 390.012963 117.617835 
L 392.954855 112.128466 
L 392.463818 114.204973 
L 388.600357 121.783061 
L 389.193232 113.177872 
L 341.79042 115.201888 
L 310.123812 100.501312 
L 392.223734 130.483619 
L 388.243543 136.806763 
L 387.695881 137.064802 
L 391.97503 135.643223 
L 389.882004 127.779897 
L 389.14555 132.4797 
L 388.263997 133.625894 
L 389.167872 137.263389 
L 391.265308 131.904072 
L 386.787774 131.024985 
L 391.745765 134.671135 
L 389.697806 129.486457 
L 390.48475 136.369875 
L 391.254741 135.363985 
L 387.964094 133.843374 
L 390.882955 133.917525 
L 395.495902 136.185064 
L 391.851869 133.100667 
L 388.143192 130.654156 
L 390.304961 131.757035 
L 386.241474 136.162031 
L 386.399652 139.332658 
L 386.175719 134.666491 
L 391.062016 136.551603 
L 391.154257 132.034067 
L 391.405682 132.282801 
L 389.32924 132.648536 
L 389.059969 137.591049 
L 389.246397 138.885837 
L 384.201573 136.372729 
L 386.721667 131.679762 
L 388.936774 136.979412 
L 390.787241 133.256847 
L 386.55631 132.395651 
L 390.276482 141.073403 
L 390.418058 132.422612 
L 392.151607 135.724951 
L 389.977979 137.347325 
L 389.065036 133.658745 
L 393.72344 134.39807 
L 388.650365 136.473084 
L 390.378931 134.47767 
L 391.402924 132.397516 
L 391.402924 132.397516 
" clip-path="url(#p6b9aba9725)" style="fill: none; stroke: #1f77b4; stroke-width: 1.5; stroke-linecap: square"/>
    <defs>
     <path id="mb58a47e85b" d="M 0 3 
C 0.795609 3 1.55874 2.683901 2.12132 2.12132 
C 2.683901 1.55874 3 0.795609 3 0 
C 3 -0.795609 2.683901 -1.55874 2.12132 -2.12132 
C 1.55874 -2.683901 0.795609 -3 0 -3 
C -0.795609 -3 -1.55874 -2.683901 -2.12132 -2.12132 
C -2.683901 -1.55874 -3 -0.795609 -3 0 
C -3 0.795609 -2.683901 1.55874 -2.12132 2.12132 
C -1.55874 2.683901 -0.795609 3 0 3 
z
" style="stroke: #1f77b4"/>
    </defs>
    <g clip-path="url(#p6b9aba9725)">
     <use xlink:href="#mb58a47e85b" x="87.176495" y="280.553009" style="fill: #1f77b4; stroke: #1f77b4"/>
     <use xlink:href="#mb58a47e85b" x="73.832727" y="278.24985" style="fill: #1f77b4; stroke: #1f77b4"/>
     <use xlink:href="#mb58a47e85b" x="111.471254" y="283.15194" style="fill: #1f77b4; stroke: #1f77b4"/>
     <use xlink:href="#mb58a47e85b" x="145.014664" y="295.488" style="fill: #1f77b4; stroke: #1f77b4"/>
     <use xlink:href="#mb58a47e85b" x="186.488691" y="196.614775" style="fill: #1f77b4; stroke: #1f77b4"/>
     <use xlink:href="#mb58a47e85b" x="151.615132" y="191.338241" style="fill: #1f77b4; stroke: #1f77b4"/>
     <use xlink:href="#mb58a47e85b" x="203.107392" y="183.123878" style="fill: #1f77b4; stroke: #1f77b4"/>
     <use xlink:href="#mb58a47e85b" x="215.394324" y="212.854311" style="fill: #1f77b4; stroke: #1f77b4"/>
     <use xlink:href="#mb58a47e85b" x="205.529515" y="206.817949" style="fill: #1f77b4; stroke: #1f77b4"/>
     <use xlink:href="#mb58a47e85b" x="239.845186" y="177.56503" style="fill: #1f77b4; stroke: #1f77b4"/>
     <use xlink:href="#mb58a47e85b" x="223.194537" y="170.82711" style="fill: #1f77b4; stroke: #1f77b4"/>
     <use xlink:href="#mb58a47e85b" x="200.359158" y="215.660137" style="fill: #1f77b4; stroke: #1f77b4"/>
     <use xlink:href="#mb58a47e85b" x="212.617212" y="170.972935" style="fill: #1f77b4; stroke: #1f77b4"/>
     <use xlink:href="#mb58a47e85b" x="253.445105" y="143.51132" style="fill: #1f77b4; stroke: #1f77b4"/>
     <use xlink:href="#mb58a47e85b" x="257.727378" y="148.721929" style="fill: #1f77b4; stroke: #1f77b4"/>
     <use xlink:href="#mb58a47e85b" x="261.309311" y="109.685429" style="fill: #1f77b4; stroke: #1f77b4"/>
     <use xlink:href="#mb58a47e85b" x="232.143703" y="164.012903" style="fill: #1f77b4; stroke: #1f77b4"/>
     <use xlink:href="#mb58a47e85b" x="251.215017" y="125.771081" style="fill: #1f77b4; stroke: #1f77b4"/>
     <use xlink:href="#mb58a47e85b" x="254.2861" y="176.254456" style="fill: #1f77b4; stroke: #1f77b4"/>
     <use xlink:href="#mb58a47e85b" x="255.8297" y="174.643715" style="fill: #1f77b4; stroke: #1f77b4"/>
     <use xlink:href="#mb58a47e85b" x="255.486794" y="154.701442" style="fill: #1f77b4; stroke: #1f77b4"/>
     <use xlink:href="#mb58a47e85b" x="266.524002" y="123.373955" style="fill: #1f77b4; stroke: #1f77b4"/>
     <use xlink:href="#mb58a47e85b" x="318.030579" y="101.750209" style="fill: #1f77b4; stroke: #1f77b4"/>
     <use xlink:href="#mb58a47e85b" x="322.729192" y="122.095651" style="fill: #1f77b4; stroke: #1f77b4"/>
     <use xlink:href="#mb58a47e85b" x="295.905148" y="85.884052" style="fill: #1f77b4; stroke: #1f77b4"/>
     <use xlink:href="#mb58a47e85b" x="350.865113" y="53.568" style="fill: #1f77b4; stroke: #1f77b4"/>
     <use xlink:href="#mb58a47e85b" x="353.437614" y="80.268985" style="fill: #1f77b4; stroke: #1f77b4"/>
     <use xlink:href="#mb58a47e85b" x="374.247895" y="92.421166" style="fill: #1f77b4; stroke: #1f77b4"/>
     <use xlink:href="#mb58a47e85b" x="395.93964" y="59.036572" style="fill: #1f77b4; stroke: #1f77b4"/>
     <use xlink:href="#mb58a47e85b" x="391.652757" y="115.171008" style="fill: #1f77b4; stroke: #1f77b4"/>
     <use xlink:href="#mb58a47e85b" x="391.000627" y="118.51216" style="fill: #1f77b4; stroke: #1f77b4"/>
     <use xlink:href="#mb58a47e85b" x="395.735332" y="115.728909" style="fill: #1f77b4; stroke: #1f77b4"/>
     <use xlink:href="#mb58a47e85b" x="394.079607" y="114.455609" style="fill: #1f77b4; stroke: #1f77b4"/>
     <use xlink:href="#mb58a47e85b" x="388.502169" y="116.955384" style="fill: #1f77b4; stroke: #1f77b4"/>
     <use xlink:href="#mb58a47e85b" x="391.944627" y="119.151805" style="fill: #1f77b4; stroke: #1f77b4"/>
     <use xlink:href="#mb58a47e85b" x="392.901296" y="115.3113" style="fill: #1f77b4; stroke: #1f77b4"/>
     <use xlink:href="#mb58a47e85b" x="392.641671" y="117.344515" style="fill: #1f77b4; stroke: #1f77b4"/>
     <use xlink:href="#mb58a47e85b" x="388.885556" y="117.426541" style="fill: #1f77b4; stroke: #1f77b4"/>
     <use xlink:href="#mb58a47e85b" x="387.23641" y="118.720359" style="fill: #1f77b4; stroke: #1f77b4"/>
     <use xlink:href="#mb58a47e85b" x="395.566872" y="116.81327" style="fill: #1f77b4; stroke: #1f77b4"/>
     <use xlink:href="#mb58a47e85b" x="391.662597" y="118.488826" style="fill: #1f77b4; stroke: #1f77b4"/>
     <use xlink:href="#mb58a47e85b" x="391.577223" y="118.885893" style="fill: #1f77b4; stroke: #1f77b4"/>
     <use xlink:href="#mb58a47e85b" x="394.284981" y="119.418774" style="fill: #1f77b4; stroke: #1f77b4"/>
     <use xlink:href="#mb58a47e85b" x="390.055318" y="115.961185" style="fill: #1f77b4; stroke: #1f77b4"/>
     <use xlink:href="#mb58a47e85b" x="391.508118" y="119.200256" style="fill: #1f77b4; stroke: #1f77b4"/>
     <use xlink:href="#mb58a47e85b" x="387.659583" y="117.562734" style="fill: #1f77b4; stroke: #1f77b4"/>
     <use xlink:href="#mb58a47e85b" x="394.103595" y="116.720382" style="fill: #1f77b4; stroke: #1f77b4"/>
     <use xlink:href="#mb58a47e85b" x="388.810195" y="114.980895" style="fill: #1f77b4; stroke: #1f77b4"/>
     <use xlink:href="#mb58a47e85b" x="390.413691" y="116.303365" style="fill: #1f77b4; stroke: #1f77b4"/>
     <use xlink:href="#mb58a47e85b" x="389.847705" y="118.077375" style="fill: #1f77b4; stroke: #1f77b4"/>
     <use xlink:href="#mb58a47e85b" x="392.379904" y="112.053999" style="fill: #1f77b4; stroke: #1f77b4"/>
     <use xlink:href="#mb58a47e85b" x="393.424485" y="112.352647" style="fill: #1f77b4; stroke: #1f77b4"/>
     <use xlink:href="#mb58a47e85b" x="394.145203" y="118.896778" style="fill: #1f77b4; stroke: #1f77b4"/>
     <use xlink:href="#mb58a47e85b" x="389.249112" y="112.859742" style="fill: #1f77b4; stroke: #1f77b4"/>
     <use xlink:href="#mb58a47e85b" x="387.77069" y="115.859565" style="fill: #1f77b4; stroke: #1f77b4"/>
     <use xlink:href="#mb58a47e85b" x="394.833592" y="118.860742" style="fill: #1f77b4; stroke: #1f77b4"/>
     <use xlink:href="#mb58a47e85b" x="392.893412" y="111.995051" style="fill: #1f77b4; stroke: #1f77b4"/>
     <use xlink:href="#mb58a47e85b" x="393.630095" y="115.965895" style="fill: #1f77b4; stroke: #1f77b4"/>
     <use xlink:href="#mb58a47e85b" x="391.431611" y="123.782155" style="fill: #1f77b4; stroke: #1f77b4"/>
     <use xlink:href="#mb58a47e85b" x="396.075327" y="113.022143" style="fill: #1f77b4; stroke: #1f77b4"/>
     <use xlink:href="#mb58a47e85b" x="390.347384" y="118.278118" style="fill: #1f77b4; stroke: #1f77b4"/>
     <use xlink:href="#mb58a47e85b" x="388.371282" y="114.39676" style="fill: #1f77b4; stroke: #1f77b4"/>
     <use xlink:href="#mb58a47e85b" x="398.487273" y="116.974196" style="fill: #1f77b4; stroke: #1f77b4"/>
     <use xlink:href="#mb58a47e85b" x="395.393915" y="118.275692" style="fill: #1f77b4; stroke: #1f77b4"/>
     <use xlink:href="#mb58a47e85b" x="392.729649" y="115.589865" style="fill: #1f77b4; stroke: #1f77b4"/>
     <use xlink:href="#mb58a47e85b" x="387.746624" y="115.480057" style="fill: #1f77b4; stroke: #1f77b4"/>
     <use xlink:href="#mb58a47e85b" x="391.842509" y="120.545691" style="fill: #1f77b4; stroke: #1f77b4"/>
     <use xlink:href="#mb58a47e85b" x="394.448836" y="114.29079" style="fill: #1f77b4; stroke: #1f77b4"/>
     <use xlink:href="#mb58a47e85b" x="393.892117" y="114.319157" style="fill: #1f77b4; stroke: #1f77b4"/>
     <use xlink:href="#mb58a47e85b" x="392.011674" y="118.770627" style="fill: #1f77b4; stroke: #1f77b4"/>
     <use xlink:href="#mb58a47e85b" x="391.828182" y="114.035183" style="fill: #1f77b4; stroke: #1f77b4"/>
     <use xlink:href="#mb58a47e85b" x="388.790015" y="120.035772" style="fill: #1f77b4; stroke: #1f77b4"/>
     <use xlink:href="#mb58a47e85b" x="390.204815" y="118.86699" style="fill: #1f77b4; stroke: #1f77b4"/>
     <use xlink:href="#mb58a47e85b" x="395.662248" y="118.915896" style="fill: #1f77b4; stroke: #1f77b4"/>
     <use xlink:href="#mb58a47e85b" x="391.097879" y="119.684224" style="fill: #1f77b4; stroke: #1f77b4"/>
     <use xlink:href="#mb58a47e85b" x="390.81935" y="120.03808" style="fill: #1f77b4; stroke: #1f77b4"/>
     <use xlink:href="#mb58a47e85b" x="392.614489" y="116.331699" style="fill: #1f77b4; stroke: #1f77b4"/>
     <use xlink:href="#mb58a47e85b" x="389.469294" y="116.965028" style="fill: #1f77b4; stroke: #1f77b4"/>
     <use xlink:href="#mb58a47e85b" x="390.353931" y="117.239331" style="fill: #1f77b4; stroke: #1f77b4"/>
     <use xlink:href="#mb58a47e85b" x="393.266692" y="120.016482" style="fill: #1f77b4; stroke: #1f77b4"/>
     <use xlink:href="#mb58a47e85b" x="395.772016" y="114.65971" style="fill: #1f77b4; stroke: #1f77b4"/>
     <use xlink:href="#mb58a47e85b" x="392.037741" y="120.970691" style="fill: #1f77b4; stroke: #1f77b4"/>
     <use xlink:href="#mb58a47e85b" x="394.28764" y="116.18251" style="fill: #1f77b4; stroke: #1f77b4"/>
     <use xlink:href="#mb58a47e85b" x="387.549521" y="120.119793" style="fill: #1f77b4; stroke: #1f77b4"/>
     <use xlink:href="#mb58a47e85b" x="390.913334" y="114.172545" style="fill: #1f77b4; stroke: #1f77b4"/>
     <use xlink:href="#mb58a47e85b" x="395.820485" y="116.81293" style="fill: #1f77b4; stroke: #1f77b4"/>
     <use xlink:href="#mb58a47e85b" x="391.805915" y="112.94611" style="fill: #1f77b4; stroke: #1f77b4"/>
     <use xlink:href="#mb58a47e85b" x="394.130204" y="115.99934" style="fill: #1f77b4; stroke: #1f77b4"/>
     <use xlink:href="#mb58a47e85b" x="392.093533" y="115.385692" style="fill: #1f77b4; stroke: #1f77b4"/>
     <use xlink:href="#mb58a47e85b" x="391.306243" y="119.942307" style="fill: #1f77b4; stroke: #1f77b4"/>
     <use xlink:href="#mb58a47e85b" x="392.2967" y="121.241771" style="fill: #1f77b4; stroke: #1f77b4"/>
     <use xlink:href="#mb58a47e85b" x="391.190477" y="114.796483" style="fill: #1f77b4; stroke: #1f77b4"/>
     <use xlink:href="#mb58a47e85b" x="392.663618" y="120.230218" style="fill: #1f77b4; stroke: #1f77b4"/>
     <use xlink:href="#mb58a47e85b" x="391.381553" y="116.183041" style="fill: #1f77b4; stroke: #1f77b4"/>
     <use xlink:href="#mb58a47e85b" x="387.877928" y="117.208228" style="fill: #1f77b4; stroke: #1f77b4"/>
     <use xlink:href="#mb58a47e85b" x="394.283016" y="114.546275" style="fill: #1f77b4; stroke: #1f77b4"/>
     <use xlink:href="#mb58a47e85b" x="393.368173" y="117.614582" style="fill: #1f77b4; stroke: #1f77b4"/>
     <use xlink:href="#mb58a47e85b" x="394.133835" y="113.836843" style="fill: #1f77b4; stroke: #1f77b4"/>
     <use xlink:href="#mb58a47e85b" x="390.854406" y="112.849879" style="fill: #1f77b4; stroke: #1f77b4"/>
     <use xlink:href="#mb58a47e85b" x="388.993691" y="121.18863" style="fill: #1f77b4; stroke: #1f77b4"/>
     <use xlink:href="#mb58a47e85b" x="389.70053" y="118.83671" style="fill: #1f77b4; stroke: #1f77b4"/>
     <use xlink:href="#mb58a47e85b" x="389.807992" y="118.372075" style="fill: #1f77b4; stroke: #1f77b4"/>
     <use xlink:href="#mb58a47e85b" x="392.214848" y="114.651766" style="fill: #1f77b4; stroke: #1f77b4"/>
     <use xlink:href="#mb58a47e85b" x="391.116575" y="117.149829" style="fill: #1f77b4; stroke: #1f77b4"/>
     <use xlink:href="#mb58a47e85b" x="389.037908" y="115.761897" style="fill: #1f77b4; stroke: #1f77b4"/>
     <use xlink:href="#mb58a47e85b" x="388.213875" y="111.721156" style="fill: #1f77b4; stroke: #1f77b4"/>
     <use xlink:href="#mb58a47e85b" x="395.053087" y="113.083183" style="fill: #1f77b4; stroke: #1f77b4"/>
     <use xlink:href="#mb58a47e85b" x="394.860704" y="117.732589" style="fill: #1f77b4; stroke: #1f77b4"/>
     <use xlink:href="#mb58a47e85b" x="395.628961" y="116.741533" style="fill: #1f77b4; stroke: #1f77b4"/>
     <use xlink:href="#mb58a47e85b" x="389.055134" y="120.532086" style="fill: #1f77b4; stroke: #1f77b4"/>
     <use xlink:href="#mb58a47e85b" x="393.836915" y="119.038702" style="fill: #1f77b4; stroke: #1f77b4"/>
     <use xlink:href="#mb58a47e85b" x="391.914461" y="116.485044" style="fill: #1f77b4; stroke: #1f77b4"/>
     <use xlink:href="#mb58a47e85b" x="390.295894" y="116.080788" style="fill: #1f77b4; stroke: #1f77b4"/>
     <use xlink:href="#mb58a47e85b" x="389.917448" y="117.123869" style="fill: #1f77b4; stroke: #1f77b4"/>
     <use xlink:href="#mb58a47e85b" x="394.30948" y="119.824204" style="fill: #1f77b4; stroke: #1f77b4"/>
     <use xlink:href="#mb58a47e85b" x="388.253645" y="114.218417" style="fill: #1f77b4; stroke: #1f77b4"/>
     <use xlink:href="#mb58a47e85b" x="393.263603" y="118.597629" style="fill: #1f77b4; stroke: #1f77b4"/>
     <use xlink:href="#mb58a47e85b" x="389.101998" y="118.198717" style="fill: #1f77b4; stroke: #1f77b4"/>
     <use xlink:href="#mb58a47e85b" x="387.086694" y="114.961128" style="fill: #1f77b4; stroke: #1f77b4"/>
     <use xlink:href="#mb58a47e85b" x="391.489662" y="116.921142" style="fill: #1f77b4; stroke: #1f77b4"/>
     <use xlink:href="#mb58a47e85b" x="393.474822" y="115.327391" style="fill: #1f77b4; stroke: #1f77b4"/>
     <use xlink:href="#mb58a47e85b" x="396.399329" y="120.658065" style="fill: #1f77b4; stroke: #1f77b4"/>
     <use xlink:href="#mb58a47e85b" x="386.372791" y="117.42849" style="fill: #1f77b4; stroke: #1f77b4"/>
     <use xlink:href="#mb58a47e85b" x="391.484943" y="113.45734" style="fill: #1f77b4; stroke: #1f77b4"/>
     <use xlink:href="#mb58a47e85b" x="393.452206" y="117.744788" style="fill: #1f77b4; stroke: #1f77b4"/>
     <use xlink:href="#mb58a47e85b" x="390.240338" y="121.674179" style="fill: #1f77b4; stroke: #1f77b4"/>
     <use xlink:href="#mb58a47e85b" x="386.474329" y="116.067198" style="fill: #1f77b4; stroke: #1f77b4"/>
     <use xlink:href="#mb58a47e85b" x="391.500465" y="119.046673" style="fill: #1f77b4; stroke: #1f77b4"/>
     <use xlink:href="#mb58a47e85b" x="389.268438" y="112.602089" style="fill: #1f77b4; stroke: #1f77b4"/>
     <use xlink:href="#mb58a47e85b" x="390.13012" y="116.791232" style="fill: #1f77b4; stroke: #1f77b4"/>
     <use xlink:href="#mb58a47e85b" x="387.159155" y="114.584611" style="fill: #1f77b4; stroke: #1f77b4"/>
     <use xlink:href="#mb58a47e85b" x="388.811426" y="123.728354" style="fill: #1f77b4; stroke: #1f77b4"/>
     <use xlink:href="#mb58a47e85b" x="387.736519" y="115.658806" style="fill: #1f77b4; stroke: #1f77b4"/>
     <use xlink:href="#mb58a47e85b" x="391.075023" y="111.653529" style="fill: #1f77b4; stroke: #1f77b4"/>
     <use xlink:href="#mb58a47e85b" x="393.876711" y="116.540586" style="fill: #1f77b4; stroke: #1f77b4"/>
     <use xlink:href="#mb58a47e85b" x="394.599599" y="119.225184" style="fill: #1f77b4; stroke: #1f77b4"/>
     <use xlink:href="#mb58a47e85b" x="390.388073" y="122.22443" style="fill: #1f77b4; stroke: #1f77b4"/>
     <use xlink:href="#mb58a47e85b" x="391.827391" y="115.191418" style="fill: #1f77b4; stroke: #1f77b4"/>
     <use xlink:href="#mb58a47e85b" x="390.795107" y="118.590858" style="fill: #1f77b4; stroke: #1f77b4"/>
     <use xlink:href="#mb58a47e85b" x="393.561008" y="116.474731" style="fill: #1f77b4; stroke: #1f77b4"/>
     <use xlink:href="#mb58a47e85b" x="386.675035" y="121.503558" style="fill: #1f77b4; stroke: #1f77b4"/>
     <use xlink:href="#mb58a47e85b" x="388.049032" y="116.149524" style="fill: #1f77b4; stroke: #1f77b4"/>
     <use xlink:href="#mb58a47e85b" x="393.540681" y="115.566964" style="fill: #1f77b4; stroke: #1f77b4"/>
     <use xlink:href="#mb58a47e85b" x="396.163143" y="114.022547" style="fill: #1f77b4; stroke: #1f77b4"/>
     <use xlink:href="#mb58a47e85b" x="388.777549" y="114.443902" style="fill: #1f77b4; stroke: #1f77b4"/>
     <use xlink:href="#mb58a47e85b" x="390.855402" y="120.409457" style="fill: #1f77b4; stroke: #1f77b4"/>
     <use xlink:href="#mb58a47e85b" x="394.342286" y="115.252874" style="fill: #1f77b4; stroke: #1f77b4"/>
     <use xlink:href="#mb58a47e85b" x="393.525441" y="119.272393" style="fill: #1f77b4; stroke: #1f77b4"/>
     <use xlink:href="#mb58a47e85b" x="394.805242" y="115.87344" style="fill: #1f77b4; stroke: #1f77b4"/>
     <use xlink:href="#mb58a47e85b" x="392.520785" y="120.257316" style="fill: #1f77b4; stroke: #1f77b4"/>
     <use xlink:href="#mb58a47e85b" x="390.012963" y="117.617835" style="fill: #1f77b4; stroke: #1f77b4"/>
     <use xlink:href="#mb58a47e85b" x="392.954855" y="112.128466" style="fill: #1f77b4; stroke: #1f77b4"/>
     <use xlink:href="#mb58a47e85b" x="392.463818" y="114.204973" style="fill: #1f77b4; stroke: #1f77b4"/>
     <use xlink:href="#mb58a47e85b" x="388.600357" y="121.783061" style="fill: #1f77b4; stroke: #1f77b4"/>
     <use xlink:href="#mb58a47e85b" x="389.193232" y="113.177872" style="fill: #1f77b4; stroke: #1f77b4"/>
     <use xlink:href="#mb58a47e85b" x="341.79042" y="115.201888" style="fill: #1f77b4; stroke: #1f77b4"/>
     <use xlink:href="#mb58a47e85b" x="310.123812" y="100.501312" style="fill: #1f77b4; stroke: #1f77b4"/>
     <use xlink:href="#mb58a47e85b" x="392.223734" y="130.483619" style="fill: #1f77b4; stroke: #1f77b4"/>
     <use xlink:href="#mb58a47e85b" x="388.243543" y="136.806763" style="fill: #1f77b4; stroke: #1f77b4"/>
     <use xlink:href="#mb58a47e85b" x="387.695881" y="137.064802" style="fill: #1f77b4; stroke: #1f77b4"/>
     <use xlink:href="#mb58a47e85b" x="391.97503" y="135.643223" style="fill: #1f77b4; stroke: #1f77b4"/>
     <use xlink:href="#mb58a47e85b" x="389.882004" y="127.779897" style="fill: #1f77b4; stroke: #1f77b4"/>
     <use xlink:href="#mb58a47e85b" x="389.14555" y="132.4797" style="fill: #1f77b4; stroke: #1f77b4"/>
     <use xlink:href="#mb58a47e85b" x="388.263997" y="133.625894" style="fill: #1f77b4; stroke: #1f77b4"/>
     <use xlink:href="#mb58a47e85b" x="389.167872" y="137.263389" style="fill: #1f77b4; stroke: #1f77b4"/>
     <use xlink:href="#mb58a47e85b" x="391.265308" y="131.904072" style="fill: #1f77b4; stroke: #1f77b4"/>
     <use xlink:href="#mb58a47e85b" x="386.787774" y="131.024985" style="fill: #1f77b4; stroke: #1f77b4"/>
     <use xlink:href="#mb58a47e85b" x="391.745765" y="134.671135" style="fill: #1f77b4; stroke: #1f77b4"/>
     <use xlink:href="#mb58a47e85b" x="389.697806" y="129.486457" style="fill: #1f77b4; stroke: #1f77b4"/>
     <use xlink:href="#mb58a47e85b" x="390.48475" y="136.369875" style="fill: #1f77b4; stroke: #1f77b4"/>
     <use xlink:href="#mb58a47e85b" x="391.254741" y="135.363985" style="fill: #1f77b4; stroke: #1f77b4"/>
     <use xlink:href="#mb58a47e85b" x="387.964094" y="133.843374" style="fill: #1f77b4; stroke: #1f77b4"/>
     <use xlink:href="#mb58a47e85b" x="390.882955" y="133.917525" style="fill: #1f77b4; stroke: #1f77b4"/>
     <use xlink:href="#mb58a47e85b" x="395.495902" y="136.185064" style="fill: #1f77b4; stroke: #1f77b4"/>
     <use xlink:href="#mb58a47e85b" x="391.851869" y="133.100667" style="fill: #1f77b4; stroke: #1f77b4"/>
     <use xlink:href="#mb58a47e85b" x="388.143192" y="130.654156" style="fill: #1f77b4; stroke: #1f77b4"/>
     <use xlink:href="#mb58a47e85b" x="390.304961" y="131.757035" style="fill: #1f77b4; stroke: #1f77b4"/>
     <use xlink:href="#mb58a47e85b" x="386.241474" y="136.162031" style="fill: #1f77b4; stroke: #1f77b4"/>
     <use xlink:href="#mb58a47e85b" x="386.399652" y="139.332658" style="fill: #1f77b4; stroke: #1f77b4"/>
     <use xlink:href="#mb58a47e85b" x="386.175719" y="134.666491" style="fill: #1f77b4; stroke: #1f77b4"/>
     <use xlink:href="#mb58a47e85b" x="391.062016" y="136.551603" style="fill: #1f77b4; stroke: #1f77b4"/>
     <use xlink:href="#mb58a47e85b" x="391.154257" y="132.034067" style="fill: #1f77b4; stroke: #1f77b4"/>
     <use xlink:href="#mb58a47e85b" x="391.405682" y="132.282801" style="fill: #1f77b4; stroke: #1f77b4"/>
     <use xlink:href="#mb58a47e85b" x="389.32924" y="132.648536" style="fill: #1f77b4; stroke: #1f77b4"/>
     <use xlink:href="#mb58a47e85b" x="389.059969" y="137.591049" style="fill: #1f77b4; stroke: #1f77b4"/>
     <use xlink:href="#mb58a47e85b" x="389.246397" y="138.885837" style="fill: #1f77b4; stroke: #1f77b4"/>
     <use xlink:href="#mb58a47e85b" x="384.201573" y="136.372729" style="fill: #1f77b4; stroke: #1f77b4"/>
     <use xlink:href="#mb58a47e85b" x="386.721667" y="131.679762" style="fill: #1f77b4; stroke: #1f77b4"/>
     <use xlink:href="#mb58a47e85b" x="388.936774" y="136.979412" style="fill: #1f77b4; stroke: #1f77b4"/>
     <use xlink:href="#mb58a47e85b" x="390.787241" y="133.256847" style="fill: #1f77b4; stroke: #1f77b4"/>
     <use xlink:href="#mb58a47e85b" x="386.55631" y="132.395651" style="fill: #1f77b4; stroke: #1f77b4"/>
     <use xlink:href="#mb58a47e85b" x="390.276482" y="141.073403" style="fill: #1f77b4; stroke: #1f77b4"/>
     <use xlink:href="#mb58a47e85b" x="390.418058" y="132.422612" style="fill: #1f77b4; stroke: #1f77b4"/>
     <use xlink:href="#mb58a47e85b" x="392.151607" y="135.724951" style="fill: #1f77b4; stroke: #1f77b4"/>
     <use xlink:href="#mb58a47e85b" x="389.977979" y="137.347325" style="fill: #1f77b4; stroke: #1f77b4"/>
     <use xlink:href="#mb58a47e85b" x="389.065036" y="133.658745" style="fill: #1f77b4; stroke: #1f77b4"/>
     <use xlink:href="#mb58a47e85b" x="393.72344" y="134.39807" style="fill: #1f77b4; stroke: #1f77b4"/>
     <use xlink:href="#mb58a47e85b" x="388.650365" y="136.473084" style="fill: #1f77b4; stroke: #1f77b4"/>
     <use xlink:href="#mb58a47e85b" x="390.378931" y="134.47767" style="fill: #1f77b4; stroke: #1f77b4"/>
     <use xlink:href="#mb58a47e85b" x="391.402924" y="132.397516" style="fill: #1f77b4; stroke: #1f77b4"/>
    </g>
   </g>
   <g id="patch_3">
    <path d="M 57.6 307.584 
L 57.6 41.472 
" style="fill: none; stroke: #000000; stroke-width: 0.8; stroke-linejoin: miter; stroke-linecap: square"/>
   </g>
   <g id="patch_4">
    <path d="M 414.72 307.584 
L 414.72 41.472 
" style="fill: none; stroke: #000000; stroke-width: 0.8; stroke-linejoin: miter; stroke-linecap: square"/>
   </g>
   <g id="patch_5">
    <path d="M 57.6 307.584 
L 414.72 307.584 
" style="fill: none; stroke: #000000; stroke-width: 0.8; stroke-linejoin: miter; stroke-linecap: square"/>
   </g>
   <g id="patch_6">
    <path d="M 57.6 41.472 
L 414.72 41.472 
" style="fill: none; stroke: #000000; stroke-width: 0.8; stroke-linejoin: miter; stroke-linecap: square"/>
   </g>
  </g>
 </g>
 <defs>
  <clipPath id="p6b9aba9725">
   <rect x="57.6" y="41.472" width="357.12" height="266.112"/>
  </clipPath>
 </defs>
</svg>
