<?xml version="1.0" encoding="utf-8" standalone="no"?>
<!DOCTYPE svg PUBLIC "-//W3C//DTD SVG 1.1//EN"
  "http://www.w3.org/Graphics/SVG/1.1/DTD/svg11.dtd">
<svg xmlns:xlink="http://www.w3.org/1999/xlink" width="554.4pt" height="410.4pt" viewBox="0 0 554.4 410.4" xmlns="http://www.w3.org/2000/svg" version="1.1">
 <metadata>
  <rdf:RDF xmlns:dc="http://purl.org/dc/elements/1.1/" xmlns:cc="http://creativecommons.org/ns#" xmlns:rdf="http://www.w3.org/1999/02/22-rdf-syntax-ns#">
   <cc:Work>
    <dc:type rdf:resource="http://purl.org/dc/dcmitype/StillImage"/>
    <dc:date>2025-01-16T23:20:33.333754</dc:date>
    <dc:format>image/svg+xml</dc:format>
    <dc:creator>
     <cc:Agent>
      <dc:title>Matplotlib v3.9.0, https://matplotlib.org/</dc:title>
     </cc:Agent>
    </dc:creator>
   </cc:Work>
  </rdf:RDF>
 </metadata>
 <defs>
  <style type="text/css">*{stroke-linejoin: round; stroke-linecap: butt}</style>
 </defs>
 <g id="figure_1">
  <g id="patch_1">
   <path d="M 0 410.4 
L 554.4 410.4 
L 554.4 0 
L 0 0 
L 0 410.4 
z
" style="fill: none"/>
  </g>
  <g id="axes_1">
   <g id="patch_2">
    <path d="M 83.69 336.46 
L 518.775 336.46 
L 518.775 0 
L 83.69 0 
L 83.69 336.46 
z
" style="fill: none"/>
   </g>
   <g id="matplotlib.axis_1">
    <g id="xtick_1">
     <g id="line2d_1">
      <defs>
       <path id="ma4c9af9da0" d="M 0 0 
L 0 6 
" style="stroke: #000000"/>
      </defs>
      <g>
       <use xlink:href="#ma4c9af9da0" x="83.69" y="336.46" style="stroke: #000000"/>
      </g>
     </g>
     <g id="text_1">
      <!-- −0.50 -->
      <g transform="translate(34.6575 368.775) scale(0.32 -0.32)">
       <defs>
        <path id="DejaVuSans-2212" d="M 678 2272 
L 4684 2272 
L 4684 1741 
L 678 1741 
L 678 2272 
z
" transform="scale(0.015625)"/>
        <path id="DejaVuSans-30" d="M 2034 4250 
Q 1547 4250 1301 3770 
Q 1056 3291 1056 2328 
Q 1056 1369 1301 889 
Q 1547 409 2034 409 
Q 2525 409 2770 889 
Q 3016 1369 3016 2328 
Q 3016 3291 2770 3770 
Q 2525 4250 2034 4250 
z
M 2034 4750 
Q 2819 4750 3233 4129 
Q 3647 3509 3647 2328 
Q 3647 1150 3233 529 
Q 2819 -91 2034 -91 
Q 1250 -91 836 529 
Q 422 1150 422 2328 
Q 422 3509 836 4129 
Q 1250 4750 2034 4750 
z
" transform="scale(0.015625)"/>
        <path id="DejaVuSans-2e" d="M 684 794 
L 1344 794 
L 1344 0 
L 684 0 
L 684 794 
z
" transform="scale(0.015625)"/>
        <path id="DejaVuSans-35" d="M 691 4666 
L 3169 4666 
L 3169 4134 
L 1269 4134 
L 1269 2991 
Q 1406 3038 1543 3061 
Q 1681 3084 1819 3084 
Q 2600 3084 3056 2656 
Q 3513 2228 3513 1497 
Q 3513 744 3044 326 
Q 2575 -91 1722 -91 
Q 1428 -91 1123 -41 
Q 819 9 494 109 
L 494 744 
Q 775 591 1075 516 
Q 1375 441 1709 441 
Q 2250 441 2565 725 
Q 2881 1009 2881 1497 
Q 2881 1984 2565 2268 
Q 2250 2553 1709 2553 
Q 1456 2553 1204 2497 
Q 953 2441 691 2322 
L 691 4666 
z
" transform="scale(0.015625)"/>
       </defs>
       <use xlink:href="#DejaVuSans-2212"/>
       <use xlink:href="#DejaVuSans-30" x="83.789062"/>
       <use xlink:href="#DejaVuSans-2e" x="147.412109"/>
       <use xlink:href="#DejaVuSans-35" x="179.199219"/>
       <use xlink:href="#DejaVuSans-30" x="242.822266"/>
      </g>
     </g>
    </g>
    <g id="xtick_2">
     <g id="line2d_2">
      <g>
       <use xlink:href="#ma4c9af9da0" x="127.1985" y="336.46" style="stroke: #000000"/>
      </g>
     </g>
     <g id="text_2">
      <!-- −0.40 -->
      <g transform="translate(78.166 368.775) scale(0.32 -0.32)">
       <defs>
        <path id="DejaVuSans-34" d="M 2419 4116 
L 825 1625 
L 2419 1625 
L 2419 4116 
z
M 2253 4666 
L 3047 4666 
L 3047 1625 
L 3713 1625 
L 3713 1100 
L 3047 1100 
L 3047 0 
L 2419 0 
L 2419 1100 
L 313 1100 
L 313 1709 
L 2253 4666 
z
" transform="scale(0.015625)"/>
       </defs>
       <use xlink:href="#DejaVuSans-2212"/>
       <use xlink:href="#DejaVuSans-30" x="83.789062"/>
       <use xlink:href="#DejaVuSans-2e" x="147.412109"/>
       <use xlink:href="#DejaVuSans-34" x="179.199219"/>
       <use xlink:href="#DejaVuSans-30" x="242.822266"/>
      </g>
     </g>
    </g>
    <g id="xtick_3">
     <g id="line2d_3">
      <g>
       <use xlink:href="#ma4c9af9da0" x="170.707" y="336.46" style="stroke: #000000"/>
      </g>
     </g>
     <g id="text_3">
      <!-- −0.30 -->
      <g transform="translate(121.6745 368.775) scale(0.32 -0.32)">
       <defs>
        <path id="DejaVuSans-33" d="M 2597 2516 
Q 3050 2419 3304 2112 
Q 3559 1806 3559 1356 
Q 3559 666 3084 287 
Q 2609 -91 1734 -91 
Q 1441 -91 1130 -33 
Q 819 25 488 141 
L 488 750 
Q 750 597 1062 519 
Q 1375 441 1716 441 
Q 2309 441 2620 675 
Q 2931 909 2931 1356 
Q 2931 1769 2642 2001 
Q 2353 2234 1838 2234 
L 1294 2234 
L 1294 2753 
L 1863 2753 
Q 2328 2753 2575 2939 
Q 2822 3125 2822 3475 
Q 2822 3834 2567 4026 
Q 2313 4219 1838 4219 
Q 1578 4219 1281 4162 
Q 984 4106 628 3988 
L 628 4550 
Q 988 4650 1302 4700 
Q 1616 4750 1894 4750 
Q 2613 4750 3031 4423 
Q 3450 4097 3450 3541 
Q 3450 3153 3228 2886 
Q 3006 2619 2597 2516 
z
" transform="scale(0.015625)"/>
       </defs>
       <use xlink:href="#DejaVuSans-2212"/>
       <use xlink:href="#DejaVuSans-30" x="83.789062"/>
       <use xlink:href="#DejaVuSans-2e" x="147.412109"/>
       <use xlink:href="#DejaVuSans-33" x="179.199219"/>
       <use xlink:href="#DejaVuSans-30" x="242.822266"/>
      </g>
     </g>
    </g>
    <g id="xtick_4">
     <g id="line2d_4">
      <g>
       <use xlink:href="#ma4c9af9da0" x="192.46125" y="336.46" style="stroke: #000000"/>
      </g>
     </g>
     <g id="text_4">
      <!-- −0.25 -->
      <g transform="translate(143.42875 368.775) scale(0.32 -0.32)">
       <defs>
        <path id="DejaVuSans-32" d="M 1228 531 
L 3431 531 
L 3431 0 
L 469 0 
L 469 531 
Q 828 903 1448 1529 
Q 2069 2156 2228 2338 
Q 2531 2678 2651 2914 
Q 2772 3150 2772 3378 
Q 2772 3750 2511 3984 
Q 2250 4219 1831 4219 
Q 1534 4219 1204 4116 
Q 875 4013 500 3803 
L 500 4441 
Q 881 4594 1212 4672 
Q 1544 4750 1819 4750 
Q 2544 4750 2975 4387 
Q 3406 4025 3406 3419 
Q 3406 3131 3298 2873 
Q 3191 2616 2906 2266 
Q 2828 2175 2409 1742 
Q 1991 1309 1228 531 
z
" transform="scale(0.015625)"/>
       </defs>
       <use xlink:href="#DejaVuSans-2212"/>
       <use xlink:href="#DejaVuSans-30" x="83.789062"/>
       <use xlink:href="#DejaVuSans-2e" x="147.412109"/>
       <use xlink:href="#DejaVuSans-32" x="179.199219"/>
       <use xlink:href="#DejaVuSans-35" x="242.822266"/>
      </g>
     </g>
    </g>
    <g id="xtick_5">
     <g id="line2d_5">
      <g>
       <use xlink:href="#ma4c9af9da0" x="257.724" y="336.46" style="stroke: #000000"/>
      </g>
     </g>
     <g id="text_5">
      <!-- −0.10 -->
      <g transform="translate(208.6915 368.775) scale(0.32 -0.32)">
       <defs>
        <path id="DejaVuSans-31" d="M 794 531 
L 1825 531 
L 1825 4091 
L 703 3866 
L 703 4441 
L 1819 4666 
L 2450 4666 
L 2450 531 
L 3481 531 
L 3481 0 
L 794 0 
L 794 531 
z
" transform="scale(0.015625)"/>
       </defs>
       <use xlink:href="#DejaVuSans-2212"/>
       <use xlink:href="#DejaVuSans-30" x="83.789062"/>
       <use xlink:href="#DejaVuSans-2e" x="147.412109"/>
       <use xlink:href="#DejaVuSans-31" x="179.199219"/>
       <use xlink:href="#DejaVuSans-30" x="242.822266"/>
      </g>
     </g>
    </g>
    <g id="xtick_6">
     <g id="line2d_6">
      <g>
       <use xlink:href="#ma4c9af9da0" x="301.2325" y="336.46" style="stroke: #000000"/>
      </g>
     </g>
     <g id="text_6">
      <!-- 0.00 -->
      <g transform="translate(265.6075 368.775) scale(0.32 -0.32)">
       <use xlink:href="#DejaVuSans-30"/>
       <use xlink:href="#DejaVuSans-2e" x="63.623047"/>
       <use xlink:href="#DejaVuSans-30" x="95.410156"/>
       <use xlink:href="#DejaVuSans-30" x="159.033203"/>
      </g>
     </g>
    </g>
    <g id="xtick_7">
     <g id="line2d_7">
      <g>
       <use xlink:href="#ma4c9af9da0" x="344.741" y="336.46" style="stroke: #000000"/>
      </g>
     </g>
     <g id="text_7">
      <!-- 0.10 -->
      <g transform="translate(309.116 368.775) scale(0.32 -0.32)">
       <use xlink:href="#DejaVuSans-30"/>
       <use xlink:href="#DejaVuSans-2e" x="63.623047"/>
       <use xlink:href="#DejaVuSans-31" x="95.410156"/>
       <use xlink:href="#DejaVuSans-30" x="159.033203"/>
      </g>
     </g>
    </g>
    <g id="xtick_8">
     <g id="line2d_8">
      <g>
       <use xlink:href="#ma4c9af9da0" x="410.00375" y="336.46" style="stroke: #000000"/>
      </g>
     </g>
     <g id="text_8">
      <!-- 0.25 -->
      <g transform="translate(374.37875 368.775) scale(0.32 -0.32)">
       <use xlink:href="#DejaVuSans-30"/>
       <use xlink:href="#DejaVuSans-2e" x="63.623047"/>
       <use xlink:href="#DejaVuSans-32" x="95.410156"/>
       <use xlink:href="#DejaVuSans-35" x="159.033203"/>
      </g>
     </g>
    </g>
    <g id="xtick_9">
     <g id="line2d_9">
      <g>
       <use xlink:href="#ma4c9af9da0" x="431.758" y="336.46" style="stroke: #000000"/>
      </g>
     </g>
     <g id="text_9">
      <!-- 0.30 -->
      <g transform="translate(396.133 368.775) scale(0.32 -0.32)">
       <use xlink:href="#DejaVuSans-30"/>
       <use xlink:href="#DejaVuSans-2e" x="63.623047"/>
       <use xlink:href="#DejaVuSans-33" x="95.410156"/>
       <use xlink:href="#DejaVuSans-30" x="159.033203"/>
      </g>
     </g>
    </g>
    <g id="xtick_10">
     <g id="line2d_10">
      <g>
       <use xlink:href="#ma4c9af9da0" x="475.2665" y="336.46" style="stroke: #000000"/>
      </g>
     </g>
     <g id="text_10">
      <!-- 0.40 -->
      <g transform="translate(439.6415 368.775) scale(0.32 -0.32)">
       <use xlink:href="#DejaVuSans-30"/>
       <use xlink:href="#DejaVuSans-2e" x="63.623047"/>
       <use xlink:href="#DejaVuSans-34" x="95.410156"/>
       <use xlink:href="#DejaVuSans-30" x="159.033203"/>
      </g>
     </g>
    </g>
    <g id="xtick_11">
     <g id="line2d_11">
      <g>
       <use xlink:href="#ma4c9af9da0" x="518.775" y="336.46" style="stroke: #000000"/>
      </g>
     </g>
     <g id="text_11">
      <!-- 0.50 -->
      <g transform="translate(483.15 368.775) scale(0.32 -0.32)">
       <use xlink:href="#DejaVuSans-30"/>
       <use xlink:href="#DejaVuSans-2e" x="63.623047"/>
       <use xlink:href="#DejaVuSans-35" x="95.410156"/>
       <use xlink:href="#DejaVuSans-30" x="159.033203"/>
      </g>
     </g>
    </g>
    <g id="text_12">
     <!-- $\Delta K$ -->
     <g transform="translate(279.7925 403.745) scale(0.32 -0.32)">
      <defs>
       <path id="DejaVuSans-394" d="M 2188 4044 
L 906 525 
L 3472 525 
L 2188 4044 
z
M 50 0 
L 1831 4666 
L 2547 4666 
L 4325 0 
L 50 0 
z
" transform="scale(0.015625)"/>
       <path id="DejaVuSans-Oblique-4b" d="M 1081 4666 
L 1716 4666 
L 1331 2700 
L 3781 4666 
L 4622 4666 
L 1850 2438 
L 3878 0 
L 3109 0 
L 1247 2272 
L 806 0 
L 172 0 
L 1081 4666 
z
" transform="scale(0.015625)"/>
      </defs>
      <use xlink:href="#DejaVuSans-394" transform="translate(0 0.09375)"/>
      <use xlink:href="#DejaVuSans-Oblique-4b" transform="translate(68.408203 0.09375)"/>
     </g>
    </g>
   </g>
   <g id="matplotlib.axis_2">
    <g id="ytick_1">
     <g id="line2d_12">
      <defs>
       <path id="m1cf707825f" d="M 0 0 
L -6 0 
" style="stroke: #000000"/>
      </defs>
      <g>
       <use xlink:href="#m1cf707825f" x="83.69" y="336.46" style="stroke: #000000"/>
      </g>
     </g>
     <g id="text_13">
      <!-- 0.0 -->
      <g transform="translate(24.8 348.6175) scale(0.32 -0.32)">
       <use xlink:href="#DejaVuSans-30"/>
       <use xlink:href="#DejaVuSans-2e" x="63.623047"/>
       <use xlink:href="#DejaVuSans-30" x="95.410156"/>
      </g>
     </g>
    </g>
    <g id="ytick_2">
     <g id="line2d_13">
      <g>
       <use xlink:href="#m1cf707825f" x="83.69" y="176.240952" style="stroke: #000000"/>
      </g>
     </g>
     <g id="text_14">
      <!-- 0.5 -->
      <g transform="translate(24.8 188.398452) scale(0.32 -0.32)">
       <use xlink:href="#DejaVuSans-30"/>
       <use xlink:href="#DejaVuSans-2e" x="63.623047"/>
       <use xlink:href="#DejaVuSans-35" x="95.410156"/>
      </g>
     </g>
    </g>
    <g id="ytick_3">
     <g id="line2d_14">
      <g>
       <use xlink:href="#m1cf707825f" x="83.69" y="16.021905" style="stroke: #000000"/>
      </g>
     </g>
     <g id="text_15">
      <!-- 1.0 -->
      <g transform="translate(24.8 28.179405) scale(0.32 -0.32)">
       <use xlink:href="#DejaVuSans-31"/>
       <use xlink:href="#DejaVuSans-2e" x="63.623047"/>
       <use xlink:href="#DejaVuSans-30" x="95.410156"/>
      </g>
     </g>
    </g>
    <g id="text_16">
     <!-- $\overline{J}$ -->
     <g transform="translate(-0 180.55) scale(0.32 -0.32)">
      <defs>
       <path id="DejaVuSans-Oblique-4a" d="M 1069 4666 
L 1703 4666 
L 856 325 
Q 691 -522 298 -901 
Q -94 -1281 -800 -1281 
L -1050 -1281 
L -947 -750 
L -750 -750 
Q -328 -750 -109 -509 
Q 109 -269 225 325 
L 1069 4666 
z
" transform="scale(0.015625)"/>
      </defs>
      <use xlink:href="#DejaVuSans-Oblique-4a" transform="translate(0 0.84375)"/>
      <path d="M 0 85.5 
L 0 91.75 
L 29.492188 91.75 
L 29.492188 85.5 
L 0 85.5 
z
"/>
     </g>
    </g>
   </g>
   <g id="line2d_15">
    <path d="M 88.04085 28.839429 
L 101.0934 22.430667 
L 109.7951 16.021905 
L 122.84765 22.430667 
L 131.54935 16.021905 
L 144.6019 16.021905 
L 153.3036 19.226286 
L 166.35615 23.498794 
L 175.05785 16.021905 
L 188.1104 23.498794 
L 196.8121 20.294413 
L 209.86465 33.111937 
L 218.56635 52.338222 
L 231.6189 62.271803 
L 240.3206 133.622686 
L 253.37315 113.22146 
L 262.07485 151.674032 
L 275.1274 235.522 
L 283.8291 336.46 
L 296.88165 336.46 
L 305.58335 336.46 
L 318.6359 307.620571 
L 327.3376 120.698349 
L 340.39015 65.68981 
L 349.09185 30.441619 
L 362.1444 35.24819 
L 370.8461 35.24819 
L 383.89865 26.703175 
L 392.60035 16.021905 
L 405.6529 19.226286 
L 414.3546 16.021905 
L 427.40715 16.021905 
L 436.10885 16.021905 
L 449.1614 16.021905 
L 457.8631 20.294413 
L 470.91565 16.021905 
L 479.61735 16.021905 
L 492.6699 16.021905 
L 501.3716 16.021905 
L 514.42415 16.021905 
L 523.12585 16.021905 
" clip-path="url(#pbdc7a34aec)" style="fill: none; stroke: #1b9e77; stroke-width: 2; stroke-linecap: square"/>
    <defs>
     <path id="mf62dca25ea" d="M 0 5 
C 1.326016 5 2.597899 4.473168 3.535534 3.535534 
C 4.473168 2.597899 5 1.326016 5 0 
C 5 -1.326016 4.473168 -2.597899 3.535534 -3.535534 
C 2.597899 -4.473168 1.326016 -5 0 -5 
C -1.326016 -5 -2.597899 -4.473168 -3.535534 -3.535534 
C -4.473168 -2.597899 -5 -1.326016 -5 0 
C -5 1.326016 -4.473168 2.597899 -3.535534 3.535534 
C -2.597899 4.473168 -1.326016 5 0 5 
z
" style="stroke: #1b9e77; stroke-width: 2"/>
    </defs>
    <g clip-path="url(#pbdc7a34aec)">
     <use xlink:href="#mf62dca25ea" x="88.04085" y="28.839429" style="fill: #1b9e77; stroke: #1b9e77; stroke-width: 2"/>
     <use xlink:href="#mf62dca25ea" x="101.0934" y="22.430667" style="fill: #1b9e77; stroke: #1b9e77; stroke-width: 2"/>
     <use xlink:href="#mf62dca25ea" x="109.7951" y="16.021905" style="fill: #1b9e77; stroke: #1b9e77; stroke-width: 2"/>
     <use xlink:href="#mf62dca25ea" x="122.84765" y="22.430667" style="fill: #1b9e77; stroke: #1b9e77; stroke-width: 2"/>
     <use xlink:href="#mf62dca25ea" x="131.54935" y="16.021905" style="fill: #1b9e77; stroke: #1b9e77; stroke-width: 2"/>
     <use xlink:href="#mf62dca25ea" x="144.6019" y="16.021905" style="fill: #1b9e77; stroke: #1b9e77; stroke-width: 2"/>
     <use xlink:href="#mf62dca25ea" x="153.3036" y="19.226286" style="fill: #1b9e77; stroke: #1b9e77; stroke-width: 2"/>
     <use xlink:href="#mf62dca25ea" x="166.35615" y="23.498794" style="fill: #1b9e77; stroke: #1b9e77; stroke-width: 2"/>
     <use xlink:href="#mf62dca25ea" x="175.05785" y="16.021905" style="fill: #1b9e77; stroke: #1b9e77; stroke-width: 2"/>
     <use xlink:href="#mf62dca25ea" x="188.1104" y="23.498794" style="fill: #1b9e77; stroke: #1b9e77; stroke-width: 2"/>
     <use xlink:href="#mf62dca25ea" x="196.8121" y="20.294413" style="fill: #1b9e77; stroke: #1b9e77; stroke-width: 2"/>
     <use xlink:href="#mf62dca25ea" x="209.86465" y="33.111937" style="fill: #1b9e77; stroke: #1b9e77; stroke-width: 2"/>
     <use xlink:href="#mf62dca25ea" x="218.56635" y="52.338222" style="fill: #1b9e77; stroke: #1b9e77; stroke-width: 2"/>
     <use xlink:href="#mf62dca25ea" x="231.6189" y="62.271803" style="fill: #1b9e77; stroke: #1b9e77; stroke-width: 2"/>
     <use xlink:href="#mf62dca25ea" x="240.3206" y="133.622686" style="fill: #1b9e77; stroke: #1b9e77; stroke-width: 2"/>
     <use xlink:href="#mf62dca25ea" x="253.37315" y="113.22146" style="fill: #1b9e77; stroke: #1b9e77; stroke-width: 2"/>
     <use xlink:href="#mf62dca25ea" x="262.07485" y="151.674032" style="fill: #1b9e77; stroke: #1b9e77; stroke-width: 2"/>
     <use xlink:href="#mf62dca25ea" x="275.1274" y="235.522" style="fill: #1b9e77; stroke: #1b9e77; stroke-width: 2"/>
     <use xlink:href="#mf62dca25ea" x="283.8291" y="336.46" style="fill: #1b9e77; stroke: #1b9e77; stroke-width: 2"/>
     <use xlink:href="#mf62dca25ea" x="296.88165" y="336.46" style="fill: #1b9e77; stroke: #1b9e77; stroke-width: 2"/>
     <use xlink:href="#mf62dca25ea" x="305.58335" y="336.46" style="fill: #1b9e77; stroke: #1b9e77; stroke-width: 2"/>
     <use xlink:href="#mf62dca25ea" x="318.6359" y="307.620571" style="fill: #1b9e77; stroke: #1b9e77; stroke-width: 2"/>
     <use xlink:href="#mf62dca25ea" x="327.3376" y="120.698349" style="fill: #1b9e77; stroke: #1b9e77; stroke-width: 2"/>
     <use xlink:href="#mf62dca25ea" x="340.39015" y="65.68981" style="fill: #1b9e77; stroke: #1b9e77; stroke-width: 2"/>
     <use xlink:href="#mf62dca25ea" x="349.09185" y="30.441619" style="fill: #1b9e77; stroke: #1b9e77; stroke-width: 2"/>
     <use xlink:href="#mf62dca25ea" x="362.1444" y="35.24819" style="fill: #1b9e77; stroke: #1b9e77; stroke-width: 2"/>
     <use xlink:href="#mf62dca25ea" x="370.8461" y="35.24819" style="fill: #1b9e77; stroke: #1b9e77; stroke-width: 2"/>
     <use xlink:href="#mf62dca25ea" x="383.89865" y="26.703175" style="fill: #1b9e77; stroke: #1b9e77; stroke-width: 2"/>
     <use xlink:href="#mf62dca25ea" x="392.60035" y="16.021905" style="fill: #1b9e77; stroke: #1b9e77; stroke-width: 2"/>
     <use xlink:href="#mf62dca25ea" x="405.6529" y="19.226286" style="fill: #1b9e77; stroke: #1b9e77; stroke-width: 2"/>
     <use xlink:href="#mf62dca25ea" x="414.3546" y="16.021905" style="fill: #1b9e77; stroke: #1b9e77; stroke-width: 2"/>
     <use xlink:href="#mf62dca25ea" x="427.40715" y="16.021905" style="fill: #1b9e77; stroke: #1b9e77; stroke-width: 2"/>
     <use xlink:href="#mf62dca25ea" x="436.10885" y="16.021905" style="fill: #1b9e77; stroke: #1b9e77; stroke-width: 2"/>
     <use xlink:href="#mf62dca25ea" x="449.1614" y="16.021905" style="fill: #1b9e77; stroke: #1b9e77; stroke-width: 2"/>
     <use xlink:href="#mf62dca25ea" x="457.8631" y="20.294413" style="fill: #1b9e77; stroke: #1b9e77; stroke-width: 2"/>
     <use xlink:href="#mf62dca25ea" x="470.91565" y="16.021905" style="fill: #1b9e77; stroke: #1b9e77; stroke-width: 2"/>
     <use xlink:href="#mf62dca25ea" x="479.61735" y="16.021905" style="fill: #1b9e77; stroke: #1b9e77; stroke-width: 2"/>
     <use xlink:href="#mf62dca25ea" x="492.6699" y="16.021905" style="fill: #1b9e77; stroke: #1b9e77; stroke-width: 2"/>
     <use xlink:href="#mf62dca25ea" x="501.3716" y="16.021905" style="fill: #1b9e77; stroke: #1b9e77; stroke-width: 2"/>
     <use xlink:href="#mf62dca25ea" x="514.42415" y="16.021905" style="fill: #1b9e77; stroke: #1b9e77; stroke-width: 2"/>
     <use xlink:href="#mf62dca25ea" x="523.12585" y="16.021905" style="fill: #1b9e77; stroke: #1b9e77; stroke-width: 2"/>
    </g>
   </g>
   <g id="patch_3">
    <path d="M 83.69 336.46 
L 83.69 0 
" style="fill: none; stroke: #000000; stroke-linejoin: miter; stroke-linecap: square"/>
   </g>
   <g id="patch_4">
    <path d="M 518.775 336.46 
L 518.775 0 
" style="fill: none; stroke: #000000; stroke-linejoin: miter; stroke-linecap: square"/>
   </g>
   <g id="patch_5">
    <path d="M 83.69 336.46 
L 518.775 336.46 
" style="fill: none; stroke: #000000; stroke-linejoin: miter; stroke-linecap: square"/>
   </g>
   <g id="patch_6">
    <path d="M 83.69 0 
L 518.775 0 
" style="fill: none; stroke: #000000; stroke-linejoin: miter; stroke-linecap: square"/>
   </g>
  </g>
 </g>
 <defs>
  <clipPath id="pbdc7a34aec">
   <rect x="83.69" y="0" width="435.085" height="336.46"/>
  </clipPath>
 </defs>
</svg>
