<svg class="main-svg" xmlns="http://www.w3.org/2000/svg" xmlns:xlink="http://www.w3.org/1999/xlink" width="700" height="500" style="" viewBox="0 0 700 500"><rect x="0" y="0" width="700" height="500" style="fill: rgb(255, 255, 255); fill-opacity: 1;"/><defs id="defs-2a7a32"><g class="clips"><clipPath id="clip2a7a32xyplot" class="plotclip"><rect width="483" height="320"/></clipPath><clipPath class="axesclip" id="clip2a7a32x"><rect x="80" y="0" width="483" height="500"/></clipPath><clipPath class="axesclip" id="clip2a7a32y"><rect x="0" y="100" width="700" height="320"/></clipPath><clipPath class="axesclip" id="clip2a7a32xy"><rect x="80" y="100" width="483" height="320"/></clipPath></g><g class="gradients"><linearGradient x1="0" y1="1" x2="0" y2="0" gradientUnits="objectBoundingBox" id="g2a7a32-cb535c3d"><stop offset="0%" stop-color="rgb(247, 251, 255)" stop-opacity="1"/><stop offset="12.5%" stop-color="rgb(222, 235, 247)" stop-opacity="1"/><stop offset="25%" stop-color="rgb(198, 219, 239)" stop-opacity="1"/><stop offset="37.5%" stop-color="rgb(158, 202, 225)" stop-opacity="1"/><stop offset="50%" stop-color="rgb(107, 174, 214)" stop-opacity="1"/><stop offset="62.5%" stop-color="rgb(66, 146, 198)" stop-opacity="1"/><stop offset="75%" stop-color="rgb(33, 113, 181)" stop-opacity="1"/><stop offset="87.5%" stop-color="rgb(8, 81, 156)" stop-opacity="1"/><stop offset="100%" stop-color="rgb(8, 48, 107)" stop-opacity="1"/></linearGradient></g><g class="patterns"/></defs><g class="bglayer"><rect class="bg" x="80" y="100" width="483" height="320" style="fill: rgb(229, 236, 246); fill-opacity: 1; stroke-width: 0;"/></g><g class="layer-below"><g class="imagelayer"/><g class="shapelayer"/></g><g class="cartesianlayer"><g class="subplot xy"><g class="layer-subplot"><g class="shapelayer"/><g class="imagelayer"/></g><g class="minor-gridlayer"><g class="x"/><g class="y"/></g><g class="gridlayer"><g class="x"><path class="xgrid crisp" transform="translate(107.72,0)" d="M0,100v320" style="stroke: rgb(255, 255, 255); stroke-opacity: 1; stroke-width: 1px;"/><path class="xgrid crisp" transform="translate(193.29000000000002,0)" d="M0,100v320" style="stroke: rgb(255, 255, 255); stroke-opacity: 1; stroke-width: 1px;"/><path class="xgrid crisp" transform="translate(278.87,0)" d="M0,100v320" style="stroke: rgb(255, 255, 255); stroke-opacity: 1; stroke-width: 1px;"/><path class="xgrid crisp" transform="translate(364.45,0)" d="M0,100v320" style="stroke: rgb(255, 255, 255); stroke-opacity: 1; stroke-width: 1px;"/><path class="xgrid crisp" transform="translate(450.03,0)" d="M0,100v320" style="stroke: rgb(255, 255, 255); stroke-opacity: 1; stroke-width: 1px;"/><path class="xgrid crisp" transform="translate(535.61,0)" d="M0,100v320" style="stroke: rgb(255, 255, 255); stroke-opacity: 1; stroke-width: 1px;"/></g><g class="y"><path class="ygrid crisp" transform="translate(0,392.27)" d="M80,0h483" style="stroke: rgb(255, 255, 255); stroke-opacity: 1; stroke-width: 1px;"/><path class="ygrid crisp" transform="translate(0,317.22)" d="M80,0h483" style="stroke: rgb(255, 255, 255); stroke-opacity: 1; stroke-width: 1px;"/><path class="ygrid crisp" transform="translate(0,242.17)" d="M80,0h483" style="stroke: rgb(255, 255, 255); stroke-opacity: 1; stroke-width: 1px;"/><path class="ygrid crisp" transform="translate(0,167.12)" d="M80,0h483" style="stroke: rgb(255, 255, 255); stroke-opacity: 1; stroke-width: 1px;"/></g></g><g class="zerolinelayer"/><g class="layer-between"><g class="shapelayer"/><g class="imagelayer"/></g><path class="xlines-below"/><path class="ylines-below"/><g class="overlines-below"/><g class="xaxislayer-below"/><g class="yaxislayer-below"/><g class="overaxes-below"/><g class="plot" transform="translate(80,100)" clip-path="url(#clip2a7a32xyplot)"><g class="scatterlayer mlayer"><g class="trace scatter trace535c3d" style="stroke-miterlimit: 2; opacity: 1;"><g class="fills"/><g class="errorbars"/><g class="lines"/><g class="points"><path class="point" transform="translate(407.8,114.73)" d="M3,0A3,3 0 1,1 0,-3A3,3 0 0,1 3,0Z" style="opacity: 1; stroke-width: 0.5px; fill: rgb(247, 251, 255); fill-opacity: 1; stroke: rgb(128, 128, 128); stroke-opacity: 1;"/><path class="point" transform="translate(94.13,183.93)" d="M3,0A3,3 0 1,1 0,-3A3,3 0 0,1 3,0Z" style="opacity: 1; stroke-width: 0.5px; fill: rgb(243, 248, 254); fill-opacity: 1; stroke: rgb(128, 128, 128); stroke-opacity: 1;"/><path class="point" transform="translate(185.08,292.75)" d="M3,0A3,3 0 1,1 0,-3A3,3 0 0,1 3,0Z" style="opacity: 1; stroke-width: 0.5px; fill: rgb(241, 247, 253); fill-opacity: 1; stroke: rgb(128, 128, 128); stroke-opacity: 1;"/><path class="point" transform="translate(372.79,61.81)" d="M3,0A3,3 0 1,1 0,-3A3,3 0 0,1 3,0Z" style="opacity: 1; stroke-width: 0.5px; fill: rgb(239, 246, 252); fill-opacity: 1; stroke: rgb(128, 128, 128); stroke-opacity: 1;"/><path class="point" transform="translate(113.95,91.14)" d="M3,0A3,3 0 1,1 0,-3A3,3 0 0,1 3,0Z" style="opacity: 1; stroke-width: 0.5px; fill: rgb(237, 245, 252); fill-opacity: 1; stroke: rgb(128, 128, 128); stroke-opacity: 1;"/><path class="point" transform="translate(37.27,76.06)" d="M3,0A3,3 0 1,1 0,-3A3,3 0 0,1 3,0Z" style="opacity: 1; stroke-width: 0.5px; fill: rgb(235, 243, 251); fill-opacity: 1; stroke: rgb(128, 128, 128); stroke-opacity: 1;"/><path class="point" transform="translate(128.72,212.41)" d="M3,0A3,3 0 1,1 0,-3A3,3 0 0,1 3,0Z" style="opacity: 1; stroke-width: 0.5px; fill: rgb(233, 242, 250); fill-opacity: 1; stroke: rgb(128, 128, 128); stroke-opacity: 1;"/><path class="point" transform="translate(397.3,164.35)" d="M3,0A3,3 0 1,1 0,-3A3,3 0 0,1 3,0Z" style="opacity: 1; stroke-width: 0.5px; fill: rgb(231, 241, 250); fill-opacity: 1; stroke: rgb(128, 128, 128); stroke-opacity: 1;"/><path class="point" transform="translate(249.86,253.57)" d="M3,0A3,3 0 1,1 0,-3A3,3 0 0,1 3,0Z" style="opacity: 1; stroke-width: 0.5px; fill: rgb(229, 239, 249); fill-opacity: 1; stroke: rgb(128, 128, 128); stroke-opacity: 1;"/><path class="point" transform="translate(198.21,284.25)" d="M3,0A3,3 0 1,1 0,-3A3,3 0 0,1 3,0Z" style="opacity: 1; stroke-width: 0.5px; fill: rgb(227, 238, 249); fill-opacity: 1; stroke: rgb(128, 128, 128); stroke-opacity: 1;"/><path class="point" transform="translate(196.23,284.93)" d="M3,0A3,3 0 1,1 0,-3A3,3 0 0,1 3,0Z" style="opacity: 1; stroke-width: 0.5px; fill: rgb(225, 237, 248); fill-opacity: 1; stroke: rgb(128, 128, 128); stroke-opacity: 1;"/><path class="point" transform="translate(222.51,266)" d="M3,0A3,3 0 1,1 0,-3A3,3 0 0,1 3,0Z" style="opacity: 1; stroke-width: 0.5px; fill: rgb(223, 235, 247); fill-opacity: 1; stroke: rgb(128, 128, 128); stroke-opacity: 1;"/><path class="point" transform="translate(172.4,264.89)" d="M3,0A3,3 0 1,1 0,-3A3,3 0 0,1 3,0Z" style="opacity: 1; stroke-width: 0.5px; fill: rgb(221, 234, 247); fill-opacity: 1; stroke: rgb(128, 128, 128); stroke-opacity: 1;"/><path class="point" transform="translate(285.08,228.84)" d="M3,0A3,3 0 1,1 0,-3A3,3 0 0,1 3,0Z" style="opacity: 1; stroke-width: 0.5px; fill: rgb(219, 233, 246); fill-opacity: 1; stroke: rgb(128, 128, 128); stroke-opacity: 1;"/><path class="point" transform="translate(328.78,193.23)" d="M3,0A3,3 0 1,1 0,-3A3,3 0 0,1 3,0Z" style="opacity: 1; stroke-width: 0.5px; fill: rgb(217, 232, 245); fill-opacity: 1; stroke: rgb(128, 128, 128); stroke-opacity: 1;"/><path class="point" transform="translate(166.28,267.96)" d="M3,0A3,3 0 1,1 0,-3A3,3 0 0,1 3,0Z" style="opacity: 1; stroke-width: 0.5px; fill: rgb(215, 230, 245); fill-opacity: 1; stroke: rgb(128, 128, 128); stroke-opacity: 1;"/><path class="point" transform="translate(259.7,261.65)" d="M3,0A3,3 0 1,1 0,-3A3,3 0 0,1 3,0Z" style="opacity: 1; stroke-width: 0.5px; fill: rgb(213, 229, 244); fill-opacity: 1; stroke: rgb(128, 128, 128); stroke-opacity: 1;"/><path class="point" transform="translate(56.46,23.1)" d="M3,0A3,3 0 1,1 0,-3A3,3 0 0,1 3,0Z" style="opacity: 1; stroke-width: 0.5px; fill: rgb(211, 228, 243); fill-opacity: 1; stroke: rgb(128, 128, 128); stroke-opacity: 1;"/><path class="point" transform="translate(455.1,19.75)" d="M3,0A3,3 0 1,1 0,-3A3,3 0 0,1 3,0Z" style="opacity: 1; stroke-width: 0.5px; fill: rgb(209, 226, 243); fill-opacity: 1; stroke: rgb(128, 128, 128); stroke-opacity: 1;"/><path class="point" transform="translate(157.79,211.43)" d="M3,0A3,3 0 1,1 0,-3A3,3 0 0,1 3,0Z" style="opacity: 1; stroke-width: 0.5px; fill: rgb(207, 225, 242); fill-opacity: 1; stroke: rgb(128, 128, 128); stroke-opacity: 1;"/><path class="point" transform="translate(207.9,274.29)" d="M3,0A3,3 0 1,1 0,-3A3,3 0 0,1 3,0Z" style="opacity: 1; stroke-width: 0.5px; fill: rgb(205, 224, 241); fill-opacity: 1; stroke: rgb(128, 128, 128); stroke-opacity: 1;"/><path class="point" transform="translate(194.14,288.97)" d="M3,0A3,3 0 1,1 0,-3A3,3 0 0,1 3,0Z" style="opacity: 1; stroke-width: 0.5px; fill: rgb(203, 223, 241); fill-opacity: 1; stroke: rgb(128, 128, 128); stroke-opacity: 1;"/><path class="point" transform="translate(142.59,297.57)" d="M3,0A3,3 0 1,1 0,-3A3,3 0 0,1 3,0Z" style="opacity: 1; stroke-width: 0.5px; fill: rgb(201, 221, 240); fill-opacity: 1; stroke: rgb(128, 128, 128); stroke-opacity: 1;"/><path class="point" transform="translate(85.76,276.34)" d="M3,0A3,3 0 1,1 0,-3A3,3 0 0,1 3,0Z" style="opacity: 1; stroke-width: 0.5px; fill: rgb(199, 220, 239); fill-opacity: 1; stroke: rgb(128, 128, 128); stroke-opacity: 1;"/><path class="point" transform="translate(141.35,268.52)" d="M3,0A3,3 0 1,1 0,-3A3,3 0 0,1 3,0Z" style="opacity: 1; stroke-width: 0.5px; fill: rgb(197, 219, 239); fill-opacity: 1; stroke: rgb(128, 128, 128); stroke-opacity: 1;"/><path class="point" transform="translate(225.28,263.97)" d="M3,0A3,3 0 1,1 0,-3A3,3 0 0,1 3,0Z" style="opacity: 1; stroke-width: 0.5px; fill: rgb(194, 217, 238); fill-opacity: 1; stroke: rgb(128, 128, 128); stroke-opacity: 1;"/><path class="point" transform="translate(185.03,271.07)" d="M3,0A3,3 0 1,1 0,-3A3,3 0 0,1 3,0Z" style="opacity: 1; stroke-width: 0.5px; fill: rgb(191, 216, 236); fill-opacity: 1; stroke: rgb(128, 128, 128); stroke-opacity: 1;"/><path class="point" transform="translate(80.22,233.17)" d="M3,0A3,3 0 1,1 0,-3A3,3 0 0,1 3,0Z" style="opacity: 1; stroke-width: 0.5px; fill: rgb(187, 215, 235); fill-opacity: 1; stroke: rgb(128, 128, 128); stroke-opacity: 1;"/><path class="point" transform="translate(115.02,249.26)" d="M3,0A3,3 0 1,1 0,-3A3,3 0 0,1 3,0Z" style="opacity: 1; stroke-width: 0.5px; fill: rgb(184, 213, 234); fill-opacity: 1; stroke: rgb(128, 128, 128); stroke-opacity: 1;"/><path class="point" transform="translate(275.8,256.17)" d="M3,0A3,3 0 1,1 0,-3A3,3 0 0,1 3,0Z" style="opacity: 1; stroke-width: 0.5px; fill: rgb(181, 212, 233); fill-opacity: 1; stroke: rgb(128, 128, 128); stroke-opacity: 1;"/><path class="point" transform="translate(142.16,293.53)" d="M3,0A3,3 0 1,1 0,-3A3,3 0 0,1 3,0Z" style="opacity: 1; stroke-width: 0.5px; fill: rgb(178, 210, 232); fill-opacity: 1; stroke: rgb(128, 128, 128); stroke-opacity: 1;"/><path class="point" transform="translate(147.82,285.41)" d="M3,0A3,3 0 1,1 0,-3A3,3 0 0,1 3,0Z" style="opacity: 1; stroke-width: 0.5px; fill: rgb(175, 209, 231); fill-opacity: 1; stroke: rgb(128, 128, 128); stroke-opacity: 1;"/><path class="point" transform="translate(223.12,263.47)" d="M3,0A3,3 0 1,1 0,-3A3,3 0 0,1 3,0Z" style="opacity: 1; stroke-width: 0.5px; fill: rgb(171, 208, 230); fill-opacity: 1; stroke: rgb(128, 128, 128); stroke-opacity: 1;"/><path class="point" transform="translate(103.35,237.15)" d="M3,0A3,3 0 1,1 0,-3A3,3 0 0,1 3,0Z" style="opacity: 1; stroke-width: 0.5px; fill: rgb(168, 206, 229); fill-opacity: 1; stroke: rgb(128, 128, 128); stroke-opacity: 1;"/><path class="point" transform="translate(326.69,223.52)" d="M3,0A3,3 0 1,1 0,-3A3,3 0 0,1 3,0Z" style="opacity: 1; stroke-width: 0.5px; fill: rgb(165, 205, 227); fill-opacity: 1; stroke: rgb(128, 128, 128); stroke-opacity: 1;"/><path class="point" transform="translate(140.5,267.91)" d="M3,0A3,3 0 1,1 0,-3A3,3 0 0,1 3,0Z" style="opacity: 1; stroke-width: 0.5px; fill: rgb(162, 204, 226); fill-opacity: 1; stroke: rgb(128, 128, 128); stroke-opacity: 1;"/><path class="point" transform="translate(62.91,294.08)" d="M3,0A3,3 0 1,1 0,-3A3,3 0 0,1 3,0Z" style="opacity: 1; stroke-width: 0.5px; fill: rgb(158, 202, 225); fill-opacity: 1; stroke: rgb(128, 128, 128); stroke-opacity: 1;"/><path class="point" transform="translate(54.75,269.81)" d="M3,0A3,3 0 1,1 0,-3A3,3 0 0,1 3,0Z" style="opacity: 1; stroke-width: 0.5px; fill: rgb(154, 200, 224); fill-opacity: 1; stroke: rgb(128, 128, 128); stroke-opacity: 1;"/><path class="point" transform="translate(36.26,300.25)" d="M3,0A3,3 0 1,1 0,-3A3,3 0 0,1 3,0Z" style="opacity: 1; stroke-width: 0.5px; fill: rgb(150, 198, 223); fill-opacity: 1; stroke: rgb(128, 128, 128); stroke-opacity: 1;"/><path class="point" transform="translate(34.81,286.68)" d="M3,0A3,3 0 1,1 0,-3A3,3 0 0,1 3,0Z" style="opacity: 1; stroke-width: 0.5px; fill: rgb(146, 195, 222); fill-opacity: 1; stroke: rgb(128, 128, 128); stroke-opacity: 1;"/><path class="point" transform="translate(63.14,295.17)" d="M3,0A3,3 0 1,1 0,-3A3,3 0 0,1 3,0Z" style="opacity: 1; stroke-width: 0.5px; fill: rgb(142, 193, 222); fill-opacity: 1; stroke: rgb(128, 128, 128); stroke-opacity: 1;"/><path class="point" transform="translate(60.91,292.27)" d="M3,0A3,3 0 1,1 0,-3A3,3 0 0,1 3,0Z" style="opacity: 1; stroke-width: 0.5px; fill: rgb(138, 191, 221); fill-opacity: 1; stroke: rgb(128, 128, 128); stroke-opacity: 1;"/><path class="point" transform="translate(78.23,284.15)" d="M3,0A3,3 0 1,1 0,-3A3,3 0 0,1 3,0Z" style="opacity: 1; stroke-width: 0.5px; fill: rgb(134, 189, 220); fill-opacity: 1; stroke: rgb(128, 128, 128); stroke-opacity: 1;"/><path class="point" transform="translate(119.46,225.82)" d="M3,0A3,3 0 1,1 0,-3A3,3 0 0,1 3,0Z" style="opacity: 1; stroke-width: 0.5px; fill: rgb(130, 186, 219); fill-opacity: 1; stroke: rgb(128, 128, 128); stroke-opacity: 1;"/><path class="point" transform="translate(33.48,293.34)" d="M3,0A3,3 0 1,1 0,-3A3,3 0 0,1 3,0Z" style="opacity: 1; stroke-width: 0.5px; fill: rgb(126, 184, 218); fill-opacity: 1; stroke: rgb(128, 128, 128); stroke-opacity: 1;"/><path class="point" transform="translate(96.63,143.92)" d="M3,0A3,3 0 1,1 0,-3A3,3 0 0,1 3,0Z" style="opacity: 1; stroke-width: 0.5px; fill: rgb(121, 182, 217); fill-opacity: 1; stroke: rgb(128, 128, 128); stroke-opacity: 1;"/><path class="point" transform="translate(57.66,292.14)" d="M3,0A3,3 0 1,1 0,-3A3,3 0 0,1 3,0Z" style="opacity: 1; stroke-width: 0.5px; fill: rgb(117, 180, 216); fill-opacity: 1; stroke: rgb(128, 128, 128); stroke-opacity: 1;"/><path class="point" transform="translate(71.95,262.96)" d="M3,0A3,3 0 1,1 0,-3A3,3 0 0,1 3,0Z" style="opacity: 1; stroke-width: 0.5px; fill: rgb(113, 177, 215); fill-opacity: 1; stroke: rgb(128, 128, 128); stroke-opacity: 1;"/><path class="point" transform="translate(30.55,290.83)" d="M3,0A3,3 0 1,1 0,-3A3,3 0 0,1 3,0Z" style="opacity: 1; stroke-width: 0.5px; fill: rgb(109, 175, 214); fill-opacity: 1; stroke: rgb(128, 128, 128); stroke-opacity: 1;"/><path class="point" transform="translate(106.37,293.2)" d="M3,0A3,3 0 1,1 0,-3A3,3 0 0,1 3,0Z" style="opacity: 1; stroke-width: 0.5px; fill: rgb(105, 173, 213); fill-opacity: 1; stroke: rgb(128, 128, 128); stroke-opacity: 1;"/><path class="point" transform="translate(48.42,300.16)" d="M3,0A3,3 0 1,1 0,-3A3,3 0 0,1 3,0Z" style="opacity: 1; stroke-width: 0.5px; fill: rgb(102, 171, 212); fill-opacity: 1; stroke: rgb(128, 128, 128); stroke-opacity: 1;"/><path class="point" transform="translate(46.64,275.33)" d="M3,0A3,3 0 1,1 0,-3A3,3 0 0,1 3,0Z" style="opacity: 1; stroke-width: 0.5px; fill: rgb(99, 168, 211); fill-opacity: 1; stroke: rgb(128, 128, 128); stroke-opacity: 1;"/><path class="point" transform="translate(128.44,285.67)" d="M3,0A3,3 0 1,1 0,-3A3,3 0 0,1 3,0Z" style="opacity: 1; stroke-width: 0.5px; fill: rgb(95, 166, 209); fill-opacity: 1; stroke: rgb(128, 128, 128); stroke-opacity: 1;"/><path class="point" transform="translate(69.37,273.98)" d="M3,0A3,3 0 1,1 0,-3A3,3 0 0,1 3,0Z" style="opacity: 1; stroke-width: 0.5px; fill: rgb(92, 164, 208); fill-opacity: 1; stroke: rgb(128, 128, 128); stroke-opacity: 1;"/><path class="point" transform="translate(92.4,263.79)" d="M3,0A3,3 0 1,1 0,-3A3,3 0 0,1 3,0Z" style="opacity: 1; stroke-width: 0.5px; fill: rgb(89, 162, 207); fill-opacity: 1; stroke: rgb(128, 128, 128); stroke-opacity: 1;"/><path class="point" transform="translate(44.45,291.8)" d="M3,0A3,3 0 1,1 0,-3A3,3 0 0,1 3,0Z" style="opacity: 1; stroke-width: 0.5px; fill: rgb(85, 159, 206); fill-opacity: 1; stroke: rgb(128, 128, 128); stroke-opacity: 1;"/><path class="point" transform="translate(92.48,269.1)" d="M3,0A3,3 0 1,1 0,-3A3,3 0 0,1 3,0Z" style="opacity: 1; stroke-width: 0.5px; fill: rgb(82, 157, 204); fill-opacity: 1; stroke: rgb(128, 128, 128); stroke-opacity: 1;"/><path class="point" transform="translate(28.65,284)" d="M3,0A3,3 0 1,1 0,-3A3,3 0 0,1 3,0Z" style="opacity: 1; stroke-width: 0.5px; fill: rgb(79, 155, 203); fill-opacity: 1; stroke: rgb(128, 128, 128); stroke-opacity: 1;"/><path class="point" transform="translate(64.17,278.25)" d="M3,0A3,3 0 1,1 0,-3A3,3 0 0,1 3,0Z" style="opacity: 1; stroke-width: 0.5px; fill: rgb(76, 153, 202); fill-opacity: 1; stroke: rgb(128, 128, 128); stroke-opacity: 1;"/><path class="point" transform="translate(170.38,280.05)" d="M3,0A3,3 0 1,1 0,-3A3,3 0 0,1 3,0Z" style="opacity: 1; stroke-width: 0.5px; fill: rgb(72, 150, 200); fill-opacity: 1; stroke: rgb(128, 128, 128); stroke-opacity: 1;"/><path class="point" transform="translate(42.01,290.67)" d="M3,0A3,3 0 1,1 0,-3A3,3 0 0,1 3,0Z" style="opacity: 1; stroke-width: 0.5px; fill: rgb(69, 148, 199); fill-opacity: 1; stroke: rgb(128, 128, 128); stroke-opacity: 1;"/><path class="point" transform="translate(47.12,298.31)" d="M3,0A3,3 0 1,1 0,-3A3,3 0 0,1 3,0Z" style="opacity: 1; stroke-width: 0.5px; fill: rgb(66, 146, 198); fill-opacity: 1; stroke: rgb(128, 128, 128); stroke-opacity: 1;"/><path class="point" transform="translate(82.49,280.02)" d="M3,0A3,3 0 1,1 0,-3A3,3 0 0,1 3,0Z" style="opacity: 1; stroke-width: 0.5px; fill: rgb(63, 143, 196); fill-opacity: 1; stroke: rgb(128, 128, 128); stroke-opacity: 1;"/><path class="point" transform="translate(48.23,293.93)" d="M3,0A3,3 0 1,1 0,-3A3,3 0 0,1 3,0Z" style="opacity: 1; stroke-width: 0.5px; fill: rgb(60, 140, 195); fill-opacity: 1; stroke: rgb(128, 128, 128); stroke-opacity: 1;"/><path class="point" transform="translate(50.67,293.45)" d="M3,0A3,3 0 1,1 0,-3A3,3 0 0,1 3,0Z" style="opacity: 1; stroke-width: 0.5px; fill: rgb(58, 138, 194); fill-opacity: 1; stroke: rgb(128, 128, 128); stroke-opacity: 1;"/><path class="point" transform="translate(71.38,279.9)" d="M3,0A3,3 0 1,1 0,-3A3,3 0 0,1 3,0Z" style="opacity: 1; stroke-width: 0.5px; fill: rgb(55, 135, 192); fill-opacity: 1; stroke: rgb(128, 128, 128); stroke-opacity: 1;"/><path class="point" transform="translate(48.17,281.66)" d="M3,0A3,3 0 1,1 0,-3A3,3 0 0,1 3,0Z" style="opacity: 1; stroke-width: 0.5px; fill: rgb(52, 132, 191); fill-opacity: 1; stroke: rgb(128, 128, 128); stroke-opacity: 1;"/><path class="point" transform="translate(109.9,277.01)" d="M3,0A3,3 0 1,1 0,-3A3,3 0 0,1 3,0Z" style="opacity: 1; stroke-width: 0.5px; fill: rgb(50, 130, 190); fill-opacity: 1; stroke: rgb(128, 128, 128); stroke-opacity: 1;"/><path class="point" transform="translate(63.26,280.21)" d="M3,0A3,3 0 1,1 0,-3A3,3 0 0,1 3,0Z" style="opacity: 1; stroke-width: 0.5px; fill: rgb(47, 127, 188); fill-opacity: 1; stroke: rgb(128, 128, 128); stroke-opacity: 1;"/><path class="point" transform="translate(27.9,284.31)" d="M3,0A3,3 0 1,1 0,-3A3,3 0 0,1 3,0Z" style="opacity: 1; stroke-width: 0.5px; fill: rgb(44, 124, 187); fill-opacity: 1; stroke: rgb(128, 128, 128); stroke-opacity: 1;"/><path class="point" transform="translate(128.13,286.5)" d="M3,0A3,3 0 1,1 0,-3A3,3 0 0,1 3,0Z" style="opacity: 1; stroke-width: 0.5px; fill: rgb(42, 122, 185); fill-opacity: 1; stroke: rgb(128, 128, 128); stroke-opacity: 1;"/><path class="point" transform="translate(84,285.64)" d="M3,0A3,3 0 1,1 0,-3A3,3 0 0,1 3,0Z" style="opacity: 1; stroke-width: 0.5px; fill: rgb(39, 119, 184); fill-opacity: 1; stroke: rgb(128, 128, 128); stroke-opacity: 1;"/><path class="point" transform="translate(48.27,282.15)" d="M3,0A3,3 0 1,1 0,-3A3,3 0 0,1 3,0Z" style="opacity: 1; stroke-width: 0.5px; fill: rgb(36, 116, 183); fill-opacity: 1; stroke: rgb(128, 128, 128); stroke-opacity: 1;"/><path class="point" transform="translate(153.84,268.72)" d="M3,0A3,3 0 1,1 0,-3A3,3 0 0,1 3,0Z" style="opacity: 1; stroke-width: 0.5px; fill: rgb(34, 114, 181); fill-opacity: 1; stroke: rgb(128, 128, 128); stroke-opacity: 1;"/><path class="point" transform="translate(97.47,278.23)" d="M3,0A3,3 0 1,1 0,-3A3,3 0 0,1 3,0Z" style="opacity: 1; stroke-width: 0.5px; fill: rgb(31, 111, 179); fill-opacity: 1; stroke: rgb(128, 128, 128); stroke-opacity: 1;"/><path class="point" transform="translate(376.11,86.61)" d="M3,0A3,3 0 1,1 0,-3A3,3 0 0,1 3,0Z" style="opacity: 1; stroke-width: 0.5px; fill: rgb(29, 108, 177); fill-opacity: 1; stroke: rgb(128, 128, 128); stroke-opacity: 1;"/><path class="point" transform="translate(237.18,253.16)" d="M3,0A3,3 0 1,1 0,-3A3,3 0 0,1 3,0Z" style="opacity: 1; stroke-width: 0.5px; fill: rgb(27, 106, 175); fill-opacity: 1; stroke: rgb(128, 128, 128); stroke-opacity: 1;"/><path class="point" transform="translate(185.41,274.15)" d="M3,0A3,3 0 1,1 0,-3A3,3 0 0,1 3,0Z" style="opacity: 1; stroke-width: 0.5px; fill: rgb(25, 103, 173); fill-opacity: 1; stroke: rgb(128, 128, 128); stroke-opacity: 1;"/><path class="point" transform="translate(76.69,287.9)" d="M3,0A3,3 0 1,1 0,-3A3,3 0 0,1 3,0Z" style="opacity: 1; stroke-width: 0.5px; fill: rgb(23, 101, 171); fill-opacity: 1; stroke: rgb(128, 128, 128); stroke-opacity: 1;"/><path class="point" transform="translate(207.99,255.87)" d="M3,0A3,3 0 1,1 0,-3A3,3 0 0,1 3,0Z" style="opacity: 1; stroke-width: 0.5px; fill: rgb(21, 98, 169); fill-opacity: 1; stroke: rgb(128, 128, 128); stroke-opacity: 1;"/><path class="point" transform="translate(52.74,282.08)" d="M3,0A3,3 0 1,1 0,-3A3,3 0 0,1 3,0Z" style="opacity: 1; stroke-width: 0.5px; fill: rgb(19, 96, 167); fill-opacity: 1; stroke: rgb(128, 128, 128); stroke-opacity: 1;"/><path class="point" transform="translate(38.18,275.85)" d="M3,0A3,3 0 1,1 0,-3A3,3 0 0,1 3,0Z" style="opacity: 1; stroke-width: 0.5px; fill: rgb(17, 93, 165); fill-opacity: 1; stroke: rgb(128, 128, 128); stroke-opacity: 1;"/><path class="point" transform="translate(61.62,287.99)" d="M3,0A3,3 0 1,1 0,-3A3,3 0 0,1 3,0Z" style="opacity: 1; stroke-width: 0.5px; fill: rgb(15, 90, 163); fill-opacity: 1; stroke: rgb(128, 128, 128); stroke-opacity: 1;"/><path class="point" transform="translate(41.12,288.6)" d="M3,0A3,3 0 1,1 0,-3A3,3 0 0,1 3,0Z" style="opacity: 1; stroke-width: 0.5px; fill: rgb(13, 88, 161); fill-opacity: 1; stroke: rgb(128, 128, 128); stroke-opacity: 1;"/><path class="point" transform="translate(71.53,279.11)" d="M3,0A3,3 0 1,1 0,-3A3,3 0 0,1 3,0Z" style="opacity: 1; stroke-width: 0.5px; fill: rgb(11, 85, 159); fill-opacity: 1; stroke: rgb(128, 128, 128); stroke-opacity: 1;"/><path class="point" transform="translate(56.14,272.02)" d="M3,0A3,3 0 1,1 0,-3A3,3 0 0,1 3,0Z" style="opacity: 1; stroke-width: 0.5px; fill: rgb(9, 83, 157); fill-opacity: 1; stroke: rgb(128, 128, 128); stroke-opacity: 1;"/><path class="point" transform="translate(86.94,267.03)" d="M3,0A3,3 0 1,1 0,-3A3,3 0 0,1 3,0Z" style="opacity: 1; stroke-width: 0.5px; fill: rgb(8, 80, 155); fill-opacity: 1; stroke: rgb(128, 128, 128); stroke-opacity: 1;"/><path class="point" transform="translate(140.25,272.02)" d="M3,0A3,3 0 1,1 0,-3A3,3 0 0,1 3,0Z" style="opacity: 1; stroke-width: 0.5px; fill: rgb(8, 77, 151); fill-opacity: 1; stroke: rgb(128, 128, 128); stroke-opacity: 1;"/><path class="point" transform="translate(52.37,272.63)" d="M3,0A3,3 0 1,1 0,-3A3,3 0 0,1 3,0Z" style="opacity: 1; stroke-width: 0.5px; fill: rgb(8, 75, 147); fill-opacity: 1; stroke: rgb(128, 128, 128); stroke-opacity: 1;"/><path class="point" transform="translate(315.51,109.29)" d="M3,0A3,3 0 1,1 0,-3A3,3 0 0,1 3,0Z" style="opacity: 1; stroke-width: 0.5px; fill: rgb(8, 72, 143); fill-opacity: 1; stroke: rgb(128, 128, 128); stroke-opacity: 1;"/><path class="point" transform="translate(33,289.24)" d="M3,0A3,3 0 1,1 0,-3A3,3 0 0,1 3,0Z" style="opacity: 1; stroke-width: 0.5px; fill: rgb(8, 69, 139); fill-opacity: 1; stroke: rgb(128, 128, 128); stroke-opacity: 1;"/><path class="point" transform="translate(39.04,292.38)" d="M3,0A3,3 0 1,1 0,-3A3,3 0 0,1 3,0Z" style="opacity: 1; stroke-width: 0.5px; fill: rgb(8, 67, 135); fill-opacity: 1; stroke: rgb(128, 128, 128); stroke-opacity: 1;"/><path class="point" transform="translate(27.95,283.92)" d="M3,0A3,3 0 1,1 0,-3A3,3 0 0,1 3,0Z" style="opacity: 1; stroke-width: 0.5px; fill: rgb(8, 64, 131); fill-opacity: 1; stroke: rgb(128, 128, 128); stroke-opacity: 1;"/><path class="point" transform="translate(67.96,271.87)" d="M3,0A3,3 0 1,1 0,-3A3,3 0 0,1 3,0Z" style="opacity: 1; stroke-width: 0.5px; fill: rgb(8, 61, 127); fill-opacity: 1; stroke: rgb(128, 128, 128); stroke-opacity: 1;"/><path class="point" transform="translate(46.16,283.96)" d="M3,0A3,3 0 1,1 0,-3A3,3 0 0,1 3,0Z" style="opacity: 1; stroke-width: 0.5px; fill: rgb(8, 59, 123); fill-opacity: 1; stroke: rgb(128, 128, 128); stroke-opacity: 1;"/><path class="point" transform="translate(115.5,263.05)" d="M3,0A3,3 0 1,1 0,-3A3,3 0 0,1 3,0Z" style="opacity: 1; stroke-width: 0.5px; fill: rgb(8, 56, 119); fill-opacity: 1; stroke: rgb(128, 128, 128); stroke-opacity: 1;"/><path class="point" transform="translate(265.27,242.45)" d="M3,0A3,3 0 1,1 0,-3A3,3 0 0,1 3,0Z" style="opacity: 1; stroke-width: 0.5px; fill: rgb(8, 53, 115); fill-opacity: 1; stroke: rgb(128, 128, 128); stroke-opacity: 1;"/><path class="point" transform="translate(60.73,281.83)" d="M3,0A3,3 0 1,1 0,-3A3,3 0 0,1 3,0Z" style="opacity: 1; stroke-width: 0.5px; fill: rgb(8, 51, 111); fill-opacity: 1; stroke: rgb(128, 128, 128); stroke-opacity: 1;"/><path class="point" transform="translate(101.16,284.6)" d="M3,0A3,3 0 1,1 0,-3A3,3 0 0,1 3,0Z" style="opacity: 1; stroke-width: 0.5px; fill: rgb(8, 48, 107); fill-opacity: 1; stroke: rgb(128, 128, 128); stroke-opacity: 1;"/></g><g class="text"/></g></g></g><g class="overplot"/><path class="xlines-above crisp" d="M0,0" style="fill: none;"/><path class="ylines-above crisp" d="M0,0" style="fill: none;"/><g class="overlines-above"/><g class="xaxislayer-above"><g class="xtick"><text text-anchor="middle" x="0" y="433" transform="translate(107.72,0)" style="font-family: 'Open Sans', verdana, arial, sans-serif; font-size: 12px; fill: rgb(42, 63, 95); fill-opacity: 1; white-space: pre; opacity: 1;">1μ</text></g><g class="xtick"><text text-anchor="middle" x="0" y="433" style="font-family: 'Open Sans', verdana, arial, sans-serif; font-size: 12px; fill: rgb(42, 63, 95); fill-opacity: 1; white-space: pre; opacity: 1;" transform="translate(193.29000000000002,0)">10μ</text></g><g class="xtick"><text text-anchor="middle" x="0" y="433" style="font-family: 'Open Sans', verdana, arial, sans-serif; font-size: 12px; fill: rgb(42, 63, 95); fill-opacity: 1; white-space: pre; opacity: 1;" transform="translate(278.87,0)">100μ</text></g><g class="xtick"><text text-anchor="middle" x="0" y="433" style="font-family: 'Open Sans', verdana, arial, sans-serif; font-size: 12px; fill: rgb(42, 63, 95); fill-opacity: 1; white-space: pre; opacity: 1;" transform="translate(364.45,0)">0.001</text></g><g class="xtick"><text text-anchor="middle" x="0" y="433" style="font-family: 'Open Sans', verdana, arial, sans-serif; font-size: 12px; fill: rgb(42, 63, 95); fill-opacity: 1; white-space: pre; opacity: 1;" transform="translate(450.03,0)">0.01</text></g><g class="xtick"><text text-anchor="middle" x="0" y="433" style="font-family: 'Open Sans', verdana, arial, sans-serif; font-size: 12px; fill: rgb(42, 63, 95); fill-opacity: 1; white-space: pre; opacity: 1;" transform="translate(535.61,0)">0.1</text></g></g><g class="yaxislayer-above"><g class="ytick"><text text-anchor="end" x="79" y="4.199999999999999" transform="translate(0,392.27)" style="font-family: 'Open Sans', verdana, arial, sans-serif; font-size: 12px; fill: rgb(42, 63, 95); fill-opacity: 1; white-space: pre; opacity: 1;">0.15</text></g><g class="ytick"><text text-anchor="end" x="79" y="4.199999999999999" style="font-family: 'Open Sans', verdana, arial, sans-serif; font-size: 12px; fill: rgb(42, 63, 95); fill-opacity: 1; white-space: pre; opacity: 1;" transform="translate(0,317.22)">0.2</text></g><g class="ytick"><text text-anchor="end" x="79" y="4.199999999999999" style="font-family: 'Open Sans', verdana, arial, sans-serif; font-size: 12px; fill: rgb(42, 63, 95); fill-opacity: 1; white-space: pre; opacity: 1;" transform="translate(0,242.17)">0.25</text></g><g class="ytick"><text text-anchor="end" x="79" y="4.199999999999999" style="font-family: 'Open Sans', verdana, arial, sans-serif; font-size: 12px; fill: rgb(42, 63, 95); fill-opacity: 1; white-space: pre; opacity: 1;" transform="translate(0,167.12)">0.3</text></g></g><g class="overaxes-above"/></g></g><g class="polarlayer"/><g class="smithlayer"/><g class="ternarylayer"/><g class="geolayer"/><g class="funnelarealayer"/><g class="pielayer"/><g class="iciclelayer"/><g class="treemaplayer"/><g class="sunburstlayer"/><g class="glimages"/><defs id="topdefs-2a7a32"><g class="clips"/></defs><g class="layer-above"><g class="imagelayer"/><g class="shapelayer"/></g><g class="infolayer"><g class="cb535c3d colorbar" transform="translate(80,100)"><rect class="cbbg" x="482.5" y="0" width="124.6875" height="321" style="fill: rgb(0, 0, 0); fill-opacity: 0; stroke: rgb(68, 68, 68); stroke-opacity: 1; stroke-width: 0;"/><g class="cbfills" transform="translate(0,31)"><rect class="cbfill gradient_filled" style="fill: url('#g2a7a32-cb535c3d');" x="523" y="0" width="30" height="279"/></g><g class="cblines" transform="translate(0,31)"/><g class="cbaxis crisp" transform="translate(0,-100)"><g class="ycb535c3dtick"><text text-anchor="start" x="556.4" y="4.199999999999999" transform="translate(0,410)" style="font-family: 'Open Sans', verdana, arial, sans-serif; font-size: 12px; fill: rgb(42, 63, 95); fill-opacity: 1; white-space: pre; opacity: 1;">0</text></g><g class="ycb535c3dtick"><text text-anchor="start" x="556.4" y="4.199999999999999" style="font-family: 'Open Sans', verdana, arial, sans-serif; font-size: 12px; fill: rgb(42, 63, 95); fill-opacity: 1; white-space: pre; opacity: 1;" transform="translate(0,353.64)">20</text></g><g class="ycb535c3dtick"><text text-anchor="start" x="556.4" y="4.199999999999999" style="font-family: 'Open Sans', verdana, arial, sans-serif; font-size: 12px; fill: rgb(42, 63, 95); fill-opacity: 1; white-space: pre; opacity: 1;" transform="translate(0,297.27)">40</text></g><g class="ycb535c3dtick"><text text-anchor="start" x="556.4" y="4.199999999999999" style="font-family: 'Open Sans', verdana, arial, sans-serif; font-size: 12px; fill: rgb(42, 63, 95); fill-opacity: 1; white-space: pre; opacity: 1;" transform="translate(0,240.91)">60</text></g><g class="ycb535c3dtick"><text text-anchor="start" x="556.4" y="4.199999999999999" style="font-family: 'Open Sans', verdana, arial, sans-serif; font-size: 12px; fill: rgb(42, 63, 95); fill-opacity: 1; white-space: pre; opacity: 1;" transform="translate(0,184.55)">80</text></g></g><g class="cbtitleunshift" transform="translate(-80,-100)"><g class="cbtitle" transform="translate(-0.5,-0.5)"><text class="ycb535c3dtitle" x="603" y="123.5" text-anchor="start" style="font-family: 'Open Sans', verdana, arial, sans-serif; font-size: 14px; fill: rgb(42, 63, 95); opacity: 1; white-space: pre;">Trial</text></g></g><rect class="cboutline" x="523" y="31" width="30" height="279" style="stroke: rgb(68, 68, 68); stroke-opacity: 1; fill: none; stroke-width: 1;"/></g><g class="g-gtitle"><text class="gtitle" x="35" y="50" text-anchor="start" dy="0em" style="font-family: 'Open Sans', verdana, arial, sans-serif; font-size: 17px; fill: rgb(42, 63, 95); opacity: 1; white-space: pre;">Slice Plot</text></g><g class="g-xtitle"><text class="xtitle" x="321.5" y="460.3" text-anchor="middle" style="font-family: 'Open Sans', verdana, arial, sans-serif; font-size: 14px; fill: rgb(42, 63, 95); opacity: 1; white-space: pre;">lambda_l2</text></g><g class="g-ytitle"><text class="ytitle" transform="rotate(-90,36.240625,260)" x="36.240625" y="260" text-anchor="middle" style="font-family: 'Open Sans', verdana, arial, sans-serif; font-size: 14px; fill: rgb(42, 63, 95); opacity: 1; white-space: pre;">Total Loss</text></g></g></svg>