<?xml version="1.0" encoding="utf-8" standalone="no"?>
<!DOCTYPE svg PUBLIC "-//W3C//DTD SVG 1.1//EN"
  "http://www.w3.org/Graphics/SVG/1.1/DTD/svg11.dtd">
<svg xmlns:xlink="http://www.w3.org/1999/xlink" width="720pt" height="432pt" viewBox="0 0 720 432" xmlns="http://www.w3.org/2000/svg" version="1.1">
 <metadata>
  <rdf:RDF xmlns:dc="http://purl.org/dc/elements/1.1/" xmlns:cc="http://creativecommons.org/ns#" xmlns:rdf="http://www.w3.org/1999/02/22-rdf-syntax-ns#">
   <cc:Work>
    <dc:type rdf:resource="http://purl.org/dc/dcmitype/StillImage"/>
    <dc:date>2024-10-31T15:46:37.050912</dc:date>
    <dc:format>image/svg+xml</dc:format>
    <dc:creator>
     <cc:Agent>
      <dc:title>Matplotlib v3.9.0, https://matplotlib.org/</dc:title>
     </cc:Agent>
    </dc:creator>
   </cc:Work>
  </rdf:RDF>
 </metadata>
 <defs>
  <style type="text/css">*{stroke-linejoin: round; stroke-linecap: butt}</style>
 </defs>
 <g id="figure_1">
  <g id="patch_1">
   <path d="M 0 432 
L 720 432 
L 720 0 
L 0 0 
z
" style="fill: #ffffff"/>
  </g>
  <g id="axes_1">
   <g id="patch_2">
    <path d="M 47.72 390.04 
L 709.2 390.04 
L 709.2 26.88 
L 47.72 26.88 
z
" style="fill: #ffffff"/>
   </g>
   <g id="matplotlib.axis_1">
    <g id="xtick_1">
     <g id="line2d_1">
      <path d="M 113.868 390.04 
L 113.868 26.88 
" clip-path="url(#pbb9496a733)" style="fill: none; stroke: #b0b0b0; stroke-width: 0.8; stroke-linecap: square"/>
     </g>
     <g id="line2d_2">
      <defs>
       <path id="md624655592" d="M 0 0 
L 0 3.5 
" style="stroke: #000000; stroke-width: 0.8"/>
      </defs>
      <g>
       <use xlink:href="#md624655592" x="113.868" y="390.04" style="stroke: #000000; stroke-width: 0.8"/>
      </g>
     </g>
     <g id="text_1">
      <!-- −4 -->
      <g transform="translate(106.496906 404.638438) scale(0.1 -0.1)">
       <defs>
        <path id="DejaVuSans-2212" d="M 678 2272 
L 4684 2272 
L 4684 1741 
L 678 1741 
L 678 2272 
z
" transform="scale(0.015625)"/>
        <path id="DejaVuSans-34" d="M 2419 4116 
L 825 1625 
L 2419 1625 
L 2419 4116 
z
M 2253 4666 
L 3047 4666 
L 3047 1625 
L 3713 1625 
L 3713 1100 
L 3047 1100 
L 3047 0 
L 2419 0 
L 2419 1100 
L 313 1100 
L 313 1709 
L 2253 4666 
z
" transform="scale(0.015625)"/>
       </defs>
       <use xlink:href="#DejaVuSans-2212"/>
       <use xlink:href="#DejaVuSans-34" x="83.789062"/>
      </g>
     </g>
    </g>
    <g id="xtick_2">
     <g id="line2d_3">
      <path d="M 246.164 390.04 
L 246.164 26.88 
" clip-path="url(#pbb9496a733)" style="fill: none; stroke: #b0b0b0; stroke-width: 0.8; stroke-linecap: square"/>
     </g>
     <g id="line2d_4">
      <g>
       <use xlink:href="#md624655592" x="246.164" y="390.04" style="stroke: #000000; stroke-width: 0.8"/>
      </g>
     </g>
     <g id="text_2">
      <!-- −2 -->
      <g transform="translate(238.792906 404.638438) scale(0.1 -0.1)">
       <defs>
        <path id="DejaVuSans-32" d="M 1228 531 
L 3431 531 
L 3431 0 
L 469 0 
L 469 531 
Q 828 903 1448 1529 
Q 2069 2156 2228 2338 
Q 2531 2678 2651 2914 
Q 2772 3150 2772 3378 
Q 2772 3750 2511 3984 
Q 2250 4219 1831 4219 
Q 1534 4219 1204 4116 
Q 875 4013 500 3803 
L 500 4441 
Q 881 4594 1212 4672 
Q 1544 4750 1819 4750 
Q 2544 4750 2975 4387 
Q 3406 4025 3406 3419 
Q 3406 3131 3298 2873 
Q 3191 2616 2906 2266 
Q 2828 2175 2409 1742 
Q 1991 1309 1228 531 
z
" transform="scale(0.015625)"/>
       </defs>
       <use xlink:href="#DejaVuSans-2212"/>
       <use xlink:href="#DejaVuSans-32" x="83.789062"/>
      </g>
     </g>
    </g>
    <g id="xtick_3">
     <g id="line2d_5">
      <path d="M 378.46 390.04 
L 378.46 26.88 
" clip-path="url(#pbb9496a733)" style="fill: none; stroke: #b0b0b0; stroke-width: 0.8; stroke-linecap: square"/>
     </g>
     <g id="line2d_6">
      <g>
       <use xlink:href="#md624655592" x="378.46" y="390.04" style="stroke: #000000; stroke-width: 0.8"/>
      </g>
     </g>
     <g id="text_3">
      <!-- 0 -->
      <g transform="translate(375.27875 404.638438) scale(0.1 -0.1)">
       <defs>
        <path id="DejaVuSans-30" d="M 2034 4250 
Q 1547 4250 1301 3770 
Q 1056 3291 1056 2328 
Q 1056 1369 1301 889 
Q 1547 409 2034 409 
Q 2525 409 2770 889 
Q 3016 1369 3016 2328 
Q 3016 3291 2770 3770 
Q 2525 4250 2034 4250 
z
M 2034 4750 
Q 2819 4750 3233 4129 
Q 3647 3509 3647 2328 
Q 3647 1150 3233 529 
Q 2819 -91 2034 -91 
Q 1250 -91 836 529 
Q 422 1150 422 2328 
Q 422 3509 836 4129 
Q 1250 4750 2034 4750 
z
" transform="scale(0.015625)"/>
       </defs>
       <use xlink:href="#DejaVuSans-30"/>
      </g>
     </g>
    </g>
    <g id="xtick_4">
     <g id="line2d_7">
      <path d="M 510.756 390.04 
L 510.756 26.88 
" clip-path="url(#pbb9496a733)" style="fill: none; stroke: #b0b0b0; stroke-width: 0.8; stroke-linecap: square"/>
     </g>
     <g id="line2d_8">
      <g>
       <use xlink:href="#md624655592" x="510.756" y="390.04" style="stroke: #000000; stroke-width: 0.8"/>
      </g>
     </g>
     <g id="text_4">
      <!-- 2 -->
      <g transform="translate(507.57475 404.638438) scale(0.1 -0.1)">
       <use xlink:href="#DejaVuSans-32"/>
      </g>
     </g>
    </g>
    <g id="xtick_5">
     <g id="line2d_9">
      <path d="M 643.052 390.04 
L 643.052 26.88 
" clip-path="url(#pbb9496a733)" style="fill: none; stroke: #b0b0b0; stroke-width: 0.8; stroke-linecap: square"/>
     </g>
     <g id="line2d_10">
      <g>
       <use xlink:href="#md624655592" x="643.052" y="390.04" style="stroke: #000000; stroke-width: 0.8"/>
      </g>
     </g>
     <g id="text_5">
      <!-- 4 -->
      <g transform="translate(639.87075 404.638438) scale(0.1 -0.1)">
       <use xlink:href="#DejaVuSans-34"/>
      </g>
     </g>
    </g>
    <g id="text_6">
     <!-- Delta K -->
     <g transform="translate(360.252188 418.316562) scale(0.1 -0.1)">
      <defs>
       <path id="DejaVuSans-44" d="M 1259 4147 
L 1259 519 
L 2022 519 
Q 2988 519 3436 956 
Q 3884 1394 3884 2338 
Q 3884 3275 3436 3711 
Q 2988 4147 2022 4147 
L 1259 4147 
z
M 628 4666 
L 1925 4666 
Q 3281 4666 3915 4102 
Q 4550 3538 4550 2338 
Q 4550 1131 3912 565 
Q 3275 0 1925 0 
L 628 0 
L 628 4666 
z
" transform="scale(0.015625)"/>
       <path id="DejaVuSans-65" d="M 3597 1894 
L 3597 1613 
L 953 1613 
Q 991 1019 1311 708 
Q 1631 397 2203 397 
Q 2534 397 2845 478 
Q 3156 559 3463 722 
L 3463 178 
Q 3153 47 2828 -22 
Q 2503 -91 2169 -91 
Q 1331 -91 842 396 
Q 353 884 353 1716 
Q 353 2575 817 3079 
Q 1281 3584 2069 3584 
Q 2775 3584 3186 3129 
Q 3597 2675 3597 1894 
z
M 3022 2063 
Q 3016 2534 2758 2815 
Q 2500 3097 2075 3097 
Q 1594 3097 1305 2825 
Q 1016 2553 972 2059 
L 3022 2063 
z
" transform="scale(0.015625)"/>
       <path id="DejaVuSans-6c" d="M 603 4863 
L 1178 4863 
L 1178 0 
L 603 0 
L 603 4863 
z
" transform="scale(0.015625)"/>
       <path id="DejaVuSans-74" d="M 1172 4494 
L 1172 3500 
L 2356 3500 
L 2356 3053 
L 1172 3053 
L 1172 1153 
Q 1172 725 1289 603 
Q 1406 481 1766 481 
L 2356 481 
L 2356 0 
L 1766 0 
Q 1100 0 847 248 
Q 594 497 594 1153 
L 594 3053 
L 172 3053 
L 172 3500 
L 594 3500 
L 594 4494 
L 1172 4494 
z
" transform="scale(0.015625)"/>
       <path id="DejaVuSans-61" d="M 2194 1759 
Q 1497 1759 1228 1600 
Q 959 1441 959 1056 
Q 959 750 1161 570 
Q 1363 391 1709 391 
Q 2188 391 2477 730 
Q 2766 1069 2766 1631 
L 2766 1759 
L 2194 1759 
z
M 3341 1997 
L 3341 0 
L 2766 0 
L 2766 531 
Q 2569 213 2275 61 
Q 1981 -91 1556 -91 
Q 1019 -91 701 211 
Q 384 513 384 1019 
Q 384 1609 779 1909 
Q 1175 2209 1959 2209 
L 2766 2209 
L 2766 2266 
Q 2766 2663 2505 2880 
Q 2244 3097 1772 3097 
Q 1472 3097 1187 3025 
Q 903 2953 641 2809 
L 641 3341 
Q 956 3463 1253 3523 
Q 1550 3584 1831 3584 
Q 2591 3584 2966 3190 
Q 3341 2797 3341 1997 
z
" transform="scale(0.015625)"/>
       <path id="DejaVuSans-20" transform="scale(0.015625)"/>
       <path id="DejaVuSans-4b" d="M 628 4666 
L 1259 4666 
L 1259 2694 
L 3353 4666 
L 4166 4666 
L 1850 2491 
L 4331 0 
L 3500 0 
L 1259 2247 
L 1259 0 
L 628 0 
L 628 4666 
z
" transform="scale(0.015625)"/>
      </defs>
      <use xlink:href="#DejaVuSans-44"/>
      <use xlink:href="#DejaVuSans-65" x="77.001953"/>
      <use xlink:href="#DejaVuSans-6c" x="138.525391"/>
      <use xlink:href="#DejaVuSans-74" x="166.308594"/>
      <use xlink:href="#DejaVuSans-61" x="205.517578"/>
      <use xlink:href="#DejaVuSans-20" x="266.796875"/>
      <use xlink:href="#DejaVuSans-4b" x="298.583984"/>
     </g>
    </g>
   </g>
   <g id="matplotlib.axis_2">
    <g id="ytick_1">
     <g id="line2d_11">
      <path d="M 47.72 333.625035 
L 709.2 333.625035 
" clip-path="url(#pbb9496a733)" style="fill: none; stroke: #b0b0b0; stroke-width: 0.8; stroke-linecap: square"/>
     </g>
     <g id="line2d_12">
      <defs>
       <path id="m4545e81e6e" d="M 0 0 
L -3.5 0 
" style="stroke: #000000; stroke-width: 0.8"/>
      </defs>
      <g>
       <use xlink:href="#m4545e81e6e" x="47.72" y="333.625035" style="stroke: #000000; stroke-width: 0.8"/>
      </g>
     </g>
     <g id="text_7">
      <!-- 0.2 -->
      <g transform="translate(24.816875 337.424254) scale(0.1 -0.1)">
       <defs>
        <path id="DejaVuSans-2e" d="M 684 794 
L 1344 794 
L 1344 0 
L 684 0 
L 684 794 
z
" transform="scale(0.015625)"/>
       </defs>
       <use xlink:href="#DejaVuSans-30"/>
       <use xlink:href="#DejaVuSans-2e" x="63.623047"/>
       <use xlink:href="#DejaVuSans-32" x="95.410156"/>
      </g>
     </g>
    </g>
    <g id="ytick_2">
     <g id="line2d_13">
      <path d="M 47.72 261.065594 
L 709.2 261.065594 
" clip-path="url(#pbb9496a733)" style="fill: none; stroke: #b0b0b0; stroke-width: 0.8; stroke-linecap: square"/>
     </g>
     <g id="line2d_14">
      <g>
       <use xlink:href="#m4545e81e6e" x="47.72" y="261.065594" style="stroke: #000000; stroke-width: 0.8"/>
      </g>
     </g>
     <g id="text_8">
      <!-- 0.4 -->
      <g transform="translate(24.816875 264.864813) scale(0.1 -0.1)">
       <use xlink:href="#DejaVuSans-30"/>
       <use xlink:href="#DejaVuSans-2e" x="63.623047"/>
       <use xlink:href="#DejaVuSans-34" x="95.410156"/>
      </g>
     </g>
    </g>
    <g id="ytick_3">
     <g id="line2d_15">
      <path d="M 47.72 188.506154 
L 709.2 188.506154 
" clip-path="url(#pbb9496a733)" style="fill: none; stroke: #b0b0b0; stroke-width: 0.8; stroke-linecap: square"/>
     </g>
     <g id="line2d_16">
      <g>
       <use xlink:href="#m4545e81e6e" x="47.72" y="188.506154" style="stroke: #000000; stroke-width: 0.8"/>
      </g>
     </g>
     <g id="text_9">
      <!-- 0.6 -->
      <g transform="translate(24.816875 192.305373) scale(0.1 -0.1)">
       <defs>
        <path id="DejaVuSans-36" d="M 2113 2584 
Q 1688 2584 1439 2293 
Q 1191 2003 1191 1497 
Q 1191 994 1439 701 
Q 1688 409 2113 409 
Q 2538 409 2786 701 
Q 3034 994 3034 1497 
Q 3034 2003 2786 2293 
Q 2538 2584 2113 2584 
z
M 3366 4563 
L 3366 3988 
Q 3128 4100 2886 4159 
Q 2644 4219 2406 4219 
Q 1781 4219 1451 3797 
Q 1122 3375 1075 2522 
Q 1259 2794 1537 2939 
Q 1816 3084 2150 3084 
Q 2853 3084 3261 2657 
Q 3669 2231 3669 1497 
Q 3669 778 3244 343 
Q 2819 -91 2113 -91 
Q 1303 -91 875 529 
Q 447 1150 447 2328 
Q 447 3434 972 4092 
Q 1497 4750 2381 4750 
Q 2619 4750 2861 4703 
Q 3103 4656 3366 4563 
z
" transform="scale(0.015625)"/>
       </defs>
       <use xlink:href="#DejaVuSans-30"/>
       <use xlink:href="#DejaVuSans-2e" x="63.623047"/>
       <use xlink:href="#DejaVuSans-36" x="95.410156"/>
      </g>
     </g>
    </g>
    <g id="ytick_4">
     <g id="line2d_17">
      <path d="M 47.72 115.946713 
L 709.2 115.946713 
" clip-path="url(#pbb9496a733)" style="fill: none; stroke: #b0b0b0; stroke-width: 0.8; stroke-linecap: square"/>
     </g>
     <g id="line2d_18">
      <g>
       <use xlink:href="#m4545e81e6e" x="47.72" y="115.946713" style="stroke: #000000; stroke-width: 0.8"/>
      </g>
     </g>
     <g id="text_10">
      <!-- 0.8 -->
      <g transform="translate(24.816875 119.745932) scale(0.1 -0.1)">
       <defs>
        <path id="DejaVuSans-38" d="M 2034 2216 
Q 1584 2216 1326 1975 
Q 1069 1734 1069 1313 
Q 1069 891 1326 650 
Q 1584 409 2034 409 
Q 2484 409 2743 651 
Q 3003 894 3003 1313 
Q 3003 1734 2745 1975 
Q 2488 2216 2034 2216 
z
M 1403 2484 
Q 997 2584 770 2862 
Q 544 3141 544 3541 
Q 544 4100 942 4425 
Q 1341 4750 2034 4750 
Q 2731 4750 3128 4425 
Q 3525 4100 3525 3541 
Q 3525 3141 3298 2862 
Q 3072 2584 2669 2484 
Q 3125 2378 3379 2068 
Q 3634 1759 3634 1313 
Q 3634 634 3220 271 
Q 2806 -91 2034 -91 
Q 1263 -91 848 271 
Q 434 634 434 1313 
Q 434 1759 690 2068 
Q 947 2378 1403 2484 
z
M 1172 3481 
Q 1172 3119 1398 2916 
Q 1625 2713 2034 2713 
Q 2441 2713 2670 2916 
Q 2900 3119 2900 3481 
Q 2900 3844 2670 4047 
Q 2441 4250 2034 4250 
Q 1625 4250 1398 4047 
Q 1172 3844 1172 3481 
z
" transform="scale(0.015625)"/>
       </defs>
       <use xlink:href="#DejaVuSans-30"/>
       <use xlink:href="#DejaVuSans-2e" x="63.623047"/>
       <use xlink:href="#DejaVuSans-38" x="95.410156"/>
      </g>
     </g>
    </g>
    <g id="ytick_5">
     <g id="line2d_19">
      <path d="M 47.72 43.387273 
L 709.2 43.387273 
" clip-path="url(#pbb9496a733)" style="fill: none; stroke: #b0b0b0; stroke-width: 0.8; stroke-linecap: square"/>
     </g>
     <g id="line2d_20">
      <g>
       <use xlink:href="#m4545e81e6e" x="47.72" y="43.387273" style="stroke: #000000; stroke-width: 0.8"/>
      </g>
     </g>
     <g id="text_11">
      <!-- 1.0 -->
      <g transform="translate(24.816875 47.186491) scale(0.1 -0.1)">
       <defs>
        <path id="DejaVuSans-31" d="M 794 531 
L 1825 531 
L 1825 4091 
L 703 3866 
L 703 4441 
L 1819 4666 
L 2450 4666 
L 2450 531 
L 3481 531 
L 3481 0 
L 794 0 
L 794 531 
z
" transform="scale(0.015625)"/>
       </defs>
       <use xlink:href="#DejaVuSans-31"/>
       <use xlink:href="#DejaVuSans-2e" x="63.623047"/>
       <use xlink:href="#DejaVuSans-30" x="95.410156"/>
      </g>
     </g>
    </g>
    <g id="text_12">
     <!-- Average Jaccard Index -->
     <g transform="translate(18.737187 264.181094) rotate(-90) scale(0.1 -0.1)">
      <defs>
       <path id="DejaVuSans-41" d="M 2188 4044 
L 1331 1722 
L 3047 1722 
L 2188 4044 
z
M 1831 4666 
L 2547 4666 
L 4325 0 
L 3669 0 
L 3244 1197 
L 1141 1197 
L 716 0 
L 50 0 
L 1831 4666 
z
" transform="scale(0.015625)"/>
       <path id="DejaVuSans-76" d="M 191 3500 
L 800 3500 
L 1894 563 
L 2988 3500 
L 3597 3500 
L 2284 0 
L 1503 0 
L 191 3500 
z
" transform="scale(0.015625)"/>
       <path id="DejaVuSans-72" d="M 2631 2963 
Q 2534 3019 2420 3045 
Q 2306 3072 2169 3072 
Q 1681 3072 1420 2755 
Q 1159 2438 1159 1844 
L 1159 0 
L 581 0 
L 581 3500 
L 1159 3500 
L 1159 2956 
Q 1341 3275 1631 3429 
Q 1922 3584 2338 3584 
Q 2397 3584 2469 3576 
Q 2541 3569 2628 3553 
L 2631 2963 
z
" transform="scale(0.015625)"/>
       <path id="DejaVuSans-67" d="M 2906 1791 
Q 2906 2416 2648 2759 
Q 2391 3103 1925 3103 
Q 1463 3103 1205 2759 
Q 947 2416 947 1791 
Q 947 1169 1205 825 
Q 1463 481 1925 481 
Q 2391 481 2648 825 
Q 2906 1169 2906 1791 
z
M 3481 434 
Q 3481 -459 3084 -895 
Q 2688 -1331 1869 -1331 
Q 1566 -1331 1297 -1286 
Q 1028 -1241 775 -1147 
L 775 -588 
Q 1028 -725 1275 -790 
Q 1522 -856 1778 -856 
Q 2344 -856 2625 -561 
Q 2906 -266 2906 331 
L 2906 616 
Q 2728 306 2450 153 
Q 2172 0 1784 0 
Q 1141 0 747 490 
Q 353 981 353 1791 
Q 353 2603 747 3093 
Q 1141 3584 1784 3584 
Q 2172 3584 2450 3431 
Q 2728 3278 2906 2969 
L 2906 3500 
L 3481 3500 
L 3481 434 
z
" transform="scale(0.015625)"/>
       <path id="DejaVuSans-4a" d="M 628 4666 
L 1259 4666 
L 1259 325 
Q 1259 -519 939 -900 
Q 619 -1281 -91 -1281 
L -331 -1281 
L -331 -750 
L -134 -750 
Q 284 -750 456 -515 
Q 628 -281 628 325 
L 628 4666 
z
" transform="scale(0.015625)"/>
       <path id="DejaVuSans-63" d="M 3122 3366 
L 3122 2828 
Q 2878 2963 2633 3030 
Q 2388 3097 2138 3097 
Q 1578 3097 1268 2742 
Q 959 2388 959 1747 
Q 959 1106 1268 751 
Q 1578 397 2138 397 
Q 2388 397 2633 464 
Q 2878 531 3122 666 
L 3122 134 
Q 2881 22 2623 -34 
Q 2366 -91 2075 -91 
Q 1284 -91 818 406 
Q 353 903 353 1747 
Q 353 2603 823 3093 
Q 1294 3584 2113 3584 
Q 2378 3584 2631 3529 
Q 2884 3475 3122 3366 
z
" transform="scale(0.015625)"/>
       <path id="DejaVuSans-64" d="M 2906 2969 
L 2906 4863 
L 3481 4863 
L 3481 0 
L 2906 0 
L 2906 525 
Q 2725 213 2448 61 
Q 2172 -91 1784 -91 
Q 1150 -91 751 415 
Q 353 922 353 1747 
Q 353 2572 751 3078 
Q 1150 3584 1784 3584 
Q 2172 3584 2448 3432 
Q 2725 3281 2906 2969 
z
M 947 1747 
Q 947 1113 1208 752 
Q 1469 391 1925 391 
Q 2381 391 2643 752 
Q 2906 1113 2906 1747 
Q 2906 2381 2643 2742 
Q 2381 3103 1925 3103 
Q 1469 3103 1208 2742 
Q 947 2381 947 1747 
z
" transform="scale(0.015625)"/>
       <path id="DejaVuSans-49" d="M 628 4666 
L 1259 4666 
L 1259 0 
L 628 0 
L 628 4666 
z
" transform="scale(0.015625)"/>
       <path id="DejaVuSans-6e" d="M 3513 2113 
L 3513 0 
L 2938 0 
L 2938 2094 
Q 2938 2591 2744 2837 
Q 2550 3084 2163 3084 
Q 1697 3084 1428 2787 
Q 1159 2491 1159 1978 
L 1159 0 
L 581 0 
L 581 3500 
L 1159 3500 
L 1159 2956 
Q 1366 3272 1645 3428 
Q 1925 3584 2291 3584 
Q 2894 3584 3203 3211 
Q 3513 2838 3513 2113 
z
" transform="scale(0.015625)"/>
       <path id="DejaVuSans-78" d="M 3513 3500 
L 2247 1797 
L 3578 0 
L 2900 0 
L 1881 1375 
L 863 0 
L 184 0 
L 1544 1831 
L 300 3500 
L 978 3500 
L 1906 2253 
L 2834 3500 
L 3513 3500 
z
" transform="scale(0.015625)"/>
      </defs>
      <use xlink:href="#DejaVuSans-41"/>
      <use xlink:href="#DejaVuSans-76" x="62.533203"/>
      <use xlink:href="#DejaVuSans-65" x="121.712891"/>
      <use xlink:href="#DejaVuSans-72" x="183.236328"/>
      <use xlink:href="#DejaVuSans-61" x="224.349609"/>
      <use xlink:href="#DejaVuSans-67" x="285.628906"/>
      <use xlink:href="#DejaVuSans-65" x="349.105469"/>
      <use xlink:href="#DejaVuSans-20" x="410.628906"/>
      <use xlink:href="#DejaVuSans-4a" x="442.416016"/>
      <use xlink:href="#DejaVuSans-61" x="471.908203"/>
      <use xlink:href="#DejaVuSans-63" x="533.1875"/>
      <use xlink:href="#DejaVuSans-63" x="588.167969"/>
      <use xlink:href="#DejaVuSans-61" x="643.148438"/>
      <use xlink:href="#DejaVuSans-72" x="704.427734"/>
      <use xlink:href="#DejaVuSans-64" x="743.791016"/>
      <use xlink:href="#DejaVuSans-20" x="807.267578"/>
      <use xlink:href="#DejaVuSans-49" x="839.054688"/>
      <use xlink:href="#DejaVuSans-6e" x="868.546875"/>
      <use xlink:href="#DejaVuSans-64" x="931.925781"/>
      <use xlink:href="#DejaVuSans-65" x="995.402344"/>
      <use xlink:href="#DejaVuSans-78" x="1055.175781"/>
     </g>
    </g>
   </g>
   <g id="line2d_21">
    <path d="M -1 47.681937 
L 21.2608 48.224569 
L 54.3348 43.387273 
L 87.4088 43.387273 
L 120.4828 63.542673 
L 153.5568 68.264795 
L 186.6308 52.457203 
L 219.7048 48.57009 
L 252.7788 43.387273 
L 285.8528 43.387273 
L 318.9268 61.527133 
L 352.0008 160.864462 
L 385.0748 373.532727 
L 418.1488 93.271888 
L 451.2228 43.387273 
L 484.2968 61.124025 
L 517.3708 43.387273 
L 550.4448 43.387273 
L 583.5188 43.387273 
L 616.5928 43.387273 
L 649.6668 51.449433 
L 682.7408 67.573753 
L 715.8148 43.387273 
L 721 43.387273 
" clip-path="url(#pbb9496a733)" style="fill: none; stroke: #1f77b4; stroke-width: 1.5; stroke-linecap: square"/>
    <defs>
     <path id="mb4606784a5" d="M 0 3 
C 0.795609 3 1.55874 2.683901 2.12132 2.12132 
C 2.683901 1.55874 3 0.795609 3 0 
C 3 -0.795609 2.683901 -1.55874 2.12132 -2.12132 
C 1.55874 -2.683901 0.795609 -3 0 -3 
C -0.795609 -3 -1.55874 -2.683901 -2.12132 -2.12132 
C -2.683901 -1.55874 -3 -0.795609 -3 0 
C -3 0.795609 -2.683901 1.55874 -2.12132 2.12132 
C -1.55874 2.683901 -0.795609 3 0 3 
z
" style="stroke: #1f77b4"/>
    </defs>
    <g clip-path="url(#pbb9496a733)">
     <use xlink:href="#mb4606784a5" x="-1" y="47.681937" style="fill: #1f77b4; stroke: #1f77b4"/>
     <use xlink:href="#mb4606784a5" x="21.2608" y="48.224569" style="fill: #1f77b4; stroke: #1f77b4"/>
     <use xlink:href="#mb4606784a5" x="54.3348" y="43.387273" style="fill: #1f77b4; stroke: #1f77b4"/>
     <use xlink:href="#mb4606784a5" x="87.4088" y="43.387273" style="fill: #1f77b4; stroke: #1f77b4"/>
     <use xlink:href="#mb4606784a5" x="120.4828" y="63.542673" style="fill: #1f77b4; stroke: #1f77b4"/>
     <use xlink:href="#mb4606784a5" x="153.5568" y="68.264795" style="fill: #1f77b4; stroke: #1f77b4"/>
     <use xlink:href="#mb4606784a5" x="186.6308" y="52.457203" style="fill: #1f77b4; stroke: #1f77b4"/>
     <use xlink:href="#mb4606784a5" x="219.7048" y="48.57009" style="fill: #1f77b4; stroke: #1f77b4"/>
     <use xlink:href="#mb4606784a5" x="252.7788" y="43.387273" style="fill: #1f77b4; stroke: #1f77b4"/>
     <use xlink:href="#mb4606784a5" x="285.8528" y="43.387273" style="fill: #1f77b4; stroke: #1f77b4"/>
     <use xlink:href="#mb4606784a5" x="318.9268" y="61.527133" style="fill: #1f77b4; stroke: #1f77b4"/>
     <use xlink:href="#mb4606784a5" x="352.0008" y="160.864462" style="fill: #1f77b4; stroke: #1f77b4"/>
     <use xlink:href="#mb4606784a5" x="385.0748" y="373.532727" style="fill: #1f77b4; stroke: #1f77b4"/>
     <use xlink:href="#mb4606784a5" x="418.1488" y="93.271888" style="fill: #1f77b4; stroke: #1f77b4"/>
     <use xlink:href="#mb4606784a5" x="451.2228" y="43.387273" style="fill: #1f77b4; stroke: #1f77b4"/>
     <use xlink:href="#mb4606784a5" x="484.2968" y="61.124025" style="fill: #1f77b4; stroke: #1f77b4"/>
     <use xlink:href="#mb4606784a5" x="517.3708" y="43.387273" style="fill: #1f77b4; stroke: #1f77b4"/>
     <use xlink:href="#mb4606784a5" x="550.4448" y="43.387273" style="fill: #1f77b4; stroke: #1f77b4"/>
     <use xlink:href="#mb4606784a5" x="583.5188" y="43.387273" style="fill: #1f77b4; stroke: #1f77b4"/>
     <use xlink:href="#mb4606784a5" x="616.5928" y="43.387273" style="fill: #1f77b4; stroke: #1f77b4"/>
     <use xlink:href="#mb4606784a5" x="649.6668" y="51.449433" style="fill: #1f77b4; stroke: #1f77b4"/>
     <use xlink:href="#mb4606784a5" x="682.7408" y="67.573753" style="fill: #1f77b4; stroke: #1f77b4"/>
     <use xlink:href="#mb4606784a5" x="715.8148" y="43.387273" style="fill: #1f77b4; stroke: #1f77b4"/>
     <use xlink:href="#mb4606784a5" x="748.8888" y="43.387273" style="fill: #1f77b4; stroke: #1f77b4"/>
     <use xlink:href="#mb4606784a5" x="781.9628" y="72.75657" style="fill: #1f77b4; stroke: #1f77b4"/>
     <use xlink:href="#mb4606784a5" x="815.0368" y="43.387273" style="fill: #1f77b4; stroke: #1f77b4"/>
     <use xlink:href="#mb4606784a5" x="848.1108" y="43.387273" style="fill: #1f77b4; stroke: #1f77b4"/>
     <use xlink:href="#mb4606784a5" x="881.1848" y="48.762046" style="fill: #1f77b4; stroke: #1f77b4"/>
     <use xlink:href="#mb4606784a5" x="914.2588" y="43.387273" style="fill: #1f77b4; stroke: #1f77b4"/>
     <use xlink:href="#mb4606784a5" x="947.3328" y="43.387273" style="fill: #1f77b4; stroke: #1f77b4"/>
     <use xlink:href="#mb4606784a5" x="980.4068" y="43.387273" style="fill: #1f77b4; stroke: #1f77b4"/>
     <use xlink:href="#mb4606784a5" x="1013.4808" y="43.387273" style="fill: #1f77b4; stroke: #1f77b4"/>
     <use xlink:href="#mb4606784a5" x="1046.5548" y="43.387273" style="fill: #1f77b4; stroke: #1f77b4"/>
     <use xlink:href="#mb4606784a5" x="1079.6288" y="43.387273" style="fill: #1f77b4; stroke: #1f77b4"/>
     <use xlink:href="#mb4606784a5" x="1112.7028" y="43.387273" style="fill: #1f77b4; stroke: #1f77b4"/>
     <use xlink:href="#mb4606784a5" x="1145.7768" y="58.359856" style="fill: #1f77b4; stroke: #1f77b4"/>
     <use xlink:href="#mb4606784a5" x="1178.8508" y="49.433893" style="fill: #1f77b4; stroke: #1f77b4"/>
     <use xlink:href="#mb4606784a5" x="1211.9248" y="43.387273" style="fill: #1f77b4; stroke: #1f77b4"/>
     <use xlink:href="#mb4606784a5" x="1244.9988" y="43.387273" style="fill: #1f77b4; stroke: #1f77b4"/>
     <use xlink:href="#mb4606784a5" x="1278.0728" y="43.387273" style="fill: #1f77b4; stroke: #1f77b4"/>
     <use xlink:href="#mb4606784a5" x="1311.1468" y="43.387273" style="fill: #1f77b4; stroke: #1f77b4"/>
     <use xlink:href="#mb4606784a5" x="1344.2208" y="49.433893" style="fill: #1f77b4; stroke: #1f77b4"/>
     <use xlink:href="#mb4606784a5" x="1377.2948" y="43.387273" style="fill: #1f77b4; stroke: #1f77b4"/>
     <use xlink:href="#mb4606784a5" x="1410.3688" y="43.387273" style="fill: #1f77b4; stroke: #1f77b4"/>
     <use xlink:href="#mb4606784a5" x="1443.4428" y="43.387273" style="fill: #1f77b4; stroke: #1f77b4"/>
     <use xlink:href="#mb4606784a5" x="1476.5168" y="43.387273" style="fill: #1f77b4; stroke: #1f77b4"/>
     <use xlink:href="#mb4606784a5" x="1509.5908" y="50.297696" style="fill: #1f77b4; stroke: #1f77b4"/>
     <use xlink:href="#mb4606784a5" x="1542.6648" y="50.297696" style="fill: #1f77b4; stroke: #1f77b4"/>
     <use xlink:href="#mb4606784a5" x="1575.7388" y="43.387273" style="fill: #1f77b4; stroke: #1f77b4"/>
     <use xlink:href="#mb4606784a5" x="1608.8128" y="43.387273" style="fill: #1f77b4; stroke: #1f77b4"/>
     <use xlink:href="#mb4606784a5" x="1641.8868" y="43.387273" style="fill: #1f77b4; stroke: #1f77b4"/>
     <use xlink:href="#mb4606784a5" x="1674.9608" y="43.387273" style="fill: #1f77b4; stroke: #1f77b4"/>
    </g>
   </g>
   <g id="patch_3">
    <path d="M 47.72 390.04 
L 47.72 26.88 
" style="fill: none; stroke: #000000; stroke-width: 0.8; stroke-linejoin: miter; stroke-linecap: square"/>
   </g>
   <g id="patch_4">
    <path d="M 709.2 390.04 
L 709.2 26.88 
" style="fill: none; stroke: #000000; stroke-width: 0.8; stroke-linejoin: miter; stroke-linecap: square"/>
   </g>
   <g id="patch_5">
    <path d="M 47.72 390.04 
L 709.2 390.04 
" style="fill: none; stroke: #000000; stroke-width: 0.8; stroke-linejoin: miter; stroke-linecap: square"/>
   </g>
   <g id="patch_6">
    <path d="M 47.72 26.88 
L 709.2 26.88 
" style="fill: none; stroke: #000000; stroke-width: 0.8; stroke-linejoin: miter; stroke-linecap: square"/>
   </g>
   <g id="text_13">
    <!-- Delta K vs Jaccard (Binned) -->
    <g transform="translate(296.749375 20.88) scale(0.12 -0.12)">
     <defs>
      <path id="DejaVuSans-73" d="M 2834 3397 
L 2834 2853 
Q 2591 2978 2328 3040 
Q 2066 3103 1784 3103 
Q 1356 3103 1142 2972 
Q 928 2841 928 2578 
Q 928 2378 1081 2264 
Q 1234 2150 1697 2047 
L 1894 2003 
Q 2506 1872 2764 1633 
Q 3022 1394 3022 966 
Q 3022 478 2636 193 
Q 2250 -91 1575 -91 
Q 1294 -91 989 -36 
Q 684 19 347 128 
L 347 722 
Q 666 556 975 473 
Q 1284 391 1588 391 
Q 1994 391 2212 530 
Q 2431 669 2431 922 
Q 2431 1156 2273 1281 
Q 2116 1406 1581 1522 
L 1381 1569 
Q 847 1681 609 1914 
Q 372 2147 372 2553 
Q 372 3047 722 3315 
Q 1072 3584 1716 3584 
Q 2034 3584 2315 3537 
Q 2597 3491 2834 3397 
z
" transform="scale(0.015625)"/>
      <path id="DejaVuSans-28" d="M 1984 4856 
Q 1566 4138 1362 3434 
Q 1159 2731 1159 2009 
Q 1159 1288 1364 580 
Q 1569 -128 1984 -844 
L 1484 -844 
Q 1016 -109 783 600 
Q 550 1309 550 2009 
Q 550 2706 781 3412 
Q 1013 4119 1484 4856 
L 1984 4856 
z
" transform="scale(0.015625)"/>
      <path id="DejaVuSans-42" d="M 1259 2228 
L 1259 519 
L 2272 519 
Q 2781 519 3026 730 
Q 3272 941 3272 1375 
Q 3272 1813 3026 2020 
Q 2781 2228 2272 2228 
L 1259 2228 
z
M 1259 4147 
L 1259 2741 
L 2194 2741 
Q 2656 2741 2882 2914 
Q 3109 3088 3109 3444 
Q 3109 3797 2882 3972 
Q 2656 4147 2194 4147 
L 1259 4147 
z
M 628 4666 
L 2241 4666 
Q 2963 4666 3353 4366 
Q 3744 4066 3744 3513 
Q 3744 3084 3544 2831 
Q 3344 2578 2956 2516 
Q 3422 2416 3680 2098 
Q 3938 1781 3938 1306 
Q 3938 681 3513 340 
Q 3088 0 2303 0 
L 628 0 
L 628 4666 
z
" transform="scale(0.015625)"/>
      <path id="DejaVuSans-69" d="M 603 3500 
L 1178 3500 
L 1178 0 
L 603 0 
L 603 3500 
z
M 603 4863 
L 1178 4863 
L 1178 4134 
L 603 4134 
L 603 4863 
z
" transform="scale(0.015625)"/>
      <path id="DejaVuSans-29" d="M 513 4856 
L 1013 4856 
Q 1481 4119 1714 3412 
Q 1947 2706 1947 2009 
Q 1947 1309 1714 600 
Q 1481 -109 1013 -844 
L 513 -844 
Q 928 -128 1133 580 
Q 1338 1288 1338 2009 
Q 1338 2731 1133 3434 
Q 928 4138 513 4856 
z
" transform="scale(0.015625)"/>
     </defs>
     <use xlink:href="#DejaVuSans-44"/>
     <use xlink:href="#DejaVuSans-65" x="77.001953"/>
     <use xlink:href="#DejaVuSans-6c" x="138.525391"/>
     <use xlink:href="#DejaVuSans-74" x="166.308594"/>
     <use xlink:href="#DejaVuSans-61" x="205.517578"/>
     <use xlink:href="#DejaVuSans-20" x="266.796875"/>
     <use xlink:href="#DejaVuSans-4b" x="298.583984"/>
     <use xlink:href="#DejaVuSans-20" x="364.160156"/>
     <use xlink:href="#DejaVuSans-76" x="395.947266"/>
     <use xlink:href="#DejaVuSans-73" x="455.126953"/>
     <use xlink:href="#DejaVuSans-20" x="507.226562"/>
     <use xlink:href="#DejaVuSans-4a" x="539.013672"/>
     <use xlink:href="#DejaVuSans-61" x="568.505859"/>
     <use xlink:href="#DejaVuSans-63" x="629.785156"/>
     <use xlink:href="#DejaVuSans-63" x="684.765625"/>
     <use xlink:href="#DejaVuSans-61" x="739.746094"/>
     <use xlink:href="#DejaVuSans-72" x="801.025391"/>
     <use xlink:href="#DejaVuSans-64" x="840.388672"/>
     <use xlink:href="#DejaVuSans-20" x="903.865234"/>
     <use xlink:href="#DejaVuSans-28" x="935.652344"/>
     <use xlink:href="#DejaVuSans-42" x="974.666016"/>
     <use xlink:href="#DejaVuSans-69" x="1043.269531"/>
     <use xlink:href="#DejaVuSans-6e" x="1071.052734"/>
     <use xlink:href="#DejaVuSans-6e" x="1134.431641"/>
     <use xlink:href="#DejaVuSans-65" x="1197.810547"/>
     <use xlink:href="#DejaVuSans-64" x="1259.333984"/>
     <use xlink:href="#DejaVuSans-29" x="1322.810547"/>
    </g>
   </g>
   <g id="legend_1">
    <g id="patch_7">
     <path d="M 54.72 385.04 
L 148.590313 385.04 
Q 150.590313 385.04 150.590313 383.04 
L 150.590313 369.361875 
Q 150.590313 367.361875 148.590313 367.361875 
L 54.72 367.361875 
Q 52.72 367.361875 52.72 369.361875 
L 52.72 383.04 
Q 52.72 385.04 54.72 385.04 
z
" style="fill: #ffffff; opacity: 0.8; stroke: #cccccc; stroke-linejoin: miter"/>
    </g>
    <g id="line2d_22">
     <path d="M 56.72 375.460312 
L 66.72 375.460312 
L 76.72 375.460312 
" style="fill: none; stroke: #1f77b4; stroke-width: 1.5; stroke-linecap: square"/>
     <g>
      <use xlink:href="#mb4606784a5" x="66.72" y="375.460312" style="fill: #1f77b4; stroke: #1f77b4"/>
     </g>
    </g>
    <g id="text_14">
     <!-- Binned Data -->
     <g transform="translate(84.72 378.960312) scale(0.1 -0.1)">
      <use xlink:href="#DejaVuSans-42"/>
      <use xlink:href="#DejaVuSans-69" x="68.603516"/>
      <use xlink:href="#DejaVuSans-6e" x="96.386719"/>
      <use xlink:href="#DejaVuSans-6e" x="159.765625"/>
      <use xlink:href="#DejaVuSans-65" x="223.144531"/>
      <use xlink:href="#DejaVuSans-64" x="284.667969"/>
      <use xlink:href="#DejaVuSans-20" x="348.144531"/>
      <use xlink:href="#DejaVuSans-44" x="379.931641"/>
      <use xlink:href="#DejaVuSans-61" x="456.933594"/>
      <use xlink:href="#DejaVuSans-74" x="518.212891"/>
      <use xlink:href="#DejaVuSans-61" x="557.421875"/>
     </g>
    </g>
   </g>
  </g>
 </g>
 <defs>
  <clipPath id="pbb9496a733">
   <rect x="47.72" y="26.88" width="661.48" height="363.16"/>
  </clipPath>
 </defs>
</svg>
