<?xml version="1.0" encoding="utf-8" standalone="no"?>
<!DOCTYPE svg PUBLIC "-//W3C//DTD SVG 1.1//EN"
  "http://www.w3.org/Graphics/SVG/1.1/DTD/svg11.dtd">
<svg xmlns:xlink="http://www.w3.org/1999/xlink" width="456.175pt" height="342.419103pt" viewBox="0 0 456.175 342.419103" xmlns="http://www.w3.org/2000/svg" version="1.1">
 <metadata>
  <rdf:RDF xmlns:dc="http://purl.org/dc/elements/1.1/" xmlns:cc="http://creativecommons.org/ns#" xmlns:rdf="http://www.w3.org/1999/02/22-rdf-syntax-ns#">
   <cc:Work>
    <dc:type rdf:resource="http://purl.org/dc/dcmitype/StillImage"/>
    <dc:date>2024-11-12T14:11:25.117896</dc:date>
    <dc:format>image/svg+xml</dc:format>
    <dc:creator>
     <cc:Agent>
      <dc:title>Matplotlib v3.9.0, https://matplotlib.org/</dc:title>
     </cc:Agent>
    </dc:creator>
   </cc:Work>
  </rdf:RDF>
 </metadata>
 <defs>
  <style type="text/css">*{stroke-linejoin: round; stroke-linecap: butt}</style>
 </defs>
 <g id="figure_1">
  <g id="patch_1">
   <path d="M 0 342.419103 
L 456.175 342.419103 
L 456.175 0 
L 0 0 
z
" style="fill: #ffffff"/>
  </g>
  <g id="axes_1">
   <g id="patch_2">
    <path d="M 60.13 292.249103 
L 443.885 292.249103 
L 443.885 11.90669 
L 60.13 11.90669 
z
" style="fill: #ffffff"/>
   </g>
   <g id="matplotlib.axis_1">
    <g id="xtick_1">
     <g id="line2d_1">
      <path d="M 60.13 292.249103 
L 60.13 11.90669 
" clip-path="url(#pdf6d89e075)" style="fill: none; stroke-dasharray: 1.85,0.8; stroke-dashoffset: 0; stroke: #808080; stroke-opacity: 0.7; stroke-width: 0.5"/>
     </g>
     <g id="text_1">
      <!-- -2 -->
      <g transform="translate(52.15375 312.406603) scale(0.16 -0.16)">
       <defs>
        <path id="DejaVuSans-2d" d="M 313 2009 
L 1997 2009 
L 1997 1497 
L 313 1497 
L 313 2009 
z
" transform="scale(0.015625)"/>
        <path id="DejaVuSans-32" d="M 1228 531 
L 3431 531 
L 3431 0 
L 469 0 
L 469 531 
Q 828 903 1448 1529 
Q 2069 2156 2228 2338 
Q 2531 2678 2651 2914 
Q 2772 3150 2772 3378 
Q 2772 3750 2511 3984 
Q 2250 4219 1831 4219 
Q 1534 4219 1204 4116 
Q 875 4013 500 3803 
L 500 4441 
Q 881 4594 1212 4672 
Q 1544 4750 1819 4750 
Q 2544 4750 2975 4387 
Q 3406 4025 3406 3419 
Q 3406 3131 3298 2873 
Q 3191 2616 2906 2266 
Q 2828 2175 2409 1742 
Q 1991 1309 1228 531 
z
" transform="scale(0.015625)"/>
       </defs>
       <use xlink:href="#DejaVuSans-2d"/>
       <use xlink:href="#DejaVuSans-32" x="36.083984"/>
      </g>
     </g>
    </g>
    <g id="xtick_2">
     <g id="line2d_2">
      <path d="M 108.099375 292.249103 
L 108.099375 11.90669 
" clip-path="url(#pdf6d89e075)" style="fill: none; stroke-dasharray: 1.85,0.8; stroke-dashoffset: 0; stroke: #808080; stroke-opacity: 0.7; stroke-width: 0.5"/>
     </g>
     <g id="text_2">
      <!-- -1.5 -->
      <g transform="translate(92.490625 312.406603) scale(0.16 -0.16)">
       <defs>
        <path id="DejaVuSans-31" d="M 794 531 
L 1825 531 
L 1825 4091 
L 703 3866 
L 703 4441 
L 1819 4666 
L 2450 4666 
L 2450 531 
L 3481 531 
L 3481 0 
L 794 0 
L 794 531 
z
" transform="scale(0.015625)"/>
        <path id="DejaVuSans-2e" d="M 684 794 
L 1344 794 
L 1344 0 
L 684 0 
L 684 794 
z
" transform="scale(0.015625)"/>
        <path id="DejaVuSans-35" d="M 691 4666 
L 3169 4666 
L 3169 4134 
L 1269 4134 
L 1269 2991 
Q 1406 3038 1543 3061 
Q 1681 3084 1819 3084 
Q 2600 3084 3056 2656 
Q 3513 2228 3513 1497 
Q 3513 744 3044 326 
Q 2575 -91 1722 -91 
Q 1428 -91 1123 -41 
Q 819 9 494 109 
L 494 744 
Q 775 591 1075 516 
Q 1375 441 1709 441 
Q 2250 441 2565 725 
Q 2881 1009 2881 1497 
Q 2881 1984 2565 2268 
Q 2250 2553 1709 2553 
Q 1456 2553 1204 2497 
Q 953 2441 691 2322 
L 691 4666 
z
" transform="scale(0.015625)"/>
       </defs>
       <use xlink:href="#DejaVuSans-2d"/>
       <use xlink:href="#DejaVuSans-31" x="36.083984"/>
       <use xlink:href="#DejaVuSans-2e" x="99.707031"/>
       <use xlink:href="#DejaVuSans-35" x="131.494141"/>
      </g>
     </g>
    </g>
    <g id="xtick_3">
     <g id="line2d_3">
      <path d="M 156.06875 292.249103 
L 156.06875 11.90669 
" clip-path="url(#pdf6d89e075)" style="fill: none; stroke-dasharray: 1.85,0.8; stroke-dashoffset: 0; stroke: #808080; stroke-opacity: 0.7; stroke-width: 0.5"/>
     </g>
     <g id="text_3">
      <!-- -1 -->
      <g transform="translate(148.0925 312.406603) scale(0.16 -0.16)">
       <use xlink:href="#DejaVuSans-2d"/>
       <use xlink:href="#DejaVuSans-31" x="36.083984"/>
      </g>
     </g>
    </g>
    <g id="xtick_4">
     <g id="line2d_4">
      <path d="M 204.038125 292.249103 
L 204.038125 11.90669 
" clip-path="url(#pdf6d89e075)" style="fill: none; stroke-dasharray: 1.85,0.8; stroke-dashoffset: 0; stroke: #808080; stroke-opacity: 0.7; stroke-width: 0.5"/>
     </g>
     <g id="text_4">
      <!-- -0.5 -->
      <g transform="translate(188.429375 312.406603) scale(0.16 -0.16)">
       <defs>
        <path id="DejaVuSans-30" d="M 2034 4250 
Q 1547 4250 1301 3770 
Q 1056 3291 1056 2328 
Q 1056 1369 1301 889 
Q 1547 409 2034 409 
Q 2525 409 2770 889 
Q 3016 1369 3016 2328 
Q 3016 3291 2770 3770 
Q 2525 4250 2034 4250 
z
M 2034 4750 
Q 2819 4750 3233 4129 
Q 3647 3509 3647 2328 
Q 3647 1150 3233 529 
Q 2819 -91 2034 -91 
Q 1250 -91 836 529 
Q 422 1150 422 2328 
Q 422 3509 836 4129 
Q 1250 4750 2034 4750 
z
" transform="scale(0.015625)"/>
       </defs>
       <use xlink:href="#DejaVuSans-2d"/>
       <use xlink:href="#DejaVuSans-30" x="36.083984"/>
       <use xlink:href="#DejaVuSans-2e" x="99.707031"/>
       <use xlink:href="#DejaVuSans-35" x="131.494141"/>
      </g>
     </g>
    </g>
    <g id="xtick_5">
     <g id="line2d_5">
      <path d="M 252.0075 292.249103 
L 252.0075 11.90669 
" clip-path="url(#pdf6d89e075)" style="fill: none; stroke-dasharray: 1.85,0.8; stroke-dashoffset: 0; stroke: #808080; stroke-opacity: 0.7; stroke-width: 0.5"/>
     </g>
     <g id="text_5">
      <!-- 0 -->
      <g transform="translate(246.9175 312.406603) scale(0.16 -0.16)">
       <use xlink:href="#DejaVuSans-30"/>
      </g>
     </g>
    </g>
    <g id="xtick_6">
     <g id="line2d_6">
      <path d="M 299.976875 292.249103 
L 299.976875 11.90669 
" clip-path="url(#pdf6d89e075)" style="fill: none; stroke-dasharray: 1.85,0.8; stroke-dashoffset: 0; stroke: #808080; stroke-opacity: 0.7; stroke-width: 0.5"/>
     </g>
     <g id="text_6">
      <!-- 0.5 -->
      <g transform="translate(287.254375 312.406603) scale(0.16 -0.16)">
       <use xlink:href="#DejaVuSans-30"/>
       <use xlink:href="#DejaVuSans-2e" x="63.623047"/>
       <use xlink:href="#DejaVuSans-35" x="95.410156"/>
      </g>
     </g>
    </g>
    <g id="xtick_7">
     <g id="line2d_7">
      <path d="M 347.94625 292.249103 
L 347.94625 11.90669 
" clip-path="url(#pdf6d89e075)" style="fill: none; stroke-dasharray: 1.85,0.8; stroke-dashoffset: 0; stroke: #808080; stroke-opacity: 0.7; stroke-width: 0.5"/>
     </g>
     <g id="text_7">
      <!-- 1 -->
      <g transform="translate(342.85625 312.406603) scale(0.16 -0.16)">
       <use xlink:href="#DejaVuSans-31"/>
      </g>
     </g>
    </g>
    <g id="xtick_8">
     <g id="line2d_8">
      <path d="M 395.915625 292.249103 
L 395.915625 11.90669 
" clip-path="url(#pdf6d89e075)" style="fill: none; stroke-dasharray: 1.85,0.8; stroke-dashoffset: 0; stroke: #808080; stroke-opacity: 0.7; stroke-width: 0.5"/>
     </g>
     <g id="text_8">
      <!-- 1.5 -->
      <g transform="translate(383.193125 312.406603) scale(0.16 -0.16)">
       <use xlink:href="#DejaVuSans-31"/>
       <use xlink:href="#DejaVuSans-2e" x="63.623047"/>
       <use xlink:href="#DejaVuSans-35" x="95.410156"/>
      </g>
     </g>
    </g>
    <g id="xtick_9">
     <g id="line2d_9">
      <path d="M 443.885 292.249103 
L 443.885 11.90669 
" clip-path="url(#pdf6d89e075)" style="fill: none; stroke-dasharray: 1.85,0.8; stroke-dashoffset: 0; stroke: #808080; stroke-opacity: 0.7; stroke-width: 0.5"/>
     </g>
     <g id="text_9">
      <!-- 2 -->
      <g transform="translate(438.795 312.406603) scale(0.16 -0.16)">
       <use xlink:href="#DejaVuSans-32"/>
      </g>
     </g>
    </g>
    <g id="text_10">
     <!-- $\Delta\alpha$ -->
     <g style="fill: #262626" transform="translate(241.2075 331.891603) scale(0.16 -0.16)">
      <defs>
       <path id="DejaVuSans-394" d="M 2188 4044 
L 906 525 
L 3472 525 
L 2188 4044 
z
M 50 0 
L 1831 4666 
L 2547 4666 
L 4325 0 
L 50 0 
z
" transform="scale(0.015625)"/>
       <path id="DejaVuSans-Oblique-3b1" d="M 2619 1628 
L 2622 2350 
Q 2625 3088 2069 3091 
Q 1653 3094 1394 2747 
Q 1069 2319 959 1747 
Q 825 1059 994 731 
Q 1169 397 1547 397 
Q 1966 397 2319 1063 
L 2619 1628 
z
M 2166 3578 
Q 3141 3594 3128 2584 
Q 3128 2584 3616 3500 
L 4128 3500 
L 3119 1603 
L 3109 919 
Q 3109 766 3194 638 
Q 3291 488 3391 488 
L 3669 488 
L 3575 0 
L 3228 0 
Q 2934 0 2722 263 
Q 2622 394 2619 669 
Q 2416 334 2066 50 
Q 1900 -81 1453 -78 
Q 722 -72 456 397 
Q 184 884 353 1747 
Q 534 2675 1009 3097 
Q 1544 3569 2166 3578 
z
" transform="scale(0.015625)"/>
      </defs>
      <use xlink:href="#DejaVuSans-394" transform="translate(0 0.09375)"/>
      <use xlink:href="#DejaVuSans-Oblique-3b1" transform="translate(68.408203 0.09375)"/>
     </g>
    </g>
   </g>
   <g id="matplotlib.axis_2">
    <g id="ytick_1">
     <g id="line2d_10">
      <path d="M 60.13 292.249103 
L 443.885 292.249103 
" clip-path="url(#pdf6d89e075)" style="fill: none; stroke-dasharray: 1.85,0.8; stroke-dashoffset: 0; stroke: #808080; stroke-opacity: 0.7; stroke-width: 0.5"/>
     </g>
     <g id="text_11">
      <!-- 0.0 -->
      <g transform="translate(26.685 298.327853) scale(0.16 -0.16)">
       <use xlink:href="#DejaVuSans-30"/>
       <use xlink:href="#DejaVuSans-2e" x="63.623047"/>
       <use xlink:href="#DejaVuSans-30" x="95.410156"/>
      </g>
     </g>
    </g>
    <g id="ytick_2">
     <g id="line2d_11">
      <path d="M 60.13 236.455032 
L 443.885 236.455032 
" clip-path="url(#pdf6d89e075)" style="fill: none; stroke-dasharray: 1.85,0.8; stroke-dashoffset: 0; stroke: #808080; stroke-opacity: 0.7; stroke-width: 0.5"/>
     </g>
     <g id="text_12">
      <!-- 0.2 -->
      <g transform="translate(26.685 242.533782) scale(0.16 -0.16)">
       <use xlink:href="#DejaVuSans-30"/>
       <use xlink:href="#DejaVuSans-2e" x="63.623047"/>
       <use xlink:href="#DejaVuSans-32" x="95.410156"/>
      </g>
     </g>
    </g>
    <g id="ytick_3">
     <g id="line2d_12">
      <path d="M 60.13 180.660962 
L 443.885 180.660962 
" clip-path="url(#pdf6d89e075)" style="fill: none; stroke-dasharray: 1.85,0.8; stroke-dashoffset: 0; stroke: #808080; stroke-opacity: 0.7; stroke-width: 0.5"/>
     </g>
     <g id="text_13">
      <!-- 0.4 -->
      <g transform="translate(26.685 186.739712) scale(0.16 -0.16)">
       <defs>
        <path id="DejaVuSans-34" d="M 2419 4116 
L 825 1625 
L 2419 1625 
L 2419 4116 
z
M 2253 4666 
L 3047 4666 
L 3047 1625 
L 3713 1625 
L 3713 1100 
L 3047 1100 
L 3047 0 
L 2419 0 
L 2419 1100 
L 313 1100 
L 313 1709 
L 2253 4666 
z
" transform="scale(0.015625)"/>
       </defs>
       <use xlink:href="#DejaVuSans-30"/>
       <use xlink:href="#DejaVuSans-2e" x="63.623047"/>
       <use xlink:href="#DejaVuSans-34" x="95.410156"/>
      </g>
     </g>
    </g>
    <g id="ytick_4">
     <g id="line2d_13">
      <path d="M 60.13 124.866891 
L 443.885 124.866891 
" clip-path="url(#pdf6d89e075)" style="fill: none; stroke-dasharray: 1.85,0.8; stroke-dashoffset: 0; stroke: #808080; stroke-opacity: 0.7; stroke-width: 0.5"/>
     </g>
     <g id="text_14">
      <!-- 0.6 -->
      <g transform="translate(26.685 130.945641) scale(0.16 -0.16)">
       <defs>
        <path id="DejaVuSans-36" d="M 2113 2584 
Q 1688 2584 1439 2293 
Q 1191 2003 1191 1497 
Q 1191 994 1439 701 
Q 1688 409 2113 409 
Q 2538 409 2786 701 
Q 3034 994 3034 1497 
Q 3034 2003 2786 2293 
Q 2538 2584 2113 2584 
z
M 3366 4563 
L 3366 3988 
Q 3128 4100 2886 4159 
Q 2644 4219 2406 4219 
Q 1781 4219 1451 3797 
Q 1122 3375 1075 2522 
Q 1259 2794 1537 2939 
Q 1816 3084 2150 3084 
Q 2853 3084 3261 2657 
Q 3669 2231 3669 1497 
Q 3669 778 3244 343 
Q 2819 -91 2113 -91 
Q 1303 -91 875 529 
Q 447 1150 447 2328 
Q 447 3434 972 4092 
Q 1497 4750 2381 4750 
Q 2619 4750 2861 4703 
Q 3103 4656 3366 4563 
z
" transform="scale(0.015625)"/>
       </defs>
       <use xlink:href="#DejaVuSans-30"/>
       <use xlink:href="#DejaVuSans-2e" x="63.623047"/>
       <use xlink:href="#DejaVuSans-36" x="95.410156"/>
      </g>
     </g>
    </g>
    <g id="ytick_5">
     <g id="line2d_14">
      <path d="M 60.13 69.072821 
L 443.885 69.072821 
" clip-path="url(#pdf6d89e075)" style="fill: none; stroke-dasharray: 1.85,0.8; stroke-dashoffset: 0; stroke: #808080; stroke-opacity: 0.7; stroke-width: 0.5"/>
     </g>
     <g id="text_15">
      <!-- 0.8 -->
      <g transform="translate(26.685 75.151571) scale(0.16 -0.16)">
       <defs>
        <path id="DejaVuSans-38" d="M 2034 2216 
Q 1584 2216 1326 1975 
Q 1069 1734 1069 1313 
Q 1069 891 1326 650 
Q 1584 409 2034 409 
Q 2484 409 2743 651 
Q 3003 894 3003 1313 
Q 3003 1734 2745 1975 
Q 2488 2216 2034 2216 
z
M 1403 2484 
Q 997 2584 770 2862 
Q 544 3141 544 3541 
Q 544 4100 942 4425 
Q 1341 4750 2034 4750 
Q 2731 4750 3128 4425 
Q 3525 4100 3525 3541 
Q 3525 3141 3298 2862 
Q 3072 2584 2669 2484 
Q 3125 2378 3379 2068 
Q 3634 1759 3634 1313 
Q 3634 634 3220 271 
Q 2806 -91 2034 -91 
Q 1263 -91 848 271 
Q 434 634 434 1313 
Q 434 1759 690 2068 
Q 947 2378 1403 2484 
z
M 1172 3481 
Q 1172 3119 1398 2916 
Q 1625 2713 2034 2713 
Q 2441 2713 2670 2916 
Q 2900 3119 2900 3481 
Q 2900 3844 2670 4047 
Q 2441 4250 2034 4250 
Q 1625 4250 1398 4047 
Q 1172 3844 1172 3481 
z
" transform="scale(0.015625)"/>
       </defs>
       <use xlink:href="#DejaVuSans-30"/>
       <use xlink:href="#DejaVuSans-2e" x="63.623047"/>
       <use xlink:href="#DejaVuSans-38" x="95.410156"/>
      </g>
     </g>
    </g>
    <g id="ytick_6">
     <g id="line2d_15">
      <path d="M 60.13 13.27875 
L 443.885 13.27875 
" clip-path="url(#pdf6d89e075)" style="fill: none; stroke-dasharray: 1.85,0.8; stroke-dashoffset: 0; stroke: #808080; stroke-opacity: 0.7; stroke-width: 0.5"/>
     </g>
     <g id="text_16">
      <!-- 1.0 -->
      <g transform="translate(26.685 19.3575) scale(0.16 -0.16)">
       <use xlink:href="#DejaVuSans-31"/>
       <use xlink:href="#DejaVuSans-2e" x="63.623047"/>
       <use xlink:href="#DejaVuSans-30" x="95.410156"/>
      </g>
     </g>
    </g>
    <g id="text_17">
     <!-- Jaccard Index -->
     <g style="fill: #262626" transform="translate(19.3575 205.836647) rotate(-90) scale(0.16 -0.16)">
      <defs>
       <path id="DejaVuSans-4a" d="M 628 4666 
L 1259 4666 
L 1259 325 
Q 1259 -519 939 -900 
Q 619 -1281 -91 -1281 
L -331 -1281 
L -331 -750 
L -134 -750 
Q 284 -750 456 -515 
Q 628 -281 628 325 
L 628 4666 
z
" transform="scale(0.015625)"/>
       <path id="DejaVuSans-61" d="M 2194 1759 
Q 1497 1759 1228 1600 
Q 959 1441 959 1056 
Q 959 750 1161 570 
Q 1363 391 1709 391 
Q 2188 391 2477 730 
Q 2766 1069 2766 1631 
L 2766 1759 
L 2194 1759 
z
M 3341 1997 
L 3341 0 
L 2766 0 
L 2766 531 
Q 2569 213 2275 61 
Q 1981 -91 1556 -91 
Q 1019 -91 701 211 
Q 384 513 384 1019 
Q 384 1609 779 1909 
Q 1175 2209 1959 2209 
L 2766 2209 
L 2766 2266 
Q 2766 2663 2505 2880 
Q 2244 3097 1772 3097 
Q 1472 3097 1187 3025 
Q 903 2953 641 2809 
L 641 3341 
Q 956 3463 1253 3523 
Q 1550 3584 1831 3584 
Q 2591 3584 2966 3190 
Q 3341 2797 3341 1997 
z
" transform="scale(0.015625)"/>
       <path id="DejaVuSans-63" d="M 3122 3366 
L 3122 2828 
Q 2878 2963 2633 3030 
Q 2388 3097 2138 3097 
Q 1578 3097 1268 2742 
Q 959 2388 959 1747 
Q 959 1106 1268 751 
Q 1578 397 2138 397 
Q 2388 397 2633 464 
Q 2878 531 3122 666 
L 3122 134 
Q 2881 22 2623 -34 
Q 2366 -91 2075 -91 
Q 1284 -91 818 406 
Q 353 903 353 1747 
Q 353 2603 823 3093 
Q 1294 3584 2113 3584 
Q 2378 3584 2631 3529 
Q 2884 3475 3122 3366 
z
" transform="scale(0.015625)"/>
       <path id="DejaVuSans-72" d="M 2631 2963 
Q 2534 3019 2420 3045 
Q 2306 3072 2169 3072 
Q 1681 3072 1420 2755 
Q 1159 2438 1159 1844 
L 1159 0 
L 581 0 
L 581 3500 
L 1159 3500 
L 1159 2956 
Q 1341 3275 1631 3429 
Q 1922 3584 2338 3584 
Q 2397 3584 2469 3576 
Q 2541 3569 2628 3553 
L 2631 2963 
z
" transform="scale(0.015625)"/>
       <path id="DejaVuSans-64" d="M 2906 2969 
L 2906 4863 
L 3481 4863 
L 3481 0 
L 2906 0 
L 2906 525 
Q 2725 213 2448 61 
Q 2172 -91 1784 -91 
Q 1150 -91 751 415 
Q 353 922 353 1747 
Q 353 2572 751 3078 
Q 1150 3584 1784 3584 
Q 2172 3584 2448 3432 
Q 2725 3281 2906 2969 
z
M 947 1747 
Q 947 1113 1208 752 
Q 1469 391 1925 391 
Q 2381 391 2643 752 
Q 2906 1113 2906 1747 
Q 2906 2381 2643 2742 
Q 2381 3103 1925 3103 
Q 1469 3103 1208 2742 
Q 947 2381 947 1747 
z
" transform="scale(0.015625)"/>
       <path id="DejaVuSans-20" transform="scale(0.015625)"/>
       <path id="DejaVuSans-49" d="M 628 4666 
L 1259 4666 
L 1259 0 
L 628 0 
L 628 4666 
z
" transform="scale(0.015625)"/>
       <path id="DejaVuSans-6e" d="M 3513 2113 
L 3513 0 
L 2938 0 
L 2938 2094 
Q 2938 2591 2744 2837 
Q 2550 3084 2163 3084 
Q 1697 3084 1428 2787 
Q 1159 2491 1159 1978 
L 1159 0 
L 581 0 
L 581 3500 
L 1159 3500 
L 1159 2956 
Q 1366 3272 1645 3428 
Q 1925 3584 2291 3584 
Q 2894 3584 3203 3211 
Q 3513 2838 3513 2113 
z
" transform="scale(0.015625)"/>
       <path id="DejaVuSans-65" d="M 3597 1894 
L 3597 1613 
L 953 1613 
Q 991 1019 1311 708 
Q 1631 397 2203 397 
Q 2534 397 2845 478 
Q 3156 559 3463 722 
L 3463 178 
Q 3153 47 2828 -22 
Q 2503 -91 2169 -91 
Q 1331 -91 842 396 
Q 353 884 353 1716 
Q 353 2575 817 3079 
Q 1281 3584 2069 3584 
Q 2775 3584 3186 3129 
Q 3597 2675 3597 1894 
z
M 3022 2063 
Q 3016 2534 2758 2815 
Q 2500 3097 2075 3097 
Q 1594 3097 1305 2825 
Q 1016 2553 972 2059 
L 3022 2063 
z
" transform="scale(0.015625)"/>
       <path id="DejaVuSans-78" d="M 3513 3500 
L 2247 1797 
L 3578 0 
L 2900 0 
L 1881 1375 
L 863 0 
L 184 0 
L 1544 1831 
L 300 3500 
L 978 3500 
L 1906 2253 
L 2834 3500 
L 3513 3500 
z
" transform="scale(0.015625)"/>
      </defs>
      <use xlink:href="#DejaVuSans-4a"/>
      <use xlink:href="#DejaVuSans-61" x="29.492188"/>
      <use xlink:href="#DejaVuSans-63" x="90.771484"/>
      <use xlink:href="#DejaVuSans-63" x="145.751953"/>
      <use xlink:href="#DejaVuSans-61" x="200.732422"/>
      <use xlink:href="#DejaVuSans-72" x="262.011719"/>
      <use xlink:href="#DejaVuSans-64" x="301.375"/>
      <use xlink:href="#DejaVuSans-20" x="364.851562"/>
      <use xlink:href="#DejaVuSans-49" x="396.638672"/>
      <use xlink:href="#DejaVuSans-6e" x="426.130859"/>
      <use xlink:href="#DejaVuSans-64" x="489.509766"/>
      <use xlink:href="#DejaVuSans-65" x="552.986328"/>
      <use xlink:href="#DejaVuSans-78" x="612.759766"/>
     </g>
    </g>
   </g>
   <g id="line2d_16">
    <path d="M 62.048775 60.604078 
L 71.64265 55.389989 
L 81.236525 74.545677 
L 90.8304 68.346335 
L 100.424275 90.405848 
L 110.01815 80.47518 
L 119.612025 70.534745 
L 129.2059 82.54733 
L 138.799775 111.968864 
L 148.39365 162.934721 
L 157.987525 126.300489 
L 167.5814 179.869198 
L 177.175275 178.274708 
L 186.76915 198.572127 
L 196.363025 246.630925 
L 205.9569 230.794764 
L 215.550775 276.508588 
L 225.14465 274.813456 
L 234.738525 290.460832 
L 244.3324 292.249103 
L 253.926275 292.249103 
L 263.52015 292.249103 
L 273.114025 283.941986 
L 282.7079 275.878968 
L 292.301775 248.078797 
L 301.89565 252.558969 
L 311.489525 228.379575 
L 321.0834 166.718956 
L 330.677275 202.375502 
L 340.27115 163.524212 
L 349.865025 103.807365 
L 359.4589 113.157025 
L 369.052775 137.486979 
L 378.64665 80.73737 
L 388.240525 91.913518 
L 397.8344 89.378826 
L 407.428275 48.865353 
L 417.02215 37.392364 
L 426.616025 58.641624 
L 436.2099 54.05134 
" clip-path="url(#pdf6d89e075)" style="fill: none; stroke: #e69f00; stroke-width: 2; stroke-linecap: round"/>
    <defs>
     <path id="mc4e820a8c1" d="M 0 3 
C 0.795609 3 1.55874 2.683901 2.12132 2.12132 
C 2.683901 1.55874 3 0.795609 3 0 
C 3 -0.795609 2.683901 -1.55874 2.12132 -2.12132 
C 1.55874 -2.683901 0.795609 -3 0 -3 
C -0.795609 -3 -1.55874 -2.683901 -2.12132 -2.12132 
C -2.683901 -1.55874 -3 -0.795609 -3 0 
C -3 0.795609 -2.683901 1.55874 -2.12132 2.12132 
C -1.55874 2.683901 -0.795609 3 0 3 
z
" style="stroke: #e69f00"/>
    </defs>
    <g clip-path="url(#pdf6d89e075)">
     <use xlink:href="#mc4e820a8c1" x="62.048775" y="60.604078" style="fill: #e69f00; stroke: #e69f00"/>
     <use xlink:href="#mc4e820a8c1" x="71.64265" y="55.389989" style="fill: #e69f00; stroke: #e69f00"/>
     <use xlink:href="#mc4e820a8c1" x="81.236525" y="74.545677" style="fill: #e69f00; stroke: #e69f00"/>
     <use xlink:href="#mc4e820a8c1" x="90.8304" y="68.346335" style="fill: #e69f00; stroke: #e69f00"/>
     <use xlink:href="#mc4e820a8c1" x="100.424275" y="90.405848" style="fill: #e69f00; stroke: #e69f00"/>
     <use xlink:href="#mc4e820a8c1" x="110.01815" y="80.47518" style="fill: #e69f00; stroke: #e69f00"/>
     <use xlink:href="#mc4e820a8c1" x="119.612025" y="70.534745" style="fill: #e69f00; stroke: #e69f00"/>
     <use xlink:href="#mc4e820a8c1" x="129.2059" y="82.54733" style="fill: #e69f00; stroke: #e69f00"/>
     <use xlink:href="#mc4e820a8c1" x="138.799775" y="111.968864" style="fill: #e69f00; stroke: #e69f00"/>
     <use xlink:href="#mc4e820a8c1" x="148.39365" y="162.934721" style="fill: #e69f00; stroke: #e69f00"/>
     <use xlink:href="#mc4e820a8c1" x="157.987525" y="126.300489" style="fill: #e69f00; stroke: #e69f00"/>
     <use xlink:href="#mc4e820a8c1" x="167.5814" y="179.869198" style="fill: #e69f00; stroke: #e69f00"/>
     <use xlink:href="#mc4e820a8c1" x="177.175275" y="178.274708" style="fill: #e69f00; stroke: #e69f00"/>
     <use xlink:href="#mc4e820a8c1" x="186.76915" y="198.572127" style="fill: #e69f00; stroke: #e69f00"/>
     <use xlink:href="#mc4e820a8c1" x="196.363025" y="246.630925" style="fill: #e69f00; stroke: #e69f00"/>
     <use xlink:href="#mc4e820a8c1" x="205.9569" y="230.794764" style="fill: #e69f00; stroke: #e69f00"/>
     <use xlink:href="#mc4e820a8c1" x="215.550775" y="276.508588" style="fill: #e69f00; stroke: #e69f00"/>
     <use xlink:href="#mc4e820a8c1" x="225.14465" y="274.813456" style="fill: #e69f00; stroke: #e69f00"/>
     <use xlink:href="#mc4e820a8c1" x="234.738525" y="290.460832" style="fill: #e69f00; stroke: #e69f00"/>
     <use xlink:href="#mc4e820a8c1" x="244.3324" y="292.249103" style="fill: #e69f00; stroke: #e69f00"/>
     <use xlink:href="#mc4e820a8c1" x="253.926275" y="292.249103" style="fill: #e69f00; stroke: #e69f00"/>
     <use xlink:href="#mc4e820a8c1" x="263.52015" y="292.249103" style="fill: #e69f00; stroke: #e69f00"/>
     <use xlink:href="#mc4e820a8c1" x="273.114025" y="283.941986" style="fill: #e69f00; stroke: #e69f00"/>
     <use xlink:href="#mc4e820a8c1" x="282.7079" y="275.878968" style="fill: #e69f00; stroke: #e69f00"/>
     <use xlink:href="#mc4e820a8c1" x="292.301775" y="248.078797" style="fill: #e69f00; stroke: #e69f00"/>
     <use xlink:href="#mc4e820a8c1" x="301.89565" y="252.558969" style="fill: #e69f00; stroke: #e69f00"/>
     <use xlink:href="#mc4e820a8c1" x="311.489525" y="228.379575" style="fill: #e69f00; stroke: #e69f00"/>
     <use xlink:href="#mc4e820a8c1" x="321.0834" y="166.718956" style="fill: #e69f00; stroke: #e69f00"/>
     <use xlink:href="#mc4e820a8c1" x="330.677275" y="202.375502" style="fill: #e69f00; stroke: #e69f00"/>
     <use xlink:href="#mc4e820a8c1" x="340.27115" y="163.524212" style="fill: #e69f00; stroke: #e69f00"/>
     <use xlink:href="#mc4e820a8c1" x="349.865025" y="103.807365" style="fill: #e69f00; stroke: #e69f00"/>
     <use xlink:href="#mc4e820a8c1" x="359.4589" y="113.157025" style="fill: #e69f00; stroke: #e69f00"/>
     <use xlink:href="#mc4e820a8c1" x="369.052775" y="137.486979" style="fill: #e69f00; stroke: #e69f00"/>
     <use xlink:href="#mc4e820a8c1" x="378.64665" y="80.73737" style="fill: #e69f00; stroke: #e69f00"/>
     <use xlink:href="#mc4e820a8c1" x="388.240525" y="91.913518" style="fill: #e69f00; stroke: #e69f00"/>
     <use xlink:href="#mc4e820a8c1" x="397.8344" y="89.378826" style="fill: #e69f00; stroke: #e69f00"/>
     <use xlink:href="#mc4e820a8c1" x="407.428275" y="48.865353" style="fill: #e69f00; stroke: #e69f00"/>
     <use xlink:href="#mc4e820a8c1" x="417.02215" y="37.392364" style="fill: #e69f00; stroke: #e69f00"/>
     <use xlink:href="#mc4e820a8c1" x="426.616025" y="58.641624" style="fill: #e69f00; stroke: #e69f00"/>
     <use xlink:href="#mc4e820a8c1" x="436.2099" y="54.05134" style="fill: #e69f00; stroke: #e69f00"/>
    </g>
   </g>
   <g id="patch_3">
    <path d="M 60.13 292.249103 
L 60.13 11.90669 
" style="fill: none; stroke: #000000; stroke-linejoin: miter; stroke-linecap: square"/>
   </g>
   <g id="patch_4">
    <path d="M 443.885 292.249103 
L 443.885 11.90669 
" style="fill: none; stroke: #000000; stroke-linejoin: miter; stroke-linecap: square"/>
   </g>
   <g id="patch_5">
    <path d="M 60.13 292.249103 
L 443.885 292.249103 
" style="fill: none; stroke: #000000; stroke-linejoin: miter; stroke-linecap: square"/>
   </g>
   <g id="patch_6">
    <path d="M 60.13 11.90669 
L 443.885 11.90669 
" style="fill: none; stroke: #000000; stroke-linejoin: miter; stroke-linecap: square"/>
   </g>
  </g>
 </g>
 <defs>
  <clipPath id="pdf6d89e075">
   <rect x="60.13" y="11.90669" width="383.755" height="280.342413"/>
  </clipPath>
 </defs>
</svg>
