<?xml version="1.0" encoding="utf-8" standalone="no"?>
<!DOCTYPE svg PUBLIC "-//W3C//DTD SVG 1.1//EN"
  "http://www.w3.org/Graphics/SVG/1.1/DTD/svg11.dtd">
<svg xmlns:xlink="http://www.w3.org/1999/xlink" width="568.8pt" height="424.8pt" viewBox="0 0 568.8 424.8" xmlns="http://www.w3.org/2000/svg" version="1.1">
 <metadata>
  <rdf:RDF xmlns:dc="http://purl.org/dc/elements/1.1/" xmlns:cc="http://creativecommons.org/ns#" xmlns:rdf="http://www.w3.org/1999/02/22-rdf-syntax-ns#">
   <cc:Work>
    <dc:type rdf:resource="http://purl.org/dc/dcmitype/StillImage"/>
    <dc:date>2025-01-03T12:58:17.626579</dc:date>
    <dc:format>image/svg+xml</dc:format>
    <dc:creator>
     <cc:Agent>
      <dc:title>Matplotlib v3.9.0, https://matplotlib.org/</dc:title>
     </cc:Agent>
    </dc:creator>
   </cc:Work>
  </rdf:RDF>
 </metadata>
 <defs>
  <style type="text/css">*{stroke-linejoin: round; stroke-linecap: butt}</style>
 </defs>
 <g id="figure_1">
  <g id="patch_1">
   <path d="M 0 424.8 
L 568.8 424.8 
L 568.8 0 
L 0 0 
L 0 424.8 
z
" style="fill: none"/>
  </g>
  <g id="axes_1">
   <g id="patch_2">
    <path d="M 90.89 343.66 
L 551.42 343.66 
L 551.42 7.2 
L 90.89 7.2 
L 90.89 343.66 
z
" style="fill: none"/>
   </g>
   <g id="matplotlib.axis_1">
    <g id="xtick_1">
     <g id="line2d_1">
      <defs>
       <path id="m6a0047a778" d="M 0 0 
L 0 6 
" style="stroke: #000000"/>
      </defs>
      <g>
       <use xlink:href="#m6a0047a778" x="90.89" y="343.66" style="stroke: #000000"/>
      </g>
     </g>
     <g id="text_1">
      <!-- −5 -->
      <g transform="translate(67.3025 375.975) scale(0.32 -0.32)">
       <defs>
        <path id="DejaVuSans-2212" d="M 678 2272 
L 4684 2272 
L 4684 1741 
L 678 1741 
L 678 2272 
z
" transform="scale(0.015625)"/>
        <path id="DejaVuSans-35" d="M 691 4666 
L 3169 4666 
L 3169 4134 
L 1269 4134 
L 1269 2991 
Q 1406 3038 1543 3061 
Q 1681 3084 1819 3084 
Q 2600 3084 3056 2656 
Q 3513 2228 3513 1497 
Q 3513 744 3044 326 
Q 2575 -91 1722 -91 
Q 1428 -91 1123 -41 
Q 819 9 494 109 
L 494 744 
Q 775 591 1075 516 
Q 1375 441 1709 441 
Q 2250 441 2565 725 
Q 2881 1009 2881 1497 
Q 2881 1984 2565 2268 
Q 2250 2553 1709 2553 
Q 1456 2553 1204 2497 
Q 953 2441 691 2322 
L 691 4666 
z
" transform="scale(0.015625)"/>
       </defs>
       <use xlink:href="#DejaVuSans-2212"/>
       <use xlink:href="#DejaVuSans-35" x="83.789062"/>
      </g>
     </g>
    </g>
    <g id="xtick_2">
     <g id="line2d_2">
      <g>
       <use xlink:href="#m6a0047a778" x="136.943" y="343.66" style="stroke: #000000"/>
      </g>
     </g>
     <g id="text_2">
      <!-- −4 -->
      <g transform="translate(113.3555 375.975) scale(0.32 -0.32)">
       <defs>
        <path id="DejaVuSans-34" d="M 2419 4116 
L 825 1625 
L 2419 1625 
L 2419 4116 
z
M 2253 4666 
L 3047 4666 
L 3047 1625 
L 3713 1625 
L 3713 1100 
L 3047 1100 
L 3047 0 
L 2419 0 
L 2419 1100 
L 313 1100 
L 313 1709 
L 2253 4666 
z
" transform="scale(0.015625)"/>
       </defs>
       <use xlink:href="#DejaVuSans-2212"/>
       <use xlink:href="#DejaVuSans-34" x="83.789062"/>
      </g>
     </g>
    </g>
    <g id="xtick_3">
     <g id="line2d_3">
      <g>
       <use xlink:href="#m6a0047a778" x="182.996" y="343.66" style="stroke: #000000"/>
      </g>
     </g>
     <g id="text_3">
      <!-- −3 -->
      <g transform="translate(159.4085 375.975) scale(0.32 -0.32)">
       <defs>
        <path id="DejaVuSans-33" d="M 2597 2516 
Q 3050 2419 3304 2112 
Q 3559 1806 3559 1356 
Q 3559 666 3084 287 
Q 2609 -91 1734 -91 
Q 1441 -91 1130 -33 
Q 819 25 488 141 
L 488 750 
Q 750 597 1062 519 
Q 1375 441 1716 441 
Q 2309 441 2620 675 
Q 2931 909 2931 1356 
Q 2931 1769 2642 2001 
Q 2353 2234 1838 2234 
L 1294 2234 
L 1294 2753 
L 1863 2753 
Q 2328 2753 2575 2939 
Q 2822 3125 2822 3475 
Q 2822 3834 2567 4026 
Q 2313 4219 1838 4219 
Q 1578 4219 1281 4162 
Q 984 4106 628 3988 
L 628 4550 
Q 988 4650 1302 4700 
Q 1616 4750 1894 4750 
Q 2613 4750 3031 4423 
Q 3450 4097 3450 3541 
Q 3450 3153 3228 2886 
Q 3006 2619 2597 2516 
z
" transform="scale(0.015625)"/>
       </defs>
       <use xlink:href="#DejaVuSans-2212"/>
       <use xlink:href="#DejaVuSans-33" x="83.789062"/>
      </g>
     </g>
    </g>
    <g id="xtick_4">
     <g id="line2d_4">
      <g>
       <use xlink:href="#m6a0047a778" x="229.049" y="343.66" style="stroke: #000000"/>
      </g>
     </g>
     <g id="text_4">
      <!-- −2 -->
      <g transform="translate(205.4615 375.975) scale(0.32 -0.32)">
       <defs>
        <path id="DejaVuSans-32" d="M 1228 531 
L 3431 531 
L 3431 0 
L 469 0 
L 469 531 
Q 828 903 1448 1529 
Q 2069 2156 2228 2338 
Q 2531 2678 2651 2914 
Q 2772 3150 2772 3378 
Q 2772 3750 2511 3984 
Q 2250 4219 1831 4219 
Q 1534 4219 1204 4116 
Q 875 4013 500 3803 
L 500 4441 
Q 881 4594 1212 4672 
Q 1544 4750 1819 4750 
Q 2544 4750 2975 4387 
Q 3406 4025 3406 3419 
Q 3406 3131 3298 2873 
Q 3191 2616 2906 2266 
Q 2828 2175 2409 1742 
Q 1991 1309 1228 531 
z
" transform="scale(0.015625)"/>
       </defs>
       <use xlink:href="#DejaVuSans-2212"/>
       <use xlink:href="#DejaVuSans-32" x="83.789062"/>
      </g>
     </g>
    </g>
    <g id="xtick_5">
     <g id="line2d_5">
      <g>
       <use xlink:href="#m6a0047a778" x="275.102" y="343.66" style="stroke: #000000"/>
      </g>
     </g>
     <g id="text_5">
      <!-- −1 -->
      <g transform="translate(251.5145 375.975) scale(0.32 -0.32)">
       <defs>
        <path id="DejaVuSans-31" d="M 794 531 
L 1825 531 
L 1825 4091 
L 703 3866 
L 703 4441 
L 1819 4666 
L 2450 4666 
L 2450 531 
L 3481 531 
L 3481 0 
L 794 0 
L 794 531 
z
" transform="scale(0.015625)"/>
       </defs>
       <use xlink:href="#DejaVuSans-2212"/>
       <use xlink:href="#DejaVuSans-31" x="83.789062"/>
      </g>
     </g>
    </g>
    <g id="xtick_6">
     <g id="line2d_6">
      <g>
       <use xlink:href="#m6a0047a778" x="321.155" y="343.66" style="stroke: #000000"/>
      </g>
     </g>
     <g id="text_6">
      <!-- 0 -->
      <g transform="translate(310.975 375.975) scale(0.32 -0.32)">
       <defs>
        <path id="DejaVuSans-30" d="M 2034 4250 
Q 1547 4250 1301 3770 
Q 1056 3291 1056 2328 
Q 1056 1369 1301 889 
Q 1547 409 2034 409 
Q 2525 409 2770 889 
Q 3016 1369 3016 2328 
Q 3016 3291 2770 3770 
Q 2525 4250 2034 4250 
z
M 2034 4750 
Q 2819 4750 3233 4129 
Q 3647 3509 3647 2328 
Q 3647 1150 3233 529 
Q 2819 -91 2034 -91 
Q 1250 -91 836 529 
Q 422 1150 422 2328 
Q 422 3509 836 4129 
Q 1250 4750 2034 4750 
z
" transform="scale(0.015625)"/>
       </defs>
       <use xlink:href="#DejaVuSans-30"/>
      </g>
     </g>
    </g>
    <g id="xtick_7">
     <g id="line2d_7">
      <g>
       <use xlink:href="#m6a0047a778" x="367.208" y="343.66" style="stroke: #000000"/>
      </g>
     </g>
     <g id="text_7">
      <!-- 1 -->
      <g transform="translate(357.028 375.975) scale(0.32 -0.32)">
       <use xlink:href="#DejaVuSans-31"/>
      </g>
     </g>
    </g>
    <g id="xtick_8">
     <g id="line2d_8">
      <g>
       <use xlink:href="#m6a0047a778" x="413.261" y="343.66" style="stroke: #000000"/>
      </g>
     </g>
     <g id="text_8">
      <!-- 2 -->
      <g transform="translate(403.081 375.975) scale(0.32 -0.32)">
       <use xlink:href="#DejaVuSans-32"/>
      </g>
     </g>
    </g>
    <g id="xtick_9">
     <g id="line2d_9">
      <g>
       <use xlink:href="#m6a0047a778" x="459.314" y="343.66" style="stroke: #000000"/>
      </g>
     </g>
     <g id="text_9">
      <!-- 3 -->
      <g transform="translate(449.134 375.975) scale(0.32 -0.32)">
       <use xlink:href="#DejaVuSans-33"/>
      </g>
     </g>
    </g>
    <g id="xtick_10">
     <g id="line2d_10">
      <g>
       <use xlink:href="#m6a0047a778" x="505.367" y="343.66" style="stroke: #000000"/>
      </g>
     </g>
     <g id="text_10">
      <!-- 4 -->
      <g transform="translate(495.187 375.975) scale(0.32 -0.32)">
       <use xlink:href="#DejaVuSans-34"/>
      </g>
     </g>
    </g>
    <g id="xtick_11">
     <g id="line2d_11">
      <g>
       <use xlink:href="#m6a0047a778" x="551.42" y="343.66" style="stroke: #000000"/>
      </g>
     </g>
     <g id="text_11">
      <!-- 5 -->
      <g transform="translate(541.24 375.975) scale(0.32 -0.32)">
       <use xlink:href="#DejaVuSans-35"/>
      </g>
     </g>
    </g>
    <g id="text_12">
     <!-- $\Delta K$ -->
     <g transform="translate(299.715 410.945) scale(0.32 -0.32)">
      <defs>
       <path id="DejaVuSans-394" d="M 2188 4044 
L 906 525 
L 3472 525 
L 2188 4044 
z
M 50 0 
L 1831 4666 
L 2547 4666 
L 4325 0 
L 50 0 
z
" transform="scale(0.015625)"/>
       <path id="DejaVuSans-Oblique-4b" d="M 1081 4666 
L 1716 4666 
L 1331 2700 
L 3781 4666 
L 4622 4666 
L 1850 2438 
L 3878 0 
L 3109 0 
L 1247 2272 
L 806 0 
L 172 0 
L 1081 4666 
z
" transform="scale(0.015625)"/>
      </defs>
      <use xlink:href="#DejaVuSans-394" transform="translate(0 0.09375)"/>
      <use xlink:href="#DejaVuSans-Oblique-4b" transform="translate(68.408203 0.09375)"/>
     </g>
    </g>
   </g>
   <g id="matplotlib.axis_2">
    <g id="ytick_1">
     <g id="line2d_12">
      <defs>
       <path id="m73c8c02b43" d="M 0 0 
L -6 0 
" style="stroke: #000000"/>
      </defs>
      <g>
       <use xlink:href="#m73c8c02b43" x="90.89" y="343.66" style="stroke: #000000"/>
      </g>
     </g>
     <g id="text_13">
      <!-- 0.0 -->
      <g transform="translate(32 355.8175) scale(0.32 -0.32)">
       <defs>
        <path id="DejaVuSans-2e" d="M 684 794 
L 1344 794 
L 1344 0 
L 684 0 
L 684 794 
z
" transform="scale(0.015625)"/>
       </defs>
       <use xlink:href="#DejaVuSans-30"/>
       <use xlink:href="#DejaVuSans-2e" x="63.623047"/>
       <use xlink:href="#DejaVuSans-30" x="95.410156"/>
      </g>
     </g>
    </g>
    <g id="ytick_2">
     <g id="line2d_13">
      <g>
       <use xlink:href="#m73c8c02b43" x="90.89" y="183.440952" style="stroke: #000000"/>
      </g>
     </g>
     <g id="text_14">
      <!-- 0.5 -->
      <g transform="translate(32 195.598452) scale(0.32 -0.32)">
       <use xlink:href="#DejaVuSans-30"/>
       <use xlink:href="#DejaVuSans-2e" x="63.623047"/>
       <use xlink:href="#DejaVuSans-35" x="95.410156"/>
      </g>
     </g>
    </g>
    <g id="ytick_3">
     <g id="line2d_14">
      <g>
       <use xlink:href="#m73c8c02b43" x="90.89" y="23.221905" style="stroke: #000000"/>
      </g>
     </g>
     <g id="text_15">
      <!-- 1.0 -->
      <g transform="translate(32 35.379405) scale(0.32 -0.32)">
       <use xlink:href="#DejaVuSans-31"/>
       <use xlink:href="#DejaVuSans-2e" x="63.623047"/>
       <use xlink:href="#DejaVuSans-30" x="95.410156"/>
      </g>
     </g>
    </g>
    <g id="text_16">
     <!-- $\overline{J}$ -->
     <g transform="translate(7.2 187.75) scale(0.32 -0.32)">
      <defs>
       <path id="DejaVuSans-Oblique-4a" d="M 1069 4666 
L 1703 4666 
L 856 325 
Q 691 -522 298 -901 
Q -94 -1281 -800 -1281 
L -1050 -1281 
L -947 -750 
L -750 -750 
Q -328 -750 -109 -509 
Q 109 -269 225 325 
L 1069 4666 
z
" transform="scale(0.015625)"/>
      </defs>
      <use xlink:href="#DejaVuSans-Oblique-4a" transform="translate(0 0.84375)"/>
      <path d="M 0 85.5 
L 0 91.75 
L 29.492188 91.75 
L 29.492188 85.5 
L 0 85.5 
z
"/>
     </g>
    </g>
   </g>
   <g id="line2d_15">
    <path d="M -1 23.221905 
L 3.3893 23.221905 
L 26.4158 43.160275 
L 49.4423 26.782328 
L 72.4688 27.494413 
L 95.4953 23.221905 
L 118.5218 23.221905 
L 141.5483 41.024021 
L 164.5748 45.194803 
L 187.6013 31.232857 
L 210.6278 27.799592 
L 233.6543 23.221905 
L 256.6808 23.221905 
L 279.7073 39.24381 
L 302.7338 126.982812 
L 325.7603 314.820571 
L 348.7868 67.282143 
L 371.8133 23.221905 
L 394.8398 38.887767 
L 417.8663 23.221905 
L 440.8928 23.221905 
L 463.9193 23.221905 
L 486.9458 23.221905 
L 509.9723 30.342751 
L 532.9988 44.584444 
L 556.0253 23.221905 
L 569.8 23.221905 
" clip-path="url(#p9abdead4c0)" style="fill: none; stroke: #1b9e77; stroke-width: 2; stroke-linecap: square"/>
    <defs>
     <path id="m07b886a261" d="M 0 5 
C 1.326016 5 2.597899 4.473168 3.535534 3.535534 
C 4.473168 2.597899 5 1.326016 5 0 
C 5 -1.326016 4.473168 -2.597899 3.535534 -3.535534 
C 2.597899 -4.473168 1.326016 -5 0 -5 
C -1.326016 -5 -2.597899 -4.473168 -3.535534 -3.535534 
C -4.473168 -2.597899 -5 -1.326016 -5 0 
C -5 1.326016 -4.473168 2.597899 -3.535534 3.535534 
C -2.597899 4.473168 -1.326016 5 0 5 
z
" style="stroke: #1b9e77; stroke-width: 2"/>
    </defs>
    <g clip-path="url(#p9abdead4c0)">
     <use xlink:href="#m07b886a261" x="-1" y="23.221905" style="fill: #1b9e77; stroke: #1b9e77; stroke-width: 2"/>
     <use xlink:href="#m07b886a261" x="3.3893" y="23.221905" style="fill: #1b9e77; stroke: #1b9e77; stroke-width: 2"/>
     <use xlink:href="#m07b886a261" x="26.4158" y="43.160275" style="fill: #1b9e77; stroke: #1b9e77; stroke-width: 2"/>
     <use xlink:href="#m07b886a261" x="49.4423" y="26.782328" style="fill: #1b9e77; stroke: #1b9e77; stroke-width: 2"/>
     <use xlink:href="#m07b886a261" x="72.4688" y="27.494413" style="fill: #1b9e77; stroke: #1b9e77; stroke-width: 2"/>
     <use xlink:href="#m07b886a261" x="95.4953" y="23.221905" style="fill: #1b9e77; stroke: #1b9e77; stroke-width: 2"/>
     <use xlink:href="#m07b886a261" x="118.5218" y="23.221905" style="fill: #1b9e77; stroke: #1b9e77; stroke-width: 2"/>
     <use xlink:href="#m07b886a261" x="141.5483" y="41.024021" style="fill: #1b9e77; stroke: #1b9e77; stroke-width: 2"/>
     <use xlink:href="#m07b886a261" x="164.5748" y="45.194803" style="fill: #1b9e77; stroke: #1b9e77; stroke-width: 2"/>
     <use xlink:href="#m07b886a261" x="187.6013" y="31.232857" style="fill: #1b9e77; stroke: #1b9e77; stroke-width: 2"/>
     <use xlink:href="#m07b886a261" x="210.6278" y="27.799592" style="fill: #1b9e77; stroke: #1b9e77; stroke-width: 2"/>
     <use xlink:href="#m07b886a261" x="233.6543" y="23.221905" style="fill: #1b9e77; stroke: #1b9e77; stroke-width: 2"/>
     <use xlink:href="#m07b886a261" x="256.6808" y="23.221905" style="fill: #1b9e77; stroke: #1b9e77; stroke-width: 2"/>
     <use xlink:href="#m07b886a261" x="279.7073" y="39.24381" style="fill: #1b9e77; stroke: #1b9e77; stroke-width: 2"/>
     <use xlink:href="#m07b886a261" x="302.7338" y="126.982812" style="fill: #1b9e77; stroke: #1b9e77; stroke-width: 2"/>
     <use xlink:href="#m07b886a261" x="325.7603" y="314.820571" style="fill: #1b9e77; stroke: #1b9e77; stroke-width: 2"/>
     <use xlink:href="#m07b886a261" x="348.7868" y="67.282143" style="fill: #1b9e77; stroke: #1b9e77; stroke-width: 2"/>
     <use xlink:href="#m07b886a261" x="371.8133" y="23.221905" style="fill: #1b9e77; stroke: #1b9e77; stroke-width: 2"/>
     <use xlink:href="#m07b886a261" x="394.8398" y="38.887767" style="fill: #1b9e77; stroke: #1b9e77; stroke-width: 2"/>
     <use xlink:href="#m07b886a261" x="417.8663" y="23.221905" style="fill: #1b9e77; stroke: #1b9e77; stroke-width: 2"/>
     <use xlink:href="#m07b886a261" x="440.8928" y="23.221905" style="fill: #1b9e77; stroke: #1b9e77; stroke-width: 2"/>
     <use xlink:href="#m07b886a261" x="463.9193" y="23.221905" style="fill: #1b9e77; stroke: #1b9e77; stroke-width: 2"/>
     <use xlink:href="#m07b886a261" x="486.9458" y="23.221905" style="fill: #1b9e77; stroke: #1b9e77; stroke-width: 2"/>
     <use xlink:href="#m07b886a261" x="509.9723" y="30.342751" style="fill: #1b9e77; stroke: #1b9e77; stroke-width: 2"/>
     <use xlink:href="#m07b886a261" x="532.9988" y="44.584444" style="fill: #1b9e77; stroke: #1b9e77; stroke-width: 2"/>
     <use xlink:href="#m07b886a261" x="556.0253" y="23.221905" style="fill: #1b9e77; stroke: #1b9e77; stroke-width: 2"/>
     <use xlink:href="#m07b886a261" x="579.0518" y="23.221905" style="fill: #1b9e77; stroke: #1b9e77; stroke-width: 2"/>
     <use xlink:href="#m07b886a261" x="602.0783" y="49.162132" style="fill: #1b9e77; stroke: #1b9e77; stroke-width: 2"/>
     <use xlink:href="#m07b886a261" x="625.1048" y="23.221905" style="fill: #1b9e77; stroke: #1b9e77; stroke-width: 2"/>
     <use xlink:href="#m07b886a261" x="648.1313" y="23.221905" style="fill: #1b9e77; stroke: #1b9e77; stroke-width: 2"/>
     <use xlink:href="#m07b886a261" x="671.1578" y="27.969136" style="fill: #1b9e77; stroke: #1b9e77; stroke-width: 2"/>
     <use xlink:href="#m07b886a261" x="694.1843" y="23.221905" style="fill: #1b9e77; stroke: #1b9e77; stroke-width: 2"/>
     <use xlink:href="#m07b886a261" x="717.2108" y="23.221905" style="fill: #1b9e77; stroke: #1b9e77; stroke-width: 2"/>
     <use xlink:href="#m07b886a261" x="740.2373" y="23.221905" style="fill: #1b9e77; stroke: #1b9e77; stroke-width: 2"/>
     <use xlink:href="#m07b886a261" x="763.2638" y="23.221905" style="fill: #1b9e77; stroke: #1b9e77; stroke-width: 2"/>
     <use xlink:href="#m07b886a261" x="786.2903" y="23.221905" style="fill: #1b9e77; stroke: #1b9e77; stroke-width: 2"/>
     <use xlink:href="#m07b886a261" x="809.3168" y="23.221905" style="fill: #1b9e77; stroke: #1b9e77; stroke-width: 2"/>
     <use xlink:href="#m07b886a261" x="832.3433" y="23.221905" style="fill: #1b9e77; stroke: #1b9e77; stroke-width: 2"/>
     <use xlink:href="#m07b886a261" x="855.3698" y="36.446334" style="fill: #1b9e77; stroke: #1b9e77; stroke-width: 2"/>
     <use xlink:href="#m07b886a261" x="878.3963" y="28.56254" style="fill: #1b9e77; stroke: #1b9e77; stroke-width: 2"/>
     <use xlink:href="#m07b886a261" x="901.4228" y="23.221905" style="fill: #1b9e77; stroke: #1b9e77; stroke-width: 2"/>
     <use xlink:href="#m07b886a261" x="924.4493" y="23.221905" style="fill: #1b9e77; stroke: #1b9e77; stroke-width: 2"/>
     <use xlink:href="#m07b886a261" x="947.4758" y="23.221905" style="fill: #1b9e77; stroke: #1b9e77; stroke-width: 2"/>
     <use xlink:href="#m07b886a261" x="970.5023" y="23.221905" style="fill: #1b9e77; stroke: #1b9e77; stroke-width: 2"/>
     <use xlink:href="#m07b886a261" x="993.5288" y="28.56254" style="fill: #1b9e77; stroke: #1b9e77; stroke-width: 2"/>
     <use xlink:href="#m07b886a261" x="1016.5553" y="23.221905" style="fill: #1b9e77; stroke: #1b9e77; stroke-width: 2"/>
     <use xlink:href="#m07b886a261" x="1039.5818" y="23.221905" style="fill: #1b9e77; stroke: #1b9e77; stroke-width: 2"/>
     <use xlink:href="#m07b886a261" x="1062.6083" y="23.221905" style="fill: #1b9e77; stroke: #1b9e77; stroke-width: 2"/>
     <use xlink:href="#m07b886a261" x="1085.6348" y="23.221905" style="fill: #1b9e77; stroke: #1b9e77; stroke-width: 2"/>
     <use xlink:href="#m07b886a261" x="1108.6613" y="29.325488" style="fill: #1b9e77; stroke: #1b9e77; stroke-width: 2"/>
     <use xlink:href="#m07b886a261" x="1131.6878" y="29.325488" style="fill: #1b9e77; stroke: #1b9e77; stroke-width: 2"/>
     <use xlink:href="#m07b886a261" x="1154.7143" y="23.221905" style="fill: #1b9e77; stroke: #1b9e77; stroke-width: 2"/>
     <use xlink:href="#m07b886a261" x="1177.7408" y="23.221905" style="fill: #1b9e77; stroke: #1b9e77; stroke-width: 2"/>
     <use xlink:href="#m07b886a261" x="1200.7673" y="23.221905" style="fill: #1b9e77; stroke: #1b9e77; stroke-width: 2"/>
     <use xlink:href="#m07b886a261" x="1223.7938" y="23.221905" style="fill: #1b9e77; stroke: #1b9e77; stroke-width: 2"/>
    </g>
   </g>
   <g id="patch_3">
    <path d="M 90.89 343.66 
L 90.89 7.2 
" style="fill: none; stroke: #000000; stroke-linejoin: miter; stroke-linecap: square"/>
   </g>
   <g id="patch_4">
    <path d="M 551.42 343.66 
L 551.42 7.2 
" style="fill: none; stroke: #000000; stroke-linejoin: miter; stroke-linecap: square"/>
   </g>
   <g id="patch_5">
    <path d="M 90.89 343.66 
L 551.42 343.66 
" style="fill: none; stroke: #000000; stroke-linejoin: miter; stroke-linecap: square"/>
   </g>
   <g id="patch_6">
    <path d="M 90.89 7.2 
L 551.42 7.2 
" style="fill: none; stroke: #000000; stroke-linejoin: miter; stroke-linecap: square"/>
   </g>
  </g>
 </g>
 <defs>
  <clipPath id="p9abdead4c0">
   <rect x="90.89" y="7.2" width="460.53" height="336.46"/>
  </clipPath>
 </defs>
</svg>
