<?xml version="1.0" encoding="utf-8" standalone="no"?>
<!DOCTYPE svg PUBLIC "-//W3C//DTD SVG 1.1//EN"
  "http://www.w3.org/Graphics/SVG/1.1/DTD/svg11.dtd">
<svg xmlns:xlink="http://www.w3.org/1999/xlink" width="570.258876pt" height="426.4pt" viewBox="0 0 570.258876 426.4" xmlns="http://www.w3.org/2000/svg" version="1.1">
 <metadata>
  <rdf:RDF xmlns:dc="http://purl.org/dc/elements/1.1/" xmlns:cc="http://creativecommons.org/ns#" xmlns:rdf="http://www.w3.org/1999/02/22-rdf-syntax-ns#">
   <cc:Work>
    <dc:type rdf:resource="http://purl.org/dc/dcmitype/StillImage"/>
    <dc:date>2024-11-27T21:51:20.905884</dc:date>
    <dc:format>image/svg+xml</dc:format>
    <dc:creator>
     <cc:Agent>
      <dc:title>Matplotlib v3.9.0, https://matplotlib.org/</dc:title>
     </cc:Agent>
    </dc:creator>
   </cc:Work>
  </rdf:RDF>
 </metadata>
 <defs>
  <style type="text/css">*{stroke-linejoin: round; stroke-linecap: butt}</style>
 </defs>
 <g id="figure_1">
  <g id="patch_1">
   <path d="M 0 426.4 
L 570.258876 426.4 
L 570.258876 0 
L 0 0 
z
" style="fill: #ffffff"/>
  </g>
  <g id="axes_1">
   <g id="patch_2">
    <path d="M 101.06 345.26 
L 550.911622 345.26 
L 550.911622 7.2 
L 101.06 7.2 
z
" style="fill: #ffffff"/>
   </g>
   <g id="matplotlib.axis_1">
    <g id="xtick_1">
     <g id="line2d_1">
      <defs>
       <path id="mee1ac3fc45" d="M 0 0 
L 0 6 
" style="stroke: #000000"/>
      </defs>
      <g>
       <use xlink:href="#mee1ac3fc45" x="121.507801" y="345.26" style="stroke: #000000"/>
      </g>
     </g>
     <g id="text_1">
      <!-- 0 -->
      <g transform="translate(111.327801 377.575) scale(0.32 -0.32)">
       <defs>
        <path id="DejaVuSans-30" d="M 2034 4250 
Q 1547 4250 1301 3770 
Q 1056 3291 1056 2328 
Q 1056 1369 1301 889 
Q 1547 409 2034 409 
Q 2525 409 2770 889 
Q 3016 1369 3016 2328 
Q 3016 3291 2770 3770 
Q 2525 4250 2034 4250 
z
M 2034 4750 
Q 2819 4750 3233 4129 
Q 3647 3509 3647 2328 
Q 3647 1150 3233 529 
Q 2819 -91 2034 -91 
Q 1250 -91 836 529 
Q 422 1150 422 2328 
Q 422 3509 836 4129 
Q 1250 4750 2034 4750 
z
" transform="scale(0.015625)"/>
       </defs>
       <use xlink:href="#DejaVuSans-30"/>
      </g>
     </g>
    </g>
    <g id="xtick_2">
     <g id="line2d_2">
      <g>
       <use xlink:href="#mee1ac3fc45" x="327.013339" y="345.26" style="stroke: #000000"/>
      </g>
     </g>
     <g id="text_2">
      <!-- 100 -->
      <g transform="translate(296.473339 377.575) scale(0.32 -0.32)">
       <defs>
        <path id="DejaVuSans-31" d="M 794 531 
L 1825 531 
L 1825 4091 
L 703 3866 
L 703 4441 
L 1819 4666 
L 2450 4666 
L 2450 531 
L 3481 531 
L 3481 0 
L 794 0 
L 794 531 
z
" transform="scale(0.015625)"/>
       </defs>
       <use xlink:href="#DejaVuSans-31"/>
       <use xlink:href="#DejaVuSans-30" x="63.623047"/>
       <use xlink:href="#DejaVuSans-30" x="127.246094"/>
      </g>
     </g>
    </g>
    <g id="xtick_3">
     <g id="line2d_3">
      <g>
       <use xlink:href="#mee1ac3fc45" x="532.518876" y="345.26" style="stroke: #000000"/>
      </g>
     </g>
     <g id="text_3">
      <!-- 200 -->
      <g transform="translate(501.978876 377.575) scale(0.32 -0.32)">
       <defs>
        <path id="DejaVuSans-32" d="M 1228 531 
L 3431 531 
L 3431 0 
L 469 0 
L 469 531 
Q 828 903 1448 1529 
Q 2069 2156 2228 2338 
Q 2531 2678 2651 2914 
Q 2772 3150 2772 3378 
Q 2772 3750 2511 3984 
Q 2250 4219 1831 4219 
Q 1534 4219 1204 4116 
Q 875 4013 500 3803 
L 500 4441 
Q 881 4594 1212 4672 
Q 1544 4750 1819 4750 
Q 2544 4750 2975 4387 
Q 3406 4025 3406 3419 
Q 3406 3131 3298 2873 
Q 3191 2616 2906 2266 
Q 2828 2175 2409 1742 
Q 1991 1309 1228 531 
z
" transform="scale(0.015625)"/>
       </defs>
       <use xlink:href="#DejaVuSans-32"/>
       <use xlink:href="#DejaVuSans-30" x="63.623047"/>
       <use xlink:href="#DejaVuSans-30" x="127.246094"/>
      </g>
     </g>
    </g>
    <g id="text_4">
     <!-- Time -->
     <g transform="translate(286.838311 412.545) scale(0.32 -0.32)">
      <defs>
       <path id="DejaVuSans-54" d="M -19 4666 
L 3928 4666 
L 3928 4134 
L 2272 4134 
L 2272 0 
L 1638 0 
L 1638 4134 
L -19 4134 
L -19 4666 
z
" transform="scale(0.015625)"/>
       <path id="DejaVuSans-69" d="M 603 3500 
L 1178 3500 
L 1178 0 
L 603 0 
L 603 3500 
z
M 603 4863 
L 1178 4863 
L 1178 4134 
L 603 4134 
L 603 4863 
z
" transform="scale(0.015625)"/>
       <path id="DejaVuSans-6d" d="M 3328 2828 
Q 3544 3216 3844 3400 
Q 4144 3584 4550 3584 
Q 5097 3584 5394 3201 
Q 5691 2819 5691 2113 
L 5691 0 
L 5113 0 
L 5113 2094 
Q 5113 2597 4934 2840 
Q 4756 3084 4391 3084 
Q 3944 3084 3684 2787 
Q 3425 2491 3425 1978 
L 3425 0 
L 2847 0 
L 2847 2094 
Q 2847 2600 2669 2842 
Q 2491 3084 2119 3084 
Q 1678 3084 1418 2786 
Q 1159 2488 1159 1978 
L 1159 0 
L 581 0 
L 581 3500 
L 1159 3500 
L 1159 2956 
Q 1356 3278 1631 3431 
Q 1906 3584 2284 3584 
Q 2666 3584 2933 3390 
Q 3200 3197 3328 2828 
z
" transform="scale(0.015625)"/>
       <path id="DejaVuSans-65" d="M 3597 1894 
L 3597 1613 
L 953 1613 
Q 991 1019 1311 708 
Q 1631 397 2203 397 
Q 2534 397 2845 478 
Q 3156 559 3463 722 
L 3463 178 
Q 3153 47 2828 -22 
Q 2503 -91 2169 -91 
Q 1331 -91 842 396 
Q 353 884 353 1716 
Q 353 2575 817 3079 
Q 1281 3584 2069 3584 
Q 2775 3584 3186 3129 
Q 3597 2675 3597 1894 
z
M 3022 2063 
Q 3016 2534 2758 2815 
Q 2500 3097 2075 3097 
Q 1594 3097 1305 2825 
Q 1016 2553 972 2059 
L 3022 2063 
z
" transform="scale(0.015625)"/>
      </defs>
      <use xlink:href="#DejaVuSans-54"/>
      <use xlink:href="#DejaVuSans-69" x="57.958984"/>
      <use xlink:href="#DejaVuSans-6d" x="85.742188"/>
      <use xlink:href="#DejaVuSans-65" x="183.154297"/>
     </g>
    </g>
   </g>
   <g id="matplotlib.axis_2">
    <g id="ytick_1">
     <g id="line2d_4">
      <defs>
       <path id="m7c38d5eb9e" d="M 0 0 
L -6 0 
" style="stroke: #000000"/>
      </defs>
      <g>
       <use xlink:href="#m7c38d5eb9e" x="101.06" y="317.088333" style="stroke: #000000"/>
      </g>
     </g>
     <g id="text_5">
      <!-- 0.0 -->
      <g transform="translate(42.17 329.245833) scale(0.32 -0.32)">
       <defs>
        <path id="DejaVuSans-2e" d="M 684 794 
L 1344 794 
L 1344 0 
L 684 0 
L 684 794 
z
" transform="scale(0.015625)"/>
       </defs>
       <use xlink:href="#DejaVuSans-30"/>
       <use xlink:href="#DejaVuSans-2e" x="63.623047"/>
       <use xlink:href="#DejaVuSans-30" x="95.410156"/>
      </g>
     </g>
    </g>
    <g id="ytick_2">
     <g id="line2d_5">
      <g>
       <use xlink:href="#m7c38d5eb9e" x="101.06" y="227.851465" style="stroke: #000000"/>
      </g>
     </g>
     <g id="text_6">
      <!-- 0.1 -->
      <g transform="translate(42.17 240.008965) scale(0.32 -0.32)">
       <use xlink:href="#DejaVuSans-30"/>
       <use xlink:href="#DejaVuSans-2e" x="63.623047"/>
       <use xlink:href="#DejaVuSans-31" x="95.410156"/>
      </g>
     </g>
    </g>
    <g id="ytick_3">
     <g id="line2d_6">
      <g>
       <use xlink:href="#m7c38d5eb9e" x="101.06" y="138.614596" style="stroke: #000000"/>
      </g>
     </g>
     <g id="text_7">
      <!-- 0.2 -->
      <g transform="translate(42.17 150.772096) scale(0.32 -0.32)">
       <use xlink:href="#DejaVuSans-30"/>
       <use xlink:href="#DejaVuSans-2e" x="63.623047"/>
       <use xlink:href="#DejaVuSans-32" x="95.410156"/>
      </g>
     </g>
    </g>
    <g id="ytick_4">
     <g id="line2d_7">
      <g>
       <use xlink:href="#m7c38d5eb9e" x="101.06" y="49.377728" style="stroke: #000000"/>
      </g>
     </g>
     <g id="text_8">
      <!-- 0.3 -->
      <g transform="translate(42.17 61.535228) scale(0.32 -0.32)">
       <defs>
        <path id="DejaVuSans-33" d="M 2597 2516 
Q 3050 2419 3304 2112 
Q 3559 1806 3559 1356 
Q 3559 666 3084 287 
Q 2609 -91 1734 -91 
Q 1441 -91 1130 -33 
Q 819 25 488 141 
L 488 750 
Q 750 597 1062 519 
Q 1375 441 1716 441 
Q 2309 441 2620 675 
Q 2931 909 2931 1356 
Q 2931 1769 2642 2001 
Q 2353 2234 1838 2234 
L 1294 2234 
L 1294 2753 
L 1863 2753 
Q 2328 2753 2575 2939 
Q 2822 3125 2822 3475 
Q 2822 3834 2567 4026 
Q 2313 4219 1838 4219 
Q 1578 4219 1281 4162 
Q 984 4106 628 3988 
L 628 4550 
Q 988 4650 1302 4700 
Q 1616 4750 1894 4750 
Q 2613 4750 3031 4423 
Q 3450 4097 3450 3541 
Q 3450 3153 3228 2886 
Q 3006 2619 2597 2516 
z
" transform="scale(0.015625)"/>
       </defs>
       <use xlink:href="#DejaVuSans-30"/>
       <use xlink:href="#DejaVuSans-2e" x="63.623047"/>
       <use xlink:href="#DejaVuSans-33" x="95.410156"/>
      </g>
     </g>
    </g>
    <g id="text_9">
     <!-- $K$ -->
     <g transform="translate(31.515 186.79) rotate(-90) scale(0.32 -0.32)">
      <defs>
       <path id="DejaVuSans-Oblique-4b" d="M 1081 4666 
L 1716 4666 
L 1331 2700 
L 3781 4666 
L 4622 4666 
L 1850 2438 
L 3878 0 
L 3109 0 
L 1247 2272 
L 806 0 
L 172 0 
L 1081 4666 
z
" transform="scale(0.015625)"/>
      </defs>
      <use xlink:href="#DejaVuSans-Oblique-4b" transform="translate(0 0.09375)"/>
     </g>
    </g>
   </g>
   <g id="line2d_8">
    <defs>
     <path id="m21d8eebbc8" d="M 0 3 
C 0.795609 3 1.55874 2.683901 2.12132 2.12132 
C 2.683901 1.55874 3 0.795609 3 0 
C 3 -0.795609 2.683901 -1.55874 2.12132 -2.12132 
C 1.55874 -2.683901 0.795609 -3 0 -3 
C -0.795609 -3 -1.55874 -2.683901 -2.12132 -2.12132 
C -2.683901 -1.55874 -3 -0.795609 -3 0 
C -3 0.795609 -2.683901 1.55874 -2.12132 2.12132 
C -1.55874 2.683901 -0.795609 3 0 3 
z
" style="stroke: #1b9e77; stroke-opacity: 0.7; stroke-width: 1.5"/>
    </defs>
    <g clip-path="url(#p11f8c6331d)">
     <use xlink:href="#m21d8eebbc8" x="121.507801" y="40.078576" style="fill-opacity: 0; stroke: #1b9e77; stroke-opacity: 0.7; stroke-width: 1.5"/>
     <use xlink:href="#m21d8eebbc8" x="123.562856" y="40.078576" style="fill-opacity: 0; stroke: #1b9e77; stroke-opacity: 0.7; stroke-width: 1.5"/>
     <use xlink:href="#m21d8eebbc8" x="125.617912" y="40.078576" style="fill-opacity: 0; stroke: #1b9e77; stroke-opacity: 0.7; stroke-width: 1.5"/>
     <use xlink:href="#m21d8eebbc8" x="127.672967" y="40.078576" style="fill-opacity: 0; stroke: #1b9e77; stroke-opacity: 0.7; stroke-width: 1.5"/>
     <use xlink:href="#m21d8eebbc8" x="129.728022" y="40.078576" style="fill-opacity: 0; stroke: #1b9e77; stroke-opacity: 0.7; stroke-width: 1.5"/>
     <use xlink:href="#m21d8eebbc8" x="131.783078" y="40.078576" style="fill-opacity: 0; stroke: #1b9e77; stroke-opacity: 0.7; stroke-width: 1.5"/>
     <use xlink:href="#m21d8eebbc8" x="133.838133" y="40.078576" style="fill-opacity: 0; stroke: #1b9e77; stroke-opacity: 0.7; stroke-width: 1.5"/>
     <use xlink:href="#m21d8eebbc8" x="135.893189" y="40.078576" style="fill-opacity: 0; stroke: #1b9e77; stroke-opacity: 0.7; stroke-width: 1.5"/>
     <use xlink:href="#m21d8eebbc8" x="137.948244" y="40.078576" style="fill-opacity: 0; stroke: #1b9e77; stroke-opacity: 0.7; stroke-width: 1.5"/>
     <use xlink:href="#m21d8eebbc8" x="140.003299" y="40.078576" style="fill-opacity: 0; stroke: #1b9e77; stroke-opacity: 0.7; stroke-width: 1.5"/>
     <use xlink:href="#m21d8eebbc8" x="142.058355" y="40.078576" style="fill-opacity: 0; stroke: #1b9e77; stroke-opacity: 0.7; stroke-width: 1.5"/>
     <use xlink:href="#m21d8eebbc8" x="144.11341" y="40.078576" style="fill-opacity: 0; stroke: #1b9e77; stroke-opacity: 0.7; stroke-width: 1.5"/>
     <use xlink:href="#m21d8eebbc8" x="146.168465" y="40.078576" style="fill-opacity: 0; stroke: #1b9e77; stroke-opacity: 0.7; stroke-width: 1.5"/>
     <use xlink:href="#m21d8eebbc8" x="148.223521" y="40.078576" style="fill-opacity: 0; stroke: #1b9e77; stroke-opacity: 0.7; stroke-width: 1.5"/>
     <use xlink:href="#m21d8eebbc8" x="150.278576" y="40.078576" style="fill-opacity: 0; stroke: #1b9e77; stroke-opacity: 0.7; stroke-width: 1.5"/>
     <use xlink:href="#m21d8eebbc8" x="152.333632" y="40.078576" style="fill-opacity: 0; stroke: #1b9e77; stroke-opacity: 0.7; stroke-width: 1.5"/>
     <use xlink:href="#m21d8eebbc8" x="154.388687" y="40.078576" style="fill-opacity: 0; stroke: #1b9e77; stroke-opacity: 0.7; stroke-width: 1.5"/>
     <use xlink:href="#m21d8eebbc8" x="156.443742" y="40.078576" style="fill-opacity: 0; stroke: #1b9e77; stroke-opacity: 0.7; stroke-width: 1.5"/>
     <use xlink:href="#m21d8eebbc8" x="158.498798" y="40.078576" style="fill-opacity: 0; stroke: #1b9e77; stroke-opacity: 0.7; stroke-width: 1.5"/>
     <use xlink:href="#m21d8eebbc8" x="160.553853" y="40.078576" style="fill-opacity: 0; stroke: #1b9e77; stroke-opacity: 0.7; stroke-width: 1.5"/>
     <use xlink:href="#m21d8eebbc8" x="162.608909" y="40.078576" style="fill-opacity: 0; stroke: #1b9e77; stroke-opacity: 0.7; stroke-width: 1.5"/>
     <use xlink:href="#m21d8eebbc8" x="164.663964" y="40.078576" style="fill-opacity: 0; stroke: #1b9e77; stroke-opacity: 0.7; stroke-width: 1.5"/>
     <use xlink:href="#m21d8eebbc8" x="166.719019" y="40.078576" style="fill-opacity: 0; stroke: #1b9e77; stroke-opacity: 0.7; stroke-width: 1.5"/>
     <use xlink:href="#m21d8eebbc8" x="168.774075" y="40.078576" style="fill-opacity: 0; stroke: #1b9e77; stroke-opacity: 0.7; stroke-width: 1.5"/>
     <use xlink:href="#m21d8eebbc8" x="170.82913" y="40.078576" style="fill-opacity: 0; stroke: #1b9e77; stroke-opacity: 0.7; stroke-width: 1.5"/>
     <use xlink:href="#m21d8eebbc8" x="172.884185" y="40.078576" style="fill-opacity: 0; stroke: #1b9e77; stroke-opacity: 0.7; stroke-width: 1.5"/>
     <use xlink:href="#m21d8eebbc8" x="174.939241" y="40.078576" style="fill-opacity: 0; stroke: #1b9e77; stroke-opacity: 0.7; stroke-width: 1.5"/>
     <use xlink:href="#m21d8eebbc8" x="176.994296" y="40.078576" style="fill-opacity: 0; stroke: #1b9e77; stroke-opacity: 0.7; stroke-width: 1.5"/>
     <use xlink:href="#m21d8eebbc8" x="179.049352" y="40.078576" style="fill-opacity: 0; stroke: #1b9e77; stroke-opacity: 0.7; stroke-width: 1.5"/>
     <use xlink:href="#m21d8eebbc8" x="181.104407" y="40.078576" style="fill-opacity: 0; stroke: #1b9e77; stroke-opacity: 0.7; stroke-width: 1.5"/>
     <use xlink:href="#m21d8eebbc8" x="183.159462" y="40.078576" style="fill-opacity: 0; stroke: #1b9e77; stroke-opacity: 0.7; stroke-width: 1.5"/>
     <use xlink:href="#m21d8eebbc8" x="185.214518" y="40.078576" style="fill-opacity: 0; stroke: #1b9e77; stroke-opacity: 0.7; stroke-width: 1.5"/>
     <use xlink:href="#m21d8eebbc8" x="187.269573" y="40.078576" style="fill-opacity: 0; stroke: #1b9e77; stroke-opacity: 0.7; stroke-width: 1.5"/>
     <use xlink:href="#m21d8eebbc8" x="189.324628" y="40.078576" style="fill-opacity: 0; stroke: #1b9e77; stroke-opacity: 0.7; stroke-width: 1.5"/>
     <use xlink:href="#m21d8eebbc8" x="191.379684" y="40.078576" style="fill-opacity: 0; stroke: #1b9e77; stroke-opacity: 0.7; stroke-width: 1.5"/>
     <use xlink:href="#m21d8eebbc8" x="193.434739" y="40.078576" style="fill-opacity: 0; stroke: #1b9e77; stroke-opacity: 0.7; stroke-width: 1.5"/>
     <use xlink:href="#m21d8eebbc8" x="195.489795" y="40.078576" style="fill-opacity: 0; stroke: #1b9e77; stroke-opacity: 0.7; stroke-width: 1.5"/>
     <use xlink:href="#m21d8eebbc8" x="197.54485" y="40.078576" style="fill-opacity: 0; stroke: #1b9e77; stroke-opacity: 0.7; stroke-width: 1.5"/>
     <use xlink:href="#m21d8eebbc8" x="199.599905" y="40.078576" style="fill-opacity: 0; stroke: #1b9e77; stroke-opacity: 0.7; stroke-width: 1.5"/>
     <use xlink:href="#m21d8eebbc8" x="201.654961" y="40.078576" style="fill-opacity: 0; stroke: #1b9e77; stroke-opacity: 0.7; stroke-width: 1.5"/>
     <use xlink:href="#m21d8eebbc8" x="203.710016" y="40.078576" style="fill-opacity: 0; stroke: #1b9e77; stroke-opacity: 0.7; stroke-width: 1.5"/>
     <use xlink:href="#m21d8eebbc8" x="205.765071" y="40.078576" style="fill-opacity: 0; stroke: #1b9e77; stroke-opacity: 0.7; stroke-width: 1.5"/>
     <use xlink:href="#m21d8eebbc8" x="207.820127" y="40.078576" style="fill-opacity: 0; stroke: #1b9e77; stroke-opacity: 0.7; stroke-width: 1.5"/>
     <use xlink:href="#m21d8eebbc8" x="209.875182" y="40.078576" style="fill-opacity: 0; stroke: #1b9e77; stroke-opacity: 0.7; stroke-width: 1.5"/>
     <use xlink:href="#m21d8eebbc8" x="211.930238" y="40.078576" style="fill-opacity: 0; stroke: #1b9e77; stroke-opacity: 0.7; stroke-width: 1.5"/>
     <use xlink:href="#m21d8eebbc8" x="213.985293" y="40.078576" style="fill-opacity: 0; stroke: #1b9e77; stroke-opacity: 0.7; stroke-width: 1.5"/>
     <use xlink:href="#m21d8eebbc8" x="216.040348" y="40.078576" style="fill-opacity: 0; stroke: #1b9e77; stroke-opacity: 0.7; stroke-width: 1.5"/>
     <use xlink:href="#m21d8eebbc8" x="218.095404" y="40.078576" style="fill-opacity: 0; stroke: #1b9e77; stroke-opacity: 0.7; stroke-width: 1.5"/>
     <use xlink:href="#m21d8eebbc8" x="220.150459" y="40.078576" style="fill-opacity: 0; stroke: #1b9e77; stroke-opacity: 0.7; stroke-width: 1.5"/>
     <use xlink:href="#m21d8eebbc8" x="222.205514" y="40.078576" style="fill-opacity: 0; stroke: #1b9e77; stroke-opacity: 0.7; stroke-width: 1.5"/>
     <use xlink:href="#m21d8eebbc8" x="224.26057" y="40.078576" style="fill-opacity: 0; stroke: #1b9e77; stroke-opacity: 0.7; stroke-width: 1.5"/>
     <use xlink:href="#m21d8eebbc8" x="226.315625" y="40.078576" style="fill-opacity: 0; stroke: #1b9e77; stroke-opacity: 0.7; stroke-width: 1.5"/>
     <use xlink:href="#m21d8eebbc8" x="228.370681" y="40.078576" style="fill-opacity: 0; stroke: #1b9e77; stroke-opacity: 0.7; stroke-width: 1.5"/>
     <use xlink:href="#m21d8eebbc8" x="230.425736" y="40.078576" style="fill-opacity: 0; stroke: #1b9e77; stroke-opacity: 0.7; stroke-width: 1.5"/>
     <use xlink:href="#m21d8eebbc8" x="232.480791" y="40.078576" style="fill-opacity: 0; stroke: #1b9e77; stroke-opacity: 0.7; stroke-width: 1.5"/>
     <use xlink:href="#m21d8eebbc8" x="234.535847" y="40.078576" style="fill-opacity: 0; stroke: #1b9e77; stroke-opacity: 0.7; stroke-width: 1.5"/>
     <use xlink:href="#m21d8eebbc8" x="236.590902" y="40.078576" style="fill-opacity: 0; stroke: #1b9e77; stroke-opacity: 0.7; stroke-width: 1.5"/>
     <use xlink:href="#m21d8eebbc8" x="238.645957" y="40.078576" style="fill-opacity: 0; stroke: #1b9e77; stroke-opacity: 0.7; stroke-width: 1.5"/>
     <use xlink:href="#m21d8eebbc8" x="240.701013" y="40.078576" style="fill-opacity: 0; stroke: #1b9e77; stroke-opacity: 0.7; stroke-width: 1.5"/>
     <use xlink:href="#m21d8eebbc8" x="242.756068" y="40.078576" style="fill-opacity: 0; stroke: #1b9e77; stroke-opacity: 0.7; stroke-width: 1.5"/>
     <use xlink:href="#m21d8eebbc8" x="244.811124" y="40.078576" style="fill-opacity: 0; stroke: #1b9e77; stroke-opacity: 0.7; stroke-width: 1.5"/>
     <use xlink:href="#m21d8eebbc8" x="246.866179" y="40.078576" style="fill-opacity: 0; stroke: #1b9e77; stroke-opacity: 0.7; stroke-width: 1.5"/>
     <use xlink:href="#m21d8eebbc8" x="248.921234" y="40.078576" style="fill-opacity: 0; stroke: #1b9e77; stroke-opacity: 0.7; stroke-width: 1.5"/>
     <use xlink:href="#m21d8eebbc8" x="250.97629" y="40.078576" style="fill-opacity: 0; stroke: #1b9e77; stroke-opacity: 0.7; stroke-width: 1.5"/>
     <use xlink:href="#m21d8eebbc8" x="253.031345" y="40.078576" style="fill-opacity: 0; stroke: #1b9e77; stroke-opacity: 0.7; stroke-width: 1.5"/>
     <use xlink:href="#m21d8eebbc8" x="255.0864" y="40.078576" style="fill-opacity: 0; stroke: #1b9e77; stroke-opacity: 0.7; stroke-width: 1.5"/>
     <use xlink:href="#m21d8eebbc8" x="257.141456" y="40.078576" style="fill-opacity: 0; stroke: #1b9e77; stroke-opacity: 0.7; stroke-width: 1.5"/>
     <use xlink:href="#m21d8eebbc8" x="259.196511" y="40.078576" style="fill-opacity: 0; stroke: #1b9e77; stroke-opacity: 0.7; stroke-width: 1.5"/>
     <use xlink:href="#m21d8eebbc8" x="261.251567" y="40.078576" style="fill-opacity: 0; stroke: #1b9e77; stroke-opacity: 0.7; stroke-width: 1.5"/>
     <use xlink:href="#m21d8eebbc8" x="263.306622" y="40.078576" style="fill-opacity: 0; stroke: #1b9e77; stroke-opacity: 0.7; stroke-width: 1.5"/>
     <use xlink:href="#m21d8eebbc8" x="265.361677" y="40.078576" style="fill-opacity: 0; stroke: #1b9e77; stroke-opacity: 0.7; stroke-width: 1.5"/>
     <use xlink:href="#m21d8eebbc8" x="267.416733" y="40.078576" style="fill-opacity: 0; stroke: #1b9e77; stroke-opacity: 0.7; stroke-width: 1.5"/>
     <use xlink:href="#m21d8eebbc8" x="269.471788" y="40.078576" style="fill-opacity: 0; stroke: #1b9e77; stroke-opacity: 0.7; stroke-width: 1.5"/>
     <use xlink:href="#m21d8eebbc8" x="271.526843" y="40.078576" style="fill-opacity: 0; stroke: #1b9e77; stroke-opacity: 0.7; stroke-width: 1.5"/>
     <use xlink:href="#m21d8eebbc8" x="273.581899" y="40.078576" style="fill-opacity: 0; stroke: #1b9e77; stroke-opacity: 0.7; stroke-width: 1.5"/>
     <use xlink:href="#m21d8eebbc8" x="275.636954" y="40.078576" style="fill-opacity: 0; stroke: #1b9e77; stroke-opacity: 0.7; stroke-width: 1.5"/>
     <use xlink:href="#m21d8eebbc8" x="277.69201" y="40.078576" style="fill-opacity: 0; stroke: #1b9e77; stroke-opacity: 0.7; stroke-width: 1.5"/>
     <use xlink:href="#m21d8eebbc8" x="279.747065" y="40.078576" style="fill-opacity: 0; stroke: #1b9e77; stroke-opacity: 0.7; stroke-width: 1.5"/>
     <use xlink:href="#m21d8eebbc8" x="281.80212" y="40.078576" style="fill-opacity: 0; stroke: #1b9e77; stroke-opacity: 0.7; stroke-width: 1.5"/>
     <use xlink:href="#m21d8eebbc8" x="283.857176" y="40.078576" style="fill-opacity: 0; stroke: #1b9e77; stroke-opacity: 0.7; stroke-width: 1.5"/>
     <use xlink:href="#m21d8eebbc8" x="285.912231" y="40.078576" style="fill-opacity: 0; stroke: #1b9e77; stroke-opacity: 0.7; stroke-width: 1.5"/>
     <use xlink:href="#m21d8eebbc8" x="287.967286" y="40.078576" style="fill-opacity: 0; stroke: #1b9e77; stroke-opacity: 0.7; stroke-width: 1.5"/>
     <use xlink:href="#m21d8eebbc8" x="290.022342" y="40.078576" style="fill-opacity: 0; stroke: #1b9e77; stroke-opacity: 0.7; stroke-width: 1.5"/>
     <use xlink:href="#m21d8eebbc8" x="292.077397" y="40.078576" style="fill-opacity: 0; stroke: #1b9e77; stroke-opacity: 0.7; stroke-width: 1.5"/>
     <use xlink:href="#m21d8eebbc8" x="294.132453" y="40.078576" style="fill-opacity: 0; stroke: #1b9e77; stroke-opacity: 0.7; stroke-width: 1.5"/>
     <use xlink:href="#m21d8eebbc8" x="296.187508" y="40.078576" style="fill-opacity: 0; stroke: #1b9e77; stroke-opacity: 0.7; stroke-width: 1.5"/>
     <use xlink:href="#m21d8eebbc8" x="298.242563" y="40.078576" style="fill-opacity: 0; stroke: #1b9e77; stroke-opacity: 0.7; stroke-width: 1.5"/>
     <use xlink:href="#m21d8eebbc8" x="300.297619" y="40.078576" style="fill-opacity: 0; stroke: #1b9e77; stroke-opacity: 0.7; stroke-width: 1.5"/>
     <use xlink:href="#m21d8eebbc8" x="302.352674" y="40.078576" style="fill-opacity: 0; stroke: #1b9e77; stroke-opacity: 0.7; stroke-width: 1.5"/>
     <use xlink:href="#m21d8eebbc8" x="304.407729" y="40.078576" style="fill-opacity: 0; stroke: #1b9e77; stroke-opacity: 0.7; stroke-width: 1.5"/>
     <use xlink:href="#m21d8eebbc8" x="306.462785" y="40.078576" style="fill-opacity: 0; stroke: #1b9e77; stroke-opacity: 0.7; stroke-width: 1.5"/>
     <use xlink:href="#m21d8eebbc8" x="308.51784" y="40.078576" style="fill-opacity: 0; stroke: #1b9e77; stroke-opacity: 0.7; stroke-width: 1.5"/>
     <use xlink:href="#m21d8eebbc8" x="310.572896" y="40.078576" style="fill-opacity: 0; stroke: #1b9e77; stroke-opacity: 0.7; stroke-width: 1.5"/>
     <use xlink:href="#m21d8eebbc8" x="312.627951" y="40.078576" style="fill-opacity: 0; stroke: #1b9e77; stroke-opacity: 0.7; stroke-width: 1.5"/>
     <use xlink:href="#m21d8eebbc8" x="314.683006" y="40.078576" style="fill-opacity: 0; stroke: #1b9e77; stroke-opacity: 0.7; stroke-width: 1.5"/>
     <use xlink:href="#m21d8eebbc8" x="316.738062" y="40.078576" style="fill-opacity: 0; stroke: #1b9e77; stroke-opacity: 0.7; stroke-width: 1.5"/>
     <use xlink:href="#m21d8eebbc8" x="318.793117" y="40.078576" style="fill-opacity: 0; stroke: #1b9e77; stroke-opacity: 0.7; stroke-width: 1.5"/>
     <use xlink:href="#m21d8eebbc8" x="320.848172" y="40.078576" style="fill-opacity: 0; stroke: #1b9e77; stroke-opacity: 0.7; stroke-width: 1.5"/>
     <use xlink:href="#m21d8eebbc8" x="322.903228" y="40.078576" style="fill-opacity: 0; stroke: #1b9e77; stroke-opacity: 0.7; stroke-width: 1.5"/>
     <use xlink:href="#m21d8eebbc8" x="324.958283" y="40.078576" style="fill-opacity: 0; stroke: #1b9e77; stroke-opacity: 0.7; stroke-width: 1.5"/>
     <use xlink:href="#m21d8eebbc8" x="327.013339" y="40.078576" style="fill-opacity: 0; stroke: #1b9e77; stroke-opacity: 0.7; stroke-width: 1.5"/>
     <use xlink:href="#m21d8eebbc8" x="329.068394" y="40.078576" style="fill-opacity: 0; stroke: #1b9e77; stroke-opacity: 0.7; stroke-width: 1.5"/>
     <use xlink:href="#m21d8eebbc8" x="331.123449" y="40.078576" style="fill-opacity: 0; stroke: #1b9e77; stroke-opacity: 0.7; stroke-width: 1.5"/>
     <use xlink:href="#m21d8eebbc8" x="333.178505" y="40.078576" style="fill-opacity: 0; stroke: #1b9e77; stroke-opacity: 0.7; stroke-width: 1.5"/>
     <use xlink:href="#m21d8eebbc8" x="335.23356" y="40.078576" style="fill-opacity: 0; stroke: #1b9e77; stroke-opacity: 0.7; stroke-width: 1.5"/>
     <use xlink:href="#m21d8eebbc8" x="337.288615" y="40.078576" style="fill-opacity: 0; stroke: #1b9e77; stroke-opacity: 0.7; stroke-width: 1.5"/>
     <use xlink:href="#m21d8eebbc8" x="339.343671" y="40.078576" style="fill-opacity: 0; stroke: #1b9e77; stroke-opacity: 0.7; stroke-width: 1.5"/>
     <use xlink:href="#m21d8eebbc8" x="341.398726" y="40.078576" style="fill-opacity: 0; stroke: #1b9e77; stroke-opacity: 0.7; stroke-width: 1.5"/>
     <use xlink:href="#m21d8eebbc8" x="343.453782" y="40.078576" style="fill-opacity: 0; stroke: #1b9e77; stroke-opacity: 0.7; stroke-width: 1.5"/>
     <use xlink:href="#m21d8eebbc8" x="345.508837" y="40.078576" style="fill-opacity: 0; stroke: #1b9e77; stroke-opacity: 0.7; stroke-width: 1.5"/>
     <use xlink:href="#m21d8eebbc8" x="347.563892" y="40.078576" style="fill-opacity: 0; stroke: #1b9e77; stroke-opacity: 0.7; stroke-width: 1.5"/>
     <use xlink:href="#m21d8eebbc8" x="349.618948" y="40.078576" style="fill-opacity: 0; stroke: #1b9e77; stroke-opacity: 0.7; stroke-width: 1.5"/>
     <use xlink:href="#m21d8eebbc8" x="351.674003" y="40.078576" style="fill-opacity: 0; stroke: #1b9e77; stroke-opacity: 0.7; stroke-width: 1.5"/>
     <use xlink:href="#m21d8eebbc8" x="353.729058" y="40.078576" style="fill-opacity: 0; stroke: #1b9e77; stroke-opacity: 0.7; stroke-width: 1.5"/>
     <use xlink:href="#m21d8eebbc8" x="355.784114" y="40.078576" style="fill-opacity: 0; stroke: #1b9e77; stroke-opacity: 0.7; stroke-width: 1.5"/>
     <use xlink:href="#m21d8eebbc8" x="357.839169" y="40.078576" style="fill-opacity: 0; stroke: #1b9e77; stroke-opacity: 0.7; stroke-width: 1.5"/>
     <use xlink:href="#m21d8eebbc8" x="359.894225" y="40.078576" style="fill-opacity: 0; stroke: #1b9e77; stroke-opacity: 0.7; stroke-width: 1.5"/>
     <use xlink:href="#m21d8eebbc8" x="361.94928" y="40.078576" style="fill-opacity: 0; stroke: #1b9e77; stroke-opacity: 0.7; stroke-width: 1.5"/>
     <use xlink:href="#m21d8eebbc8" x="364.004335" y="40.078576" style="fill-opacity: 0; stroke: #1b9e77; stroke-opacity: 0.7; stroke-width: 1.5"/>
     <use xlink:href="#m21d8eebbc8" x="366.059391" y="40.078576" style="fill-opacity: 0; stroke: #1b9e77; stroke-opacity: 0.7; stroke-width: 1.5"/>
     <use xlink:href="#m21d8eebbc8" x="368.114446" y="40.078576" style="fill-opacity: 0; stroke: #1b9e77; stroke-opacity: 0.7; stroke-width: 1.5"/>
     <use xlink:href="#m21d8eebbc8" x="370.169501" y="40.078576" style="fill-opacity: 0; stroke: #1b9e77; stroke-opacity: 0.7; stroke-width: 1.5"/>
     <use xlink:href="#m21d8eebbc8" x="372.224557" y="40.078576" style="fill-opacity: 0; stroke: #1b9e77; stroke-opacity: 0.7; stroke-width: 1.5"/>
     <use xlink:href="#m21d8eebbc8" x="374.279612" y="40.078576" style="fill-opacity: 0; stroke: #1b9e77; stroke-opacity: 0.7; stroke-width: 1.5"/>
     <use xlink:href="#m21d8eebbc8" x="376.334668" y="40.078576" style="fill-opacity: 0; stroke: #1b9e77; stroke-opacity: 0.7; stroke-width: 1.5"/>
     <use xlink:href="#m21d8eebbc8" x="378.389723" y="40.078576" style="fill-opacity: 0; stroke: #1b9e77; stroke-opacity: 0.7; stroke-width: 1.5"/>
     <use xlink:href="#m21d8eebbc8" x="380.444778" y="40.078576" style="fill-opacity: 0; stroke: #1b9e77; stroke-opacity: 0.7; stroke-width: 1.5"/>
     <use xlink:href="#m21d8eebbc8" x="382.499834" y="40.078576" style="fill-opacity: 0; stroke: #1b9e77; stroke-opacity: 0.7; stroke-width: 1.5"/>
     <use xlink:href="#m21d8eebbc8" x="384.554889" y="40.078576" style="fill-opacity: 0; stroke: #1b9e77; stroke-opacity: 0.7; stroke-width: 1.5"/>
     <use xlink:href="#m21d8eebbc8" x="386.609944" y="40.078576" style="fill-opacity: 0; stroke: #1b9e77; stroke-opacity: 0.7; stroke-width: 1.5"/>
     <use xlink:href="#m21d8eebbc8" x="388.665" y="40.078576" style="fill-opacity: 0; stroke: #1b9e77; stroke-opacity: 0.7; stroke-width: 1.5"/>
     <use xlink:href="#m21d8eebbc8" x="390.720055" y="40.078576" style="fill-opacity: 0; stroke: #1b9e77; stroke-opacity: 0.7; stroke-width: 1.5"/>
     <use xlink:href="#m21d8eebbc8" x="392.775111" y="40.078576" style="fill-opacity: 0; stroke: #1b9e77; stroke-opacity: 0.7; stroke-width: 1.5"/>
     <use xlink:href="#m21d8eebbc8" x="394.830166" y="40.078576" style="fill-opacity: 0; stroke: #1b9e77; stroke-opacity: 0.7; stroke-width: 1.5"/>
     <use xlink:href="#m21d8eebbc8" x="396.885221" y="40.078576" style="fill-opacity: 0; stroke: #1b9e77; stroke-opacity: 0.7; stroke-width: 1.5"/>
     <use xlink:href="#m21d8eebbc8" x="398.940277" y="40.078576" style="fill-opacity: 0; stroke: #1b9e77; stroke-opacity: 0.7; stroke-width: 1.5"/>
     <use xlink:href="#m21d8eebbc8" x="400.995332" y="40.078576" style="fill-opacity: 0; stroke: #1b9e77; stroke-opacity: 0.7; stroke-width: 1.5"/>
     <use xlink:href="#m21d8eebbc8" x="403.050387" y="40.078576" style="fill-opacity: 0; stroke: #1b9e77; stroke-opacity: 0.7; stroke-width: 1.5"/>
     <use xlink:href="#m21d8eebbc8" x="405.105443" y="40.078576" style="fill-opacity: 0; stroke: #1b9e77; stroke-opacity: 0.7; stroke-width: 1.5"/>
     <use xlink:href="#m21d8eebbc8" x="407.160498" y="40.078576" style="fill-opacity: 0; stroke: #1b9e77; stroke-opacity: 0.7; stroke-width: 1.5"/>
     <use xlink:href="#m21d8eebbc8" x="409.215554" y="40.078576" style="fill-opacity: 0; stroke: #1b9e77; stroke-opacity: 0.7; stroke-width: 1.5"/>
     <use xlink:href="#m21d8eebbc8" x="411.270609" y="40.078576" style="fill-opacity: 0; stroke: #1b9e77; stroke-opacity: 0.7; stroke-width: 1.5"/>
     <use xlink:href="#m21d8eebbc8" x="413.325664" y="40.078576" style="fill-opacity: 0; stroke: #1b9e77; stroke-opacity: 0.7; stroke-width: 1.5"/>
     <use xlink:href="#m21d8eebbc8" x="415.38072" y="40.078576" style="fill-opacity: 0; stroke: #1b9e77; stroke-opacity: 0.7; stroke-width: 1.5"/>
     <use xlink:href="#m21d8eebbc8" x="417.435775" y="40.078576" style="fill-opacity: 0; stroke: #1b9e77; stroke-opacity: 0.7; stroke-width: 1.5"/>
     <use xlink:href="#m21d8eebbc8" x="419.49083" y="40.078576" style="fill-opacity: 0; stroke: #1b9e77; stroke-opacity: 0.7; stroke-width: 1.5"/>
     <use xlink:href="#m21d8eebbc8" x="421.545886" y="40.078576" style="fill-opacity: 0; stroke: #1b9e77; stroke-opacity: 0.7; stroke-width: 1.5"/>
     <use xlink:href="#m21d8eebbc8" x="423.600941" y="40.078576" style="fill-opacity: 0; stroke: #1b9e77; stroke-opacity: 0.7; stroke-width: 1.5"/>
     <use xlink:href="#m21d8eebbc8" x="425.655997" y="40.078576" style="fill-opacity: 0; stroke: #1b9e77; stroke-opacity: 0.7; stroke-width: 1.5"/>
     <use xlink:href="#m21d8eebbc8" x="427.711052" y="40.078576" style="fill-opacity: 0; stroke: #1b9e77; stroke-opacity: 0.7; stroke-width: 1.5"/>
     <use xlink:href="#m21d8eebbc8" x="429.766107" y="40.078576" style="fill-opacity: 0; stroke: #1b9e77; stroke-opacity: 0.7; stroke-width: 1.5"/>
     <use xlink:href="#m21d8eebbc8" x="431.821163" y="40.078576" style="fill-opacity: 0; stroke: #1b9e77; stroke-opacity: 0.7; stroke-width: 1.5"/>
     <use xlink:href="#m21d8eebbc8" x="433.876218" y="40.078576" style="fill-opacity: 0; stroke: #1b9e77; stroke-opacity: 0.7; stroke-width: 1.5"/>
     <use xlink:href="#m21d8eebbc8" x="435.931273" y="40.078576" style="fill-opacity: 0; stroke: #1b9e77; stroke-opacity: 0.7; stroke-width: 1.5"/>
     <use xlink:href="#m21d8eebbc8" x="437.986329" y="40.078576" style="fill-opacity: 0; stroke: #1b9e77; stroke-opacity: 0.7; stroke-width: 1.5"/>
     <use xlink:href="#m21d8eebbc8" x="440.041384" y="40.078576" style="fill-opacity: 0; stroke: #1b9e77; stroke-opacity: 0.7; stroke-width: 1.5"/>
     <use xlink:href="#m21d8eebbc8" x="442.09644" y="40.078576" style="fill-opacity: 0; stroke: #1b9e77; stroke-opacity: 0.7; stroke-width: 1.5"/>
     <use xlink:href="#m21d8eebbc8" x="444.151495" y="316.977829" style="fill-opacity: 0; stroke: #1b9e77; stroke-opacity: 0.7; stroke-width: 1.5"/>
     <use xlink:href="#m21d8eebbc8" x="446.20655" y="316.977829" style="fill-opacity: 0; stroke: #1b9e77; stroke-opacity: 0.7; stroke-width: 1.5"/>
     <use xlink:href="#m21d8eebbc8" x="448.261606" y="316.977829" style="fill-opacity: 0; stroke: #1b9e77; stroke-opacity: 0.7; stroke-width: 1.5"/>
     <use xlink:href="#m21d8eebbc8" x="450.316661" y="316.977829" style="fill-opacity: 0; stroke: #1b9e77; stroke-opacity: 0.7; stroke-width: 1.5"/>
     <use xlink:href="#m21d8eebbc8" x="452.371716" y="316.977829" style="fill-opacity: 0; stroke: #1b9e77; stroke-opacity: 0.7; stroke-width: 1.5"/>
     <use xlink:href="#m21d8eebbc8" x="454.426772" y="316.977829" style="fill-opacity: 0; stroke: #1b9e77; stroke-opacity: 0.7; stroke-width: 1.5"/>
     <use xlink:href="#m21d8eebbc8" x="456.481827" y="316.977829" style="fill-opacity: 0; stroke: #1b9e77; stroke-opacity: 0.7; stroke-width: 1.5"/>
     <use xlink:href="#m21d8eebbc8" x="458.536883" y="316.977829" style="fill-opacity: 0; stroke: #1b9e77; stroke-opacity: 0.7; stroke-width: 1.5"/>
     <use xlink:href="#m21d8eebbc8" x="460.591938" y="316.977829" style="fill-opacity: 0; stroke: #1b9e77; stroke-opacity: 0.7; stroke-width: 1.5"/>
     <use xlink:href="#m21d8eebbc8" x="462.646993" y="316.977829" style="fill-opacity: 0; stroke: #1b9e77; stroke-opacity: 0.7; stroke-width: 1.5"/>
     <use xlink:href="#m21d8eebbc8" x="464.702049" y="316.977829" style="fill-opacity: 0; stroke: #1b9e77; stroke-opacity: 0.7; stroke-width: 1.5"/>
     <use xlink:href="#m21d8eebbc8" x="466.757104" y="316.977829" style="fill-opacity: 0; stroke: #1b9e77; stroke-opacity: 0.7; stroke-width: 1.5"/>
     <use xlink:href="#m21d8eebbc8" x="468.812159" y="316.977829" style="fill-opacity: 0; stroke: #1b9e77; stroke-opacity: 0.7; stroke-width: 1.5"/>
     <use xlink:href="#m21d8eebbc8" x="470.867215" y="316.977829" style="fill-opacity: 0; stroke: #1b9e77; stroke-opacity: 0.7; stroke-width: 1.5"/>
     <use xlink:href="#m21d8eebbc8" x="472.92227" y="316.977829" style="fill-opacity: 0; stroke: #1b9e77; stroke-opacity: 0.7; stroke-width: 1.5"/>
     <use xlink:href="#m21d8eebbc8" x="474.977326" y="316.977829" style="fill-opacity: 0; stroke: #1b9e77; stroke-opacity: 0.7; stroke-width: 1.5"/>
     <use xlink:href="#m21d8eebbc8" x="477.032381" y="316.977829" style="fill-opacity: 0; stroke: #1b9e77; stroke-opacity: 0.7; stroke-width: 1.5"/>
     <use xlink:href="#m21d8eebbc8" x="479.087436" y="316.977829" style="fill-opacity: 0; stroke: #1b9e77; stroke-opacity: 0.7; stroke-width: 1.5"/>
     <use xlink:href="#m21d8eebbc8" x="481.142492" y="316.977829" style="fill-opacity: 0; stroke: #1b9e77; stroke-opacity: 0.7; stroke-width: 1.5"/>
     <use xlink:href="#m21d8eebbc8" x="483.197547" y="316.977829" style="fill-opacity: 0; stroke: #1b9e77; stroke-opacity: 0.7; stroke-width: 1.5"/>
     <use xlink:href="#m21d8eebbc8" x="485.252602" y="316.977829" style="fill-opacity: 0; stroke: #1b9e77; stroke-opacity: 0.7; stroke-width: 1.5"/>
     <use xlink:href="#m21d8eebbc8" x="487.307658" y="316.977829" style="fill-opacity: 0; stroke: #1b9e77; stroke-opacity: 0.7; stroke-width: 1.5"/>
     <use xlink:href="#m21d8eebbc8" x="489.362713" y="316.977829" style="fill-opacity: 0; stroke: #1b9e77; stroke-opacity: 0.7; stroke-width: 1.5"/>
     <use xlink:href="#m21d8eebbc8" x="491.417769" y="316.977829" style="fill-opacity: 0; stroke: #1b9e77; stroke-opacity: 0.7; stroke-width: 1.5"/>
     <use xlink:href="#m21d8eebbc8" x="493.472824" y="316.977829" style="fill-opacity: 0; stroke: #1b9e77; stroke-opacity: 0.7; stroke-width: 1.5"/>
     <use xlink:href="#m21d8eebbc8" x="495.527879" y="63.946405" style="fill-opacity: 0; stroke: #1b9e77; stroke-opacity: 0.7; stroke-width: 1.5"/>
     <use xlink:href="#m21d8eebbc8" x="497.582935" y="42.622674" style="fill-opacity: 0; stroke: #1b9e77; stroke-opacity: 0.7; stroke-width: 1.5"/>
     <use xlink:href="#m21d8eebbc8" x="499.63799" y="42.622674" style="fill-opacity: 0; stroke: #1b9e77; stroke-opacity: 0.7; stroke-width: 1.5"/>
     <use xlink:href="#m21d8eebbc8" x="501.693045" y="42.622674" style="fill-opacity: 0; stroke: #1b9e77; stroke-opacity: 0.7; stroke-width: 1.5"/>
     <use xlink:href="#m21d8eebbc8" x="503.748101" y="42.622674" style="fill-opacity: 0; stroke: #1b9e77; stroke-opacity: 0.7; stroke-width: 1.5"/>
     <use xlink:href="#m21d8eebbc8" x="505.803156" y="42.622674" style="fill-opacity: 0; stroke: #1b9e77; stroke-opacity: 0.7; stroke-width: 1.5"/>
     <use xlink:href="#m21d8eebbc8" x="507.858212" y="42.622674" style="fill-opacity: 0; stroke: #1b9e77; stroke-opacity: 0.7; stroke-width: 1.5"/>
     <use xlink:href="#m21d8eebbc8" x="509.913267" y="315.145696" style="fill-opacity: 0; stroke: #1b9e77; stroke-opacity: 0.7; stroke-width: 1.5"/>
     <use xlink:href="#m21d8eebbc8" x="511.968322" y="315.145696" style="fill-opacity: 0; stroke: #1b9e77; stroke-opacity: 0.7; stroke-width: 1.5"/>
     <use xlink:href="#m21d8eebbc8" x="514.023378" y="315.145696" style="fill-opacity: 0; stroke: #1b9e77; stroke-opacity: 0.7; stroke-width: 1.5"/>
     <use xlink:href="#m21d8eebbc8" x="516.078433" y="315.145696" style="fill-opacity: 0; stroke: #1b9e77; stroke-opacity: 0.7; stroke-width: 1.5"/>
     <use xlink:href="#m21d8eebbc8" x="518.133489" y="315.145696" style="fill-opacity: 0; stroke: #1b9e77; stroke-opacity: 0.7; stroke-width: 1.5"/>
     <use xlink:href="#m21d8eebbc8" x="520.188544" y="315.145696" style="fill-opacity: 0; stroke: #1b9e77; stroke-opacity: 0.7; stroke-width: 1.5"/>
     <use xlink:href="#m21d8eebbc8" x="522.243599" y="315.145696" style="fill-opacity: 0; stroke: #1b9e77; stroke-opacity: 0.7; stroke-width: 1.5"/>
     <use xlink:href="#m21d8eebbc8" x="524.298655" y="315.145696" style="fill-opacity: 0; stroke: #1b9e77; stroke-opacity: 0.7; stroke-width: 1.5"/>
     <use xlink:href="#m21d8eebbc8" x="526.35371" y="315.145696" style="fill-opacity: 0; stroke: #1b9e77; stroke-opacity: 0.7; stroke-width: 1.5"/>
     <use xlink:href="#m21d8eebbc8" x="528.408765" y="315.145696" style="fill-opacity: 0; stroke: #1b9e77; stroke-opacity: 0.7; stroke-width: 1.5"/>
     <use xlink:href="#m21d8eebbc8" x="530.463821" y="315.145696" style="fill-opacity: 0; stroke: #1b9e77; stroke-opacity: 0.7; stroke-width: 1.5"/>
    </g>
   </g>
   <g id="line2d_9">
    <path d="M 121.507801 35.371667 
L 444.151495 35.371667 
" clip-path="url(#p11f8c6331d)" style="fill: none; stroke: #000000; stroke-width: 2; stroke-linecap: square"/>
   </g>
   <g id="line2d_10">
    <path d="M 444.151495 317.088333 
L 495.527879 317.088333 
" clip-path="url(#p11f8c6331d)" style="fill: none; stroke: #000000; stroke-width: 2; stroke-linecap: square"/>
   </g>
   <g id="line2d_11">
    <path d="M 495.527879 35.371667 
L 509.913267 35.371667 
" clip-path="url(#p11f8c6331d)" style="fill: none; stroke: #000000; stroke-width: 2; stroke-linecap: square"/>
   </g>
   <g id="line2d_12">
    <path d="M 509.913267 317.088333 
L 530.463821 317.088333 
" clip-path="url(#p11f8c6331d)" style="fill: none; stroke: #000000; stroke-width: 2; stroke-linecap: square"/>
   </g>
   <g id="line2d_13">
    <path d="M 444.151495 345.26 
L 444.151495 7.2 
" clip-path="url(#p11f8c6331d)" style="fill: none; stroke-dasharray: 11.1,4.8; stroke-dashoffset: 0; stroke: #000000; stroke-opacity: 0.8; stroke-width: 3"/>
   </g>
   <g id="line2d_14">
    <path d="M 495.527879 345.26 
L 495.527879 7.2 
" clip-path="url(#p11f8c6331d)" style="fill: none; stroke-dasharray: 11.1,4.8; stroke-dashoffset: 0; stroke: #000000; stroke-opacity: 0.8; stroke-width: 3"/>
   </g>
   <g id="line2d_15">
    <path d="M 509.913267 345.26 
L 509.913267 7.2 
" clip-path="url(#p11f8c6331d)" style="fill: none; stroke-dasharray: 11.1,4.8; stroke-dashoffset: 0; stroke: #000000; stroke-opacity: 0.8; stroke-width: 3"/>
   </g>
   <g id="line2d_16"/>
   <g id="line2d_17"/>
   <g id="patch_3">
    <path d="M 101.06 345.26 
L 101.06 7.2 
" style="fill: none; stroke: #000000; stroke-linejoin: miter; stroke-linecap: square"/>
   </g>
   <g id="patch_4">
    <path d="M 550.911622 345.26 
L 550.911622 7.2 
" style="fill: none; stroke: #000000; stroke-linejoin: miter; stroke-linecap: square"/>
   </g>
   <g id="patch_5">
    <path d="M 101.06 345.26 
L 550.911622 345.26 
" style="fill: none; stroke: #000000; stroke-linejoin: miter; stroke-linecap: square"/>
   </g>
   <g id="patch_6">
    <path d="M 101.06 7.2 
L 550.911622 7.2 
" style="fill: none; stroke: #000000; stroke-linejoin: miter; stroke-linecap: square"/>
   </g>
   <g id="legend_1">
    <g id="patch_7">
     <path d="M 120.66 331.26 
L 393.0825 331.26 
Q 398.6825 331.26 398.6825 325.66 
L 398.6825 246.2625 
Q 398.6825 240.6625 393.0825 240.6625 
L 120.66 240.6625 
Q 115.06 240.6625 115.06 246.2625 
L 115.06 325.66 
Q 115.06 331.26 120.66 331.26 
z
" style="fill: #ffffff; opacity: 0.8; stroke: #cccccc; stroke-linejoin: miter"/>
    </g>
    <g id="line2d_18">
     <defs>
      <path id="m809a6c6aa5" d="M 0 6 
C 1.591219 6 3.117479 5.367802 4.242641 4.242641 
C 5.367802 3.117479 6 1.591219 6 0 
C 6 -1.591219 5.367802 -3.117479 4.242641 -4.242641 
C 3.117479 -5.367802 1.591219 -6 0 -6 
C -1.591219 -6 -3.117479 -5.367802 -4.242641 -4.242641 
C -5.367802 -3.117479 -6 -1.591219 -6 0 
C -6 1.591219 -5.367802 3.117479 -4.242641 4.242641 
C -3.117479 5.367802 -1.591219 6 0 6 
z
" style="stroke: #1b9e77; stroke-width: 1.5"/>
     </defs>
     <g>
      <use xlink:href="#m809a6c6aa5" x="154.26" y="263.338125" style="fill-opacity: 0; stroke: #1b9e77; stroke-width: 1.5"/>
     </g>
    </g>
    <g id="text_10">
     <!-- Prediction -->
     <g transform="translate(204.66 273.138125) scale(0.28 -0.28)">
      <defs>
       <path id="DejaVuSans-50" d="M 1259 4147 
L 1259 2394 
L 2053 2394 
Q 2494 2394 2734 2622 
Q 2975 2850 2975 3272 
Q 2975 3691 2734 3919 
Q 2494 4147 2053 4147 
L 1259 4147 
z
M 628 4666 
L 2053 4666 
Q 2838 4666 3239 4311 
Q 3641 3956 3641 3272 
Q 3641 2581 3239 2228 
Q 2838 1875 2053 1875 
L 1259 1875 
L 1259 0 
L 628 0 
L 628 4666 
z
" transform="scale(0.015625)"/>
       <path id="DejaVuSans-72" d="M 2631 2963 
Q 2534 3019 2420 3045 
Q 2306 3072 2169 3072 
Q 1681 3072 1420 2755 
Q 1159 2438 1159 1844 
L 1159 0 
L 581 0 
L 581 3500 
L 1159 3500 
L 1159 2956 
Q 1341 3275 1631 3429 
Q 1922 3584 2338 3584 
Q 2397 3584 2469 3576 
Q 2541 3569 2628 3553 
L 2631 2963 
z
" transform="scale(0.015625)"/>
       <path id="DejaVuSans-64" d="M 2906 2969 
L 2906 4863 
L 3481 4863 
L 3481 0 
L 2906 0 
L 2906 525 
Q 2725 213 2448 61 
Q 2172 -91 1784 -91 
Q 1150 -91 751 415 
Q 353 922 353 1747 
Q 353 2572 751 3078 
Q 1150 3584 1784 3584 
Q 2172 3584 2448 3432 
Q 2725 3281 2906 2969 
z
M 947 1747 
Q 947 1113 1208 752 
Q 1469 391 1925 391 
Q 2381 391 2643 752 
Q 2906 1113 2906 1747 
Q 2906 2381 2643 2742 
Q 2381 3103 1925 3103 
Q 1469 3103 1208 2742 
Q 947 2381 947 1747 
z
" transform="scale(0.015625)"/>
       <path id="DejaVuSans-63" d="M 3122 3366 
L 3122 2828 
Q 2878 2963 2633 3030 
Q 2388 3097 2138 3097 
Q 1578 3097 1268 2742 
Q 959 2388 959 1747 
Q 959 1106 1268 751 
Q 1578 397 2138 397 
Q 2388 397 2633 464 
Q 2878 531 3122 666 
L 3122 134 
Q 2881 22 2623 -34 
Q 2366 -91 2075 -91 
Q 1284 -91 818 406 
Q 353 903 353 1747 
Q 353 2603 823 3093 
Q 1294 3584 2113 3584 
Q 2378 3584 2631 3529 
Q 2884 3475 3122 3366 
z
" transform="scale(0.015625)"/>
       <path id="DejaVuSans-74" d="M 1172 4494 
L 1172 3500 
L 2356 3500 
L 2356 3053 
L 1172 3053 
L 1172 1153 
Q 1172 725 1289 603 
Q 1406 481 1766 481 
L 2356 481 
L 2356 0 
L 1766 0 
Q 1100 0 847 248 
Q 594 497 594 1153 
L 594 3053 
L 172 3053 
L 172 3500 
L 594 3500 
L 594 4494 
L 1172 4494 
z
" transform="scale(0.015625)"/>
       <path id="DejaVuSans-6f" d="M 1959 3097 
Q 1497 3097 1228 2736 
Q 959 2375 959 1747 
Q 959 1119 1226 758 
Q 1494 397 1959 397 
Q 2419 397 2687 759 
Q 2956 1122 2956 1747 
Q 2956 2369 2687 2733 
Q 2419 3097 1959 3097 
z
M 1959 3584 
Q 2709 3584 3137 3096 
Q 3566 2609 3566 1747 
Q 3566 888 3137 398 
Q 2709 -91 1959 -91 
Q 1206 -91 779 398 
Q 353 888 353 1747 
Q 353 2609 779 3096 
Q 1206 3584 1959 3584 
z
" transform="scale(0.015625)"/>
       <path id="DejaVuSans-6e" d="M 3513 2113 
L 3513 0 
L 2938 0 
L 2938 2094 
Q 2938 2591 2744 2837 
Q 2550 3084 2163 3084 
Q 1697 3084 1428 2787 
Q 1159 2491 1159 1978 
L 1159 0 
L 581 0 
L 581 3500 
L 1159 3500 
L 1159 2956 
Q 1366 3272 1645 3428 
Q 1925 3584 2291 3584 
Q 2894 3584 3203 3211 
Q 3513 2838 3513 2113 
z
" transform="scale(0.015625)"/>
      </defs>
      <use xlink:href="#DejaVuSans-50"/>
      <use xlink:href="#DejaVuSans-72" x="58.552734"/>
      <use xlink:href="#DejaVuSans-65" x="97.416016"/>
      <use xlink:href="#DejaVuSans-64" x="158.939453"/>
      <use xlink:href="#DejaVuSans-69" x="222.416016"/>
      <use xlink:href="#DejaVuSans-63" x="250.199219"/>
      <use xlink:href="#DejaVuSans-74" x="305.179688"/>
      <use xlink:href="#DejaVuSans-69" x="344.388672"/>
      <use xlink:href="#DejaVuSans-6f" x="372.171875"/>
      <use xlink:href="#DejaVuSans-6e" x="433.353516"/>
     </g>
    </g>
    <g id="line2d_19">
     <path d="M 126.26 304.436875 
L 154.26 304.436875 
L 182.26 304.436875 
" style="fill: none; stroke: #000000; stroke-width: 2; stroke-linecap: square"/>
    </g>
    <g id="text_11">
     <!-- Ground Truth -->
     <g transform="translate(204.66 314.236875) scale(0.28 -0.28)">
      <defs>
       <path id="DejaVuSans-47" d="M 3809 666 
L 3809 1919 
L 2778 1919 
L 2778 2438 
L 4434 2438 
L 4434 434 
Q 4069 175 3628 42 
Q 3188 -91 2688 -91 
Q 1594 -91 976 548 
Q 359 1188 359 2328 
Q 359 3472 976 4111 
Q 1594 4750 2688 4750 
Q 3144 4750 3555 4637 
Q 3966 4525 4313 4306 
L 4313 3634 
Q 3963 3931 3569 4081 
Q 3175 4231 2741 4231 
Q 1884 4231 1454 3753 
Q 1025 3275 1025 2328 
Q 1025 1384 1454 906 
Q 1884 428 2741 428 
Q 3075 428 3337 486 
Q 3600 544 3809 666 
z
" transform="scale(0.015625)"/>
       <path id="DejaVuSans-75" d="M 544 1381 
L 544 3500 
L 1119 3500 
L 1119 1403 
Q 1119 906 1312 657 
Q 1506 409 1894 409 
Q 2359 409 2629 706 
Q 2900 1003 2900 1516 
L 2900 3500 
L 3475 3500 
L 3475 0 
L 2900 0 
L 2900 538 
Q 2691 219 2414 64 
Q 2138 -91 1772 -91 
Q 1169 -91 856 284 
Q 544 659 544 1381 
z
M 1991 3584 
L 1991 3584 
z
" transform="scale(0.015625)"/>
       <path id="DejaVuSans-20" transform="scale(0.015625)"/>
       <path id="DejaVuSans-68" d="M 3513 2113 
L 3513 0 
L 2938 0 
L 2938 2094 
Q 2938 2591 2744 2837 
Q 2550 3084 2163 3084 
Q 1697 3084 1428 2787 
Q 1159 2491 1159 1978 
L 1159 0 
L 581 0 
L 581 4863 
L 1159 4863 
L 1159 2956 
Q 1366 3272 1645 3428 
Q 1925 3584 2291 3584 
Q 2894 3584 3203 3211 
Q 3513 2838 3513 2113 
z
" transform="scale(0.015625)"/>
      </defs>
      <use xlink:href="#DejaVuSans-47"/>
      <use xlink:href="#DejaVuSans-72" x="77.490234"/>
      <use xlink:href="#DejaVuSans-6f" x="116.353516"/>
      <use xlink:href="#DejaVuSans-75" x="177.535156"/>
      <use xlink:href="#DejaVuSans-6e" x="240.914062"/>
      <use xlink:href="#DejaVuSans-64" x="304.292969"/>
      <use xlink:href="#DejaVuSans-20" x="367.769531"/>
      <use xlink:href="#DejaVuSans-54" x="399.556641"/>
      <use xlink:href="#DejaVuSans-72" x="445.890625"/>
      <use xlink:href="#DejaVuSans-75" x="487.003906"/>
      <use xlink:href="#DejaVuSans-74" x="550.382812"/>
      <use xlink:href="#DejaVuSans-68" x="589.591797"/>
     </g>
    </g>
   </g>
  </g>
 </g>
 <defs>
  <clipPath id="p11f8c6331d">
   <rect x="101.06" y="7.2" width="449.851622" height="338.06"/>
  </clipPath>
 </defs>
</svg>
