<?xml version="1.0" encoding="utf-8" standalone="no"?>
<!DOCTYPE svg PUBLIC "-//W3C//DTD SVG 1.1//EN"
  "http://www.w3.org/Graphics/SVG/1.1/DTD/svg11.dtd">
<svg xmlns:xlink="http://www.w3.org/1999/xlink" width="569.949959pt" height="426.4pt" viewBox="0 0 569.949959 426.4" xmlns="http://www.w3.org/2000/svg" version="1.1">
 <metadata>
  <rdf:RDF xmlns:dc="http://purl.org/dc/elements/1.1/" xmlns:cc="http://creativecommons.org/ns#" xmlns:rdf="http://www.w3.org/1999/02/22-rdf-syntax-ns#">
   <cc:Work>
    <dc:type rdf:resource="http://purl.org/dc/dcmitype/StillImage"/>
    <dc:date>2025-01-02T22:21:44.856780</dc:date>
    <dc:format>image/svg+xml</dc:format>
    <dc:creator>
     <cc:Agent>
      <dc:title>Matplotlib v3.9.0, https://matplotlib.org/</dc:title>
     </cc:Agent>
    </dc:creator>
   </cc:Work>
  </rdf:RDF>
 </metadata>
 <defs>
  <style type="text/css">*{stroke-linejoin: round; stroke-linecap: butt}</style>
 </defs>
 <g id="figure_1">
  <g id="patch_1">
   <path d="M 0 426.4 
L 569.949959 426.4 
L 569.949959 0 
L 0 0 
L 0 426.4 
z
" style="fill: none"/>
  </g>
  <g id="axes_1">
   <g id="patch_2">
    <path d="M 96.65 345.26 
L 552.950909 345.26 
L 552.950909 7.2 
L 96.65 7.2 
L 96.65 345.26 
z
" style="fill: none"/>
   </g>
   <g id="matplotlib.axis_1">
    <g id="xtick_1">
     <g id="line2d_1">
      <defs>
       <path id="m43a4378f64" d="M 0 0 
L 0 6 
" style="stroke: #000000"/>
      </defs>
      <g>
       <use xlink:href="#m43a4378f64" x="117.39095" y="345.26" style="stroke: #000000"/>
      </g>
     </g>
     <g id="text_1">
      <!-- 0 -->
      <g transform="translate(107.21095 377.575) scale(0.32 -0.32)">
       <defs>
        <path id="DejaVuSans-30" d="M 2034 4250 
Q 1547 4250 1301 3770 
Q 1056 3291 1056 2328 
Q 1056 1369 1301 889 
Q 1547 409 2034 409 
Q 2525 409 2770 889 
Q 3016 1369 3016 2328 
Q 3016 3291 2770 3770 
Q 2525 4250 2034 4250 
z
M 2034 4750 
Q 2819 4750 3233 4129 
Q 3647 3509 3647 2328 
Q 3647 1150 3233 529 
Q 2819 -91 2034 -91 
Q 1250 -91 836 529 
Q 422 1150 422 2328 
Q 422 3509 836 4129 
Q 1250 4750 2034 4750 
z
" transform="scale(0.015625)"/>
       </defs>
       <use xlink:href="#DejaVuSans-30"/>
      </g>
     </g>
    </g>
    <g id="xtick_2">
     <g id="line2d_2">
      <g>
       <use xlink:href="#m43a4378f64" x="532.209959" y="345.26" style="stroke: #000000"/>
      </g>
     </g>
     <g id="text_2">
      <!-- 200 -->
      <g transform="translate(501.669959 377.575) scale(0.32 -0.32)">
       <defs>
        <path id="DejaVuSans-32" d="M 1228 531 
L 3431 531 
L 3431 0 
L 469 0 
L 469 531 
Q 828 903 1448 1529 
Q 2069 2156 2228 2338 
Q 2531 2678 2651 2914 
Q 2772 3150 2772 3378 
Q 2772 3750 2511 3984 
Q 2250 4219 1831 4219 
Q 1534 4219 1204 4116 
Q 875 4013 500 3803 
L 500 4441 
Q 881 4594 1212 4672 
Q 1544 4750 1819 4750 
Q 2544 4750 2975 4387 
Q 3406 4025 3406 3419 
Q 3406 3131 3298 2873 
Q 3191 2616 2906 2266 
Q 2828 2175 2409 1742 
Q 1991 1309 1228 531 
z
" transform="scale(0.015625)"/>
       </defs>
       <use xlink:href="#DejaVuSans-32"/>
       <use xlink:href="#DejaVuSans-30" x="63.623047"/>
       <use xlink:href="#DejaVuSans-30" x="127.246094"/>
      </g>
     </g>
    </g>
    <g id="text_3">
     <!-- Time -->
     <g transform="translate(285.652955 412.545) scale(0.32 -0.32)">
      <defs>
       <path id="DejaVuSans-54" d="M -19 4666 
L 3928 4666 
L 3928 4134 
L 2272 4134 
L 2272 0 
L 1638 0 
L 1638 4134 
L -19 4134 
L -19 4666 
z
" transform="scale(0.015625)"/>
       <path id="DejaVuSans-69" d="M 603 3500 
L 1178 3500 
L 1178 0 
L 603 0 
L 603 3500 
z
M 603 4863 
L 1178 4863 
L 1178 4134 
L 603 4134 
L 603 4863 
z
" transform="scale(0.015625)"/>
       <path id="DejaVuSans-6d" d="M 3328 2828 
Q 3544 3216 3844 3400 
Q 4144 3584 4550 3584 
Q 5097 3584 5394 3201 
Q 5691 2819 5691 2113 
L 5691 0 
L 5113 0 
L 5113 2094 
Q 5113 2597 4934 2840 
Q 4756 3084 4391 3084 
Q 3944 3084 3684 2787 
Q 3425 2491 3425 1978 
L 3425 0 
L 2847 0 
L 2847 2094 
Q 2847 2600 2669 2842 
Q 2491 3084 2119 3084 
Q 1678 3084 1418 2786 
Q 1159 2488 1159 1978 
L 1159 0 
L 581 0 
L 581 3500 
L 1159 3500 
L 1159 2956 
Q 1356 3278 1631 3431 
Q 1906 3584 2284 3584 
Q 2666 3584 2933 3390 
Q 3200 3197 3328 2828 
z
" transform="scale(0.015625)"/>
       <path id="DejaVuSans-65" d="M 3597 1894 
L 3597 1613 
L 953 1613 
Q 991 1019 1311 708 
Q 1631 397 2203 397 
Q 2534 397 2845 478 
Q 3156 559 3463 722 
L 3463 178 
Q 3153 47 2828 -22 
Q 2503 -91 2169 -91 
Q 1331 -91 842 396 
Q 353 884 353 1716 
Q 353 2575 817 3079 
Q 1281 3584 2069 3584 
Q 2775 3584 3186 3129 
Q 3597 2675 3597 1894 
z
M 3022 2063 
Q 3016 2534 2758 2815 
Q 2500 3097 2075 3097 
Q 1594 3097 1305 2825 
Q 1016 2553 972 2059 
L 3022 2063 
z
" transform="scale(0.015625)"/>
      </defs>
      <use xlink:href="#DejaVuSans-54"/>
      <use xlink:href="#DejaVuSans-69" x="57.958984"/>
      <use xlink:href="#DejaVuSans-6d" x="85.742188"/>
      <use xlink:href="#DejaVuSans-65" x="183.154297"/>
     </g>
    </g>
   </g>
   <g id="matplotlib.axis_2">
    <g id="ytick_1">
     <g id="line2d_3">
      <defs>
       <path id="mb3a4f29d54" d="M 0 0 
L -6 0 
" style="stroke: #000000"/>
      </defs>
      <g>
       <use xlink:href="#mb3a4f29d54" x="96.65" y="329.893636" style="stroke: #000000"/>
      </g>
     </g>
     <g id="text_4">
      <!-- 0.0 -->
      <g transform="translate(37.76 342.051136) scale(0.32 -0.32)">
       <defs>
        <path id="DejaVuSans-2e" d="M 684 794 
L 1344 794 
L 1344 0 
L 684 0 
L 684 794 
z
" transform="scale(0.015625)"/>
       </defs>
       <use xlink:href="#DejaVuSans-30"/>
       <use xlink:href="#DejaVuSans-2e" x="63.623047"/>
       <use xlink:href="#DejaVuSans-30" x="95.410156"/>
      </g>
     </g>
    </g>
    <g id="ytick_2">
     <g id="line2d_4">
      <g>
       <use xlink:href="#mb3a4f29d54" x="96.65" y="232.544325" style="stroke: #000000"/>
      </g>
     </g>
     <g id="text_5">
      <!-- 0.1 -->
      <g transform="translate(37.76 244.701825) scale(0.32 -0.32)">
       <defs>
        <path id="DejaVuSans-31" d="M 794 531 
L 1825 531 
L 1825 4091 
L 703 3866 
L 703 4441 
L 1819 4666 
L 2450 4666 
L 2450 531 
L 3481 531 
L 3481 0 
L 794 0 
L 794 531 
z
" transform="scale(0.015625)"/>
       </defs>
       <use xlink:href="#DejaVuSans-30"/>
       <use xlink:href="#DejaVuSans-2e" x="63.623047"/>
       <use xlink:href="#DejaVuSans-31" x="95.410156"/>
      </g>
     </g>
    </g>
    <g id="ytick_3">
     <g id="line2d_5">
      <g>
       <use xlink:href="#mb3a4f29d54" x="96.65" y="135.195014" style="stroke: #000000"/>
      </g>
     </g>
     <g id="text_6">
      <!-- 0.2 -->
      <g transform="translate(37.76 147.352514) scale(0.32 -0.32)">
       <use xlink:href="#DejaVuSans-30"/>
       <use xlink:href="#DejaVuSans-2e" x="63.623047"/>
       <use xlink:href="#DejaVuSans-32" x="95.410156"/>
      </g>
     </g>
    </g>
    <g id="ytick_4">
     <g id="line2d_6">
      <g>
       <use xlink:href="#mb3a4f29d54" x="96.65" y="37.845703" style="stroke: #000000"/>
      </g>
     </g>
     <g id="text_7">
      <!-- 0.3 -->
      <g transform="translate(37.76 50.003203) scale(0.32 -0.32)">
       <defs>
        <path id="DejaVuSans-33" d="M 2597 2516 
Q 3050 2419 3304 2112 
Q 3559 1806 3559 1356 
Q 3559 666 3084 287 
Q 2609 -91 1734 -91 
Q 1441 -91 1130 -33 
Q 819 25 488 141 
L 488 750 
Q 750 597 1062 519 
Q 1375 441 1716 441 
Q 2309 441 2620 675 
Q 2931 909 2931 1356 
Q 2931 1769 2642 2001 
Q 2353 2234 1838 2234 
L 1294 2234 
L 1294 2753 
L 1863 2753 
Q 2328 2753 2575 2939 
Q 2822 3125 2822 3475 
Q 2822 3834 2567 4026 
Q 2313 4219 1838 4219 
Q 1578 4219 1281 4162 
Q 984 4106 628 3988 
L 628 4550 
Q 988 4650 1302 4700 
Q 1616 4750 1894 4750 
Q 2613 4750 3031 4423 
Q 3450 4097 3450 3541 
Q 3450 3153 3228 2886 
Q 3006 2619 2597 2516 
z
" transform="scale(0.015625)"/>
       </defs>
       <use xlink:href="#DejaVuSans-30"/>
       <use xlink:href="#DejaVuSans-2e" x="63.623047"/>
       <use xlink:href="#DejaVuSans-33" x="95.410156"/>
      </g>
     </g>
    </g>
    <g id="text_8">
     <!-- $K$ -->
     <g transform="translate(7.2 185.06) scale(0.32 -0.32)">
      <defs>
       <path id="DejaVuSans-Oblique-4b" d="M 1081 4666 
L 1716 4666 
L 1331 2700 
L 3781 4666 
L 4622 4666 
L 1850 2438 
L 3878 0 
L 3109 0 
L 1247 2272 
L 806 0 
L 172 0 
L 1081 4666 
z
" transform="scale(0.015625)"/>
      </defs>
      <use xlink:href="#DejaVuSans-Oblique-4b" transform="translate(0 0.09375)"/>
     </g>
    </g>
   </g>
   <g id="line2d_7">
    <defs>
     <path id="m85d65e0b03" d="M 0 4 
C 1.060812 4 2.078319 3.578535 2.828427 2.828427 
C 3.578535 2.078319 4 1.060812 4 0 
C 4 -1.060812 3.578535 -2.078319 2.828427 -2.828427 
C 2.078319 -3.578535 1.060812 -4 0 -4 
C -1.060812 -4 -2.078319 -3.578535 -2.828427 -2.828427 
C -3.578535 -2.078319 -4 -1.060812 -4 0 
C -4 1.060812 -3.578535 2.078319 -2.828427 2.828427 
C -2.078319 3.578535 -1.060812 4 0 4 
z
" style="stroke: #1b9e77; stroke-width: 2"/>
    </defs>
    <g clip-path="url(#p5cb4e5dd43)">
     <use xlink:href="#m85d65e0b03" x="117.39095" y="22.566393" style="fill: #1b9e77; stroke: #1b9e77; stroke-width: 2"/>
     <use xlink:href="#m85d65e0b03" x="119.465045" y="22.566393" style="fill: #1b9e77; stroke: #1b9e77; stroke-width: 2"/>
     <use xlink:href="#m85d65e0b03" x="121.53914" y="22.566393" style="fill: #1b9e77; stroke: #1b9e77; stroke-width: 2"/>
     <use xlink:href="#m85d65e0b03" x="123.613236" y="22.566393" style="fill: #1b9e77; stroke: #1b9e77; stroke-width: 2"/>
     <use xlink:href="#m85d65e0b03" x="125.687331" y="22.566393" style="fill: #1b9e77; stroke: #1b9e77; stroke-width: 2"/>
     <use xlink:href="#m85d65e0b03" x="127.761426" y="22.566393" style="fill: #1b9e77; stroke: #1b9e77; stroke-width: 2"/>
     <use xlink:href="#m85d65e0b03" x="129.835521" y="22.566393" style="fill: #1b9e77; stroke: #1b9e77; stroke-width: 2"/>
     <use xlink:href="#m85d65e0b03" x="131.909616" y="22.566393" style="fill: #1b9e77; stroke: #1b9e77; stroke-width: 2"/>
     <use xlink:href="#m85d65e0b03" x="133.983711" y="22.566393" style="fill: #1b9e77; stroke: #1b9e77; stroke-width: 2"/>
     <use xlink:href="#m85d65e0b03" x="136.057806" y="22.566393" style="fill: #1b9e77; stroke: #1b9e77; stroke-width: 2"/>
     <use xlink:href="#m85d65e0b03" x="138.131901" y="22.566393" style="fill: #1b9e77; stroke: #1b9e77; stroke-width: 2"/>
     <use xlink:href="#m85d65e0b03" x="140.205996" y="22.566393" style="fill: #1b9e77; stroke: #1b9e77; stroke-width: 2"/>
     <use xlink:href="#m85d65e0b03" x="142.280091" y="22.566393" style="fill: #1b9e77; stroke: #1b9e77; stroke-width: 2"/>
     <use xlink:href="#m85d65e0b03" x="144.354186" y="22.566393" style="fill: #1b9e77; stroke: #1b9e77; stroke-width: 2"/>
     <use xlink:href="#m85d65e0b03" x="146.428281" y="22.566393" style="fill: #1b9e77; stroke: #1b9e77; stroke-width: 2"/>
     <use xlink:href="#m85d65e0b03" x="148.502376" y="22.566393" style="fill: #1b9e77; stroke: #1b9e77; stroke-width: 2"/>
     <use xlink:href="#m85d65e0b03" x="150.576471" y="22.566393" style="fill: #1b9e77; stroke: #1b9e77; stroke-width: 2"/>
     <use xlink:href="#m85d65e0b03" x="152.650566" y="22.566393" style="fill: #1b9e77; stroke: #1b9e77; stroke-width: 2"/>
     <use xlink:href="#m85d65e0b03" x="154.724661" y="22.566393" style="fill: #1b9e77; stroke: #1b9e77; stroke-width: 2"/>
     <use xlink:href="#m85d65e0b03" x="156.798756" y="22.566393" style="fill: #1b9e77; stroke: #1b9e77; stroke-width: 2"/>
     <use xlink:href="#m85d65e0b03" x="158.872851" y="22.566393" style="fill: #1b9e77; stroke: #1b9e77; stroke-width: 2"/>
     <use xlink:href="#m85d65e0b03" x="160.946946" y="22.566393" style="fill: #1b9e77; stroke: #1b9e77; stroke-width: 2"/>
     <use xlink:href="#m85d65e0b03" x="163.021041" y="22.566393" style="fill: #1b9e77; stroke: #1b9e77; stroke-width: 2"/>
     <use xlink:href="#m85d65e0b03" x="165.095136" y="22.566393" style="fill: #1b9e77; stroke: #1b9e77; stroke-width: 2"/>
     <use xlink:href="#m85d65e0b03" x="167.169231" y="22.566393" style="fill: #1b9e77; stroke: #1b9e77; stroke-width: 2"/>
     <use xlink:href="#m85d65e0b03" x="169.243326" y="22.566393" style="fill: #1b9e77; stroke: #1b9e77; stroke-width: 2"/>
     <use xlink:href="#m85d65e0b03" x="171.317421" y="22.566393" style="fill: #1b9e77; stroke: #1b9e77; stroke-width: 2"/>
     <use xlink:href="#m85d65e0b03" x="173.391517" y="22.566393" style="fill: #1b9e77; stroke: #1b9e77; stroke-width: 2"/>
     <use xlink:href="#m85d65e0b03" x="175.465612" y="22.566393" style="fill: #1b9e77; stroke: #1b9e77; stroke-width: 2"/>
     <use xlink:href="#m85d65e0b03" x="177.539707" y="22.566393" style="fill: #1b9e77; stroke: #1b9e77; stroke-width: 2"/>
     <use xlink:href="#m85d65e0b03" x="179.613802" y="22.566393" style="fill: #1b9e77; stroke: #1b9e77; stroke-width: 2"/>
     <use xlink:href="#m85d65e0b03" x="181.687897" y="22.566393" style="fill: #1b9e77; stroke: #1b9e77; stroke-width: 2"/>
     <use xlink:href="#m85d65e0b03" x="183.761992" y="22.566393" style="fill: #1b9e77; stroke: #1b9e77; stroke-width: 2"/>
     <use xlink:href="#m85d65e0b03" x="185.836087" y="22.566393" style="fill: #1b9e77; stroke: #1b9e77; stroke-width: 2"/>
     <use xlink:href="#m85d65e0b03" x="187.910182" y="22.566393" style="fill: #1b9e77; stroke: #1b9e77; stroke-width: 2"/>
     <use xlink:href="#m85d65e0b03" x="189.984277" y="22.566393" style="fill: #1b9e77; stroke: #1b9e77; stroke-width: 2"/>
     <use xlink:href="#m85d65e0b03" x="192.058372" y="22.566393" style="fill: #1b9e77; stroke: #1b9e77; stroke-width: 2"/>
     <use xlink:href="#m85d65e0b03" x="194.132467" y="22.566393" style="fill: #1b9e77; stroke: #1b9e77; stroke-width: 2"/>
     <use xlink:href="#m85d65e0b03" x="196.206562" y="22.566393" style="fill: #1b9e77; stroke: #1b9e77; stroke-width: 2"/>
     <use xlink:href="#m85d65e0b03" x="198.280657" y="22.566393" style="fill: #1b9e77; stroke: #1b9e77; stroke-width: 2"/>
     <use xlink:href="#m85d65e0b03" x="200.354752" y="22.566393" style="fill: #1b9e77; stroke: #1b9e77; stroke-width: 2"/>
     <use xlink:href="#m85d65e0b03" x="202.428847" y="22.566393" style="fill: #1b9e77; stroke: #1b9e77; stroke-width: 2"/>
     <use xlink:href="#m85d65e0b03" x="204.502942" y="22.566393" style="fill: #1b9e77; stroke: #1b9e77; stroke-width: 2"/>
     <use xlink:href="#m85d65e0b03" x="206.577037" y="22.566393" style="fill: #1b9e77; stroke: #1b9e77; stroke-width: 2"/>
     <use xlink:href="#m85d65e0b03" x="208.651132" y="22.566393" style="fill: #1b9e77; stroke: #1b9e77; stroke-width: 2"/>
     <use xlink:href="#m85d65e0b03" x="210.725227" y="22.566393" style="fill: #1b9e77; stroke: #1b9e77; stroke-width: 2"/>
     <use xlink:href="#m85d65e0b03" x="212.799322" y="22.566393" style="fill: #1b9e77; stroke: #1b9e77; stroke-width: 2"/>
     <use xlink:href="#m85d65e0b03" x="214.873417" y="22.566393" style="fill: #1b9e77; stroke: #1b9e77; stroke-width: 2"/>
     <use xlink:href="#m85d65e0b03" x="216.947512" y="22.566393" style="fill: #1b9e77; stroke: #1b9e77; stroke-width: 2"/>
     <use xlink:href="#m85d65e0b03" x="219.021607" y="22.566393" style="fill: #1b9e77; stroke: #1b9e77; stroke-width: 2"/>
     <use xlink:href="#m85d65e0b03" x="221.095702" y="22.566393" style="fill: #1b9e77; stroke: #1b9e77; stroke-width: 2"/>
     <use xlink:href="#m85d65e0b03" x="223.169798" y="22.566393" style="fill: #1b9e77; stroke: #1b9e77; stroke-width: 2"/>
     <use xlink:href="#m85d65e0b03" x="225.243893" y="22.566393" style="fill: #1b9e77; stroke: #1b9e77; stroke-width: 2"/>
     <use xlink:href="#m85d65e0b03" x="227.317988" y="22.566393" style="fill: #1b9e77; stroke: #1b9e77; stroke-width: 2"/>
     <use xlink:href="#m85d65e0b03" x="229.392083" y="22.566393" style="fill: #1b9e77; stroke: #1b9e77; stroke-width: 2"/>
     <use xlink:href="#m85d65e0b03" x="231.466178" y="22.566393" style="fill: #1b9e77; stroke: #1b9e77; stroke-width: 2"/>
     <use xlink:href="#m85d65e0b03" x="233.540273" y="22.566393" style="fill: #1b9e77; stroke: #1b9e77; stroke-width: 2"/>
     <use xlink:href="#m85d65e0b03" x="235.614368" y="22.566393" style="fill: #1b9e77; stroke: #1b9e77; stroke-width: 2"/>
     <use xlink:href="#m85d65e0b03" x="237.688463" y="22.566393" style="fill: #1b9e77; stroke: #1b9e77; stroke-width: 2"/>
     <use xlink:href="#m85d65e0b03" x="239.762558" y="22.566393" style="fill: #1b9e77; stroke: #1b9e77; stroke-width: 2"/>
     <use xlink:href="#m85d65e0b03" x="241.836653" y="22.566393" style="fill: #1b9e77; stroke: #1b9e77; stroke-width: 2"/>
     <use xlink:href="#m85d65e0b03" x="243.910748" y="22.566393" style="fill: #1b9e77; stroke: #1b9e77; stroke-width: 2"/>
     <use xlink:href="#m85d65e0b03" x="245.984843" y="22.566393" style="fill: #1b9e77; stroke: #1b9e77; stroke-width: 2"/>
     <use xlink:href="#m85d65e0b03" x="248.058938" y="22.566393" style="fill: #1b9e77; stroke: #1b9e77; stroke-width: 2"/>
     <use xlink:href="#m85d65e0b03" x="250.133033" y="22.566393" style="fill: #1b9e77; stroke: #1b9e77; stroke-width: 2"/>
     <use xlink:href="#m85d65e0b03" x="252.207128" y="22.566393" style="fill: #1b9e77; stroke: #1b9e77; stroke-width: 2"/>
     <use xlink:href="#m85d65e0b03" x="254.281223" y="22.566393" style="fill: #1b9e77; stroke: #1b9e77; stroke-width: 2"/>
     <use xlink:href="#m85d65e0b03" x="256.355318" y="22.566393" style="fill: #1b9e77; stroke: #1b9e77; stroke-width: 2"/>
     <use xlink:href="#m85d65e0b03" x="258.429413" y="22.566393" style="fill: #1b9e77; stroke: #1b9e77; stroke-width: 2"/>
     <use xlink:href="#m85d65e0b03" x="260.503508" y="22.566393" style="fill: #1b9e77; stroke: #1b9e77; stroke-width: 2"/>
     <use xlink:href="#m85d65e0b03" x="262.577603" y="22.566393" style="fill: #1b9e77; stroke: #1b9e77; stroke-width: 2"/>
     <use xlink:href="#m85d65e0b03" x="264.651698" y="22.566393" style="fill: #1b9e77; stroke: #1b9e77; stroke-width: 2"/>
     <use xlink:href="#m85d65e0b03" x="266.725793" y="22.566393" style="fill: #1b9e77; stroke: #1b9e77; stroke-width: 2"/>
     <use xlink:href="#m85d65e0b03" x="268.799888" y="22.566393" style="fill: #1b9e77; stroke: #1b9e77; stroke-width: 2"/>
     <use xlink:href="#m85d65e0b03" x="270.873983" y="22.566393" style="fill: #1b9e77; stroke: #1b9e77; stroke-width: 2"/>
     <use xlink:href="#m85d65e0b03" x="272.948079" y="22.566393" style="fill: #1b9e77; stroke: #1b9e77; stroke-width: 2"/>
     <use xlink:href="#m85d65e0b03" x="275.022174" y="22.566393" style="fill: #1b9e77; stroke: #1b9e77; stroke-width: 2"/>
     <use xlink:href="#m85d65e0b03" x="277.096269" y="22.566393" style="fill: #1b9e77; stroke: #1b9e77; stroke-width: 2"/>
     <use xlink:href="#m85d65e0b03" x="279.170364" y="22.566393" style="fill: #1b9e77; stroke: #1b9e77; stroke-width: 2"/>
     <use xlink:href="#m85d65e0b03" x="281.244459" y="22.566393" style="fill: #1b9e77; stroke: #1b9e77; stroke-width: 2"/>
     <use xlink:href="#m85d65e0b03" x="283.318554" y="22.566393" style="fill: #1b9e77; stroke: #1b9e77; stroke-width: 2"/>
     <use xlink:href="#m85d65e0b03" x="285.392649" y="22.566393" style="fill: #1b9e77; stroke: #1b9e77; stroke-width: 2"/>
     <use xlink:href="#m85d65e0b03" x="287.466744" y="22.566393" style="fill: #1b9e77; stroke: #1b9e77; stroke-width: 2"/>
     <use xlink:href="#m85d65e0b03" x="289.540839" y="22.566393" style="fill: #1b9e77; stroke: #1b9e77; stroke-width: 2"/>
     <use xlink:href="#m85d65e0b03" x="291.614934" y="22.566393" style="fill: #1b9e77; stroke: #1b9e77; stroke-width: 2"/>
     <use xlink:href="#m85d65e0b03" x="293.689029" y="22.566393" style="fill: #1b9e77; stroke: #1b9e77; stroke-width: 2"/>
     <use xlink:href="#m85d65e0b03" x="295.763124" y="22.566393" style="fill: #1b9e77; stroke: #1b9e77; stroke-width: 2"/>
     <use xlink:href="#m85d65e0b03" x="297.837219" y="22.566393" style="fill: #1b9e77; stroke: #1b9e77; stroke-width: 2"/>
     <use xlink:href="#m85d65e0b03" x="299.911314" y="22.566393" style="fill: #1b9e77; stroke: #1b9e77; stroke-width: 2"/>
     <use xlink:href="#m85d65e0b03" x="301.985409" y="22.566393" style="fill: #1b9e77; stroke: #1b9e77; stroke-width: 2"/>
     <use xlink:href="#m85d65e0b03" x="304.059504" y="22.566393" style="fill: #1b9e77; stroke: #1b9e77; stroke-width: 2"/>
     <use xlink:href="#m85d65e0b03" x="306.133599" y="22.566393" style="fill: #1b9e77; stroke: #1b9e77; stroke-width: 2"/>
     <use xlink:href="#m85d65e0b03" x="308.207694" y="22.566393" style="fill: #1b9e77; stroke: #1b9e77; stroke-width: 2"/>
     <use xlink:href="#m85d65e0b03" x="310.281789" y="22.566393" style="fill: #1b9e77; stroke: #1b9e77; stroke-width: 2"/>
     <use xlink:href="#m85d65e0b03" x="312.355884" y="22.566393" style="fill: #1b9e77; stroke: #1b9e77; stroke-width: 2"/>
     <use xlink:href="#m85d65e0b03" x="314.429979" y="22.566393" style="fill: #1b9e77; stroke: #1b9e77; stroke-width: 2"/>
     <use xlink:href="#m85d65e0b03" x="316.504074" y="22.566393" style="fill: #1b9e77; stroke: #1b9e77; stroke-width: 2"/>
     <use xlink:href="#m85d65e0b03" x="318.578169" y="22.566393" style="fill: #1b9e77; stroke: #1b9e77; stroke-width: 2"/>
     <use xlink:href="#m85d65e0b03" x="320.652264" y="22.566393" style="fill: #1b9e77; stroke: #1b9e77; stroke-width: 2"/>
     <use xlink:href="#m85d65e0b03" x="322.72636" y="22.566393" style="fill: #1b9e77; stroke: #1b9e77; stroke-width: 2"/>
     <use xlink:href="#m85d65e0b03" x="324.800455" y="22.566393" style="fill: #1b9e77; stroke: #1b9e77; stroke-width: 2"/>
     <use xlink:href="#m85d65e0b03" x="326.87455" y="22.566393" style="fill: #1b9e77; stroke: #1b9e77; stroke-width: 2"/>
     <use xlink:href="#m85d65e0b03" x="328.948645" y="22.566393" style="fill: #1b9e77; stroke: #1b9e77; stroke-width: 2"/>
     <use xlink:href="#m85d65e0b03" x="331.02274" y="22.566393" style="fill: #1b9e77; stroke: #1b9e77; stroke-width: 2"/>
     <use xlink:href="#m85d65e0b03" x="333.096835" y="22.566393" style="fill: #1b9e77; stroke: #1b9e77; stroke-width: 2"/>
     <use xlink:href="#m85d65e0b03" x="335.17093" y="22.566393" style="fill: #1b9e77; stroke: #1b9e77; stroke-width: 2"/>
     <use xlink:href="#m85d65e0b03" x="337.245025" y="22.566393" style="fill: #1b9e77; stroke: #1b9e77; stroke-width: 2"/>
     <use xlink:href="#m85d65e0b03" x="339.31912" y="22.566393" style="fill: #1b9e77; stroke: #1b9e77; stroke-width: 2"/>
     <use xlink:href="#m85d65e0b03" x="341.393215" y="22.566393" style="fill: #1b9e77; stroke: #1b9e77; stroke-width: 2"/>
     <use xlink:href="#m85d65e0b03" x="343.46731" y="22.566393" style="fill: #1b9e77; stroke: #1b9e77; stroke-width: 2"/>
     <use xlink:href="#m85d65e0b03" x="345.541405" y="22.566393" style="fill: #1b9e77; stroke: #1b9e77; stroke-width: 2"/>
     <use xlink:href="#m85d65e0b03" x="347.6155" y="22.566393" style="fill: #1b9e77; stroke: #1b9e77; stroke-width: 2"/>
     <use xlink:href="#m85d65e0b03" x="349.689595" y="22.566393" style="fill: #1b9e77; stroke: #1b9e77; stroke-width: 2"/>
     <use xlink:href="#m85d65e0b03" x="351.76369" y="22.566393" style="fill: #1b9e77; stroke: #1b9e77; stroke-width: 2"/>
     <use xlink:href="#m85d65e0b03" x="353.837785" y="22.566393" style="fill: #1b9e77; stroke: #1b9e77; stroke-width: 2"/>
     <use xlink:href="#m85d65e0b03" x="355.91188" y="22.566393" style="fill: #1b9e77; stroke: #1b9e77; stroke-width: 2"/>
     <use xlink:href="#m85d65e0b03" x="357.985975" y="22.566393" style="fill: #1b9e77; stroke: #1b9e77; stroke-width: 2"/>
     <use xlink:href="#m85d65e0b03" x="360.06007" y="22.566393" style="fill: #1b9e77; stroke: #1b9e77; stroke-width: 2"/>
     <use xlink:href="#m85d65e0b03" x="362.134165" y="22.566393" style="fill: #1b9e77; stroke: #1b9e77; stroke-width: 2"/>
     <use xlink:href="#m85d65e0b03" x="364.20826" y="22.566393" style="fill: #1b9e77; stroke: #1b9e77; stroke-width: 2"/>
     <use xlink:href="#m85d65e0b03" x="366.282355" y="22.566393" style="fill: #1b9e77; stroke: #1b9e77; stroke-width: 2"/>
     <use xlink:href="#m85d65e0b03" x="368.35645" y="22.566393" style="fill: #1b9e77; stroke: #1b9e77; stroke-width: 2"/>
     <use xlink:href="#m85d65e0b03" x="370.430545" y="22.566393" style="fill: #1b9e77; stroke: #1b9e77; stroke-width: 2"/>
     <use xlink:href="#m85d65e0b03" x="372.50464" y="22.566393" style="fill: #1b9e77; stroke: #1b9e77; stroke-width: 2"/>
     <use xlink:href="#m85d65e0b03" x="374.578736" y="22.566393" style="fill: #1b9e77; stroke: #1b9e77; stroke-width: 2"/>
     <use xlink:href="#m85d65e0b03" x="376.652831" y="22.566393" style="fill: #1b9e77; stroke: #1b9e77; stroke-width: 2"/>
     <use xlink:href="#m85d65e0b03" x="378.726926" y="22.566393" style="fill: #1b9e77; stroke: #1b9e77; stroke-width: 2"/>
     <use xlink:href="#m85d65e0b03" x="380.801021" y="22.566393" style="fill: #1b9e77; stroke: #1b9e77; stroke-width: 2"/>
     <use xlink:href="#m85d65e0b03" x="382.875116" y="22.566393" style="fill: #1b9e77; stroke: #1b9e77; stroke-width: 2"/>
     <use xlink:href="#m85d65e0b03" x="384.949211" y="22.566393" style="fill: #1b9e77; stroke: #1b9e77; stroke-width: 2"/>
     <use xlink:href="#m85d65e0b03" x="387.023306" y="22.566393" style="fill: #1b9e77; stroke: #1b9e77; stroke-width: 2"/>
     <use xlink:href="#m85d65e0b03" x="389.097401" y="22.566393" style="fill: #1b9e77; stroke: #1b9e77; stroke-width: 2"/>
     <use xlink:href="#m85d65e0b03" x="391.171496" y="22.566393" style="fill: #1b9e77; stroke: #1b9e77; stroke-width: 2"/>
     <use xlink:href="#m85d65e0b03" x="393.245591" y="22.566393" style="fill: #1b9e77; stroke: #1b9e77; stroke-width: 2"/>
     <use xlink:href="#m85d65e0b03" x="395.319686" y="22.566393" style="fill: #1b9e77; stroke: #1b9e77; stroke-width: 2"/>
     <use xlink:href="#m85d65e0b03" x="397.393781" y="22.566393" style="fill: #1b9e77; stroke: #1b9e77; stroke-width: 2"/>
     <use xlink:href="#m85d65e0b03" x="399.467876" y="22.566393" style="fill: #1b9e77; stroke: #1b9e77; stroke-width: 2"/>
     <use xlink:href="#m85d65e0b03" x="401.541971" y="22.566393" style="fill: #1b9e77; stroke: #1b9e77; stroke-width: 2"/>
     <use xlink:href="#m85d65e0b03" x="403.616066" y="22.566393" style="fill: #1b9e77; stroke: #1b9e77; stroke-width: 2"/>
     <use xlink:href="#m85d65e0b03" x="405.690161" y="22.566393" style="fill: #1b9e77; stroke: #1b9e77; stroke-width: 2"/>
     <use xlink:href="#m85d65e0b03" x="407.764256" y="22.566393" style="fill: #1b9e77; stroke: #1b9e77; stroke-width: 2"/>
     <use xlink:href="#m85d65e0b03" x="409.838351" y="22.566393" style="fill: #1b9e77; stroke: #1b9e77; stroke-width: 2"/>
     <use xlink:href="#m85d65e0b03" x="411.912446" y="22.566393" style="fill: #1b9e77; stroke: #1b9e77; stroke-width: 2"/>
     <use xlink:href="#m85d65e0b03" x="413.986541" y="22.566393" style="fill: #1b9e77; stroke: #1b9e77; stroke-width: 2"/>
     <use xlink:href="#m85d65e0b03" x="416.060636" y="22.566393" style="fill: #1b9e77; stroke: #1b9e77; stroke-width: 2"/>
     <use xlink:href="#m85d65e0b03" x="418.134731" y="22.566393" style="fill: #1b9e77; stroke: #1b9e77; stroke-width: 2"/>
     <use xlink:href="#m85d65e0b03" x="420.208826" y="22.566393" style="fill: #1b9e77; stroke: #1b9e77; stroke-width: 2"/>
     <use xlink:href="#m85d65e0b03" x="422.282921" y="22.566393" style="fill: #1b9e77; stroke: #1b9e77; stroke-width: 2"/>
     <use xlink:href="#m85d65e0b03" x="424.357017" y="22.566393" style="fill: #1b9e77; stroke: #1b9e77; stroke-width: 2"/>
     <use xlink:href="#m85d65e0b03" x="426.431112" y="22.566393" style="fill: #1b9e77; stroke: #1b9e77; stroke-width: 2"/>
     <use xlink:href="#m85d65e0b03" x="428.505207" y="22.566393" style="fill: #1b9e77; stroke: #1b9e77; stroke-width: 2"/>
     <use xlink:href="#m85d65e0b03" x="430.579302" y="22.566393" style="fill: #1b9e77; stroke: #1b9e77; stroke-width: 2"/>
     <use xlink:href="#m85d65e0b03" x="432.653397" y="22.566393" style="fill: #1b9e77; stroke: #1b9e77; stroke-width: 2"/>
     <use xlink:href="#m85d65e0b03" x="434.727492" y="22.566393" style="fill: #1b9e77; stroke: #1b9e77; stroke-width: 2"/>
     <use xlink:href="#m85d65e0b03" x="436.801587" y="22.566393" style="fill: #1b9e77; stroke: #1b9e77; stroke-width: 2"/>
     <use xlink:href="#m85d65e0b03" x="438.875682" y="22.566393" style="fill: #1b9e77; stroke: #1b9e77; stroke-width: 2"/>
     <use xlink:href="#m85d65e0b03" x="440.949777" y="22.566393" style="fill: #1b9e77; stroke: #1b9e77; stroke-width: 2"/>
     <use xlink:href="#m85d65e0b03" x="443.023872" y="329.893636" style="fill: #1b9e77; stroke: #1b9e77; stroke-width: 2"/>
     <use xlink:href="#m85d65e0b03" x="445.097967" y="329.893636" style="fill: #1b9e77; stroke: #1b9e77; stroke-width: 2"/>
     <use xlink:href="#m85d65e0b03" x="447.172062" y="329.893636" style="fill: #1b9e77; stroke: #1b9e77; stroke-width: 2"/>
     <use xlink:href="#m85d65e0b03" x="449.246157" y="329.893636" style="fill: #1b9e77; stroke: #1b9e77; stroke-width: 2"/>
     <use xlink:href="#m85d65e0b03" x="451.320252" y="329.893636" style="fill: #1b9e77; stroke: #1b9e77; stroke-width: 2"/>
     <use xlink:href="#m85d65e0b03" x="453.394347" y="329.893636" style="fill: #1b9e77; stroke: #1b9e77; stroke-width: 2"/>
     <use xlink:href="#m85d65e0b03" x="455.468442" y="329.893636" style="fill: #1b9e77; stroke: #1b9e77; stroke-width: 2"/>
     <use xlink:href="#m85d65e0b03" x="457.542537" y="329.893636" style="fill: #1b9e77; stroke: #1b9e77; stroke-width: 2"/>
     <use xlink:href="#m85d65e0b03" x="459.616632" y="329.893636" style="fill: #1b9e77; stroke: #1b9e77; stroke-width: 2"/>
     <use xlink:href="#m85d65e0b03" x="461.690727" y="329.893636" style="fill: #1b9e77; stroke: #1b9e77; stroke-width: 2"/>
     <use xlink:href="#m85d65e0b03" x="463.764822" y="329.893636" style="fill: #1b9e77; stroke: #1b9e77; stroke-width: 2"/>
     <use xlink:href="#m85d65e0b03" x="465.838917" y="329.893636" style="fill: #1b9e77; stroke: #1b9e77; stroke-width: 2"/>
     <use xlink:href="#m85d65e0b03" x="467.913012" y="329.893636" style="fill: #1b9e77; stroke: #1b9e77; stroke-width: 2"/>
     <use xlink:href="#m85d65e0b03" x="469.987107" y="329.893636" style="fill: #1b9e77; stroke: #1b9e77; stroke-width: 2"/>
     <use xlink:href="#m85d65e0b03" x="472.061202" y="329.893636" style="fill: #1b9e77; stroke: #1b9e77; stroke-width: 2"/>
     <use xlink:href="#m85d65e0b03" x="474.135298" y="329.893636" style="fill: #1b9e77; stroke: #1b9e77; stroke-width: 2"/>
     <use xlink:href="#m85d65e0b03" x="476.209393" y="329.893636" style="fill: #1b9e77; stroke: #1b9e77; stroke-width: 2"/>
     <use xlink:href="#m85d65e0b03" x="478.283488" y="329.893636" style="fill: #1b9e77; stroke: #1b9e77; stroke-width: 2"/>
     <use xlink:href="#m85d65e0b03" x="480.357583" y="329.893636" style="fill: #1b9e77; stroke: #1b9e77; stroke-width: 2"/>
     <use xlink:href="#m85d65e0b03" x="482.431678" y="329.893636" style="fill: #1b9e77; stroke: #1b9e77; stroke-width: 2"/>
     <use xlink:href="#m85d65e0b03" x="484.505773" y="329.893636" style="fill: #1b9e77; stroke: #1b9e77; stroke-width: 2"/>
     <use xlink:href="#m85d65e0b03" x="486.579868" y="329.893636" style="fill: #1b9e77; stroke: #1b9e77; stroke-width: 2"/>
     <use xlink:href="#m85d65e0b03" x="488.653963" y="329.893636" style="fill: #1b9e77; stroke: #1b9e77; stroke-width: 2"/>
     <use xlink:href="#m85d65e0b03" x="490.728058" y="329.893636" style="fill: #1b9e77; stroke: #1b9e77; stroke-width: 2"/>
     <use xlink:href="#m85d65e0b03" x="492.802153" y="329.893636" style="fill: #1b9e77; stroke: #1b9e77; stroke-width: 2"/>
     <use xlink:href="#m85d65e0b03" x="494.876248" y="22.566364" style="fill: #1b9e77; stroke: #1b9e77; stroke-width: 2"/>
     <use xlink:href="#m85d65e0b03" x="496.950343" y="22.566364" style="fill: #1b9e77; stroke: #1b9e77; stroke-width: 2"/>
     <use xlink:href="#m85d65e0b03" x="499.024438" y="22.566364" style="fill: #1b9e77; stroke: #1b9e77; stroke-width: 2"/>
     <use xlink:href="#m85d65e0b03" x="501.098533" y="22.566364" style="fill: #1b9e77; stroke: #1b9e77; stroke-width: 2"/>
     <use xlink:href="#m85d65e0b03" x="503.172628" y="22.566364" style="fill: #1b9e77; stroke: #1b9e77; stroke-width: 2"/>
     <use xlink:href="#m85d65e0b03" x="505.246723" y="22.566364" style="fill: #1b9e77; stroke: #1b9e77; stroke-width: 2"/>
     <use xlink:href="#m85d65e0b03" x="507.320818" y="22.566364" style="fill: #1b9e77; stroke: #1b9e77; stroke-width: 2"/>
     <use xlink:href="#m85d65e0b03" x="509.394913" y="329.893636" style="fill: #1b9e77; stroke: #1b9e77; stroke-width: 2"/>
     <use xlink:href="#m85d65e0b03" x="511.469008" y="329.893636" style="fill: #1b9e77; stroke: #1b9e77; stroke-width: 2"/>
     <use xlink:href="#m85d65e0b03" x="513.543103" y="329.893636" style="fill: #1b9e77; stroke: #1b9e77; stroke-width: 2"/>
     <use xlink:href="#m85d65e0b03" x="515.617198" y="329.893636" style="fill: #1b9e77; stroke: #1b9e77; stroke-width: 2"/>
     <use xlink:href="#m85d65e0b03" x="517.691293" y="329.893636" style="fill: #1b9e77; stroke: #1b9e77; stroke-width: 2"/>
     <use xlink:href="#m85d65e0b03" x="519.765388" y="329.893636" style="fill: #1b9e77; stroke: #1b9e77; stroke-width: 2"/>
     <use xlink:href="#m85d65e0b03" x="521.839483" y="329.893636" style="fill: #1b9e77; stroke: #1b9e77; stroke-width: 2"/>
     <use xlink:href="#m85d65e0b03" x="523.913579" y="329.893636" style="fill: #1b9e77; stroke: #1b9e77; stroke-width: 2"/>
     <use xlink:href="#m85d65e0b03" x="525.987674" y="329.893636" style="fill: #1b9e77; stroke: #1b9e77; stroke-width: 2"/>
     <use xlink:href="#m85d65e0b03" x="528.061769" y="329.893636" style="fill: #1b9e77; stroke: #1b9e77; stroke-width: 2"/>
     <use xlink:href="#m85d65e0b03" x="530.135864" y="329.893636" style="fill: #1b9e77; stroke: #1b9e77; stroke-width: 2"/>
    </g>
   </g>
   <g id="line2d_8">
    <path d="M 117.39095 345.26 
L 117.39095 7.2 
" clip-path="url(#p5cb4e5dd43)" style="fill: none; stroke-dasharray: 7.4,3.2; stroke-dashoffset: 0; stroke: #000000; stroke-width: 2"/>
   </g>
   <g id="line2d_9">
    <path d="M 443.023872 345.26 
L 443.023872 7.2 
" clip-path="url(#p5cb4e5dd43)" style="fill: none; stroke-dasharray: 7.4,3.2; stroke-dashoffset: 0; stroke: #000000; stroke-width: 2"/>
   </g>
   <g id="line2d_10">
    <path d="M 494.876248 345.26 
L 494.876248 7.2 
" clip-path="url(#p5cb4e5dd43)" style="fill: none; stroke-dasharray: 7.4,3.2; stroke-dashoffset: 0; stroke: #000000; stroke-width: 2"/>
   </g>
   <g id="line2d_11">
    <path d="M 509.394913 345.26 
L 509.394913 7.2 
" clip-path="url(#p5cb4e5dd43)" style="fill: none; stroke-dasharray: 7.4,3.2; stroke-dashoffset: 0; stroke: #000000; stroke-width: 2"/>
   </g>
   <g id="line2d_12">
    <path d="M 532.209959 345.26 
L 532.209959 7.2 
" clip-path="url(#p5cb4e5dd43)" style="fill: none; stroke-dasharray: 7.4,3.2; stroke-dashoffset: 0; stroke: #000000; stroke-width: 2"/>
   </g>
   <g id="line2d_13"/>
   <g id="line2d_14"/>
   <g id="patch_3">
    <path d="M 96.65 345.26 
L 96.65 7.2 
" style="fill: none; stroke: #000000; stroke-linejoin: miter; stroke-linecap: square"/>
   </g>
   <g id="patch_4">
    <path d="M 552.950909 345.26 
L 552.950909 7.2 
" style="fill: none; stroke: #000000; stroke-linejoin: miter; stroke-linecap: square"/>
   </g>
   <g id="patch_5">
    <path d="M 96.65 345.26 
L 552.950909 345.26 
" style="fill: none; stroke: #000000; stroke-linejoin: miter; stroke-linecap: square"/>
   </g>
   <g id="patch_6">
    <path d="M 96.65 7.2 
L 552.950909 7.2 
" style="fill: none; stroke: #000000; stroke-linejoin: miter; stroke-linecap: square"/>
   </g>
   <g id="legend_1">
    <g id="line2d_15">
     <g>
      <use xlink:href="#m85d65e0b03" x="149.85" y="222.239375" style="fill: #1b9e77; stroke: #1b9e77; stroke-width: 2"/>
     </g>
    </g>
    <g id="text_9">
     <!-- Predictions -->
     <g transform="translate(200.25 232.039375) scale(0.28 -0.28)">
      <defs>
       <path id="DejaVuSans-50" d="M 1259 4147 
L 1259 2394 
L 2053 2394 
Q 2494 2394 2734 2622 
Q 2975 2850 2975 3272 
Q 2975 3691 2734 3919 
Q 2494 4147 2053 4147 
L 1259 4147 
z
M 628 4666 
L 2053 4666 
Q 2838 4666 3239 4311 
Q 3641 3956 3641 3272 
Q 3641 2581 3239 2228 
Q 2838 1875 2053 1875 
L 1259 1875 
L 1259 0 
L 628 0 
L 628 4666 
z
" transform="scale(0.015625)"/>
       <path id="DejaVuSans-72" d="M 2631 2963 
Q 2534 3019 2420 3045 
Q 2306 3072 2169 3072 
Q 1681 3072 1420 2755 
Q 1159 2438 1159 1844 
L 1159 0 
L 581 0 
L 581 3500 
L 1159 3500 
L 1159 2956 
Q 1341 3275 1631 3429 
Q 1922 3584 2338 3584 
Q 2397 3584 2469 3576 
Q 2541 3569 2628 3553 
L 2631 2963 
z
" transform="scale(0.015625)"/>
       <path id="DejaVuSans-64" d="M 2906 2969 
L 2906 4863 
L 3481 4863 
L 3481 0 
L 2906 0 
L 2906 525 
Q 2725 213 2448 61 
Q 2172 -91 1784 -91 
Q 1150 -91 751 415 
Q 353 922 353 1747 
Q 353 2572 751 3078 
Q 1150 3584 1784 3584 
Q 2172 3584 2448 3432 
Q 2725 3281 2906 2969 
z
M 947 1747 
Q 947 1113 1208 752 
Q 1469 391 1925 391 
Q 2381 391 2643 752 
Q 2906 1113 2906 1747 
Q 2906 2381 2643 2742 
Q 2381 3103 1925 3103 
Q 1469 3103 1208 2742 
Q 947 2381 947 1747 
z
" transform="scale(0.015625)"/>
       <path id="DejaVuSans-63" d="M 3122 3366 
L 3122 2828 
Q 2878 2963 2633 3030 
Q 2388 3097 2138 3097 
Q 1578 3097 1268 2742 
Q 959 2388 959 1747 
Q 959 1106 1268 751 
Q 1578 397 2138 397 
Q 2388 397 2633 464 
Q 2878 531 3122 666 
L 3122 134 
Q 2881 22 2623 -34 
Q 2366 -91 2075 -91 
Q 1284 -91 818 406 
Q 353 903 353 1747 
Q 353 2603 823 3093 
Q 1294 3584 2113 3584 
Q 2378 3584 2631 3529 
Q 2884 3475 3122 3366 
z
" transform="scale(0.015625)"/>
       <path id="DejaVuSans-74" d="M 1172 4494 
L 1172 3500 
L 2356 3500 
L 2356 3053 
L 1172 3053 
L 1172 1153 
Q 1172 725 1289 603 
Q 1406 481 1766 481 
L 2356 481 
L 2356 0 
L 1766 0 
Q 1100 0 847 248 
Q 594 497 594 1153 
L 594 3053 
L 172 3053 
L 172 3500 
L 594 3500 
L 594 4494 
L 1172 4494 
z
" transform="scale(0.015625)"/>
       <path id="DejaVuSans-6f" d="M 1959 3097 
Q 1497 3097 1228 2736 
Q 959 2375 959 1747 
Q 959 1119 1226 758 
Q 1494 397 1959 397 
Q 2419 397 2687 759 
Q 2956 1122 2956 1747 
Q 2956 2369 2687 2733 
Q 2419 3097 1959 3097 
z
M 1959 3584 
Q 2709 3584 3137 3096 
Q 3566 2609 3566 1747 
Q 3566 888 3137 398 
Q 2709 -91 1959 -91 
Q 1206 -91 779 398 
Q 353 888 353 1747 
Q 353 2609 779 3096 
Q 1206 3584 1959 3584 
z
" transform="scale(0.015625)"/>
       <path id="DejaVuSans-6e" d="M 3513 2113 
L 3513 0 
L 2938 0 
L 2938 2094 
Q 2938 2591 2744 2837 
Q 2550 3084 2163 3084 
Q 1697 3084 1428 2787 
Q 1159 2491 1159 1978 
L 1159 0 
L 581 0 
L 581 3500 
L 1159 3500 
L 1159 2956 
Q 1366 3272 1645 3428 
Q 1925 3584 2291 3584 
Q 2894 3584 3203 3211 
Q 3513 2838 3513 2113 
z
" transform="scale(0.015625)"/>
       <path id="DejaVuSans-73" d="M 2834 3397 
L 2834 2853 
Q 2591 2978 2328 3040 
Q 2066 3103 1784 3103 
Q 1356 3103 1142 2972 
Q 928 2841 928 2578 
Q 928 2378 1081 2264 
Q 1234 2150 1697 2047 
L 1894 2003 
Q 2506 1872 2764 1633 
Q 3022 1394 3022 966 
Q 3022 478 2636 193 
Q 2250 -91 1575 -91 
Q 1294 -91 989 -36 
Q 684 19 347 128 
L 347 722 
Q 666 556 975 473 
Q 1284 391 1588 391 
Q 1994 391 2212 530 
Q 2431 669 2431 922 
Q 2431 1156 2273 1281 
Q 2116 1406 1581 1522 
L 1381 1569 
Q 847 1681 609 1914 
Q 372 2147 372 2553 
Q 372 3047 722 3315 
Q 1072 3584 1716 3584 
Q 2034 3584 2315 3537 
Q 2597 3491 2834 3397 
z
" transform="scale(0.015625)"/>
      </defs>
      <use xlink:href="#DejaVuSans-50"/>
      <use xlink:href="#DejaVuSans-72" x="58.552734"/>
      <use xlink:href="#DejaVuSans-65" x="97.416016"/>
      <use xlink:href="#DejaVuSans-64" x="158.939453"/>
      <use xlink:href="#DejaVuSans-69" x="222.416016"/>
      <use xlink:href="#DejaVuSans-63" x="250.199219"/>
      <use xlink:href="#DejaVuSans-74" x="305.179688"/>
      <use xlink:href="#DejaVuSans-69" x="344.388672"/>
      <use xlink:href="#DejaVuSans-6f" x="372.171875"/>
      <use xlink:href="#DejaVuSans-6e" x="433.353516"/>
      <use xlink:href="#DejaVuSans-73" x="496.732422"/>
     </g>
    </g>
    <g id="line2d_16">
     <path d="M 121.85 263.338125 
L 149.85 263.338125 
L 177.85 263.338125 
" style="fill: none; stroke: #000000; stroke-width: 2; stroke-linecap: square"/>
    </g>
    <g id="text_10">
     <!-- Ground Truth -->
     <g transform="translate(200.25 273.138125) scale(0.28 -0.28)">
      <defs>
       <path id="DejaVuSans-47" d="M 3809 666 
L 3809 1919 
L 2778 1919 
L 2778 2438 
L 4434 2438 
L 4434 434 
Q 4069 175 3628 42 
Q 3188 -91 2688 -91 
Q 1594 -91 976 548 
Q 359 1188 359 2328 
Q 359 3472 976 4111 
Q 1594 4750 2688 4750 
Q 3144 4750 3555 4637 
Q 3966 4525 4313 4306 
L 4313 3634 
Q 3963 3931 3569 4081 
Q 3175 4231 2741 4231 
Q 1884 4231 1454 3753 
Q 1025 3275 1025 2328 
Q 1025 1384 1454 906 
Q 1884 428 2741 428 
Q 3075 428 3337 486 
Q 3600 544 3809 666 
z
" transform="scale(0.015625)"/>
       <path id="DejaVuSans-75" d="M 544 1381 
L 544 3500 
L 1119 3500 
L 1119 1403 
Q 1119 906 1312 657 
Q 1506 409 1894 409 
Q 2359 409 2629 706 
Q 2900 1003 2900 1516 
L 2900 3500 
L 3475 3500 
L 3475 0 
L 2900 0 
L 2900 538 
Q 2691 219 2414 64 
Q 2138 -91 1772 -91 
Q 1169 -91 856 284 
Q 544 659 544 1381 
z
M 1991 3584 
L 1991 3584 
z
" transform="scale(0.015625)"/>
       <path id="DejaVuSans-20" transform="scale(0.015625)"/>
       <path id="DejaVuSans-68" d="M 3513 2113 
L 3513 0 
L 2938 0 
L 2938 2094 
Q 2938 2591 2744 2837 
Q 2550 3084 2163 3084 
Q 1697 3084 1428 2787 
Q 1159 2491 1159 1978 
L 1159 0 
L 581 0 
L 581 4863 
L 1159 4863 
L 1159 2956 
Q 1366 3272 1645 3428 
Q 1925 3584 2291 3584 
Q 2894 3584 3203 3211 
Q 3513 2838 3513 2113 
z
" transform="scale(0.015625)"/>
      </defs>
      <use xlink:href="#DejaVuSans-47"/>
      <use xlink:href="#DejaVuSans-72" x="77.490234"/>
      <use xlink:href="#DejaVuSans-6f" x="116.353516"/>
      <use xlink:href="#DejaVuSans-75" x="177.535156"/>
      <use xlink:href="#DejaVuSans-6e" x="240.914062"/>
      <use xlink:href="#DejaVuSans-64" x="304.292969"/>
      <use xlink:href="#DejaVuSans-20" x="367.769531"/>
      <use xlink:href="#DejaVuSans-54" x="399.556641"/>
      <use xlink:href="#DejaVuSans-72" x="445.890625"/>
      <use xlink:href="#DejaVuSans-75" x="487.003906"/>
      <use xlink:href="#DejaVuSans-74" x="550.382812"/>
      <use xlink:href="#DejaVuSans-68" x="589.591797"/>
     </g>
    </g>
    <g id="line2d_17">
     <path d="M 121.85 304.436875 
L 149.85 304.436875 
L 177.85 304.436875 
" style="fill: none; stroke-dasharray: 7.4,3.2; stroke-dashoffset: 0; stroke: #000000; stroke-width: 2"/>
    </g>
    <g id="text_11">
     <!-- Predicted CPs -->
     <g transform="translate(200.25 314.236875) scale(0.28 -0.28)">
      <defs>
       <path id="DejaVuSans-43" d="M 4122 4306 
L 4122 3641 
Q 3803 3938 3442 4084 
Q 3081 4231 2675 4231 
Q 1875 4231 1450 3742 
Q 1025 3253 1025 2328 
Q 1025 1406 1450 917 
Q 1875 428 2675 428 
Q 3081 428 3442 575 
Q 3803 722 4122 1019 
L 4122 359 
Q 3791 134 3420 21 
Q 3050 -91 2638 -91 
Q 1578 -91 968 557 
Q 359 1206 359 2328 
Q 359 3453 968 4101 
Q 1578 4750 2638 4750 
Q 3056 4750 3426 4639 
Q 3797 4528 4122 4306 
z
" transform="scale(0.015625)"/>
      </defs>
      <use xlink:href="#DejaVuSans-50"/>
      <use xlink:href="#DejaVuSans-72" x="58.552734"/>
      <use xlink:href="#DejaVuSans-65" x="97.416016"/>
      <use xlink:href="#DejaVuSans-64" x="158.939453"/>
      <use xlink:href="#DejaVuSans-69" x="222.416016"/>
      <use xlink:href="#DejaVuSans-63" x="250.199219"/>
      <use xlink:href="#DejaVuSans-74" x="305.179688"/>
      <use xlink:href="#DejaVuSans-65" x="344.388672"/>
      <use xlink:href="#DejaVuSans-64" x="405.912109"/>
      <use xlink:href="#DejaVuSans-20" x="469.388672"/>
      <use xlink:href="#DejaVuSans-43" x="501.175781"/>
      <use xlink:href="#DejaVuSans-50" x="571"/>
      <use xlink:href="#DejaVuSans-73" x="629.552734"/>
     </g>
    </g>
   </g>
  </g>
 </g>
 <defs>
  <clipPath id="p5cb4e5dd43">
   <rect x="96.65" y="7.2" width="456.300909" height="338.06"/>
  </clipPath>
 </defs>
</svg>
